<svg xmlns="http://www.w3.org/2000/svg" xmlns:svg="http://www.w3.org/2000/svg" width="45.602448" height="69.349335" viewBox="0 0 45.602447 69.349333" version="1.1" id="svg1" xml:space="preserve" xmlns:sodipodi="http://sodipodi.sourceforge.net/DTD/sodipodi-0.dtd" sodipodi:docname="porto_tooth_26.svg" xmlns:inkscape="http://www.inkscape.org/namespaces/inkscape" inkscape:version="1.4 (86a8ad7, 2024-10-11)">
  <g id="tooth_26_root">
    <path id="tooth_26_root_2" style="fill:#ffdf5d;fill-opacity:1;stroke:#000000;stroke-width:0.999999;stroke-dasharray:none" d="m 26.823128,1.254724 c 0.612339,-0.03228 1.436317,0.375127 2.178335,1.179214 0.711421,0.770932 1.354823,1.909114 2.439024,3.339812 -0.0493,0.201695 -0.09749,0.381269 -0.148129,0.593487 -0.54585,2.287829 -1.188247,5.179721 -2.046016,8.099333 -0.857765,2.919617 -1.931262,5.867025 -2.974227,7.800658 -1.042961,1.933625 -2.056648,2.853861 -3.021623,3.217617 -0.96498,0.363681 -1.880743,0.172645 -2.835985,-0.717603 -0.464841,-0.433227 -0.939588,-1.035008 -1.423916,-1.794046 0.290832,-0.626251 0.600817,-1.305234 0.945986,-2.160593 1.042957,-2.584554 2.271523,-6.546804 3.20727,-9.74403 0.935743,-3.197222 1.580116,-5.627949 2.047988,-7.226564 0.467876,-1.598611 0.758619,-2.364671 1.382443,-2.546556 0.07796,-0.02289 0.161352,-0.03603 0.248831,-0.04072 z"/>
    <path id="tooth_26_root_1" style="fill:#fff5d0;fill-opacity:1;stroke:#000000;stroke-width:0.999999;stroke-dasharray:none" d="m 34.995337,0.502197 c 0.230449,0.01051 0.456571,0.05532 0.673449,0.131886 0.867515,0.306295 1.569221,1.110566 2.261281,2.240119 0.692061,1.129553 1.375235,2.584892 1.8821,4.480238 0.506861,1.895347 0.838825,4.229689 1.102002,6.431368 0.263163,2.201679 0.457477,4.269228 0.554953,6.528346 0.09749,2.259106 0.09692,4.710141 0.106664,7.017093 0.0095,2.306989 0.02904,4.471508 -0.02981,6.328569 -0.05851,1.857061 -0.194372,3.407076 -0.106664,4.84292 0.07273,1.190426 0.287965,2.210946 0.452257,2.932528 -0.09375,-0.239452 -0.282539,-0.72237 -0.315979,-0.806816 -0.06822,-0.17227 -0.06803,-0.171894 -1.344917,-0.574082 -1.276888,-0.402076 -3.830777,-1.206752 -6.81347,-1.82895 -2.982695,-0.622236 -6.394553,-1.062556 -9.55268,-1.186973 -3.158131,-0.124605 -6.061488,0.06718 -9.12215,0.612853 -3.060663,0.545671 -6.276937,1.444326 -8.310456,2.212972 -1.739802,0.657628 -2.611421,1.223416 -3.24874,2.139261 C 2.968513,40.914889 3.0644,39.927621 3.200758,37.938375 3.376212,35.382514 3.609692,31.170274 3.619445,27.216813 3.629345,23.26339 3.415022,19.569254 3.337021,16.439041 3.259061,13.308824 3.318291,10.742146 3.552297,8.61705 3.786224,6.491954 4.195604,4.808713 5.063107,3.535572 5.930614,2.262427 7.256652,1.399441 8.270378,1.341999 c 1.013721,-0.05742 1.714598,0.690258 2.650337,2.604746 0.935744,1.914484 2.106201,4.996346 3.236893,7.982967 1.130688,2.986618 2.221573,5.876821 3.264538,8.11679 1.042965,2.23998 2.03676,3.830492 2.992002,4.72074 0.955241,0.890248 1.871005,1.081359 2.835984,0.717603 0.964976,-0.363681 1.978663,-1.283992 3.021624,-3.217617 1.042965,-1.933633 2.116461,-4.881041 2.974227,-7.800658 0.857769,-2.919612 1.500166,-5.811504 2.046016,-8.099333 0.545853,-2.287833 0.995159,-3.970751 1.735954,-4.908867 0.555599,-0.703585 1.275729,-0.987579 1.967017,-0.956173 z"/>
  </g>
  <path style="display:inline;fill:#ffffff;fill-opacity:1;stroke:#000000;stroke-width:0.999999;stroke-dasharray:none" d="m 40.231044,40.053427 c -1.276883,-0.402038 -3.83065,-1.206151 -6.813343,-1.828349 -2.982696,-0.622198 -6.394152,-1.062518 -9.552279,-1.186935 -3.158127,-0.124605 -6.062745,0.06681 -9.123408,0.612627 -3.060662,0.545634 -6.2771769,1.445415 -8.3106959,2.214061 -2.033523,0.768646 -2.883939,1.406082 -3.556501,2.631374 -0.672562,1.225293 -1.167232,3.038292 -1.502303,4.978672 -0.335087,1.940381 -0.51051804,4.007994 -0.66647804,6.066074 -0.155963,2.05808 -0.292436,4.106551 -0.136473,5.791305 0.155964,1.684753 0.60432204,3.005714 1.21840804,4.183153 0.614082,1.177402 1.393832,2.211171 2.271099,3.072708 0.877264,0.861537 1.851962,1.550728 3.577249,1.924055 1.725292,0.373438 4.2010309,0.430749 6.1504959,0.19141 1.949461,-0.239451 3.37252,-0.775364 4.844368,-1.14869 1.471844,-0.373439 2.99238,-0.583916 4.347257,-0.497743 1.354873,0.08595 2.544018,0.469031 4.045102,0.842358 1.50108,0.373439 3.314037,0.737044 5.166029,0.823217 1.851992,0.08595 3.742924,-0.105464 5.263502,-0.488211 1.520578,-0.382897 2.670742,-0.957204 3.703958,-1.866631 1.033216,-0.909389 1.949419,-2.153748 2.573242,-3.417322 0.623828,-1.263575 0.955227,-2.546253 1.159921,-4.412922 0.20469,-1.866631 0.282653,-4.317103 0.136473,-6.298619 -0.146218,-1.981478 -0.516602,-3.493886 -1.072201,-5.207389 -0.555599,-1.713465 -1.296374,-3.627912 -1.734987,-4.757424 -0.438617,-1.129512 -0.575093,-1.474164 -0.643326,-1.646471 -0.06822,-0.17227 -0.06822,-0.17227 -1.345112,-0.574345 z" id="tooth_26_crown"/>
  	 <g id="tooth_26_implant">
  <path id="tooth_26_implant-1" style="fill:#9a9a9a;fill-opacity:1;stroke:#000000;stroke-width:0.731885;stroke-dasharray:none" d="m 22.70752,0.64797354 c 0.217063,-0.005711 0.445117,0.0747848 0.953501,0.40037356 0.508383,0.3255939 1.296604,0.8965699 2.016342,1.5934573 0.719738,0.6968875 1.371698,1.5191286 1.742994,2.1417619 0.371296,0.6226318 0.462239,1.0461439 0.519361,1.5773771 0.05712,0.5312346 0.07888,1.1714441 0.181696,3.0164752 0.102819,1.8450294 0.28677,4.8939314 0.520969,9.6121964 0.2342,4.718265 0.519965,11.188478 0.805573,17.57466 H 15.944571 c 0.194214,-4.181293 0.388068,-8.548751 0.622269,-13.48409 0.2342,-4.935337 0.507347,-10.623862 0.66729,-13.7027664 0.159943,-3.0789051 0.205779,-3.5485435 0.371431,-3.9940956 0.165654,-0.4455521 0.451772,-0.8683924 1.217203,-1.6223998 0.76543,-0.7540081 2.011239,-1.8380022 2.736695,-2.4263635 0.725453,-0.58836341 0.930997,-0.680873 1.148061,-0.68658616 z M 40.586438,36.564275 42.265293,41.86895 H 3.31613 l 1.3900477,-5.304675 z"/>
  <path id="tooth_26_implant-2" style="fill:#656565;fill-opacity:1;stroke:#000000;stroke-width:0.731885;stroke-dasharray:none" d="m 18.769955,3.1849601 c 0.144134,-0.00358 0.237721,0.014879 0.226719,0.067531 -0.02934,0.1404261 -0.685022,0.4654272 0.71392,0.873105 1.398941,0.4076785 5.021567,0.8152523 6.931779,1.0580173 1.910213,0.2427642 2.108694,0.3202855 2.262356,0.4791632 0.153661,0.1588777 0.262224,0.3991549 0.311938,0.6013647 0.04972,0.2022097 0.03984,0.3670251 -0.03698,0.5836786 -0.07683,0.216652 -0.221407,0.4841898 -0.405198,0.709096 -0.18379,0.224908 -0.406478,0.4062414 -0.520968,0.350529 C 28.139027,7.8517233 28.133769,7.5595476 27.07169,7.256233 26.009611,6.9529184 23.890526,6.6398676 22.185195,6.3654406 20.479864,6.0910143 19.187031,5.8542398 18.432289,5.6788552 17.677548,5.50347 17.461299,5.3892812 17.297092,5.1932611 17.132886,4.997241 17.021021,4.7200298 17.00445,4.4600458 16.98788,4.200061 17.06683,3.9564018 17.181322,3.7686358 17.295814,3.5808714 17.446511,3.4485413 17.879163,3.3312794 18.14957,3.2579924 18.529732,3.1909989 18.769955,3.1849579 Z m -1.524316,3.952289 c 0.03066,-0.00285 0.05933,0.00352 0.08361,0.022506 0.09712,0.075896 0.136507,0.3497541 2.01795,0.7476868 1.881443,0.3979323 5.604585,0.9193296 7.574952,1.2188097 1.970368,0.2994793 2.187716,0.3774974 2.355615,0.5354396 0.1679,0.1579437 0.286561,0.3955228 0.340881,0.5965428 0.05432,0.201019 0.04375,0.365085 -0.04019,0.580461 -0.08395,0.215377 -0.241359,0.482298 -0.44218,0.705882 -0.20082,0.223582 -0.445713,0.404305 -0.570814,0.34892 C 28.44036,11.838111 28.434787,11.54703 27.274294,11.245502 26.113801,10.943973 23.799321,10.632343 21.935971,10.359533 20.072621,10.086721 18.66043,9.8521239 17.835753,9.6777706 17.011076,9.5034181 16.773854,9.3886503 16.594432,9.1937844 16.415011,8.9989179 16.29256,8.7238465 16.274454,8.4653923 c -0.0181,-0.2584534 0.06785,-0.4999254 0.192951,-0.6865853 0.125101,-0.1866603 0.29055,-0.3182204 0.450219,-0.4453964 0.119752,-0.095381 0.236045,-0.1876123 0.328018,-0.1961673 z m -0.122203,4.1452399 c 0.04718,-0.0033 0.08548,0.0019 0.110947,0.0209 0.101873,0.07563 -0.0038,0.353812 1.895748,0.75251 1.899556,0.398697 5.804014,0.91876 7.87081,1.217202 2.066798,0.298442 2.29527,0.376437 2.471387,0.533832 0.176117,0.157397 0.299981,0.394611 0.35696,0.594934 0.05698,0.200323 0.04786,0.362616 -0.04019,0.577247 -0.08806,0.214631 -0.254043,0.481464 -0.464692,0.704273 -0.210649,0.222808 -0.466927,0.402505 -0.598149,0.347312 -0.131224,-0.05519 -0.138197,-0.345903 -1.355484,-0.646388 -1.217287,-0.300484 -3.644265,-0.610886 -5.598807,-0.882753 -1.954543,-0.271866 -3.436173,-0.504796 -4.30121,-0.678545 -0.865036,-0.173749 -1.11422,-0.288188 -1.302422,-0.48238 -0.188202,-0.19419 -0.315458,-0.469225 -0.334449,-0.726783 -0.01899,-0.257558 0.07138,-0.497357 0.202599,-0.683369 0.131225,-0.186014 0.303638,-0.318126 0.545087,-0.447005 0.181088,-0.09666 0.400329,-0.191159 0.541872,-0.20099 z m -0.205815,3.989271 c 0.04599,2.11e-4 0.08326,0.0085 0.10934,0.02734 0.104309,0.0755 0.01812,0.318597 1.974535,0.69945 1.956416,0.380851 5.955563,0.899986 8.071802,1.197906 2.116239,0.29792 2.348943,0.375104 2.529273,0.532225 0.18033,0.15712 0.308264,0.393352 0.366607,0.593325 0.05835,0.199972 0.04835,0.362992 -0.04181,0.577247 -0.09016,0.214254 -0.26026,0.480245 -0.475947,0.702664 -0.215688,0.222419 -0.47826,0.402409 -0.612621,0.347312 -0.134361,-0.05509 -0.141234,-0.34482 -1.387642,-0.644778 -1.246408,-0.29996 -3.730966,-0.611363 -5.732266,-0.882754 -2.001299,-0.27139 -3.518385,-0.503493 -4.404117,-0.676937 -0.885729,-0.173445 -1.140267,-0.28692 -1.332972,-0.480771 -0.192704,-0.193851 -0.32465,-0.468069 -0.344097,-0.725175 -0.01945,-0.257109 0.07306,-0.497683 0.207423,-0.68337 0.134364,-0.185688 0.310887,-0.316204 0.546697,-0.427709 0.176855,-0.08363 0.387819,-0.156604 0.525791,-0.155969 z m -0.284603,4.133985 c 0.04421,-0.0018 0.08075,0.0069 0.107732,0.02573 0.107962,0.0753 0.05185,0.33731 2.093522,0.726784 2.041663,0.389473 6.180514,0.905582 8.370877,1.20273 2.190362,0.297149 2.432669,0.373903 2.619315,0.530617 0.186647,0.156713 0.317478,0.393871 0.377863,0.593325 0.06039,0.199455 0.04991,0.361939 -0.04342,0.575639 -0.09332,0.213699 -0.268783,0.477606 -0.492027,0.699448 -0.223241,0.221842 -0.494454,0.402268 -0.633523,0.347313 -0.139068,-0.05495 -0.145816,-0.34399 -1.43588,-0.643171 -1.290065,-0.299181 -3.863468,-0.60885 -5.934865,-0.879538 -2.071397,-0.270687 -3.640116,-0.502334 -4.556869,-0.675329 -0.916754,-0.172995 -1.181758,-0.287422 -1.381211,-0.480771 -0.199454,-0.193349 -0.333617,-0.467126 -0.353744,-0.723568 -0.02013,-0.25644 0.07479,-0.496554 0.213854,-0.681762 0.13907,-0.185207 0.322568,-0.314922 0.549912,-0.435748 0.170508,-0.09062 0.365843,-0.176473 0.498457,-0.181696 z m -0.215462,3.90405 c 0.03481,-0.0028 0.06569,0.0037 0.09326,0.02251 0.110275,0.07518 0.154971,0.348671 2.291299,0.742864 2.136326,0.394193 6.365119,0.909279 8.602418,1.205947 2.237297,0.296665 2.483339,0.374157 2.673985,0.530616 0.190646,0.156459 0.325831,0.392587 0.38751,0.591718 0.06169,0.199131 0.0503,0.360676 -0.04502,0.574031 -0.09532,0.213353 -0.275255,0.477965 -0.503281,0.699448 -0.228027,0.221482 -0.50434,0.40057 -0.646387,0.345705 -0.142049,-0.05486 -0.148723,-0.342868 -1.466431,-0.641564 -1.317708,-0.298697 -3.946107,-0.607681 -6.061889,-0.877929 -2.115784,-0.270248 -3.720164,-0.502616 -4.656562,-0.67533 -0.936398,-0.172715 -1.204818,-0.286127 -1.408546,-0.479163 -0.203728,-0.193035 -0.342833,-0.465935 -0.363392,-0.721959 -0.02056,-0.256026 0.07663,-0.495248 0.218679,-0.680155 0.14205,-0.184906 0.330021,-0.314592 0.511322,-0.440572 0.135973,-0.09449 0.268606,-0.187692 0.373039,-0.196167 z m -0.130243,4.093787 c 0.03554,-0.0028 0.06833,0.0037 0.09648,0.02251 0.112587,0.07507 0.158405,0.346087 2.339536,0.739647 2.181131,0.393559 6.496678,0.909757 8.780898,1.205946 2.284221,0.29619 2.535619,0.372802 2.730263,0.529009 0.194645,0.156207 0.332577,0.391299 0.395551,0.59011 0.06297,0.198811 0.0523,0.36102 -0.04502,0.574031 -0.09732,0.213011 -0.281729,0.476714 -0.514538,0.69784 -0.232808,0.221126 -0.514224,0.400481 -0.65925,0.345704 -0.145028,-0.05478 -0.153246,-0.343346 -1.498589,-0.641562 -1.345345,-0.298216 -4.028761,-0.606508 -6.188918,-0.876322 -2.160157,-0.269813 -3.796999,-0.501284 -4.753036,-0.673722 -0.956037,-0.172437 -1.231095,-0.286437 -1.439096,-0.479162 -0.208001,-0.192725 -0.348834,-0.46474 -0.369824,-0.720352 -0.02099,-0.255613 0.07847,-0.493937 0.223502,-0.678546 0.145029,-0.18461 0.335867,-0.314794 0.520969,-0.440573 0.138828,-0.09433 0.274457,-0.186097 0.381079,-0.194559 z m -0.276563,4.08253 c 0.0497,-0.0022 0.09081,0.0054 0.120594,0.02412 0.119156,0.07473 0.04888,0.339278 2.29773,0.728391 2.248852,0.389113 6.816888,0.90144 9.234334,1.196299 2.417447,0.294859 2.683451,0.371894 2.889447,0.527401 0.205998,0.155505 0.351415,0.390583 0.418062,0.588501 0.06664,0.197918 0.05476,0.358761 -0.04824,0.570815 -0.102996,0.212054 -0.297092,0.474491 -0.54348,0.694625 -0.246386,0.220133 -0.544354,0.398628 -0.69784,0.344096 -0.153487,-0.05453 -0.161607,-0.34147 -1.585418,-0.638347 -1.42381,-0.296878 -4.264553,-0.604503 -6.550701,-0.873106 -2.286147,-0.268602 -4.017804,-0.498842 -5.0296,-0.670506 -1.011798,-0.171662 -1.302577,-0.284087 -1.522709,-0.475946 -0.220132,-0.19186 -0.37012,-0.46267 -0.392335,-0.717136 -0.02222,-0.254466 0.08288,-0.493159 0.236366,-0.676939 0.153488,-0.18378 0.355622,-0.313215 0.611013,-0.435748 0.191543,-0.0919 0.41368,-0.179729 0.562775,-0.18652 z"/>
</g>
</svg>