<?xml version="1.0" encoding="UTF-8" standalone="no"?>
<svg
   width="44.474358"
   height="78.615883"
   viewBox="0 0 44.474357 78.615882"
   version="1.1"
   id="svg1"
   xml:space="preserve"
   xmlns="http://www.w3.org/2000/svg"
   xmlns:svg="http://www.w3.org/2000/svg"><defs
     id="defs1" /><path
     id="tooth_47_root"
     style="fill:#fff5d0;fill-opacity:1;stroke:#000000;stroke-width:1;stroke-dasharray:none"
     d="m 3.6697856,30.283842 c 0.4855589,2.840014 0.4852673,6.406301 0.5661963,10.645724 0.080922,4.239424 0.2426149,9.151375 0.6067766,13.088939 0.3641842,3.937564 0.9317005,6.90112 1.7005221,9.590204 0.7688216,2.689046 1.7404854,5.10282 2.8734912,7.201954 1.1330092,2.099133 2.4274062,3.8826 3.1826792,4.760679 0.755274,0.878116 0.971156,0.850463 1.348824,0.630991 0.377665,-0.219472 0.917087,-0.630801 1.30824,-1.934168 0.391153,-1.303405 0.634261,-3.499153 0.782628,-6.366591 0.148381,-2.867438 0.201929,-6.406681 0.539141,-9.411317 0.337223,-3.004637 0.956474,-5.473602 1.603899,-7.312032 0.647428,-1.838468 1.323635,-3.04507 1.971059,-3.840799 0.647424,-0.795728 1.267708,-1.180888 1.955597,-1.029958 0.687892,0.151005 1.443286,0.838063 2.036761,1.77099 0.593476,0.932966 1.023564,2.112675 1.482158,4.047186 0.458593,1.934511 0.945801,4.6231 1.242541,8.053064 0.296725,3.429963 0.403908,7.599779 0.4174,10.590685 0.01346,2.990867 -0.06697,4.803166 0.162329,5.900754 0.229303,1.09755 0.767446,1.479972 1.536267,1.438816 0.768818,-0.04108 1.768049,-0.50722 3.076394,-2.592623 1.308348,-2.08544 2.927115,-5.789154 4.100574,-9.356278 1.173459,-3.567162 1.900881,-6.997202 2.359475,-11.661952 0.45859,-4.66475 0.648019,-10.563717 0.877314,-14.857989 0.229302,-4.294273 0.497985,-6.984231 0.970067,-9.193101 0.26565,-1.242927 0.592765,-2.331653 0.803883,-3.402463 -0.475826,1.077999 -1.070629,2.014007 -1.882166,2.743971 -1.632071,1.468028 -4.140477,2.100313 -7.269728,2.470752 -3.129246,0.370478 -6.878989,0.479758 -8.753814,0.534645 -1.874825,0.05477 -1.874047,0.05477 -3.748876,-0.01522 -1.874829,-0.06847 -5.626094,-0.205779 -8.606952,-0.672261 C 2.4047962,32.068032 1.070975,18.252553 3.6697856,30.283842 Z" /><path
     style="fill:#ffffff;fill-opacity:1;stroke:#000000;stroke-width:1;stroke-dasharray:none"
     d="M 19.518453,32.779851 C 17.643625,32.711385 13.893982,32.574072 10.913124,32.10759 7.9322623,31.641107 5.7202857,30.845379 4.101721,28.622777 2.4831525,26.400176 1.4580857,22.750817 0.93205476,19.183655 0.40602384,15.616531 0.37904751,12.131832 0.72975099,9.511367 1.0804358,6.8908635 1.8087817,5.1347831 2.8878273,3.831416 3.9668767,2.5280489 5.3965772,1.6774331 7.2849165,1.1697947 9.1732557,0.66219436 11.520118,0.49753329 13.44891,0.70335012 c 1.928789,0.20577879 3.439411,0.78203548 4.720764,1.19363108 1.281353,0.4115576 2.333419,0.6585302 3.641775,0.6173364 1.308355,-0.04108 2.8729,-0.3704779 4.815192,-0.80946 1.942288,-0.4390201 4.26217,-0.98777621 6.433749,-1.15243728 2.17158,-0.16469911 4.194748,0.0547729 5.975175,1.20736238 1.780422,1.1524753 3.318006,3.2378018 4.140776,5.5976395 0.822767,2.3597997 0.930672,4.9939208 0.687886,7.7653158 -0.242802,2.771395 -0.836237,5.679875 -1.510641,8.286647 -0.674405,2.606734 -1.429723,4.911609 -3.061791,6.379599 -1.632072,1.468028 -4.140762,2.099096 -7.270012,2.469536 -3.12925,0.370478 -6.878822,0.480252 -8.75365,0.535177 -1.874825,0.05477 -1.874844,0.05477 -3.749672,-0.01522 z"
     id="tooth_47_crown" /></svg>
