<?xml version="1.0" encoding="UTF-8" standalone="no"?>
<svg
   width="28.420494"
   height="82.826309"
   viewBox="0 0 28.420494 82.82631"
   version="1.1"
   id="svg1"
   xml:space="preserve"
   xmlns="http://www.w3.org/2000/svg"
   xmlns:svg="http://www.w3.org/2000/svg"><defs
     id="defs1" /><path
     id="tooth_15_root"
     style="fill:#fff5d0;fill-opacity:1;stroke:#000000;stroke-width:0.999999;stroke-dasharray:none"
     d="m 14.926537,0.53506416 c 2.409448,0.89732994 1.584787,3.97170564 2.122392,5.95095074 0.861816,6.9002131 2.292517,13.7059531 3.813903,20.4853551 1.139197,6.093387 1.615075,12.287594 2.63023,18.402043 0.310686,3.335106 1.196714,6.578534 2.59129,9.621817 0.385933,1.033825 1.115549,2.883441 -0.08237,1.096637 C 23.143899,53.56139 19.10937,53.023882 15.450475,52.620079 11.682051,52.321079 7.9074027,53.10293 4.3526657,54.296456 6.2595267,50.327761 5.9602737,45.808858 6.7043017,41.561228 8.2487967,30.55833 8.9565147,19.456946 10.50338,8.4562228 11.017869,5.6438685 11.486866,2.2384091 14.21914,0.68803337 l 0.362783,-0.12465401 0.344599,-0.0283912 z M 4.1682887,54.715081 c -0.273254,0.948401 -1.142391,3.254095 -1.249226,3.304859 0.264269,-1.152797 0.770907,-2.229609 1.249226,-3.304859 z" /><path
     style="fill:#ffffff;fill-opacity:1;stroke:#000000;stroke-width:0.999999;stroke-dasharray:none"
     d="m 5.4777967,53.921407 c 1.175525,-0.329683 3.526564,-0.989241 5.9155413,-1.24139 2.388981,-0.252111 4.815801,-0.09697 7.223745,0.349077 2.407945,0.446118 4.796852,1.183172 6.370541,2.230631 1.573685,1.047458 2.332067,2.405207 2.673348,4.519518 0.341287,2.114272 0.265425,4.984953 0.208556,7.642385 -0.05687,2.657395 -0.09482,5.101351 -0.815303,7.099226 -0.720492,1.997913 -2.123504,3.549632 -3.659277,4.694056 -1.535772,1.144424 -3.204228,1.881478 -5.081281,2.385814 -1.877049,0.504336 -3.96261,0.775878 -5.631103,0.717699 -1.668497,-0.05818 -2.9198243,-0.446119 -4.5314483,-1.028027 -1.611621,-0.581909 -3.583414,-1.357787 -4.91062,-2.463425 -1.327201,-1.105638 -2.00975,-2.540998 -2.38894303,-4.441907 -0.379197,-1.90091 -0.455033,-4.267293 -0.208557,-6.711363 0.246506,-2.444031 0.81527003,-4.96556 1.40303803,-6.944042 0.587764,-1.97852 1.194477,-3.413879 1.573678,-4.40312 0.3792,-0.989241 0.53088,-1.532364 0.606717,-1.803906 0.07583,-0.271504 0.07583,-0.271504 1.25135,-0.601302 z"
     id="tooth_15_crown" /></svg>
