<svg xmlns="http://www.w3.org/2000/svg" xmlns:svg="http://www.w3.org/2000/svg" width="28.420494" height="82.826309" viewBox="0 0 28.420494 82.82631" version="1.1" id="svg1" xml:space="preserve" xmlns:sodipodi="http://sodipodi.sourceforge.net/DTD/sodipodi-0.dtd" sodipodi:docname="porto_tooth_25.svg" xmlns:inkscape="http://www.inkscape.org/namespaces/inkscape" inkscape:version="1.4 (86a8ad7, 2024-10-11)">
  <path id="tooth_25_root" style="fill:#fff5d0;fill-opacity:1;stroke:#000000;stroke-width:0.999999;stroke-dasharray:none" d="m 14.926537,0.53506416 c 2.409448,0.89732994 1.584787,3.97170564 2.122392,5.95095074 0.861816,6.9002131 2.292517,13.7059531 3.813903,20.4853551 1.139197,6.093387 1.615075,12.287594 2.63023,18.402043 0.310686,3.335106 1.196714,6.578534 2.59129,9.621817 0.385933,1.033825 1.115549,2.883441 -0.08237,1.096637 C 23.143899,53.56139 19.10937,53.023882 15.450475,52.620079 11.682051,52.321079 7.9074027,53.10293 4.3526657,54.296456 6.2595267,50.327761 5.9602737,45.808858 6.7043017,41.561228 8.2487967,30.55833 8.9565147,19.456946 10.50338,8.4562228 11.017869,5.6438685 11.486866,2.2384091 14.21914,0.68803337 l 0.362783,-0.12465401 0.344599,-0.0283912 z M 4.1682887,54.715081 c -0.273254,0.948401 -1.142391,3.254095 -1.249226,3.304859 0.264269,-1.152797 0.770907,-2.229609 1.249226,-3.304859 z"/>
  <path style="fill:#ffffff;fill-opacity:1;stroke:#000000;stroke-width:0.999999;stroke-dasharray:none" d="m 5.4777967,53.921407 c 1.175525,-0.329683 3.526564,-0.989241 5.9155413,-1.24139 2.388981,-0.252111 4.815801,-0.09697 7.223745,0.349077 2.407945,0.446118 4.796852,1.183172 6.370541,2.230631 1.573685,1.047458 2.332067,2.405207 2.673348,4.519518 0.341287,2.114272 0.265425,4.984953 0.208556,7.642385 -0.05687,2.657395 -0.09482,5.101351 -0.815303,7.099226 -0.720492,1.997913 -2.123504,3.549632 -3.659277,4.694056 -1.535772,1.144424 -3.204228,1.881478 -5.081281,2.385814 -1.877049,0.504336 -3.96261,0.775878 -5.631103,0.717699 -1.668497,-0.05818 -2.9198243,-0.446119 -4.5314483,-1.028027 -1.611621,-0.581909 -3.583414,-1.357787 -4.91062,-2.463425 -1.327201,-1.105638 -2.00975,-2.540998 -2.38894303,-4.441907 -0.379197,-1.90091 -0.455033,-4.267293 -0.208557,-6.711363 0.246506,-2.444031 0.81527003,-4.96556 1.40303803,-6.944042 0.587764,-1.97852 1.194477,-3.413879 1.573678,-4.40312 0.3792,-0.989241 0.53088,-1.532364 0.606717,-1.803906 0.07583,-0.271504 0.07583,-0.271504 1.25135,-0.601302 z" id="tooth_25_crown"/>
  	 <g id="tooth_25_implant">
  <path id="tooth_25_implant-1" style="fill:#9a9a9a;fill-opacity:1;stroke:#000000;stroke-width:0.963842;stroke-dasharray:none" d="m 14.673719,1.7120403 c 0.285857,-0.00748 0.586188,0.098487 1.255694,0.5272646 0.669505,0.4287836 1.707537,1.1807195 2.655381,2.0984714 0.947846,0.9177518 1.806431,2.0005855 2.295402,2.8205498 0.488971,0.8199623 0.608735,1.377698 0.683962,2.0772948 0.07523,0.6995988 0.103876,1.5427101 0.239281,3.9724851 0.135405,2.429775 0.377654,6.444964 0.686079,12.658589 0.308425,6.213623 0.684757,14.624328 1.060882,23.03448 L 5.767391,48.765653 C 6.023156,43.259185 6.278449,37.753182 6.586875,31.253688 6.8953,24.754195 7.255016,17.262807 7.46565,13.208106 7.676283,9.1534052 7.736645,8.5349244 7.954798,7.9481636 8.172951,7.3614027 8.54975,6.8045519 9.557768,5.811577 10.565787,4.8186013 12.206429,3.3910563 13.161803,2.6162259 14.117174,1.8413932 14.387861,1.7195645 14.673719,1.7120403 Z m 8.912679,47.2992457 1.715199,6.655394 H 3.9082 l 1.782959,-6.655394 z"/>
  <path id="tooth_25_implant-2" style="fill:#656565;fill-opacity:1;stroke:#000000;stroke-width:0.963842;stroke-dasharray:none" d="m 9.388366,5.9206116 c 0.189814,-0.00472 0.313061,0.019595 0.298572,0.088934 -0.03864,0.1849314 -0.902125,0.6129349 0.940183,1.1498179 1.842306,0.5368839 6.61305,1.07363 9.128667,1.3933344 2.515617,0.3197031 2.777002,0.4217932 2.979363,0.631024 0.202361,0.2092308 0.34533,0.5256591 0.410801,0.791955 0.06547,0.2662961 0.05248,0.4833461 -0.0487,0.7686641 -0.101179,0.285315 -0.291579,0.637644 -0.533617,0.933829 -0.242039,0.296188 -0.535303,0.534991 -0.68608,0.461622 -0.150777,-0.07338 -0.1577,-0.458156 -1.556383,-0.8576 -1.398684,-0.399444 -4.189371,-0.81171 -6.435171,-1.173111 C 11.640197,9.7476811 9.937626,9.4358658 8.943685,9.2048966 7.949743,8.9739263 7.664957,8.8235478 7.448709,8.565403 7.232461,8.3072582 7.085141,7.9421906 7.063319,7.59981 7.041498,7.2574283 7.145467,6.9365461 7.296247,6.6892716 7.447025,6.4419989 7.645482,6.2677296 8.215254,6.1133038 8.571362,6.0167905 9.07201,5.9285643 9.388366,5.9206087 Z M 7.380948,11.125499 c 0.04038,-0.0038 0.07814,0.0046 0.110111,0.02964 0.127898,0.09995 0.179771,0.460601 2.657499,0.984651 2.477729,0.524048 7.380845,1.210692 9.97568,1.605086 2.594836,0.394394 2.881068,0.497138 3.10218,0.705137 0.221112,0.208 0.377379,0.520875 0.448916,0.785605 0.07154,0.264728 0.05762,0.480791 -0.05294,0.764427 -0.110555,0.283637 -0.317854,0.635152 -0.58232,0.929596 -0.264467,0.294443 -0.586975,0.532441 -0.751723,0.459503 C 22.123604,17.316204 22.116265,16.932873 20.587977,16.53578 19.059689,16.138687 16.011682,15.728294 13.557781,15.369022 11.103879,15.009748 9.244124,14.700799 8.158081,14.471189 7.07204,14.241579 6.759635,14.090438 6.523349,13.833813 6.287064,13.577187 6.125805,13.214938 6.10196,12.874572 6.07812,12.534206 6.19132,12.216205 6.356064,11.970387 6.520815,11.724569 6.738699,11.551313 6.948972,11.383831 7.106677,11.258221 7.259826,11.136759 7.380948,11.125493 Z m -0.160932,5.458989 c 0.06213,-0.0043 0.11257,0.0026 0.146109,0.02753 0.134159,0.0996 -0.005,0.465947 2.496567,0.991004 2.501581,0.525056 7.643479,1.209942 10.365305,1.602969 2.721826,0.393027 3.022709,0.495741 3.254642,0.70302 0.231934,0.20728 0.395053,0.519674 0.470092,0.783485 0.07504,0.263812 0.06303,0.47754 -0.05294,0.760194 -0.115966,0.282654 -0.334557,0.634055 -0.611966,0.927478 -0.27741,0.293422 -0.61491,0.530071 -0.787721,0.457386 -0.172811,-0.07268 -0.181995,-0.45553 -1.785077,-0.851248 C 19.111947,21.590591 15.915788,21.181812 13.341793,20.823783 10.767797,20.465755 8.816594,20.159001 7.677402,19.930186 6.53821,19.701371 6.210052,19.550663 5.962204,19.294927 5.714355,19.039192 5.546768,18.67699 5.521757,18.337804 c -0.02501,-0.339186 0.094,-0.654983 0.26681,-0.89995 0.172813,-0.244967 0.399869,-0.418949 0.717841,-0.588673 0.23848,-0.127292 0.527204,-0.251743 0.713608,-0.26469 z m -0.271044,5.25359 c 0.06057,2.78e-4 0.10965,0.01114 0.143993,0.036 0.137368,0.09943 0.02386,0.419569 2.600324,0.921125 2.576462,0.501555 7.843058,1.185219 10.629997,1.577558 2.786938,0.392341 3.093391,0.493986 3.330873,0.700903 0.237482,0.206916 0.405963,0.518018 0.482797,0.781368 0.07683,0.26335 0.06368,0.478034 -0.05506,0.760194 -0.11874,0.282158 -0.342743,0.632449 -0.626789,0.925359 -0.284046,0.29291 -0.629833,0.529944 -0.806778,0.457386 -0.176946,-0.07255 -0.185997,-0.454104 -1.827428,-0.849129 -1.641432,-0.395025 -4.91342,-0.805121 -7.548991,-1.162524 C 10.636343,25.628917 8.638447,25.323254 7.472001,25.09484 6.305557,24.866424 5.970349,24.716986 5.716571,24.461698 5.462792,24.206409 5.289029,23.845284 5.26342,23.506692 5.23781,23.1681 5.35963,22.85128 5.53658,22.606743 5.713529,22.362205 5.945997,22.190325 6.256541,22.04348 6.489448,21.933346 6.767272,21.837244 6.948972,21.83808 Z m -0.374803,5.444167 c 0.05822,-0.0023 0.106336,0.0091 0.141876,0.03388 0.142178,0.09917 0.06829,0.444213 2.757022,0.957122 2.688727,0.51291 8.139302,1.192589 11.023856,1.583912 2.884554,0.391324 3.203655,0.492404 3.449455,0.698785 0.2458,0.20638 0.418095,0.518701 0.497619,0.781368 0.07953,0.262667 0.06573,0.476648 -0.05717,0.758076 -0.122898,0.281427 -0.353969,0.628974 -0.647964,0.921124 -0.293994,0.29215 -0.651163,0.529757 -0.834306,0.457386 -0.183143,-0.07236 -0.192029,-0.45301 -1.890953,-0.847011 -1.698925,-0.394 -5.087916,-0.801812 -7.8158,-1.158288 C 10.469916,31.112123 8.404024,30.807059 7.196723,30.579237 5.989423,30.351415 5.640432,30.200723 5.377766,29.946095 5.115099,29.691468 4.938416,29.330923 4.91191,28.993207 4.8854,28.655493 5.0104,28.339279 5.193541,28.095375 5.376687,27.85147 5.61834,27.680644 5.917736,27.521525 6.142282,27.402185 6.399525,27.289122 6.574169,27.282244 Z m -0.283748,5.14136 c 0.04584,-0.0037 0.0865,0.0049 0.122817,0.02964 0.145223,0.09901 0.204085,0.459174 3.017479,0.978299 2.813391,0.519124 8.382415,1.197458 11.32878,1.588147 2.946364,0.390688 3.270384,0.492739 3.521451,0.698785 0.251067,0.206045 0.429096,0.517009 0.510324,0.77925 0.08123,0.262241 0.06624,0.474985 -0.05929,0.755959 -0.125532,0.280971 -0.362492,0.629447 -0.662786,0.921124 -0.300295,0.291677 -0.66418,0.527522 -0.851247,0.455269 -0.187067,-0.07225 -0.195858,-0.451533 -1.931187,-0.844894 C 19.551433,37.391822 16.090017,36.984911 13.30368,36.629013 10.517341,36.273115 8.404486,35.967103 7.171316,35.73965 5.938145,35.512197 5.584655,35.362841 5.31636,35.108627 5.048064,34.854413 4.864872,34.495023 4.837798,34.157857 4.810728,33.820689 4.938713,33.50565 5.125782,33.262141 5.312852,33.018633 5.560397,32.847846 5.799157,32.68194 5.978225,32.557509 6.152892,32.434761 6.290423,32.4236 Z m -0.17152,5.391229 c 0.0468,-0.0037 0.08998,0.0049 0.127052,0.02964 0.148269,0.09885 0.208608,0.455773 3.081004,0.974064 2.872397,0.51829 8.555669,1.198086 11.563827,1.588147 3.008157,0.39006 3.339231,0.490953 3.595564,0.696667 0.256332,0.205713 0.43798,0.515313 0.520912,0.777133 0.08293,0.261819 0.06887,0.475439 -0.05929,0.755958 -0.128165,0.28052 -0.371017,0.627799 -0.677609,0.919008 -0.306592,0.291207 -0.677197,0.527405 -0.868187,0.455267 -0.190991,-0.07214 -0.201814,-0.452163 -1.973537,-0.844893 -1.771724,-0.39273 -5.305594,-0.798728 -8.150369,-1.154054 C 10.433492,41.656446 8.277885,41.351615 7.018852,41.124527 5.759818,40.897439 5.397586,40.747309 5.123664,40.493504 4.849741,40.239698 4.664274,39.881475 4.636632,39.54485 4.608992,39.208226 4.739976,38.894371 4.930968,38.651253 5.121962,38.408136 5.373281,38.236691 5.617048,38.07105 5.799874,37.946819 5.978488,37.825972 6.118902,37.814829 Z m -0.364215,5.376407 c 0.06546,-0.0029 0.119585,0.0071 0.158814,0.03177 0.15692,0.09841 0.06437,0.446806 3.025949,0.95924 2.961581,0.512434 8.977363,1.187133 12.16097,1.575442 3.183607,0.388309 3.533916,0.489759 3.8052,0.69455 0.271283,0.20479 0.462788,0.514371 0.550557,0.775015 0.08777,0.260644 0.07211,0.472462 -0.06353,0.751723 -0.13564,0.279261 -0.39125,0.624872 -0.715725,0.914773 -0.324474,0.289899 -0.716877,0.524964 -0.919007,0.45315 -0.20213,-0.07182 -0.212825,-0.449692 -2.087884,-0.840658 C 19.794975,48.115279 16.053916,47.710158 13.043221,47.356427 10.032526,47.002697 7.752056,46.699486 6.41959,46.473418 5.087123,46.24735 4.704189,46.099295 4.414291,45.84663 4.124392,45.593963 3.926868,45.237325 3.897613,44.902211 3.868363,44.567098 4.006756,44.252756 4.20889,44.010731 4.411022,43.768706 4.67722,43.598248 5.013551,43.436882 5.265799,43.315856 5.558339,43.200191 5.754686,43.191248 Z"/>
</g>
</svg>