<svg xmlns="http://www.w3.org/2000/svg" xmlns:svg="http://www.w3.org/2000/svg" xmlns:sodipodi="http://sodipodi.sourceforge.net/DTD/sodipodi-0.dtd" xmlns:inkscape="http://www.inkscape.org/namespaces/inkscape" width="25.606623" height="100.7217" viewBox="0 0 25.606622 100.72171" version="1.1" id="svg1" xml:space="preserve" sodipodi:docname="porto_tooth_23.svg" inkscape:version="1.4 (86a8ad7, 2024-10-11)">
    <path id="tooth_63_root" style="display:inline;fill:#fff5d0;fill-opacity:1;stroke:#000000;stroke-width:1;stroke-dasharray:none" d="m 13.983033,0.53938919 c 2.588711,2.03096031 2.247578,6.18281451 2.827583,9.21991531 0.59577,10.4818805 0.769731,20.9953525 1.987783,31.4362275 1.221208,10.637133 2.018737,21.396414 4.654978,31.803474 -1.646604,-3.684309 -6.358548,-3.207326 -9.706363,-3.739235 -4.4591185,-0.300065 -9.3148175,2.069883 -11.4558015,6.064863 -1.178132,-1.5251 1.224769,-6.792404 1.124783,-9.761913 2.660379,-20.919897 2.731211,-42.355432 8.8476845,-62.6932816 0.3532,-0.8524181 0.685476,-2.10045642 1.719353,-2.33005021 z m 10.459769,75.92052381 0.07863,0.447576 z"/>
    <path style="fill:#ffffff;fill-opacity:1;stroke:#000000;stroke-width:1;stroke-dasharray:none" d="m 14.779477,69.358986 c 3.599873,0.266315 8.602617,0.713015 9.235275,5.199636 1.357184,5.890818 1.34378,12.087051 0.534809,18.052807 -1.89961,3.299466 -6.074332,4.813749 -9.249165,6.815322 C 11.034203,101.79842 6.5088395,98.439363 3.6410915,95.39129 -0.40998648,91.097213 0.36122352,84.665356 1.0838435,79.307944 c 0.389545,-4.16965 3.310019,-7.668001 7.187849,-9.100504 2.0417885,-0.969504 4.2903045,-1.185998 6.5077845,-0.848454 z" id="tooth_63_crown"/>
    	 <g id="tooth_63_implant">
    <path id="tooth_63_implant-1" style="fill:#9a9a9a;fill-opacity:1;stroke:#000000;stroke-width:0.880552;stroke-dasharray:none" d="m 13.830747,23.526181 c 0.261155,-0.0068 0.535534,0.08997 1.147185,0.481701 0.611651,0.391731 1.559982,1.078689 2.425919,1.917134 0.865938,0.838445 1.65033,1.827707 2.097047,2.576815 0.446717,0.749106 0.556132,1.258646 0.624858,1.897787 0.06873,0.639144 0.0949,1.409398 0.218603,3.629207 0.123705,2.219808 0.34502,5.888029 0.626793,11.564709 0.281772,5.67668 0.625584,13.360582 0.969207,21.043979 L 5.694051,66.513702 C 5.927715,61.48307 6.160946,56.452863 6.44272,50.515016 6.724493,44.57717 7.053124,37.733143 7.245556,34.028825 c 0.192432,-3.704318 0.247578,-4.269353 0.44688,-4.80541 0.199301,-0.536056 0.543539,-1.044787 1.464451,-1.951955 0.920911,-0.907169 2.419778,-2.211354 3.292595,-2.919228 0.872814,-0.707876 1.120109,-0.819177 1.381265,-0.826051 z m 8.142499,43.211928 1.566981,6.080274 H 3.99552 l 1.628887,-6.080274 z"/>
    <path id="tooth_63_implant-2" style="fill:#656565;fill-opacity:1;stroke:#000000;stroke-width:0.880552;stroke-dasharray:none" d="m 9.002122,27.371072 c 0.173412,-0.0043 0.286009,0.0179 0.272772,0.08125 -0.0353,0.168951 -0.824169,0.559969 0.858938,1.050457 1.683105,0.49049 6.04159,0.980854 8.339822,1.272931 2.298232,0.292077 2.537031,0.385345 2.721905,0.576495 0.184874,0.191151 0.315489,0.480235 0.375302,0.723519 0.05981,0.243285 0.04794,0.441579 -0.04449,0.702241 -0.09244,0.26066 -0.266383,0.582542 -0.487506,0.853133 -0.221123,0.270593 -0.489044,0.488761 -0.626792,0.421731 -0.137748,-0.06704 -0.144073,-0.418564 -1.421891,-0.783491 -1.277817,-0.364926 -3.82735,-0.741566 -5.879082,-1.071737 C 11.059364,30.86743 9.503919,30.58256 8.595868,30.37155 7.687817,30.160539 7.42764,30.023155 7.23008,29.787318 7.032518,29.55148 6.897929,29.21796 6.877993,28.905165 6.858053,28.59237 6.953043,28.299217 7.090792,28.07331 7.228541,27.847406 7.409849,27.688196 7.930385,27.547114 8.25572,27.458944 8.713104,27.378339 9.002122,27.371072 Z m -1.833948,4.755112 c 0.03689,-0.0034 0.07139,0.0042 0.100596,0.02708 0.116846,0.09131 0.164236,0.420799 2.427854,0.899564 2.263618,0.478763 6.743036,1.106071 9.113641,1.466384 2.370606,0.360313 2.632103,0.454179 2.834108,0.644204 0.202005,0.190025 0.344769,0.475863 0.410124,0.717717 0.06536,0.241851 0.05264,0.439244 -0.04836,0.69837 -0.101002,0.259126 -0.290387,0.580266 -0.532,0.849265 C 21.23252,37.697767 20.937881,37.9152 20.78737,37.848564 20.636858,37.781924 20.630153,37.431721 19.23393,37.068943 17.837708,36.706164 15.05309,36.331235 12.811241,36.003009 10.569391,35.674781 8.870344,35.39253 7.878151,35.182761 6.885959,34.972993 6.60055,34.834912 6.384682,34.600463 6.168816,34.366014 6.021492,34.035068 5.999708,33.724114 5.977928,33.413161 6.081348,33.12264 6.231853,32.898064 6.382368,32.673485 6.581424,32.515201 6.773526,32.362192 6.917604,32.247435 7.057519,32.13647 7.168174,32.126177 Z m -0.147026,4.987257 c 0.05676,-0.004 0.102843,0.0024 0.133484,0.02515 0.122566,0.09099 -0.0046,0.425682 2.280829,0.905367 2.285409,0.479684 6.982975,1.105386 9.469597,1.46445 2.486622,0.359064 2.761504,0.452902 2.973395,0.642269 0.211891,0.189368 0.360916,0.474767 0.429469,0.715782 0.06855,0.241014 0.05758,0.436273 -0.04836,0.694502 -0.105944,0.258229 -0.305646,0.579263 -0.559083,0.847331 -0.253437,0.268066 -0.561773,0.484265 -0.719651,0.417861 -0.157878,-0.0664 -0.166268,-0.416165 -1.630821,-0.777688 C 17.885451,41.686945 14.965484,41.31349 12.613918,40.9864 10.262352,40.65931 8.47976,40.379065 7.43901,40.170023 6.398261,39.96098 6.09846,39.823296 5.872029,39.589659 5.645598,39.356023 5.492493,39.02512 5.469643,38.715245 5.446793,38.405369 5.555523,38.116861 5.713397,37.893063 5.871276,37.669265 6.078712,37.510317 6.369207,37.35526 6.587078,37.238967 6.850853,37.125271 7.021148,37.113443 Z m -0.247622,4.799606 c 0.05533,2.53e-4 0.100176,0.01018 0.131551,0.03289 0.125497,0.09084 0.0218,0.383313 2.37562,0.841527 2.353819,0.458214 7.165307,1.0828 9.711416,1.441236 2.546107,0.358436 2.826078,0.451299 3.043039,0.640335 0.21696,0.189036 0.370882,0.473253 0.441076,0.713847 0.07019,0.240592 0.05818,0.436724 -0.0503,0.694502 -0.108479,0.257775 -0.313125,0.577797 -0.572626,0.845395 -0.2595,0.267598 -0.575406,0.48415 -0.737061,0.417862 -0.161655,-0.06628 -0.169924,-0.414864 -1.669512,-0.775753 C 17.947142,46.403999 14.957899,46.029341 12.550078,45.702823 10.142257,45.376306 8.317008,45.097056 7.251359,44.88838 6.185712,44.679704 5.879471,44.543178 5.647622,44.309951 5.415774,44.076722 5.257026,43.746804 5.23363,43.437471 5.21023,43.128138 5.32153,42.838696 5.483185,42.61529 5.644843,42.391883 5.857223,42.234856 6.140932,42.100701 6.353712,42.000084 6.607528,41.912287 6.773526,41.91305 Z m -0.342414,4.973714 c 0.05319,-0.0021 0.09715,0.0083 0.129616,0.03095 0.129892,0.0906 0.06239,0.405828 2.518777,0.874414 2.456383,0.468587 7.435952,1.089532 10.07124,1.44704 2.635288,0.357508 2.926814,0.449853 3.151374,0.6384 0.224559,0.188546 0.381965,0.473878 0.454618,0.713847 0.07265,0.239969 0.06005,0.435458 -0.05223,0.692567 -0.112279,0.257108 -0.323382,0.574622 -0.591971,0.841526 -0.268589,0.266905 -0.594894,0.483979 -0.762211,0.417862 -0.167317,-0.06611 -0.175435,-0.413864 -1.727548,-0.773818 C 18.07066,51.409596 14.974526,51.037025 12.482369,50.711353 9.990212,50.385682 8.102842,50.10698 6.999869,49.898845 5.896896,49.69071 5.578063,49.55304 5.338095,49.320415 5.098126,49.087792 4.936711,48.758403 4.912495,48.449871 4.888285,48.141339 5.002475,47.852451 5.16979,47.629624 5.337109,47.406796 5.55788,47.250731 5.831404,47.105362 6.036546,46.996335 6.27156,46.893042 6.431112,46.886758 Z m -0.259228,4.697075 c 0.04188,-0.0033 0.07903,0.0045 0.112203,0.02708 0.132674,0.09045 0.18645,0.419495 2.756727,0.89376 2.570275,0.474265 7.658057,1.093981 10.349815,1.450909 2.691757,0.356927 2.987776,0.45016 3.217148,0.6384 0.229371,0.18824 0.392016,0.472332 0.466225,0.711912 0.07421,0.23958 0.06052,0.43394 -0.05417,0.690633 -0.114684,0.256692 -0.331168,0.575054 -0.605512,0.841526 -0.274345,0.266472 -0.606786,0.481937 -0.777688,0.415927 C 21.465734,57.187973 21.457704,56.841469 19.872332,56.4821 18.286959,56.12273 15.124657,55.750982 12.579098,55.425839 10.033539,55.100696 8.103263,54.821128 6.976657,54.613329 5.850049,54.405531 5.527106,54.269082 5.281995,54.036835 5.036884,53.804589 4.869522,53.476256 4.844788,53.168225 4.820058,52.860193 4.936978,52.572378 5.107886,52.349912 5.278791,52.127446 5.504944,51.971417 5.723072,51.819848 5.886666,51.706169 6.04624,51.594029 6.171886,51.583832 Z m -0.156699,4.925351 c 0.04276,-0.0033 0.08221,0.0045 0.116074,0.02708 0.135456,0.09031 0.190581,0.416388 2.814762,0.889891 2.624181,0.473503 7.816339,1.094555 10.564549,1.450909 2.748211,0.356353 3.050676,0.448528 3.284858,0.636466 0.234181,0.187936 0.400132,0.470782 0.475898,0.709977 0.07577,0.239195 0.06292,0.434354 -0.05417,0.690633 -0.11709,0.256279 -0.338956,0.573548 -0.619055,0.839592 -0.280098,0.266043 -0.618677,0.48183 -0.793163,0.415926 -0.174486,-0.06591 -0.184374,-0.41309 -1.802996,-0.771882 C 18.383323,61.038986 15.154828,60.668072 12.555882,60.343451 9.956935,60.018831 7.987603,59.740342 6.837368,59.532877 5.687133,59.325413 5.356202,59.188257 5.105951,58.956383 4.855699,58.72451 4.686258,58.397242 4.661005,58.089707 c -0.02525,-0.307536 0.09441,-0.594269 0.268901,-0.816378 0.17449,-0.222109 0.404092,-0.378738 0.626793,-0.530065 0.167028,-0.113496 0.330207,-0.2239 0.458487,-0.23408 z m -0.332741,4.91181 c 0.0598,-0.0026 0.109251,0.0065 0.14509,0.02902 0.14336,0.08991 0.0588,0.408196 2.764465,0.876349 2.705658,0.468152 8.201592,1.084548 11.110091,1.439301 2.908499,0.354753 3.228537,0.447437 3.476378,0.634531 0.24784,0.187093 0.422797,0.469922 0.502981,0.708043 0.08019,0.23812 0.06588,0.431635 -0.05804,0.686764 -0.123919,0.255128 -0.357441,0.570874 -0.653876,0.835723 -0.296435,0.264848 -0.654929,0.4796 -0.839592,0.413992 C 21.945281,66.97911 21.935511,66.633887 20.222483,66.276706 18.509456,65.919524 15.091676,65.549411 12.341147,65.226248 9.590618,64.903085 7.507213,64.626076 6.289891,64.419543 5.072568,64.21301 4.722725,64.07775 4.457877,63.846918 4.19303,63.616086 4.012575,63.290266 3.985848,62.984111 c -0.02672,-0.306155 0.09971,-0.593333 0.284378,-0.814444 0.184665,-0.22111 0.42786,-0.376839 0.735127,-0.524261 0.230451,-0.110564 0.497711,-0.216234 0.677091,-0.224405 z"/>
</g>
</svg>