<svg xmlns="http://www.w3.org/2000/svg" xmlns:svg="http://www.w3.org/2000/svg" width="28.420494" height="82.826309" viewBox="0 0 28.420494 82.82631" version="1.1" id="svg1" xml:space="preserve" xmlns:sodipodi="http://sodipodi.sourceforge.net/DTD/sodipodi-0.dtd" sodipodi:docname="porto_tooth_15.svg" xmlns:inkscape="http://www.inkscape.org/namespaces/inkscape" inkscape:version="1.4 (86a8ad7, 2024-10-11)">
  <path id="tooth_15_root" style="fill:#fff5d0;fill-opacity:1;stroke:#000000;stroke-width:0.999999;stroke-dasharray:none" d="M 13.493957,0.53506416 C 11.084509,1.4323941 11.90917,4.5067698 11.371565,6.4860149 10.509749,13.386228 9.0790481,20.191968 7.5576618,26.97137 6.4184643,33.064757 5.9425866,39.258964 4.9274313,45.373413 4.6167457,48.708519 3.7307177,51.951947 2.3361416,54.99523 c -0.3859328,1.033825 -1.1155491,2.883441 0.082368,1.096637 2.8580851,-2.530477 6.8926138,-3.067985 10.5515094,-3.471788 3.768424,-0.299 7.543072,0.482851 11.097809,1.676377 C 22.160967,50.327761 22.46022,45.808858 21.716192,41.561228 20.171697,30.55833 19.463979,19.456946 17.917114,8.4562228 17.402625,5.6438685 16.933628,2.2384091 14.201354,0.68803337 L 13.838571,0.56337936 13.493972,0.53498811 Z M 24.252205,54.715081 c 0.273254,0.948401 1.142391,3.254095 1.249226,3.304859 -0.264269,-1.152797 -0.770907,-2.229609 -1.249226,-3.304859 z"/>
  <path style="fill:#ffffff;fill-opacity:1;stroke:#000000;stroke-width:0.999999;stroke-dasharray:none" d="m 22.942697,53.921407 c -1.175525,-0.329683 -3.526564,-0.989241 -5.915541,-1.24139 -2.388981,-0.252111 -4.815801,-0.09697 -7.2237458,0.349077 -2.4079443,0.446118 -4.7968511,1.183172 -6.3705401,2.230631 -1.5736854,1.047458 -2.3320676,2.405207 -2.67334794,4.519518 -0.34128779,2.114272 -0.26542541,4.984953 -0.2085565,7.642385 0.0568689,2.657395 0.0948187,5.101351 0.81530314,7.099226 0.7204919,1.997913 2.1235036,3.549632 3.6592764,4.694056 1.5357727,1.144424 3.2042284,1.881478 5.0812818,2.385814 1.877049,0.504336 3.96261,0.775878 5.631103,0.717699 1.668497,-0.05818 2.919824,-0.446119 4.531448,-1.028027 1.611621,-0.581909 3.583414,-1.357787 4.91062,-2.463425 1.327201,-1.105638 2.00975,-2.540998 2.388943,-4.441907 0.379197,-1.90091 0.455033,-4.267293 0.208557,-6.711363 -0.246506,-2.444031 -0.81527,-4.96556 -1.403038,-6.944042 -0.587764,-1.97852 -1.194477,-3.413879 -1.573678,-4.40312 -0.3792,-0.989241 -0.53088,-1.532364 -0.606717,-1.803906 -0.07583,-0.271504 -0.07583,-0.271504 -1.25135,-0.601302 z" id="tooth_15_crown"/>
  	 <g id="tooth_15_implant" style="display: none">
  <path id="tooth_15_implant-1" style="fill:#9a9a9a;fill-opacity:1;stroke:#000000;stroke-width:0.963842;stroke-dasharray:none" d="M 13.746775,1.7120403 C 13.460918,1.7045595 13.160587,1.8105268 12.491081,2.2393049 11.821576,2.6680885 10.783544,3.4200244 9.8356996,4.3377763 8.8878545,5.2555281 8.029269,6.3383618 7.5402981,7.1583261 7.0513271,7.9782884 6.9315626,8.5360241 6.8563363,9.2356209 6.7811097,9.9352197 6.7524603,10.778331 6.6170554,13.208106 6.48165,15.637881 6.2394008,19.65307 5.9309761,25.866695 5.6225512,32.080318 5.246219,40.491023 4.8700939,48.901175 L 22.653103,48.765653 C 22.397338,43.259185 22.142045,37.753182 21.833619,31.253688 21.525194,24.754195 21.165478,17.262807 20.954844,13.208106 20.744211,9.1534052 20.683849,8.5349244 20.465696,7.9481636 20.247543,7.3614027 19.870744,6.8045519 18.862726,5.811577 17.854707,4.8186013 16.214065,3.3910563 15.258691,2.6162259 14.30332,1.8413932 14.032633,1.7195645 13.746775,1.7120403 Z M 4.834096,49.011286 3.1188975,55.66668 H 24.512294 l -1.782959,-6.655394 z"/>
  <path id="tooth_15_implant-2" style="fill:#656565;fill-opacity:1;stroke:#000000;stroke-width:0.963842;stroke-dasharray:none" d="m 19.032128,5.9206116 c -0.189814,-0.00472 -0.313061,0.019595 -0.298572,0.088934 0.03864,0.1849314 0.902125,0.6129349 -0.940183,1.1498179 -1.842306,0.5368839 -6.61305,1.07363 -9.1286671,1.3933344 C 6.1490895,8.872401 5.8877038,8.9744911 5.6853427,9.1837219 5.4829815,9.3929527 5.3400125,9.709381 5.274542,9.9756769 5.209071,10.241973 5.222066,10.459023 5.323245,10.744341 c 0.1011794,0.285315 0.2915786,0.637644 0.5336173,0.933829 0.2420386,0.296188 0.5353023,0.534991 0.6860794,0.461622 0.150777,-0.07338 0.1577006,-0.458156 1.5563838,-0.8576 1.3986832,-0.399444 4.1893705,-0.81171 6.4351705,-1.173111 C 16.780297,9.7476811 18.482868,9.4358658 19.476809,9.2048966 20.470751,8.9739263 20.755537,8.8235478 20.971785,8.565403 21.188033,8.3072582 21.335353,7.9421906 21.357175,7.59981 21.378996,7.2574283 21.275027,6.9365461 21.124247,6.6892716 20.973469,6.4419989 20.775012,6.2677296 20.20524,6.1133038 19.849132,6.0167905 19.348484,5.9285643 19.032128,5.9206087 Z m 2.007418,5.2048874 c -0.04038,-0.0038 -0.07814,0.0046 -0.110111,0.02964 -0.127898,0.09995 -0.179771,0.460601 -2.657499,0.984651 -2.477729,0.524048 -7.380845,1.210692 -9.9756801,1.605086 -2.5948356,0.394394 -2.8810676,0.497138 -3.1021799,0.705137 -0.2211124,0.208 -0.3773792,0.520875 -0.4489162,0.785605 -0.071537,0.264728 -0.057616,0.480791 0.052938,0.764427 0.110555,0.283637 0.317854,0.635152 0.5823205,0.929596 0.2644664,0.294443 0.5869744,0.532441 0.7517227,0.459503 0.1647485,-0.07294 0.1720878,-0.456271 1.7003759,-0.853364 1.528288,-0.397093 4.5762951,-0.807486 7.0301961,-1.166758 2.453902,-0.359274 4.313657,-0.668223 5.3997,-0.897833 1.086041,-0.22961 1.398446,-0.380751 1.634732,-0.637376 0.236285,-0.256626 0.397544,-0.618875 0.421389,-0.959241 0.02384,-0.340366 -0.08936,-0.658367 -0.254104,-0.904185 -0.164751,-0.245818 -0.382635,-0.419074 -0.592908,-0.586556 -0.157705,-0.12561 -0.310854,-0.247072 -0.431976,-0.258338 z m 0.160932,5.458989 c -0.06213,-0.0043 -0.11257,0.0026 -0.146109,0.02753 -0.134159,0.0996 0.005,0.465947 -2.496567,0.991004 -2.501581,0.525056 -7.643479,1.209942 -10.365305,1.602969 -2.7218259,0.393027 -3.0227086,0.495741 -3.2546421,0.70302 -0.2319335,0.20728 -0.3950534,0.519674 -0.4700915,0.783485 -0.075038,0.263812 -0.063027,0.47754 0.052938,0.760194 0.1159654,0.282654 0.3345565,0.634055 0.6119658,0.927478 0.2774094,0.293422 0.6149098,0.530071 0.7877208,0.457386 0.1728112,-0.07268 0.1819952,-0.45553 1.785077,-0.851248 1.6030819,-0.395715 4.799241,-0.804494 7.373236,-1.162523 2.573996,-0.358028 4.525199,-0.664782 5.664391,-0.893597 1.139192,-0.228815 1.46735,-0.379523 1.715198,-0.635259 0.247849,-0.255735 0.415436,-0.617937 0.440447,-0.957123 0.02501,-0.339186 -0.094,-0.654983 -0.26681,-0.89995 -0.172813,-0.244967 -0.399869,-0.418949 -0.717841,-0.588673 -0.23848,-0.127292 -0.527204,-0.251743 -0.713608,-0.26469 z m 0.271044,5.25359 c -0.06057,2.78e-4 -0.10965,0.01114 -0.143993,0.036 -0.137368,0.09943 -0.02386,0.419569 -2.600324,0.921125 -2.576462,0.501555 -7.843058,1.185219 -10.6299968,1.577558 -2.7869386,0.392341 -3.0933912,0.493986 -3.3308732,0.700903 -0.2374818,0.206916 -0.4059634,0.518018 -0.4827966,0.781368 -0.076834,0.26335 -0.063683,0.478034 0.055056,0.760194 0.1187396,0.282158 0.3427429,0.632449 0.6267886,0.925359 0.2840456,0.29291 0.6298333,0.529944 0.8067785,0.457386 0.1769451,-0.07255 0.1859961,-0.454104 1.8274276,-0.849129 1.6414315,-0.395025 4.9134199,-0.805121 7.5489909,-1.162524 2.635571,-0.357401 4.633467,-0.663064 5.799913,-0.891478 1.166444,-0.228416 1.501652,-0.377854 1.75543,-0.633142 0.253779,-0.255289 0.427542,-0.616414 0.453151,-0.955006 0.02561,-0.338592 -0.09621,-0.655412 -0.27316,-0.899949 -0.176949,-0.244538 -0.409417,-0.416418 -0.719961,-0.563263 -0.232907,-0.110134 -0.510731,-0.206236 -0.692431,-0.2054 z m 0.374803,5.444167 c -0.05822,-0.0023 -0.106336,0.0091 -0.141876,0.03388 -0.142178,0.09917 -0.06829,0.444213 -2.757022,0.957122 -2.688727,0.51291 -8.139302,1.192589 -11.0238562,1.583912 -2.8845537,0.391324 -3.2036548,0.492404 -3.4494547,0.698785 -0.2458,0.20638 -0.4180952,0.518701 -0.4976193,0.781368 -0.079525,0.262667 -0.065725,0.476648 0.057173,0.758076 0.1228986,0.281427 0.3539693,0.628974 0.6479638,0.921124 0.2939946,0.29215 0.6511637,0.529757 0.8343066,0.457386 0.1831428,-0.07236 0.1920292,-0.45301 1.8909533,-0.847011 1.6989241,-0.394 5.0879155,-0.801812 7.8157995,-1.158288 2.727885,-0.356476 4.793777,-0.66154 6.001078,-0.889362 1.2073,-0.227822 1.556291,-0.378514 1.818957,-0.633142 0.262667,-0.254627 0.43935,-0.615172 0.465856,-0.952888 0.02651,-0.337714 -0.09849,-0.653928 -0.281631,-0.897832 -0.183146,-0.243905 -0.424799,-0.414731 -0.724195,-0.57385 -0.224546,-0.11934 -0.481789,-0.232403 -0.656433,-0.239281 z m 0.283748,5.14136 c -0.04584,-0.0037 -0.0865,0.0049 -0.122817,0.02964 -0.145223,0.09901 -0.204085,0.459174 -3.017479,0.978299 -2.813391,0.519124 -8.382415,1.197458 -11.3287797,1.588147 -2.9463644,0.390688 -3.2703838,0.492739 -3.5214509,0.698785 -0.251067,0.206045 -0.4290961,0.517009 -0.5103244,0.77925 -0.081229,0.262241 -0.066241,0.474985 0.05929,0.755959 0.1255321,0.280971 0.3624923,0.629447 0.6627865,0.921124 0.3002944,0.291677 0.6641796,0.527522 0.8512468,0.455269 0.1870672,-0.07225 0.1958575,-0.451533 1.9311864,-0.844894 1.7353289,-0.393362 5.1967453,-0.800273 7.9830823,-1.156171 2.786339,-0.355898 4.899194,-0.66191 6.132364,-0.889363 1.233171,-0.227453 1.586661,-0.376809 1.854956,-0.631023 0.268296,-0.254214 0.451488,-0.613604 0.478562,-0.95077 0.02707,-0.337168 -0.100915,-0.652207 -0.287984,-0.895716 -0.18707,-0.243508 -0.434615,-0.414295 -0.673375,-0.580201 -0.179068,-0.124431 -0.353735,-0.247179 -0.491266,-0.25834 z m 0.17152,5.391229 c -0.0468,-0.0037 -0.08998,0.0049 -0.127052,0.02964 -0.148269,0.09885 -0.208608,0.455773 -3.081004,0.974064 -2.872397,0.51829 -8.555669,1.198086 -11.5638266,1.588147 -3.0081578,0.39006 -3.3392317,0.490953 -3.5955643,0.696667 -0.2563325,0.205713 -0.4379801,0.515313 -0.5209122,0.777133 -0.082932,0.261819 -0.068874,0.475439 0.059291,0.755958 0.1281648,0.28052 0.371017,0.627799 0.6776092,0.919008 0.3065924,0.291207 0.6771965,0.527405 0.868187,0.455267 0.1909905,-0.07214 0.2018135,-0.452163 1.973537,-0.844893 1.7717235,-0.39273 5.3055939,-0.798728 8.1503689,-1.154054 2.844775,-0.355325 5.000382,-0.660156 6.259415,-0.887244 1.259034,-0.227088 1.621266,-0.377218 1.895188,-0.631023 0.273923,-0.253806 0.45939,-0.612029 0.487032,-0.948654 0.02764,-0.336624 -0.103344,-0.650479 -0.294336,-0.893597 -0.190994,-0.243117 -0.442313,-0.414562 -0.68608,-0.580203 -0.182826,-0.124231 -0.36144,-0.245078 -0.501854,-0.256221 z m 0.364215,5.376407 c -0.06546,-0.0029 -0.119585,0.0071 -0.158814,0.03177 -0.15692,0.09841 -0.06437,0.446806 -3.025949,0.95924 -2.961581,0.512434 -8.977363,1.187133 -12.1609699,1.575442 -3.1836074,0.388309 -3.5339166,0.489759 -3.8051997,0.69455 -0.271283,0.20479 -0.4627886,0.514371 -0.5505576,0.775015 -0.087769,0.260644 -0.072114,0.472462 0.063526,0.751723 0.13564,0.279261 0.3912506,0.624872 0.7157248,0.914773 0.3244743,0.289899 0.7168777,0.524964 0.9190077,0.45315 0.2021299,-0.07182 0.212825,-0.449692 2.0878836,-0.840658 1.8750586,-0.390967 5.6161181,-0.796088 8.6268131,-1.149819 3.010695,-0.35373 5.291165,-0.656941 6.623631,-0.883009 1.332467,-0.226068 1.715401,-0.374123 2.005299,-0.626788 0.289899,-0.252667 0.487423,-0.609305 0.516678,-0.944419 0.02925,-0.335113 -0.109143,-0.649455 -0.311277,-0.89148 -0.202132,-0.242025 -0.46833,-0.412483 -0.804661,-0.573849 -0.252248,-0.121026 -0.544788,-0.236691 -0.741135,-0.245634 z"/>
</g>
</svg>