<svg xmlns="http://www.w3.org/2000/svg" xmlns:svg="http://www.w3.org/2000/svg" width="29.135836" height="90.206497" viewBox="0 0 29.135836 90.206497" version="1.1" id="svg1" xml:space="preserve" xmlns:sodipodi="http://sodipodi.sourceforge.net/DTD/sodipodi-0.dtd" sodipodi:docname="porto_tooth_45.svg" xmlns:inkscape="http://www.inkscape.org/namespaces/inkscape" inkscape:version="1.4 (86a8ad7, 2024-10-11)">
  <path id="tooth_45_root" style="fill:#fff5d0;fill-opacity:1;stroke:#000000;stroke-width:1;stroke-dasharray:none" d="m 1.697243,26.005319 c -0.02157,0.58583 0.07162,1.114499 0.140272,1.500492 0.187796,1.055589 0.187759,1.054524 0.657229,2.356851 0.469465,1.302326 1.406589,3.906903 2.037017,6.799492 0.630428,2.892552 0.954019,6.074217 1.249116,9.981235 0.295083,3.907017 0.56345,8.539044 0.697581,13.816951 0.134136,5.277907 0.13276,11.200631 0.186421,15.203614 0.05366,4.002946 0.160762,6.086569 0.603419,8.156625 0.442646,2.070017 1.22037,4.127416 1.917873,5.155564 0.697503,1.028187 1.315187,1.027161 2.24072,-0.35726 0.925533,-1.38461 2.160365,-4.1544 3.622435,-9.117045 1.46207,-4.962606 3.151054,-12.117382 4.291192,-18.025891 1.140138,-5.908472 1.731125,-10.569687 2.281075,-15.093586 0.549951,-4.523937 1.059174,-8.910747 1.837162,-12.296849 0.185751,-0.808509 0.385065,-1.552636 0.566904,-2.258605 -0.35462,0.397965 -0.796191,0.74884 -1.40093,1.070374 -1.403749,0.746407 -3.659987,1.347212 -5.41155,1.696947 -1.751563,0.349658 -2.997634,0.449615 -3.620512,0.498871 -0.622879,0.04903 -0.623013,0.04865 -2.085065,-0.156966 C 10.045555,34.730518 7.121541,34.318377 5.538753,33.934475 3.955966,33.55061 3.71524,33.194681 3.111628,31.357681 2.719427,30.164052 2.174459,28.336592 1.697243,26.005699 Z"/>
  <path style="fill:#ffffff;fill-opacity:1;stroke:#000000;stroke-width:1;stroke-dasharray:none" d="M 11.507576,34.935639 C 10.045529,34.730024 7.121422,34.318719 5.538634,33.934855 3.955847,33.550953 3.714448,33.194605 3.110836,31.357605 2.507224,29.520604 1.541487,26.20318 1.018371,21.816332 0.49525098,17.429484 0.41478198,11.973555 0.57328598,9.0426558 0.73177898,6.1117562 1.129249,5.7060382 2.513594,5.0039464 3.897935,4.3018546 6.269056,3.3034272 8.12094,2.503697 9.972827,1.7040049 11.305399,1.1030101 12.692544,0.77824564 c 1.387144,-0.32495451 2.828776,-0.3732226 4.057052,-0.0969163 1.228276,0.27630635 2.243111,0.87722516 3.499839,1.52671606 1.256728,0.649453 2.755283,1.347364 3.836535,1.7157218 1.081248,0.3682818 1.745167,0.4071243 2.418583,0.8530151 0.673413,0.4459288 1.356279,1.2989059 1.726187,3.0437785 0.369904,1.7448347 0.426819,4.3814512 0.398363,6.3783442 -0.02863,1.996892 -0.142279,3.354024 -0.483727,5.069822 -0.341455,1.715836 -0.910517,3.790186 -1.451152,5.699816 -0.540635,1.909668 -1.052796,3.654465 -1.583937,4.972792 -0.531141,1.318289 -1.081255,2.210109 -2.485,2.956516 -1.403749,0.746369 -3.661043,1.347364 -5.412606,1.697099 -1.751564,0.349658 -2.997292,0.448133 -3.620171,0.497351 -0.622879,0.04903 -0.622882,0.04903 -2.084934,-0.156586 z" id="tooth_45_crown"/>
  <g id="tooth_45_implant">
    <path id="tooth_45_implant-1" style="fill:#9a9a9a;fill-opacity:1;stroke:#000000;stroke-width:0.949044;stroke-dasharray:none" d="m 13.833346,85.047029 c 0.281469,0.0074 0.577189,-0.09698 1.236415,-0.51917 0.659227,-0.4222 1.681321,-1.162591 2.614613,-2.066253 0.933292,-0.903661 1.778696,-1.96987 2.260159,-2.777245 0.481464,-0.807373 0.59939,-1.356545 0.673461,-2.045401 0.07407,-0.688858 0.102281,-1.519024 0.235607,-3.911495 0.133327,-2.392469 0.371857,-6.346012 0.675546,-12.464237 0.30369,-6.118224 0.674244,-14.399796 1.044594,-22.680825 L 5.0637603,38.715844 c 0.2518382,5.421926 0.5032114,10.843393 0.8069015,17.243099 0.3036902,6.399704 0.6578827,13.776074 0.8652829,17.768522 0.2073992,3.992448 0.266835,4.601433 0.4816387,5.179186 0.2148036,0.577752 0.585817,1.126053 1.5783591,2.103782 0.992542,0.977731 2.6079945,2.383358 3.5487005,3.146292 0.940704,0.762937 1.207234,0.882895 1.488703,0.890304 z m 8.77584,-46.573047 1.688865,-6.553211 H 3.2331141 l 1.7555844,6.553211 z"/>
    <path id="tooth_45_implant-2" style="fill:#656565;fill-opacity:1;stroke:#000000;stroke-width:0.949044;stroke-dasharray:none" d="m 8.6291405,80.903073 c 0.1868999,0.0046 0.308255,-0.01929 0.2939881,-0.08757 -0.038047,-0.182092 -0.8882745,-0.603525 0.9257483,-1.132165 1.8140211,-0.528641 6.5115181,-1.057146 8.9885121,-1.371942 2.476993,-0.314795 2.734366,-0.415318 2.93362,-0.621336 0.199254,-0.206018 0.340028,-0.517588 0.404494,-0.779796 0.06447,-0.262207 0.05167,-0.475925 -0.04796,-0.756862 -0.09963,-0.280935 -0.287101,-0.627854 -0.525424,-0.919492 -0.238323,-0.29164 -0.527084,-0.526777 -0.675546,-0.454534 -0.148462,0.07225 -0.155279,0.451121 -1.532488,0.844432 -1.377209,0.393311 -4.12505,0.799248 -6.33637,1.1551 -2.21132,0.355852 -3.8877508,0.662879 -4.8664321,0.890303 -0.9786813,0.227424 -1.2590952,0.375493 -1.4720226,0.629675 -0.2129284,0.254181 -0.3579859,0.613644 -0.3794732,0.950768 -0.021486,0.337125 0.080887,0.65308 0.2293516,0.896558 0.1484636,0.243477 0.3438736,0.41507 0.9048979,0.567125 0.3506402,0.09503 0.843601,0.181903 1.1550999,0.189737 z M 6.6525437,75.778098 c 0.039755,0.0037 0.076939,-0.0046 0.1084206,-0.02918 0.1259343,-0.09842 0.1770109,-0.45353 2.6166973,-0.969534 2.4396874,-0.516002 7.2675244,-1.192104 9.8225204,-1.580443 2.554996,-0.388338 2.836834,-0.489505 3.054551,-0.694311 0.217718,-0.204806 0.371585,-0.512877 0.442024,-0.773542 0.07044,-0.260664 0.05673,-0.47341 -0.05213,-0.752691 -0.108858,-0.279282 -0.312974,-0.6254 -0.57338,-0.915323 -0.260406,-0.289923 -0.577963,-0.524267 -0.740181,-0.452448 -0.162219,0.07182 -0.169446,0.449265 -1.67427,0.840261 -1.504824,0.390996 -4.506034,0.795089 -6.922259,1.148845 -2.416226,0.353758 -4.2474287,0.657963 -5.3167968,0.884048 -1.0693671,0.226085 -1.3769759,0.374905 -1.6096339,0.62759 -0.2326571,0.252686 -0.3914406,0.609373 -0.414919,0.944514 -0.02347,0.33514 0.087986,0.648258 0.250202,0.890302 0.162222,0.242045 0.3767608,0.41264 0.5838051,0.57755 0.1552845,0.123683 0.3060818,0.243279 0.4253443,0.254373 z M 6.4940819,70.402922 c 0.061175,0.0043 0.1108416,-0.0026 0.1438665,-0.02711 0.1320992,-0.09807 -0.00494,-0.458792 2.4582364,-0.975788 2.4631732,-0.516995 7.5261262,-1.191365 10.2061632,-1.578358 2.680037,-0.386993 2.9763,-0.48813 3.204673,-0.692226 0.228372,-0.204098 0.388988,-0.511696 0.462873,-0.771457 0.07389,-0.259761 0.06206,-0.470207 -0.05213,-0.748522 -0.114185,-0.278314 -0.32942,-0.62432 -0.60257,-0.913238 -0.27315,-0.288917 -0.605469,-0.521933 -0.775627,-0.450364 -0.170158,0.07157 -0.179201,0.448536 -1.75767,0.838178 -1.578469,0.389641 -4.725557,0.792143 -7.260032,1.144675 -2.5344764,0.352532 -4.4557221,0.654575 -5.5774242,0.879877 -1.1217012,0.225302 -1.4448211,0.373697 -1.6888639,0.625506 -0.2440437,0.251809 -0.4090577,0.60845 -0.4336844,0.942428 -0.024628,0.333979 0.09256,0.644928 0.2627133,0.886133 0.1701597,0.241206 0.3937297,0.412517 0.7068201,0.579635 0.2348181,0.125338 0.5191098,0.247878 0.702651,0.260626 z m -0.2668825,-5.17293 c 0.059638,-2.73e-4 0.107967,-0.01097 0.1417824,-0.03545 0.1352587,-0.0979 0.023498,-0.413127 2.560401,-0.906983 2.5369042,-0.493854 7.7226412,-1.167021 10.4667912,-1.553337 2.74415,-0.386317 3.045897,-0.486402 3.279733,-0.690142 0.233836,-0.20374 0.399731,-0.510064 0.475384,-0.769371 0.07565,-0.259307 0.06271,-0.470695 -0.05421,-0.748523 -0.116917,-0.277825 -0.337481,-0.622739 -0.617166,-0.911152 -0.279684,-0.288412 -0.620163,-0.521807 -0.794391,-0.450363 -0.174229,0.07143 -0.183141,0.447132 -1.799371,0.836092 -1.61623,0.38896 -4.837983,0.79276 -7.433089,1.144675 -2.5951066,0.351914 -4.5623278,0.652884 -5.7108651,0.877792 -1.1485354,0.224908 -1.4785966,0.372052 -1.7284788,0.623421 -0.2498823,0.251369 -0.4209777,0.606949 -0.4461938,0.940342 -0.025216,0.333395 0.094734,0.64535 0.2689665,0.886133 0.1742321,0.240784 0.4031309,0.410025 0.7089071,0.554614 0.2293307,0.108444 0.5028896,0.20307 0.6817995,0.202247 z M 5.8581515,59.869411 c 0.057322,0.0023 0.1047032,-0.0089 0.1396973,-0.03336 0.1399953,-0.09765 0.06724,-0.437394 2.7146927,-0.942428 2.6474465,-0.505035 8.0143375,-1.174278 10.8546035,-1.559594 2.840266,-0.385315 3.154468,-0.484844 3.396494,-0.688056 0.242026,-0.203212 0.411676,-0.510737 0.48998,-0.769371 0.0783,-0.258634 0.06472,-0.46933 -0.0563,-0.746437 -0.121011,-0.277107 -0.348534,-0.619318 -0.638015,-0.906982 -0.289481,-0.287665 -0.641166,-0.521624 -0.821497,-0.450364 -0.180331,0.07125 -0.189081,0.446055 -1.861921,0.834007 -1.67284,0.387951 -5.0098,0.789502 -7.695802,1.140505 -2.686002,0.351003 -4.7201763,0.651382 -5.9089407,0.875707 -1.1887644,0.224324 -1.5323969,0.372703 -1.7910303,0.623421 -0.2586343,0.250717 -0.4326044,0.605727 -0.4587041,0.938258 -0.026099,0.332529 0.096974,0.643888 0.2773077,0.884047 0.1803335,0.24016 0.4182767,0.408364 0.7130762,0.56504 0.2210987,0.117507 0.4743918,0.228835 0.6463547,0.235607 z M 5.5787597,54.806988 c 0.045136,0.0036 0.085177,-0.0048 0.120931,-0.02918 0.1429933,-0.09749 0.2009523,-0.452124 2.9711508,-0.963279 2.7701965,-0.511154 8.2537175,-1.179073 11.1548455,-1.563764 2.901128,-0.384689 3.220173,-0.485174 3.467385,-0.688056 0.247213,-0.202881 0.422508,-0.509071 0.50249,-0.767286 0.07998,-0.258215 0.06522,-0.467693 -0.05838,-0.744352 -0.123605,-0.276658 -0.356927,-0.619784 -0.65261,-0.906982 -0.295684,-0.287199 -0.653983,-0.519423 -0.838178,-0.448279 -0.184195,0.07114 -0.19285,0.4446 -1.901536,0.831922 -1.708686,0.387323 -5.116959,0.787986 -7.860516,1.13842 -2.7435592,0.350433 -4.8239757,0.651747 -6.0382124,0.875708 -1.2142377,0.223961 -1.5623004,0.371024 -1.8264762,0.621335 -0.2641767,0.250311 -0.4445557,0.604183 -0.4712143,0.936172 -0.026659,0.331992 0.099366,0.642194 0.2835628,0.881964 0.184198,0.23977 0.4279418,0.407935 0.663036,0.571294 0.176319,0.12252 0.3483047,0.243383 0.4837237,0.254373 z m -0.168887,-5.308456 c 0.046086,0.0036 0.088603,-0.0048 0.125102,-0.02918 0.1459923,-0.09734 0.2054052,-0.448775 3.0337003,-0.959108 2.828296,-0.510333 8.424311,-1.179692 11.386284,-1.563764 2.961972,-0.384072 3.287963,-0.483416 3.54036,-0.685972 0.252397,-0.202554 0.431256,-0.5074 0.512914,-0.765201 0.08166,-0.257799 0.06782,-0.468139 -0.05838,-0.744351 -0.126197,-0.276214 -0.365321,-0.618161 -0.667206,-0.904898 -0.301885,-0.286737 -0.666799,-0.519308 -0.854857,-0.448278 -0.188058,0.07104 -0.198715,0.445221 -1.943237,0.831921 -1.744522,0.3867 -5.224136,0.786465 -8.025234,1.136336 -2.8010983,0.349869 -4.9236096,0.65002 -6.163312,0.873622 -1.2397034,0.223601 -1.5963748,0.371426 -1.8660911,0.621335 -0.2697172,0.249908 -0.4523369,0.602632 -0.4795546,0.934088 -0.027219,0.331457 0.1017574,0.640493 0.2898171,0.879878 0.1880615,0.239384 0.4355227,0.408196 0.6755463,0.571294 0.1800193,0.122324 0.3558913,0.241316 0.4941489,0.252287 z M 5.05125,44.204671 c 0.06445,0.0028 0.1177488,-0.007 0.1563758,-0.03128 0.1545109,-0.0969 0.063377,-0.439946 2.979491,-0.944512 2.9161102,-0.504567 8.8395302,-1.168907 11.9742582,-1.551254 3.134729,-0.382347 3.47966,-0.482239 3.746778,-0.683886 0.267117,-0.201646 0.455683,-0.506474 0.542104,-0.763116 0.08642,-0.256642 0.07101,-0.465209 -0.06255,-0.740182 -0.133558,-0.274973 -0.385244,-0.615278 -0.704736,-0.900728 -0.319493,-0.285448 -0.705872,-0.516904 -0.904898,-0.446192 -0.199027,0.07071 -0.209558,0.442787 -2.055828,0.827751 -1.84627,0.384964 -5.529892,0.783865 -8.494364,1.132165 -2.96447,0.348299 -5.2099271,0.646855 -6.5219352,0.869452 -1.3120091,0.222597 -1.6890641,0.368379 -1.9745117,0.617165 -0.2854477,0.248787 -0.479939,0.599949 -0.5087453,0.929918 -0.028803,0.329969 0.1074678,0.639484 0.3064984,0.877794 0.1990287,0.238308 0.4611393,0.406149 0.7923062,0.565038 0.2483761,0.119168 0.5364241,0.233057 0.7297566,0.241863 z"/>
  </g>
</svg>