<svg xmlns="http://www.w3.org/2000/svg" xmlns:svg="http://www.w3.org/2000/svg" width="43.914047" height="67.927681" viewBox="0 0 43.914047 67.927682" version="1.1" id="svg1" xml:space="preserve">
  <g id="tooth_27_root">
    <path id="tooth_27_root_2" style="fill:#ffdf5d;fill-opacity:1;stroke:#000000;stroke-width:0.999999;stroke-dasharray:none" d="m 21.485912,2.534836 c -0.277828,0.01066 -0.551622,0.08316 -0.809538,0.181011 -0.687773,0.260932 -1.254729,0.701106 -1.537922,0.920844 -0.183237,0.142174 -0.330732,0.290707 -0.587346,0.572574 -0.06491,0.344089 -0.132951,0.685513 -0.195127,1.060543 -0.175311,1.0575 -0.282203,2.210819 -0.322656,3.996223 -0.04045,1.7854 -0.01309,4.20268 0.08113,6.207815 0.0944,2.005134 0.256106,3.599231 0.633719,5.13746 0.377601,1.538179 0.970241,3.020577 1.765905,3.817157 0.795663,0.79658 1.793456,0.907608 2.643066,0.413196 0.84961,-0.494412 1.551034,-1.593045 2.076971,-2.705463 0.525934,-1.112455 0.876466,-2.239532 1.308007,-3.736509 0.06333,-0.219696 0.132876,-0.488057 0.199015,-0.722116 -0.17202,-0.414323 -0.348341,-0.843226 -0.510065,-1.241562 C 25.651183,15.007697 25.165726,13.63372 24.896014,12.123001 24.626299,10.612282 24.572536,8.96414 24.289346,7.302353 24.006134,5.640561 23.493365,3.964968 22.832566,3.168399 22.41957,2.670541 21.948956,2.516994 21.48592,2.534828 Z"/>
    <path id="tooth_27_root_1" style="fill:#fff5d0;fill-opacity:1;stroke:#000000;stroke-width:0.999999;stroke-dasharray:none" d="m 16.765875,0.523937 c -0.153178,-0.01447 -0.308113,-0.01256 -0.459828,0.008 -0.606856,0.0824 -1.173123,0.466571 -1.968775,1.23566 -0.795656,0.769086 -1.819362,1.922651 -2.938673,3.392161 -1.119306,1.469513 -2.3328601,3.254655 -3.3038311,5.38339 -0.970971,2.128732 -1.699912,4.602113 -2.26631,7.293938 -0.566402,2.691828 -0.970436,5.60229 -1.15924,8.513857 -0.188808,2.911567 -0.162861,5.822829 -0.365166,8.11639 -0.163572,1.854511 -0.471336,3.278501 -0.699409,4.208727 0.09698,-0.18086 0.178975,-0.312601 0.233785,-0.393512 0.136167,-0.20142 0.136092,-0.20142 1.680897,-0.570639 1.54479,-0.368953 4.6345431,-1.10743 7.7050751,-1.534714 3.070535,-0.427285 6.121487,-0.543339 9.134804,-0.562758 3.013321,-0.01904 5.989048,0.05787 8.773508,0.407295 2.784459,0.349534 5.377422,0.971119 6.771887,1.416679 1.048977,0.335066 1.420559,0.571592 1.767839,1.143183 -0.03365,-0.694842 -0.107752,-1.391626 -0.183537,-2.327677 C 39.381,34.921761 39.272426,33.109057 39.24547,30.842986 39.21855,28.576916 39.27239,25.857898 39.16434,23.413291 39.056437,20.968645 38.786733,18.798468 38.49005,16.477462 38.193379,14.156452 37.870352,11.684659 37.371383,9.734452 36.872414,7.784249 36.198302,6.356212 35.416131,5.037763 34.633965,3.719315 33.742682,2.509892 32.974002,2.001739 32.205325,1.493582 31.558225,1.686244 31.032277,2.139459 30.506332,2.592673 30.101909,3.307451 29.737794,4.40615 c -0.364119,1.098699 -0.686697,2.579989 -0.969898,4.104437 -0.283212,1.524449 -0.526606,3.09015 -0.904204,4.806877 -0.377597,1.716726 -0.889992,3.585356 -1.321533,5.082345 -0.43154,1.49697 -0.782073,2.624046 -1.308006,3.736501 -0.525937,1.112418 -1.227361,2.211052 -2.076971,2.705464 -0.849611,0.494412 -1.847403,0.383383 -2.643067,-0.413197 -0.795663,-0.79658 -1.388304,-2.278978 -1.765905,-3.817157 -0.377605,-1.538206 -0.539318,-3.132318 -0.633718,-5.137452 -0.0944,-2.005135 -0.121623,-4.422415 -0.08113,-6.207816 C 18.073812,7.480749 18.180707,6.32743 18.356018,5.269929 18.531329,4.212429 18.775232,3.25108 18.76175,2.536918 18.74829,1.822753 18.478349,1.355363 18.019837,1.012017 17.675945,0.754511 17.225486,0.567183 16.765923,0.524051 Z"/>
  </g>
  <path style="display:inline;fill:#ffffff;fill-opacity:1;stroke:#000000;stroke-width:0.999999;stroke-dasharray:none" d="m 5.5198219,37.711295 c 1.544791,-0.368952 4.6343561,-1.107048 7.7048921,-1.534333 3.070535,-0.427284 6.121905,-0.543796 9.135223,-0.563214 3.013321,-0.01904 5.988405,0.05826 8.772864,0.407866 2.784463,0.349534 5.378122,0.971118 6.772587,1.416679 1.394466,0.445561 1.589779,0.715327 2.125695,1.832161 0.53592,1.116796 1.412457,3.08066 1.999081,5.037747 0.586629,1.957049 0.883308,3.907206 1.07885,5.78186 0.195538,1.874653 0.289942,3.673764 0.303439,5.308084 0.01346,1.634282 -0.05391,3.103772 -0.397817,4.552702 -0.343892,1.448891 -0.964211,2.877184 -1.867757,4.017092 -0.903546,1.139908 -2.090244,1.991355 -3.290465,2.526965 -1.200221,0.53561 -2.413906,0.755382 -3.843392,0.86523 -1.429487,0.110039 -3.074686,0.110039 -4.665997,-0.192282 -1.591309,-0.30232 -3.12864,-0.906428 -4.50418,-1.277246 -1.37554,-0.370857 -2.589191,-0.508158 -3.587129,-0.46696 -0.997939,0.04112 -1.780098,0.260818 -2.656668,0.563063 -0.876571,0.30232 -1.847508,0.686693 -3.223048,0.892682 -1.375539,0.20599 -3.155607,0.233404 -4.787372,0.247111 -1.6317661,0.01523 -3.1151471,0.01523 -4.4637231,-0.508195 -1.348572,-0.521903 -2.562245,-1.565632 -3.438808,-2.856585 -0.876563,-1.290992 -1.415971,-2.829133 -1.73962504,-4.394765 -0.323666,-1.565669 -0.431544,-3.158753 -0.445034,-4.902921 -0.01346,-1.744206 0.06741,-3.639421 0.283175,-5.259995 0.21576404,-1.620613 0.56638704,-2.966472 0.98444504,-4.573339 0.418059,-1.606867 0.903523,-3.474591 1.28243,-4.609854 0.378906,-1.135262 0.651208,-1.53795 0.78737,-1.739332 0.136166,-0.20142 0.136166,-0.20142 1.680957,-0.570259 z" id="tooth_27_crown"/>
  	 <g id="tooth_27_implant" style="display: none">
  <path id="tooth_27_implant-1" style="fill:#9a9a9a;fill-opacity:1;stroke:#000000;stroke-width:0.683168;stroke-dasharray:none" d="M 21.76324,0.34181357 C 21.560625,0.33648257 21.347751,0.41162047 20.873207,0.715537 20.398663,1.0194583 19.662909,1.5524283 18.99108,2.2029286 18.319249,2.853429 17.710686,3.620939 17.364104,4.2021278 c -0.346581,0.5811875 -0.43147,0.9765092 -0.48479,1.4723818 -0.05332,0.4958739 -0.07363,1.093469 -0.169602,2.8156889 -0.09597,1.7222185 -0.267681,4.5681755 -0.486291,8.9723775 -0.218611,4.404202 -0.485355,10.443736 -0.751951,16.404833 H 28.076025 C 27.894739,29.964437 27.713788,25.887691 27.495177,21.280865 27.276566,16.674039 27.0216,11.364161 26.872303,8.4901985 26.723007,5.6162353 26.680222,5.1778575 26.525596,4.7619628 26.370969,4.3460681 26.103895,3.9513734 25.389414,3.2475552 24.674933,2.5437363 23.51205,1.5318964 22.834883,0.9826983 22.157718,0.4334983 21.965856,0.34714645 21.76324,0.34181357 Z M 5.1043229,33.867409 3.5372179,38.818988 H 39.628987 L 38.41257,33.867409 Z"/>
  <path id="tooth_27_implant-2" style="fill:#656565;fill-opacity:1;stroke:#000000;stroke-width:0.683168;stroke-dasharray:none" d="m 25.332585,2.7099301 c -0.134539,-0.00334 -0.221897,0.013889 -0.211627,0.063036 0.02739,0.1310789 0.639424,0.4344469 -0.666399,0.8149883 -1.305823,0.3805421 -4.687315,0.7609865 -6.470378,0.9875922 -1.783063,0.2266051 -1.968333,0.2989663 -2.111766,0.4472686 -0.143433,0.1483022 -0.24477,0.3725859 -0.291175,0.5613359 -0.04641,0.1887499 -0.03719,0.3425948 0.03452,0.5448271 0.07172,0.2022309 0.20667,0.4519605 0.378226,0.6618962 0.171557,0.2099374 0.379422,0.3792007 0.486292,0.3271967 0.10687,-0.052012 0.111778,-0.32474 1.103161,-0.6078649 0.991384,-0.283125 2.969416,-0.5753381 4.561234,-0.8314984 1.591819,-0.2561597 2.798596,-0.4771736 3.5031,-0.6408841 C 26.352278,4.8741125 26.554134,4.7675244 26.70741,4.5845521 26.860686,4.4015797 26.965105,4.1428206 26.980573,3.9001419 26.996043,3.6574626 26.922343,3.4300221 26.815474,3.2547544 26.708603,3.0794882 26.567937,2.9559665 26.164084,2.8465099 25.911676,2.7781019 25.556818,2.7155669 25.332585,2.709928 Z m 1.422853,3.6892118 c -0.02862,-0.00266 -0.05539,0.00328 -0.07805,0.021008 -0.09065,0.070845 -0.127421,0.3264733 -1.883629,0.6979183 -1.756208,0.3714446 -5.231526,0.8581361 -7.070739,1.1376817 -1.839213,0.279545 -2.042094,0.35237 -2.198817,0.4997991 -0.156725,0.1474304 -0.267486,0.3691952 -0.318191,0.5568349 -0.0507,0.1876383 -0.04084,0.3407836 0.03752,0.5418243 0.07836,0.2010408 0.225294,0.4501938 0.412747,0.6588948 0.187453,0.208701 0.416046,0.377394 0.532819,0.325695 0.116774,-0.0517 0.121976,-0.323404 1.205223,-0.604862 C 18.47757,9.9524776 20.637991,9.6615914 22.37731,9.4069405 24.116629,9.1522875 25.43482,8.9333058 26.204604,8.7705581 26.974388,8.607811 27.19582,8.5006825 27.363299,8.3187876 27.530777,8.136892 27.645077,7.8801303 27.661978,7.6388796 27.678876,7.3976297 27.598642,7.1722308 27.48187,6.9979956 27.365096,6.82376 27.21066,6.7009571 27.061619,6.5822462 26.949838,6.4932136 26.841287,6.407122 26.755436,6.3991365 Z m 0.114069,3.8693191 c -0.04404,-0.0031 -0.07979,0.0018 -0.103562,0.01951 -0.09509,0.0706 0.0036,0.330261 -1.769561,0.702421 -1.773115,0.372158 -5.41768,0.857603 -7.346903,1.13618 -1.929225,0.278577 -2.14249,0.35138 -2.306884,0.498299 -0.164394,0.14692 -0.280013,0.368344 -0.333199,0.555333 -0.05318,0.186989 -0.04467,0.338479 0.03752,0.538823 0.0822,0.200345 0.237133,0.449417 0.43376,0.657395 0.196627,0.207977 0.435846,0.375713 0.558334,0.324194 0.122489,-0.05152 0.128998,-0.322879 1.265259,-0.603362 1.13626,-0.280483 3.40169,-0.570224 5.226132,-0.823995 1.824442,-0.253769 3.20745,-0.471195 4.014908,-0.633379 0.807456,-0.162184 1.040054,-0.269005 1.215728,-0.45027 0.175675,-0.181265 0.29446,-0.437993 0.312187,-0.678407 0.01773,-0.240414 -0.06663,-0.464251 -0.189113,-0.637882 -0.12249,-0.173632 -0.283427,-0.29695 -0.508805,-0.41725 -0.169034,-0.09022 -0.373681,-0.178435 -0.505803,-0.187612 z m 0.192115,3.723732 c -0.04293,1.98e-4 -0.07772,0.0079 -0.102061,0.02552 -0.09737,0.07048 -0.01691,0.29739 -1.843104,0.652892 -1.826191,0.355501 -5.559142,0.84008 -7.534517,1.118169 -1.975376,0.27809 -2.192589,0.350136 -2.360916,0.496799 -0.168327,0.146662 -0.287745,0.367169 -0.342204,0.553831 -0.05447,0.186662 -0.04514,0.33883 0.03902,0.538824 0.08416,0.199993 0.242935,0.448279 0.444266,0.655893 0.201331,0.207613 0.446425,0.375623 0.571843,0.324193 0.125418,-0.05142 0.131833,-0.321867 1.295276,-0.60186 1.163443,-0.279993 3.48262,-0.570668 5.350708,-0.823995 1.868086,-0.253325 3.28419,-0.469978 4.110964,-0.631877 0.826773,-0.1619 1.064368,-0.267822 1.244245,-0.44877 0.179878,-0.180948 0.303041,-0.436912 0.321193,-0.676905 0.01815,-0.239994 -0.06819,-0.464555 -0.193616,-0.637882 -0.125421,-0.173329 -0.290193,-0.295157 -0.510307,-0.39924 -0.165083,-0.07806 -0.362004,-0.146179 -0.490793,-0.145587 z m 0.265659,3.858814 c -0.04127,-0.0017 -0.07537,0.0064 -0.100561,0.02401 -0.100776,0.07029 -0.0484,0.314857 -1.954171,0.678406 -1.905763,0.363549 -5.769118,0.845304 -7.813683,1.122673 -2.044565,0.27737 -2.270743,0.349015 -2.444965,0.495297 -0.174223,0.146282 -0.296346,0.367654 -0.352712,0.553832 -0.05637,0.186178 -0.04658,0.337847 0.04053,0.537322 0.08711,0.199475 0.250892,0.445815 0.459275,0.652891 0.208382,0.207075 0.461542,0.375491 0.591355,0.324194 0.12981,-0.05129 0.136109,-0.321093 1.340302,-0.600359 1.204195,-0.279267 3.606303,-0.568323 5.539821,-0.820993 1.933518,-0.252669 3.397818,-0.468897 4.25355,-0.630377 0.855732,-0.16148 1.103096,-0.26829 1.289273,-0.44877 0.186177,-0.180479 0.31141,-0.436032 0.330197,-0.675404 0.01879,-0.239371 -0.06981,-0.463502 -0.199619,-0.636382 -0.129813,-0.172879 -0.301097,-0.29396 -0.513308,-0.406743 -0.159158,-0.08459 -0.341491,-0.164727 -0.465279,-0.169602 z m 0.20112,3.644184 c -0.03249,-0.0026 -0.06132,0.0035 -0.08705,0.02101 -0.102935,0.07018 -0.144656,0.325463 -2.138783,0.693417 -1.994125,0.367954 -5.941436,0.848755 -8.029813,1.125675 -2.088376,0.276918 -2.31804,0.349252 -2.495995,0.495297 -0.177957,0.146044 -0.304143,0.366455 -0.361717,0.552331 -0.05758,0.185876 -0.04695,0.336668 0.04202,0.535822 0.08898,0.199151 0.256934,0.44615 0.469782,0.65289 0.212848,0.20674 0.470769,0.373907 0.603361,0.322694 0.132594,-0.05121 0.138824,-0.320046 1.368821,-0.59886 1.229997,-0.278814 3.683441,-0.567231 5.65839,-0.81949 1.97495,-0.25226 3.472538,-0.469161 4.346606,-0.630379 0.874068,-0.161218 1.124621,-0.267081 1.314788,-0.447268 0.190168,-0.180186 0.320013,-0.434921 0.339204,-0.673903 0.01919,-0.238984 -0.07153,-0.462283 -0.204123,-0.634882 -0.132595,-0.172598 -0.308054,-0.293652 -0.477286,-0.411245 -0.126923,-0.0882 -0.250727,-0.175199 -0.348209,-0.18311 z m 0.121574,3.821291 c -0.03318,-0.0026 -0.06378,0.0035 -0.09005,0.02101 -0.105092,0.07007 -0.147861,0.323051 -2.183808,0.690415 -2.035948,0.367362 -6.064239,0.8492 -8.196413,1.125674 -2.132176,0.276474 -2.36684,0.347987 -2.548528,0.493797 -0.181688,0.145808 -0.310439,0.365252 -0.369222,0.55083 -0.05878,0.185577 -0.04882,0.336989 0.04202,0.535821 0.09084,0.198832 0.262976,0.444982 0.480288,0.65139 0.217312,0.206407 0.479996,0.373824 0.615369,0.322693 0.135374,-0.05113 0.143045,-0.320492 1.398838,-0.598858 1.255794,-0.278366 3.760593,-0.566137 5.776963,-0.817991 2.01637,-0.251854 3.544259,-0.467917 4.436659,-0.628877 0.8924,-0.160959 1.149149,-0.267371 1.343305,-0.447267 0.194156,-0.179897 0.325614,-0.433805 0.345208,-0.672404 0.01959,-0.238598 -0.07325,-0.461058 -0.208626,-0.63338 -0.135375,-0.172321 -0.31351,-0.29384 -0.486291,-0.411246 -0.129587,-0.08805 -0.256189,-0.17371 -0.355713,-0.181608 z m 0.258154,3.810784 c -0.0464,-0.002 -0.08476,0.0051 -0.112567,0.02252 -0.111224,0.06975 -0.04562,0.316695 -2.144785,0.679907 -2.099162,0.363212 -6.363134,0.841437 -8.619668,1.116669 -2.256533,0.275232 -2.504831,0.34714 -2.697116,0.492295 -0.192285,0.145155 -0.328023,0.364585 -0.390234,0.549329 -0.06221,0.184744 -0.05111,0.334881 0.04503,0.53282 0.09614,0.197939 0.277317,0.442908 0.507304,0.648389 0.229986,0.205479 0.508121,0.372093 0.65139,0.321192 0.14327,-0.05091 0.15085,-0.318742 1.479887,-0.595857 1.329037,-0.277117 3.980691,-0.564266 6.114665,-0.814989 2.133974,-0.250723 3.750366,-0.465638 4.694814,-0.625875 0.94445,-0.160236 1.215873,-0.265177 1.421352,-0.444266 0.205479,-0.179089 0.345484,-0.431873 0.36622,-0.669401 0.02074,-0.237528 -0.07736,-0.460333 -0.220632,-0.63188 -0.143271,-0.171546 -0.331951,-0.292366 -0.570342,-0.406743 -0.178793,-0.08578 -0.386145,-0.167766 -0.525315,-0.174105 z"/>
</g>
</svg>