<svg xmlns="http://www.w3.org/2000/svg" xmlns:svg="http://www.w3.org/2000/svg" width="27.733868" height="88.008469" viewBox="0 0 27.733868 88.008468" version="1.1" id="svg1" xml:space="preserve" xmlns:sodipodi="http://sodipodi.sourceforge.net/DTD/sodipodi-0.dtd" sodipodi:docname="porto_tooth_44.svg" xmlns:inkscape="http://www.inkscape.org/namespaces/inkscape" inkscape:version="1.4 (86a8ad7, 2024-10-11)">
  <path id="tooth_44_root" style="display:inline;fill:#fff5d0;fill-opacity:1;stroke:#000000;stroke-width:1;stroke-dasharray:none" d="m 23.158641,30.215325 c -0.504447,0.801534 -1.141718,1.47859 -2.08716,1.983806 -1.795917,0.95969 -4.691173,1.316519 -6.138602,1.494744 -1.44743,0.178262 -1.447486,0.178642 -2.680478,0.164959 -1.232993,-0.0152 -3.6990044,-0.04219 -5.3340744,-0.398715 -0.966031,-0.21057 -1.638711,-0.54429 -2.204292,-1.207966 0.285027,1.052433 0.594191,2.132726 0.850612,3.181966 0.629894,2.577432 0.89923,4.909287 1.113664,11.352923 0.21443,6.443636 0.374846,16.999547 0.522271,24.375355 0.147437,7.375846 0.2812,11.56965 0.589476,13.845442 0.308287,2.27583 0.791173,2.633457 1.488087,2.455233 0.696914,-0.178263 1.6081394,-0.892263 2.6267164,-2.441473 1.018574,-1.549211 2.143627,-3.934545 3.081779,-7.457946 0.938156,-3.523439 1.68875,-8.183538 2.693921,-14.613453 1.005167,-6.429877 2.264321,-14.627555 3.108661,-20.207397 0.84434,-5.57988 1.274801,-8.542914 1.891312,-10.846148 0.16137,-0.602938 0.331881,-1.158782 0.478107,-1.68133 z"/>
  <path style="display:inline;fill:#ffffff;fill-opacity:1;stroke:#000000;stroke-width:1;stroke-dasharray:none" d="m 12.252969,33.858036 c -1.232992,-0.0152 -3.6989934,-0.04105 -5.3340624,-0.397499 -1.63507,-0.356525 -2.439188,-1.041904 -3.283528,-3.139509 -0.844339,-2.097606 -1.72886,-5.607209 -2.34536,-9.569349 -0.616503,-3.962139 -0.964953,-8.376548 -0.710298,-11.1733296 0.254634,-2.7967819 1.112368,-3.9757846 3.082508,-5.2233936 1.970143,-1.247571 5.052568,-2.5636723 7.3309544,-3.2902913 2.278386,-0.72661901 3.752564,-0.86371765 6.13818,0.1919457 2.385614,1.0556633 5.682477,3.3040126 7.585583,5.141142 1.903101,1.8370913 2.412364,3.2628488 2.50618,5.6894988 0.09382,2.426649 -0.227806,5.854001 -0.790723,8.691909 -0.562898,2.837946 -1.367004,5.086257 -2.117531,6.991917 -0.750527,1.905659 -1.44743,3.468553 -3.243343,4.428244 -1.795916,0.959652 -4.690708,1.316101 -6.138138,1.494326 -1.447429,0.178262 -1.447429,0.178262 -2.680422,0.164579 z" id="tooth_44_crown"/>
  <g id="tooth_44_implant">
    <path id="tooth_44_implant-1" style="fill:#9a9a9a;fill-opacity:1;stroke:#000000;stroke-width:0.842379;stroke-dasharray:none" d="m 13.436692,78.172919 c 0.249834,0.0065 0.512317,-0.08608 1.097452,-0.460819 0.585135,-0.374749 1.492354,-1.031926 2.320751,-1.834023 0.828398,-0.802097 1.578785,-1.748472 2.006136,-2.465104 0.427351,-0.716631 0.532022,-1.204081 0.597769,-1.815515 0.06575,-0.611436 0.09079,-1.348298 0.209126,-3.471874 0.118342,-2.123575 0.330063,-5.632771 0.59962,-11.063356 0.269557,-5.430584 0.598464,-12.781373 0.92719,-20.13168 L 5.6527381,37.048991 c 0.2235336,4.812545 0.4466545,9.624682 0.7162122,15.305112 0.2695578,5.680428 0.583942,12.227753 0.768032,15.771481 0.1840892,3.543729 0.2368449,4.084269 0.4275063,4.597086 0.1906615,0.512818 0.5199759,0.999494 1.4009641,1.867335 0.8809882,0.867841 2.3148763,2.115487 3.1498553,2.792673 0.834975,0.677189 1.07155,0.783665 1.321384,0.790241 z M 21.226198,36.834313 22.725247,31.01763 H 4.027842 l 1.5582707,5.816683 z"/>
    <path id="tooth_44_implant-2" style="fill:#656565;fill-opacity:1;stroke:#000000;stroke-width:0.842379;stroke-dasharray:none" d="m 8.8173979,74.494711 c 0.1658939,0.0041 0.2736097,-0.01713 0.2609462,-0.07773 -0.033771,-0.161626 -0.7884394,-0.535693 0.8217016,-1.004918 1.6101393,-0.469226 5.7796753,-0.938331 7.9782743,-1.217747 2.198599,-0.279414 2.427045,-0.368639 2.603905,-0.551502 0.17686,-0.182864 0.301812,-0.459416 0.359032,-0.692153 0.05722,-0.232738 0.04586,-0.422436 -0.04257,-0.671797 -0.08843,-0.24936 -0.254834,-0.557289 -0.466371,-0.816149 -0.211537,-0.258862 -0.467844,-0.467572 -0.59962,-0.403448 -0.131776,0.06413 -0.137827,0.400419 -1.360248,0.749525 -1.222422,0.349106 -3.661427,0.709418 -5.624212,1.025276 -1.962786,0.315856 -3.4507991,0.588377 -4.3194844,0.790239 -0.8686853,0.201864 -1.1175829,0.333292 -1.3065789,0.558905 -0.1889969,0.225614 -0.3177511,0.544675 -0.3368234,0.843909 -0.019071,0.299235 0.071796,0.57968 0.2035742,0.795793 0.1317775,0.216111 0.305225,0.368419 0.8031946,0.503384 0.3112311,0.08435 0.748787,0.161459 1.0252758,0.168412 z m -1.754443,-4.548969 c 0.035287,0.0033 0.068292,-0.004 0.096235,-0.0259 0.1117803,-0.08736 0.1571163,-0.402557 2.3226013,-0.860566 2.1654858,-0.458008 6.4507118,-1.058121 8.7185468,-1.402814 2.267835,-0.344692 2.517996,-0.434488 2.711244,-0.616275 0.193248,-0.181788 0.329822,-0.455234 0.392344,-0.686603 0.06252,-0.231367 0.05036,-0.420202 -0.04627,-0.668095 -0.09662,-0.247892 -0.277798,-0.555109 -0.508936,-0.812448 -0.231139,-0.257337 -0.513004,-0.465343 -0.656991,-0.401596 -0.143987,0.06375 -0.150401,0.398772 -1.486095,0.745823 -1.335693,0.347051 -3.999592,0.705727 -6.144252,1.019723 -2.144662,0.313999 -3.7700516,0.584014 -4.7192311,0.784689 -0.9491788,0.200674 -1.2222148,0.332769 -1.4287239,0.557054 -0.2065083,0.224285 -0.3474458,0.540884 -0.3682854,0.838358 -0.020832,0.297472 0.078097,0.575399 0.2220813,0.790239 0.1439895,0.21484 0.3344159,0.366262 0.5181901,0.512638 0.1378317,0.109781 0.2716806,0.215936 0.3775389,0.225783 z M 6.922303,65.174693 c 0.0543,0.0038 0.098384,-0.0023 0.127697,-0.02406 0.1172523,-0.08705 -0.00438,-0.407228 2.1819501,-0.866118 2.1863319,-0.458888 6.6802499,-1.057465 9.0590719,-1.400963 2.378822,-0.343498 2.641787,-0.433267 2.844492,-0.614425 0.202706,-0.181159 0.345269,-0.454185 0.410851,-0.684751 0.06558,-0.230566 0.05508,-0.41736 -0.04627,-0.664394 -0.101351,-0.247035 -0.292395,-0.554151 -0.534846,-0.810598 -0.24245,-0.256445 -0.537419,-0.463272 -0.688452,-0.399746 -0.151034,0.06352 -0.15906,0.398124 -1.560122,0.743973 -1.401062,0.345848 -4.194442,0.703113 -6.444063,1.016023 -2.249621,0.31291 -3.9549338,0.581006 -4.9505655,0.780986 -0.9956309,0.19998 -1.2824347,0.331696 -1.499049,0.555204 -0.2166151,0.223508 -0.3630828,0.540065 -0.3849417,0.836506 -0.02186,0.296443 0.082157,0.572443 0.2331864,0.786539 0.1510351,0.214096 0.3494776,0.366153 0.6273792,0.514488 0.2084263,0.111252 0.4607659,0.220019 0.6236786,0.231334 z M 6.685416,60.583159 c 0.052935,-2.42e-4 0.095832,-0.0097 0.1258471,-0.03146 0.1200567,-0.0869 0.020857,-0.366695 2.2726323,-0.805046 2.2517766,-0.438349 6.8546776,-1.035857 9.2904066,-1.378754 2.435729,-0.342898 2.703563,-0.431735 2.911117,-0.612576 0.207555,-0.180841 0.354804,-0.452737 0.421955,-0.6829 0.06715,-0.230162 0.05566,-0.417792 -0.04812,-0.664394 -0.103776,-0.2466 -0.299551,-0.552749 -0.547801,-0.808746 -0.24825,-0.255997 -0.550462,-0.463161 -0.705109,-0.399746 -0.154646,0.06341 -0.162557,0.396878 -1.597135,0.742122 -1.434579,0.345243 -4.294232,0.70366 -6.597669,1.016023 -2.3034374,0.312361 -4.0495586,0.579505 -5.0690094,0.779134 -1.0194491,0.199631 -1.3124141,0.330237 -1.5342116,0.553354 -0.2217974,0.223117 -0.3736631,0.538733 -0.3960451,0.834656 -0.022382,0.295923 0.084086,0.572817 0.2387368,0.786538 0.1546498,0.213721 0.3578223,0.363941 0.6292316,0.49228 0.2035557,0.09625 0.4463688,0.180246 0.6051707,0.179516 z M 6.3578461,55.825066 c 0.05088,0.002 0.092935,-0.0079 0.1239965,-0.02961 0.1242609,-0.08667 0.059683,-0.388234 2.4095827,-0.836506 2.3498947,-0.448273 7.1135897,-1.042299 9.6346327,-1.384308 2.521043,-0.342009 2.799931,-0.430351 3.014755,-0.610724 0.214824,-0.180372 0.365407,-0.453334 0.434909,-0.6829 0.0695,-0.229566 0.05744,-0.416581 -0.04997,-0.662544 -0.107411,-0.245962 -0.309362,-0.549711 -0.566307,-0.805044 -0.256946,-0.255333 -0.569104,-0.462997 -0.729168,-0.399747 -0.160063,0.06325 -0.16783,0.395923 -1.652656,0.740272 -1.484826,0.344348 -4.446737,0.700768 -6.830854,1.012321 -2.384117,0.311553 -4.1896662,0.578172 -5.244823,0.777284 -1.0551567,0.199113 -1.3601677,0.330814 -1.5897327,0.553354 -0.2295658,0.222539 -0.3839831,0.537648 -0.4071494,0.832805 -0.023165,0.295156 0.086075,0.57152 0.2461405,0.784687 0.1600655,0.213168 0.3712658,0.362467 0.6329322,0.501534 0.1962489,0.104301 0.4210739,0.203116 0.5737095,0.209127 z M 6.1098557,51.331618 c 0.040064,0.0032 0.075604,-0.0043 0.1073393,-0.0259 0.126922,-0.08653 0.1783669,-0.401309 2.637217,-0.855014 2.458848,-0.453704 7.326066,-1.046554 9.90113,-1.388009 2.575064,-0.341453 2.858251,-0.430644 3.077678,-0.610724 0.219428,-0.180079 0.375022,-0.451856 0.446014,-0.68105 0.07099,-0.229193 0.05789,-0.415127 -0.05182,-0.660692 -0.109713,-0.245564 -0.316811,-0.550125 -0.579263,-0.805045 -0.262451,-0.254919 -0.580479,-0.461044 -0.743973,-0.397895 -0.163493,0.06314 -0.171175,0.39463 -1.687818,0.73842 -1.516643,0.343791 -4.541853,0.699423 -6.977057,1.01047 -2.4352046,0.311048 -4.2817987,0.578496 -5.3595649,0.777286 -1.077767,0.198789 -1.3867102,0.329324 -1.6211947,0.551502 -0.2344854,0.222178 -0.3945912,0.536277 -0.4182536,0.830954 -0.023663,0.294678 0.088198,0.570016 0.2516926,0.782838 0.1634956,0.212822 0.3798445,0.362086 0.588516,0.507085 0.1565022,0.10875 0.309158,0.216029 0.429357,0.225783 z M 5.9599503,46.61979 c 0.040906,0.0032 0.078644,-0.0043 0.1110415,-0.0259 0.1295839,-0.0864 0.1823193,-0.398336 2.6927365,-0.851312 2.5104177,-0.452975 7.4774847,-1.047103 10.1065557,-1.388009 2.62907,-0.340905 2.918422,-0.429083 3.142452,-0.608874 0.22403,-0.179789 0.382786,-0.450372 0.455267,-0.679199 0.07248,-0.228824 0.0602,-0.415523 -0.05182,-0.660692 C 22.30417,42.160635 22.091922,41.85712 21.823966,41.60261 21.55601,41.3481 21.23211,41.141668 21.065188,41.204715 c -0.166922,0.06305 -0.176381,0.395182 -1.724833,0.73842 -1.548451,0.343238 -4.636984,0.698072 -7.123261,1.00862 -2.4862773,0.310547 -4.3702352,0.576964 -5.4706049,0.775434 -1.1003705,0.19847 -1.4169549,0.329681 -1.6563573,0.551502 -0.2394031,0.221821 -0.4014978,0.534901 -0.4256564,0.829104 -0.024159,0.294204 0.090321,0.568507 0.2572439,0.780986 0.1669249,0.21248 0.3865734,0.362319 0.5996203,0.507086 0.1597865,0.108576 0.3158919,0.214194 0.4386105,0.223932 z M 5.6416339,41.920917 c 0.057206,0.0025 0.1045148,-0.0062 0.1388004,-0.02776 0.1371451,-0.08601 0.056254,-0.3905 2.6446199,-0.838358 2.5883628,-0.447857 7.8460368,-1.03753 10.6284468,-1.376904 2.78241,-0.339375 3.088573,-0.42804 3.325669,-0.607024 0.237096,-0.178981 0.404469,-0.449549 0.481177,-0.677347 0.07671,-0.227798 0.06303,-0.412923 -0.05552,-0.656991 -0.118547,-0.244068 -0.341946,-0.546126 -0.62553,-0.799493 -0.283584,-0.253367 -0.626537,-0.458809 -0.803194,-0.396045 -0.176658,0.06277 -0.186005,0.393022 -1.824769,0.734719 -1.638764,0.341697 -4.908377,0.695765 -7.539665,1.004919 -2.6312875,0.309153 -4.624373,0.574153 -5.7889219,0.771732 -1.1645497,0.197579 -1.4992267,0.326976 -1.7525923,0.547801 -0.2533656,0.220825 -0.4259976,0.53252 -0.4515663,0.825403 -0.025566,0.292882 0.095389,0.56761 0.2720504,0.779136 0.1766594,0.211525 0.4093109,0.360502 0.7032572,0.501533 0.2204606,0.105774 0.4761343,0.206863 0.6477378,0.214679 z"/>
  </g>
</svg>