<svg xmlns="http://www.w3.org/2000/svg" xmlns:svg="http://www.w3.org/2000/svg" width="27.733868" height="88.008469" viewBox="0 0 27.733868 88.008468" version="1.1" id="svg1" xml:space="preserve" xmlns:sodipodi="http://sodipodi.sourceforge.net/DTD/sodipodi-0.dtd" sodipodi:docname="porto_tooth_34.svg" xmlns:inkscape="http://www.inkscape.org/namespaces/inkscape" inkscape:version="1.4 (86a8ad7, 2024-10-11)">
  <path id="tooth_34_root" style="display:inline;fill:#fff5d0;fill-opacity:1;stroke:#000000;stroke-width:1;stroke-dasharray:none" d="m 4.5752564,30.215325 c 0.504447,0.801534 1.141718,1.47859 2.08716,1.983806 1.795917,0.95969 4.6911736,1.316519 6.1386026,1.494744 1.44743,0.178262 1.447486,0.178642 2.680478,0.164959 1.232993,-0.0152 3.699004,-0.04219 5.334074,-0.398715 0.966031,-0.21057 1.638711,-0.54429 2.204292,-1.207966 -0.285027,1.052433 -0.594191,2.132726 -0.850612,3.181966 -0.629894,2.577432 -0.89923,4.909287 -1.113664,11.352923 -0.21443,6.443636 -0.374846,16.999547 -0.522271,24.375355 -0.147437,7.375846 -0.2812,11.56965 -0.589476,13.845442 -0.308287,2.27583 -0.791173,2.633457 -1.488087,2.455233 C 17.758839,87.284809 16.847614,86.570809 15.829037,85.021599 14.810463,83.472388 13.68541,81.087054 12.747258,77.563653 11.809102,74.040214 11.058508,69.380115 10.053337,62.9502 9.0481694,56.520323 7.7890154,48.322645 6.9446754,42.742803 c -0.84434,-5.57988 -1.274801,-8.542914 -1.891312,-10.846148 -0.16137,-0.602938 -0.331881,-1.158782 -0.478107,-1.68133 z"/>
  <path style="display:inline;fill:#ffffff;fill-opacity:1;stroke:#000000;stroke-width:1;stroke-dasharray:none" d="m 15.480929,33.858036 c 1.232992,-0.0152 3.698993,-0.04105 5.334062,-0.397499 1.63507,-0.356525 2.439188,-1.041904 3.283528,-3.139509 0.844339,-2.097606 1.72886,-5.607209 2.34536,-9.569349 C 27.060382,16.78954 27.408832,12.375131 27.154177,9.5783494 26.899543,6.7815675 26.041809,5.6025648 24.071669,4.3549558 22.101526,3.1073848 19.019101,1.7912835 16.740715,1.0646645 14.462329,0.33804549 12.988151,0.20094685 10.602535,1.2566102 8.2169204,2.3122735 4.9200574,4.5606228 3.0169514,6.3977522 1.1138504,8.2348435 0.60458742,9.660601 0.51077142,12.087251 c -0.09382,2.426649 0.227806,5.854001 0.79072298,8.691909 0.562898,2.837946 1.367004,5.086257 2.117531,6.991917 0.750527,1.905659 1.44743,3.468553 3.243343,4.428244 1.795916,0.959652 4.6907086,1.316101 6.1381386,1.494326 1.447429,0.178262 1.447429,0.178262 2.680422,0.164579 z" id="tooth_34_crown"/>
  <g id="tooth_34_implant" style="display: none">
    <path id="tooth_34_implant-1" style="fill:#9a9a9a;fill-opacity:1;stroke:#000000;stroke-width:0.842379;stroke-dasharray:none" d="M 14.297205,78.172919 C 14.047372,78.179457 13.784888,78.086843 13.199753,77.7121 12.614619,77.337351 11.7074,76.680174 10.879002,75.878077 10.050604,75.07598 9.3002177,74.129605 8.8728669,73.412973 8.4455159,72.696342 8.340844,72.208892 8.2750977,71.597458 8.2093512,70.986022 8.1843122,70.24916 8.065971,68.125584 7.9476294,66.002009 7.7359084,62.492813 7.4663512,57.062228 7.196794,51.631644 6.8678871,44.280855 6.5391612,36.930548 l 15.5419978,0.118443 c -0.223533,4.812545 -0.446654,9.624682 -0.716212,15.305112 -0.269558,5.680428 -0.583942,12.227753 -0.768032,15.771481 -0.184089,3.543729 -0.236845,4.084269 -0.427506,4.597086 -0.190662,0.512818 -0.519976,0.999494 -1.400964,1.867335 -0.880989,0.867841 -2.314877,2.115487 -3.149855,2.792673 -0.834976,0.677189 -1.071551,0.783665 -1.321385,0.790241 z M 6.5076997,36.834313 5.0086501,31.01763 H 23.706055 l -1.55827,5.816683 z"/>
    <path id="tooth_34_implant-2" style="fill:#656565;fill-opacity:1;stroke:#000000;stroke-width:0.842379;stroke-dasharray:none" d="m 18.916499,74.494711 c -0.165893,0.0041 -0.273609,-0.01713 -0.260946,-0.07773 0.03377,-0.161626 0.78844,-0.535693 -0.821701,-1.004918 C 16.223712,72.94284 12.054177,72.473735 9.8555771,72.194319 7.6569781,71.914905 7.4285321,71.82568 7.2516725,71.642817 7.0748128,71.459953 6.9498608,71.183401 6.8926409,70.950664 c -0.05722,-0.232738 -0.045863,-0.422436 0.042565,-0.671797 0.088429,-0.24936 0.254834,-0.557289 0.466371,-0.816149 0.211537,-0.258862 0.4678437,-0.467572 0.5996199,-0.403448 0.1317761,0.06413 0.1378272,0.400419 1.3602487,0.749525 1.2224215,0.349106 3.6614265,0.709418 5.6242125,1.025276 1.962786,0.315856 3.450799,0.588377 4.319484,0.790239 0.868685,0.201864 1.117583,0.333292 1.306579,0.558905 0.188997,0.225614 0.317751,0.544675 0.336823,0.843909 0.01907,0.299235 -0.0718,0.57968 -0.203574,0.795793 -0.131778,0.216111 -0.305225,0.368419 -0.803195,0.503384 -0.311231,0.08435 -0.748787,0.161459 -1.025276,0.168412 z m 1.754443,-4.548969 c -0.03529,0.0033 -0.06829,-0.004 -0.09624,-0.0259 -0.11178,-0.08736 -0.157116,-0.402557 -2.322601,-0.860566 C 16.08662,68.601265 11.801394,68.001152 9.5335591,67.656459 7.265724,67.311767 7.0155629,67.221971 6.8223151,67.040184 6.6290672,66.858396 6.4924932,66.58495 6.4299712,66.353581 6.367449,66.122214 6.3796155,65.933379 6.476238,65.685486 6.572861,65.437594 6.7540361,65.130377 6.9851746,64.873038 7.216313,64.615701 7.4981787,64.407695 7.6421654,64.471442 c 0.1439869,0.06375 0.1504013,0.398772 1.4860949,0.745823 1.3356937,0.347051 3.9995917,0.705727 6.1442527,1.019723 2.144661,0.313999 3.770051,0.584014 4.719231,0.784689 0.949178,0.200674 1.222214,0.332769 1.428723,0.557054 0.206509,0.224285 0.347446,0.540884 0.368286,0.838358 0.02083,0.297472 -0.0781,0.575399 -0.222082,0.790239 -0.143989,0.21484 -0.334415,0.366262 -0.51819,0.512638 -0.137831,0.109781 -0.27168,0.215936 -0.377539,0.225783 z m 0.140652,-4.771049 c -0.0543,0.0038 -0.09838,-0.0023 -0.127697,-0.02406 -0.117252,-0.08705 0.0044,-0.407228 -2.18195,-0.866118 C 16.315615,63.825629 11.821698,63.227052 9.4428758,62.883554 7.0640538,62.540056 6.8010882,62.450287 6.5983829,62.269129 6.3956777,62.08797 6.2531141,61.814944 6.1875323,61.584378 c -0.065582,-0.230566 -0.055085,-0.41736 0.046267,-0.664394 0.1013515,-0.247035 0.2923958,-0.554151 0.5348461,-0.810598 0.2424503,-0.256445 0.5374189,-0.463272 0.6884523,-0.399746 0.1510336,0.06352 0.1590602,0.398124 1.5601221,0.743973 1.4010612,0.345848 4.1944412,0.703113 6.4440622,1.016023 2.249621,0.31291 3.954934,0.581006 4.950566,0.780986 0.995631,0.19998 1.282435,0.331696 1.499049,0.555204 0.216615,0.223508 0.363083,0.540065 0.384942,0.836506 0.02186,0.296443 -0.08216,0.572443 -0.233187,0.786539 -0.151035,0.214096 -0.349477,0.366153 -0.627379,0.514488 -0.208426,0.111252 -0.460766,0.220019 -0.623679,0.231334 z m 0.236887,-4.591534 c -0.05293,-2.42e-4 -0.09583,-0.0097 -0.125847,-0.03146 -0.120056,-0.0869 -0.02086,-0.366695 -2.272632,-0.805046 C 16.398225,59.308302 11.795325,58.710794 9.3595952,58.367897 6.9238661,58.024999 6.6560325,57.936162 6.4484779,57.755321 6.2409235,57.57448 6.093674,57.302584 6.0265232,57.072421 c -0.067151,-0.230162 -0.055658,-0.417792 0.048118,-0.664394 0.103776,-0.2466 0.2995505,-0.552749 0.5478008,-0.808746 0.2482502,-0.255997 0.5504619,-0.463161 0.7051085,-0.399746 0.1546465,0.06341 0.1625569,0.396878 1.5971356,0.742122 1.4345779,0.345243 4.2942319,0.70366 6.5976689,1.016023 2.303437,0.312361 4.049558,0.579505 5.069009,0.779134 1.019449,0.199631 1.312414,0.330237 1.534211,0.553354 0.221798,0.223117 0.373664,0.538733 0.396046,0.834656 0.02238,0.295923 -0.08409,0.572817 -0.238737,0.786538 -0.15465,0.213721 -0.357823,0.363941 -0.629232,0.49228 -0.203556,0.09625 -0.446369,0.180246 -0.605171,0.179516 z m 0.32757,-4.758093 c -0.05088,0.002 -0.09294,-0.0079 -0.123996,-0.02961 -0.124261,-0.08667 -0.05968,-0.388234 -2.409583,-0.836506 C 16.492578,54.510677 11.728883,53.916651 9.2078396,53.574642 6.6867967,53.232633 6.4079087,53.144291 6.1930844,52.963918 5.9782601,52.783546 5.8276775,52.510584 5.7581749,52.281018 5.688672,52.051452 5.7007323,51.864437 5.8081432,51.618474 5.9155541,51.372512 6.1175053,51.068763 6.3744507,50.81343 c 0.2569455,-0.255333 0.5691042,-0.462997 0.7291674,-0.399747 0.1600632,0.06325 0.1678298,0.395923 1.6526559,0.740272 1.484826,0.344348 4.446738,0.700768 6.830855,1.012321 2.384116,0.311553 4.189666,0.578172 5.244822,0.777284 1.055157,0.199113 1.360168,0.330814 1.589733,0.553354 0.229566,0.222539 0.383983,0.537648 0.407149,0.832805 0.02317,0.295156 -0.08608,0.57152 -0.24614,0.784687 -0.160065,0.213168 -0.371266,0.362467 -0.632932,0.501534 -0.196249,0.104301 -0.421074,0.203116 -0.57371,0.209127 z m 0.247991,-4.493448 c -0.04006,0.0032 -0.0756,-0.0043 -0.10734,-0.0259 C 21.38978,51.219184 21.338335,50.904406 18.879485,50.450701 16.420637,49.996997 11.55342,49.404147 8.9783556,49.062692 6.4032913,48.721239 6.1201048,48.632048 5.9006771,48.451968 5.6812495,48.271889 5.5256556,48.000112 5.4546637,47.770918 c -0.070992,-0.229193 -0.057893,-0.415127 0.051818,-0.660692 0.1097126,-0.245564 0.3168111,-0.550125 0.5792624,-0.805045 0.2624514,-0.254919 0.5804798,-0.461044 0.7439728,-0.397895 0.1634931,0.06314 0.1711756,0.39463 1.6878188,0.73842 1.5166433,0.343791 4.5418533,0.699423 6.9770563,1.01047 2.435205,0.311048 4.281799,0.578496 5.359565,0.777286 1.077767,0.198789 1.386711,0.329324 1.621195,0.551502 0.234485,0.222178 0.394591,0.536277 0.418254,0.830954 0.02366,0.294678 -0.0882,0.570016 -0.251693,0.782838 -0.163496,0.212822 -0.379845,0.362086 -0.588516,0.507085 -0.156502,0.10875 -0.309158,0.216029 -0.429357,0.225783 z m 0.149905,-4.711828 c -0.04091,0.0032 -0.07864,-0.0043 -0.111041,-0.0259 -0.129584,-0.0864 -0.18232,-0.398336 -2.692737,-0.851312 C 16.459751,45.2896 11.492684,44.695472 8.8636134,44.354566 6.234543,44.013661 5.9451909,43.925483 5.7211613,43.745692 5.4971318,43.565903 5.3383753,43.29532 5.2658944,43.066493 c -0.072481,-0.228824 -0.060195,-0.415523 0.051819,-0.660692 0.1120135,-0.245169 0.3242615,-0.548684 0.5922171,-0.803194 0.2679557,-0.25451 0.5918563,-0.460942 0.7587783,-0.397895 0.1669218,0.06305 0.176381,0.395182 1.7248323,0.73842 1.5484513,0.343238 4.6369839,0.698072 7.1232619,1.00862 2.486277,0.310547 4.370235,0.576964 5.470604,0.775434 1.100371,0.19847 1.416955,0.329681 1.656358,0.551502 0.239403,0.221821 0.401497,0.534901 0.425656,0.829104 0.02416,0.294204 -0.09032,0.568507 -0.257244,0.780986 -0.166925,0.21248 -0.386573,0.362319 -0.59962,0.507086 -0.159787,0.108576 -0.315892,0.214194 -0.438611,0.223932 z m 0.318316,-4.698873 c -0.0572,0.0025 -0.104514,-0.0062 -0.1388,-0.02776 -0.137145,-0.08601 -0.05625,-0.3905 -2.64462,-0.838358 C 16.720481,40.606938 11.462806,40.017265 8.6803963,39.677891 5.8979864,39.338516 5.591823,39.249851 5.354727,39.070867 5.117631,38.891886 4.9502589,38.621318 4.8735505,38.39352 c -0.076709,-0.227798 -0.063026,-0.412923 0.05552,-0.656991 0.1185466,-0.244068 0.3419452,-0.546126 0.6255293,-0.799493 0.283584,-0.253367 0.6265369,-0.458809 0.8031945,-0.396045 0.1766576,0.06277 0.1860049,0.393022 1.824769,0.734719 1.6387641,0.341697 4.9083767,0.695765 7.5396647,1.004919 2.631288,0.309153 4.624373,0.574153 5.788922,0.771732 1.16455,0.197579 1.499227,0.326976 1.752593,0.547801 0.253365,0.220825 0.425997,0.53252 0.451566,0.825403 0.02557,0.292882 -0.09539,0.56761 -0.27205,0.779136 -0.17666,0.211525 -0.409311,0.360502 -0.703258,0.501533 -0.22046,0.105774 -0.476134,0.206863 -0.647738,0.214679 z"/>
  </g>
</svg>