<svg xmlns="http://www.w3.org/2000/svg" xmlns:svg="http://www.w3.org/2000/svg" width="42.620834" height="62.893574" viewBox="0 0 42.620835 62.893574" version="1.1" id="svg1" xml:space="preserve" xmlns:sodipodi="http://sodipodi.sourceforge.net/DTD/sodipodi-0.dtd" sodipodi:docname="porto_tooth_18.svg" xmlns:inkscape="http://www.inkscape.org/namespaces/inkscape" inkscape:version="1.4 (86a8ad7, 2024-10-11)">
  <g id="tooth_18_root">
    <path id="tooth_18_root_2" style="fill:#ffdf5d;fill-opacity:1;stroke:#000000;stroke-width:1;stroke-dasharray:none" d="m 23.024193,1.701017 c -0.409617,0.0099 -0.827088,0.211565 -1.239938,0.608368 -0.943657,0.906975 -1.860456,2.831995 -2.723229,5.168181 -0.862774,2.336187 -1.671036,5.083583 -2.479877,7.832019 l -0.258802,0.313175 c 0.126135,0.748993 0.253035,1.519664 0.426833,2.388211 0.276356,1.381097 0.680636,2.989189 1.294016,4.191638 0.61338,1.202449 1.436278,1.997618 2.211417,2.423644 0.775138,0.425987 1.503435,0.481879 2.130299,0.261741 0.626864,-0.219832 1.152607,-0.714436 1.678359,-1.305355 0.525752,-0.590919 1.051074,-1.278838 1.529643,-2.35076 0.47857,-1.071883 0.910527,-2.52853 1.207105,-3.744734 0.29658,-1.216203 0.458469,-2.191581 0.714607,-3.311576 0.07597,-0.332187 0.168744,-0.693211 0.256873,-1.045446 -8.45e-4,-0.0061 -0.0011,-0.01372 -0.0019,-0.01981 C 27.419064,10.636777 27.095975,9.264222 26.583705,7.532696 26.071435,5.801167 25.370334,3.711981 24.534523,2.612586 24.06438,1.994171 23.550845,1.688398 23.024193,1.701017 Z"/>
    <path id="tooth_18_root_1" style="fill:#fff5d0;fill-opacity:1;stroke:#000000;stroke-width:1;stroke-dasharray:none" d="m 12.054022,0.501996 c -0.208948,-0.008 -0.426506,0.008 -0.64894,0.04922 C 10.515347,0.71611 9.5447031,1.292418 8.7088922,2.2956 7.8730809,3.298787 7.1715945,4.728392 6.524515,6.542372 c -0.6470796,1.813983 -1.2410985,4.012141 -1.6455257,5.94981 -0.4044275,1.93765 -0.618502,3.615577 -0.7802728,5.937991 -0.1617707,2.322452 -0.270298,5.290229 -0.2433512,8.024952 0.026947,2.734724 0.1895061,5.234794 0.2703915,6.485325 0.039863,0.616255 0.058722,0.926382 0.036702,1.130137 0.056334,-0.05677 0.1119397,-0.113917 0.1776847,-0.167255 0.7279574,-0.590919 2.0760857,-0.975455 4.044285,-1.236434 1.9682005,-0.261361 4.5573555,-0.400118 7.0108675,-0.496128 2.453511,-0.09487 4.771129,-0.149349 7.682981,-0.108202 2.911852,0.04115 6.417837,0.177923 9.073567,0.439017 2.655733,0.26098 4.462139,0.646353 5.36534,0.838754 0.903224,0.192401 0.903141,0.192401 0.956026,0.236216 0.03027,0.02667 0.09564,0.103248 0.195056,0.257931 0.002,-0.170684 -6.35e-4,-0.347846 -0.0056,-0.535522 -0.04044,-1.470401 -0.243493,-3.464362 -0.270403,-5.250872 -0.02691,-1.786511 0.121616,-3.365418 0.108161,-5.660363 -0.01346,-2.294982 -0.187849,-5.304706 -0.363097,-7.585935 C 37.96208,12.520585 37.785823,10.966967 37.455557,9.407212 37.125281,7.84746 36.641053,6.281175 36.155744,5.071845 35.670432,3.862518 35.183935,3.010948 34.732327,2.488737 34.280719,1.966519 33.863555,1.773752 33.310839,1.663797 32.758126,1.553881 32.071516,1.526107 31.613165,1.567327 c -0.45835,0.04122 -0.689244,0.151749 -0.938643,0.543398 -0.249398,0.391652 -0.518382,1.0657 -0.788,1.945205 -0.269618,0.879509 -0.538565,1.964152 -0.774479,3.077281 -0.235914,1.11313 -0.43825,2.252849 -0.714606,3.455302 -0.276356,1.202453 -0.626498,2.467203 -0.882635,3.587209 -0.256137,1.119988 -0.418027,2.095366 -0.714606,3.311569 -0.29658,1.216203 -0.728536,2.67285 -1.207106,3.744734 -0.478569,1.071921 -1.003891,1.75984 -1.529643,2.350759 -0.525752,0.590919 -1.051495,1.085523 -1.678359,1.305356 -0.626864,0.219832 -1.355161,0.164207 -2.130299,-0.261742 C 19.479468,24.200068 18.656571,23.404899 18.043191,22.20245 17.429815,21 17.025535,19.391909 16.749178,18.010812 16.472821,16.629716 16.324564,15.475538 16.08865,14.307454 15.852738,13.13934 15.530179,11.956957 15.422328,10.692661 15.314478,9.428365 15.422015,8.082293 15.314172,6.818001 15.206327,5.553713 14.882699,4.371879 14.613085,3.396173 14.343469,2.420471 14.126835,1.65033 13.614568,1.141862 13.230367,0.760504 12.680873,0.525824 12.054022,0.501989 Z M 3.4941981,35.242028 c -0.2037234,0.343655 -0.3906268,0.730133 -0.4210382,1.078931 -0.00275,0.03048 0.00199,0.06172 0.00193,0.09258 0.1676572,-0.44557 0.2927749,-0.825724 0.4191067,-1.171474 z"/>
  </g>
  <path style="display:inline;fill:#ffffff;fill-opacity:1;stroke:#000000;stroke-width:1;stroke-dasharray:none" d="m 37.516578,33.339505 c -0.903201,-0.192401 -2.709622,-0.577165 -5.36535,-0.838259 -2.655732,-0.260979 -6.16063,-0.398518 -9.072482,-0.439741 -2.911852,-0.04115 -5.23049,0.01524 -7.684002,0.110107 -2.453512,0.09601 -5.041738,0.233548 -7.0099382,0.494718 -1.9681993,0.26098 -3.3162393,0.645896 -4.0441967,1.236815 -0.7279578,0.590919 -0.835802,1.387954 -1.2806734,2.556038 -0.4448709,1.168122 -1.2267321,2.707216 -1.7120376,4.356303 -0.48530542,1.649048 -0.67403196,3.408013 -0.76839746,4.850982 -0.0943663,1.442932 -0.0943663,2.569755 -0.0539236,3.985217 0.0404427,1.415462 0.12132431,3.119449 0.28309503,4.507404 0.16177073,1.387992 0.40442043,2.459875 0.97062063,3.531759 0.5662002,1.071921 1.4558995,2.143766 2.5748145,2.927086 1.1189145,0.783282 2.4669471,1.278 4.0172368,1.539132 1.5502897,0.26098 3.302754,0.288793 4.772186,0.16497 1.469431,-0.123441 2.655661,-0.39848 3.558887,-0.714551 0.903227,-0.316223 1.523297,-0.673365 2.278232,-0.920743 0.754936,-0.247264 1.644605,-0.384764 2.386037,-0.39848 0.741433,-0.01524 1.334593,0.09639 2.035621,0.329939 0.701027,0.233548 1.509826,0.590919 2.520897,0.838259 1.011071,0.247264 2.22428,0.384764 3.693704,0.508472 1.469422,0.123823 3.194898,0.233548 4.569953,0.110107 1.375055,-0.123442 2.399547,-0.480927 3.262313,-0.948175 0.86277,-0.467211 1.563757,-1.044376 2.224314,-1.84145 0.66056,-0.797035 1.280655,-1.813942 1.685078,-2.789662 0.404423,-0.975683 0.593155,-1.910143 0.687518,-3.284381 0.09437,-1.374239 0.09437,-3.188181 0.02691,-4.947184 C 42.005604,46.505185 41.8708,44.801159 41.587686,43.014649 41.304576,41.228177 40.873217,39.359296 40.373318,37.808848 39.873415,36.2584 39.30502,35.0265 38.968031,34.366889 c -0.337004,-0.65965 -0.442552,-0.746974 -0.495437,-0.790711 -0.05288,-0.04382 -0.05285,-0.0442 -0.956071,-0.236597 z" id="tooth_18_crown"/>
  	 <g id="tooth_18_implant" style="display: none">
  <path id="tooth_18_implant-1" style="fill:#9a9a9a;fill-opacity:1;stroke:#000000;stroke-width:0.61213;stroke-dasharray:none" d="m 21.536049,1.0111794 c -0.181546,-0.00478 -0.372284,0.062548 -0.797483,0.334862 -0.425199,0.2723182 -1.084446,0.7498677 -1.686416,1.3327262 -0.601971,0.5828586 -1.147253,1.2705596 -1.457795,1.7913139 -0.310543,0.520753 -0.386605,0.8749675 -0.43438,1.3192771 -0.04778,0.4443108 -0.06597,0.9797654 -0.151966,2.5229014 -0.086,1.5431347 -0.239847,4.093157 -0.435725,8.039391 -0.195879,3.946234 -0.434885,9.357752 -0.67376,14.698988 H 27.192403 C 27.029968,27.553515 26.867834,23.900686 26.671954,19.772897 26.476075,15.645109 26.247622,10.887375 26.11385,8.31226 25.980078,5.7371439 25.941742,5.3443506 25.803194,4.9717024 25.664646,4.5990542 25.425344,4.2454016 24.785158,3.6147694 24.144972,2.9841367 23.10301,2.0775122 22.496258,1.5854221 21.889507,1.0933303 21.717596,1.0159577 21.536049,1.0111794 Z M 4.7827294,31.050639 3.3785785,35.487331 H 39.370708 l -1.089929,-4.436692 z"/>
  <path id="tooth_18_implant-2" style="fill:#656565;fill-opacity:1;stroke:#000000;stroke-width:0.61213;stroke-dasharray:none" d="m 24.734238,3.1330489 c -0.120549,-0.003 -0.198823,0.012445 -0.189621,0.056481 0.02454,0.1174488 0.572934,0.3892712 -0.597104,0.7302423 C 22.777475,4.2607439 19.747605,4.601628 18.149953,4.8046703 16.552301,5.007712 16.386296,5.0725488 16.257777,5.2054299 16.12926,5.3383111 16.03846,5.5392727 15.99688,5.7083957 15.9553,5.8775186 15.96356,6.015366 16.02781,6.1965693 c 0.06426,0.1812021 0.18518,0.4049637 0.338897,0.5930694 0.153718,0.1881073 0.339968,0.3397698 0.435725,0.2931734 0.09576,-0.046604 0.100155,-0.2909721 0.98845,-0.5446565 C 18.679179,6.2844711 20.451527,6.0226436 21.877821,5.79312 23.304115,5.5635969 24.385407,5.365565 25.016654,5.2188778 25.647899,5.0721903 25.828765,4.9766857 25.966103,4.8127396 26.103441,4.6487934 26.197002,4.4169412 26.210861,4.1994974 26.224723,3.9820529 26.158688,3.7782626 26.06293,3.62122 25.967172,3.4641788 25.841133,3.3535013 25.479274,3.2554265 25.253113,3.1941315 24.935155,3.1380996 24.734238,3.133047 Z m 1.274899,3.3055917 c -0.02564,-0.00239 -0.04963,0.00294 -0.06993,0.018823 -0.08123,0.063478 -0.114171,0.2925253 -1.687761,0.6253458 -1.57359,0.3328202 -4.687529,0.7689034 -6.335493,1.0193807 -1.647964,0.2504766 -1.829748,0.315729 -1.970175,0.4478277 -0.140427,0.1321 -0.239671,0.3308048 -0.285103,0.4989329 -0.04543,0.1681269 -0.0366,0.3053474 0.03362,0.485483 0.07021,0.1801357 0.201867,0.4033811 0.369828,0.5903813 0.167961,0.186998 0.372784,0.33815 0.477415,0.291827 0.10463,-0.04632 0.109291,-0.289775 1.079898,-0.541966 C 18.592042,9.6224848 20.527813,9.3618463 22.08627,9.133675 23.644728,8.9055019 24.825847,8.709291 25.515586,8.5634664 26.205319,8.4176427 26.403726,8.3216539 26.55379,8.1586732 26.703853,7.9956918 26.806268,7.7656293 26.821411,7.549465 26.836552,7.3333012 26.764661,7.1313403 26.660032,6.9752228 26.5554,6.819105 26.417023,6.7090716 26.28348,6.6027049 26.183322,6.5229303 26.086058,6.4457909 26.009135,6.4386357 Z m 0.102207,3.4669707 c -0.03946,-0.00275 -0.07149,0.00162 -0.09279,0.017483 -0.0852,0.063257 0.0032,0.2959187 -1.585554,0.6293797 -1.588739,0.33346 -4.854327,0.768426 -6.582941,1.018036 -1.728616,0.249609 -1.919704,0.314842 -2.067003,0.446483 -0.1473,0.131643 -0.250897,0.330042 -0.298553,0.497587 -0.04765,0.167545 -0.04003,0.303283 0.03362,0.482795 0.07365,0.179511 0.212475,0.402684 0.388656,0.589035 0.176181,0.186351 0.390525,0.336645 0.500276,0.290483 0.109752,-0.04616 0.115585,-0.289304 1.133692,-0.540622 1.018107,-0.251317 3.047968,-0.510929 4.682697,-0.738312 1.634728,-0.227381 2.873925,-0.422198 3.59742,-0.567517 0.723493,-0.145319 0.931904,-0.241033 1.089311,-0.40345 0.157408,-0.162415 0.263841,-0.392448 0.279725,-0.607862 0.01588,-0.215416 -0.0597,-0.415977 -0.169449,-0.571553 C 26.910692,10.292 26.766491,10.181505 26.564548,10.073714 26.413091,9.9928719 26.229724,9.9138338 26.111341,9.9056113 Z m 0.172139,3.3365227 c -0.03847,1.76e-4 -0.06964,0.0071 -0.09145,0.02286 -0.08724,0.06315 -0.01515,0.266465 -1.65145,0.585001 -1.636295,0.318534 -4.981078,0.752725 -6.751046,1.001897 -1.769967,0.249173 -1.964594,0.313728 -2.115417,0.44514 -0.150823,0.131411 -0.257825,0.328989 -0.306621,0.496241 -0.0488,0.167252 -0.04044,0.303597 0.03497,0.482795 0.07541,0.179196 0.217674,0.401665 0.398069,0.58769 0.180396,0.186025 0.400004,0.336564 0.51238,0.290483 0.112377,-0.04607 0.118125,-0.288399 1.160588,-0.539276 1.042463,-0.250879 3.120483,-0.511328 4.794318,-0.738313 1.673835,-0.226983 2.942686,-0.421108 3.683489,-0.566172 0.740801,-0.145065 0.95369,-0.239972 1.114863,-0.402105 0.161173,-0.162132 0.271529,-0.39148 0.287794,-0.606517 0.01627,-0.215039 -0.0611,-0.416249 -0.173483,-0.571553 C 27.068108,13.575 26.920469,13.465841 26.723244,13.37258 26.575326,13.30263 26.398882,13.241601 26.283486,13.242132 Z m 0.238034,3.457557 c -0.03698,-0.0015 -0.06753,0.0057 -0.0901,0.02152 -0.0903,0.06298 -0.04337,0.282117 -1.750968,0.607863 -1.707594,0.325745 -5.16922,0.757405 -7.001183,1.005932 -1.831962,0.248528 -2.034621,0.312723 -2.190727,0.443794 -0.156106,0.131071 -0.26553,0.329424 -0.316035,0.496242 -0.05051,0.166819 -0.04174,0.302716 0.03631,0.481449 0.07805,0.178733 0.224803,0.399458 0.411518,0.585001 0.186714,0.185542 0.413549,0.336446 0.529863,0.290483 0.116313,-0.04596 0.121956,-0.287704 1.200933,-0.537932 1.078976,-0.250227 3.231304,-0.509226 4.963766,-0.735622 1.732462,-0.226395 3.044498,-0.420139 3.811247,-0.564827 0.766749,-0.144689 0.988391,-0.240393 1.155209,-0.402105 0.166818,-0.161712 0.279028,-0.390692 0.295862,-0.605173 0.01683,-0.21448 -0.06255,-0.415306 -0.178862,-0.570208 -0.116315,-0.154903 -0.269787,-0.263393 -0.459933,-0.364448 -0.142607,-0.07579 -0.305981,-0.147598 -0.416896,-0.151966 z m 0.180207,3.265246 c -0.02911,-0.0023 -0.05494,0.0031 -0.078,0.01882 -0.09223,0.06288 -0.129613,0.291619 -1.916382,0.621312 -1.786768,0.329693 -5.32362,0.760498 -7.194838,1.008622 -1.871218,0.248124 -2.077001,0.312936 -2.236452,0.443794 -0.159452,0.130858 -0.272517,0.32835 -0.324104,0.494898 -0.05159,0.166547 -0.04207,0.301659 0.03765,0.480104 0.07972,0.178443 0.230217,0.399758 0.420932,0.585 0.190715,0.185242 0.421816,0.335027 0.540621,0.289139 0.118806,-0.04589 0.124389,-0.286766 1.226485,-0.536588 1.102096,-0.249821 3.300421,-0.508248 5.070006,-0.734276 1.769587,-0.226028 3.111448,-0.420375 3.894627,-0.564829 0.783179,-0.144454 1.007679,-0.239309 1.178071,-0.400759 0.170393,-0.16145 0.286737,-0.389696 0.303932,-0.603828 0.01719,-0.214133 -0.06409,-0.414212 -0.182898,-0.568864 -0.118806,-0.154651 -0.27602,-0.263117 -0.427655,-0.368482 -0.113725,-0.07902 -0.224656,-0.156981 -0.312001,-0.16407 z m 0.108932,3.423937 c -0.02973,-0.0023 -0.05715,0.0031 -0.08069,0.01882 -0.09416,0.06278 -0.132485,0.289458 -1.956726,0.618622 -1.824241,0.329162 -5.433653,0.760897 -7.344115,1.008622 -1.910462,0.247725 -2.120725,0.311801 -2.28352,0.442449 -0.162796,0.130647 -0.278159,0.327272 -0.330829,0.493553 -0.05267,0.16628 -0.04374,0.301947 0.03765,0.480104 0.0814,0.178156 0.235631,0.398711 0.430346,0.583656 0.194715,0.184943 0.430083,0.334951 0.55138,0.289137 0.121297,-0.04582 0.128171,-0.287166 1.253381,-0.536586 1.125211,-0.24942 3.36955,-0.507267 5.176249,-0.732933 1.806699,-0.225665 3.175712,-0.419261 3.975316,-0.563483 0.799604,-0.144222 1.029656,-0.239569 1.203622,-0.400759 0.173967,-0.16119 0.291756,-0.388696 0.309312,-0.602484 0.01756,-0.213788 -0.06563,-0.413115 -0.186931,-0.567518 -0.121299,-0.154402 -0.280911,-0.263285 -0.435725,-0.368483 -0.116112,-0.0789 -0.229549,-0.155648 -0.318725,-0.162724 z m 0.23131,3.414522 c -0.04157,-0.0018 -0.07595,0.0046 -0.100862,0.02017 -0.09966,0.0625 -0.04088,0.283763 -1.921761,0.609207 -1.880882,0.325444 -5.701468,0.753941 -7.723357,1.000553 -2.02189,0.246613 -2.244368,0.311043 -2.416659,0.441105 -0.17229,0.13006 -0.293914,0.326673 -0.349656,0.492207 -0.05574,0.165533 -0.0458,0.300058 0.04035,0.477414 0.08614,0.177358 0.248481,0.396853 0.454552,0.580967 0.206072,0.184113 0.455285,0.333402 0.583656,0.287793 0.128372,-0.04561 0.135164,-0.285597 1.326002,-0.533897 1.190838,-0.248301 3.566762,-0.505591 5.478836,-0.730243 1.912074,-0.224651 3.360386,-0.417219 4.206627,-0.560793 0.846241,-0.143575 1.089441,-0.237604 1.273554,-0.39807 0.184112,-0.160466 0.309559,-0.386965 0.328138,-0.599794 0.01858,-0.212829 -0.06932,-0.412465 -0.19769,-0.566174 -0.128373,-0.153708 -0.297433,-0.261965 -0.511035,-0.364448 -0.160202,-0.07686 -0.345992,-0.150321 -0.47069,-0.156001 z"/>
</g>
</svg>