<?xml version="1.0" encoding="UTF-8" standalone="no"?>
<svg
   width="19.252661"
   height="85.623878"
   viewBox="0 0 19.252661 85.623881"
   version="1.1"
   id="svg1"
   xml:space="preserve"
   xmlns="http://www.w3.org/2000/svg"
   xmlns:svg="http://www.w3.org/2000/svg"><defs
     id="defs1" /><path
     id="tooth_42_root"
     style="fill:#fff5d0;fill-opacity:1;stroke:#000000;stroke-width:1;stroke-dasharray:none"
     d="m 0.77046872,22.261741 c 0.0389786,0.592141 0.10583579,1.286559 0.28966558,2.080744 0.2793401,1.206829 0.7985291,2.483426 1.1510139,5.88453 0.3524664,3.401142 0.5376606,8.927322 0.6307703,15.174155 0.093113,6.246796 0.093556,13.213787 0.1600812,19.199985 0.066525,5.986199 0.1997973,10.990311 0.4325844,14.144544 0.232765,3.154233 0.565554,4.458585 1.0843153,5.295126 0.5187613,0.836579 1.2240223,1.205878 1.7627264,1.027597 0.5387005,-0.178319 0.9100661,-0.905397 1.2825011,-2.139677 0.3724351,-1.23428 0.7448701,-2.975039 1.6560093,-7.884707 0.9111428,-4.909706 2.3614578,-12.987485 3.8113018,-21.257118 1.449843,-8.269633 2.899004,-16.731957 3.73698,-21.408442 0.837976,-4.676484 1.064635,-5.567281 1.177691,-6.945547 0.02102,-0.254362 0.03245,-0.537809 0.04385,-0.819317 -0.200498,0.779167 -0.494142,1.219223 -1.419711,1.560044 -1.0242,0.37717 -2.821417,0.637006 -4.184806,0.774149 -1.363394,0.137256 -2.293838,0.152464 -2.7593829,0.158928 -0.4655447,0.0076 -0.4660646,0.0038 -1.5035577,-0.07642 C 7.0850043,26.948187 5.0115226,26.784696 3.6880479,26.462467 2.3645769,26.140048 1.7916734,25.659385 1.3726854,24.802236 1.1139962,24.27302 0.91412882,23.596434 0.77049822,22.261741 Z" /><path
     style="fill:#ffffff;fill-opacity:1;stroke:#000000;stroke-width:1;stroke-dasharray:none"
     d="M 8.1231169,27.030845 C 7.0856275,26.948719 5.0106339,26.784088 3.6871629,26.461706 2.3636919,26.139287 1.7917509,25.659423 1.3727629,24.802274 0.95377114,23.945126 0.68776193,22.710922 0.56804948,18.898354 0.4483481,15.085785 0.47493612,8.6951943 0.62126239,5.1912432 0.76758866,1.6873302 1.0335942,1.0702093 3.7071795,0.76166789 6.3807611,0.45293634 11.461712,0.45293634 14.42125,0.62441162 c 2.959537,0.17147528 3.797462,0.51427378 4.136641,3.87423878 0.339191,3.360003 0.179552,9.7369066 0.01991,13.6248326 -0.159602,3.887927 -0.319241,5.286724 -0.525396,6.232994 -0.206177,0.94627 -0.458888,1.439974 -1.483084,1.817105 -1.024199,0.37717 -2.819841,0.637729 -4.183231,0.774833 -1.363394,0.137256 -2.294428,0.150944 -2.7599762,0.157788 -0.4655447,0.0076 -0.4655336,0.0076 -1.5030267,-0.07528 z"
     id="tooth_42_crown" /></svg>
