<?xml version="1.0" encoding="UTF-8" standalone="no"?>
<svg
   width="26.650381"
   height="97.166122"
   viewBox="0 0 26.650381 97.166124"
   version="1.1"
   id="svg1"
   xml:space="preserve"
   xmlns="http://www.w3.org/2000/svg"
   xmlns:svg="http://www.w3.org/2000/svg"><defs
     id="defs1" /><path
     id="tooth_11_root"
     style="fill:#fff5d0;fill-opacity:1;stroke:#000000;stroke-width:0.999999;stroke-dasharray:none"
     d="m 15.350504,0.50148421 c 0.54364,0.0243148 1.008811,0.39246706 1.360362,1.18385979 0.468736,1.0551852 0.735907,2.8640145 1.097506,6.1391844 0.361602,3.2751696 0.817067,8.0156956 1.37955,14.0315776 0.562487,6.015886 1.231817,13.305512 1.901444,19.568037 0.669623,6.262529 1.339607,11.49856 2.129767,15.458905 0.79016,3.960307 1.701373,6.64595 2.183493,8.783712 0.170943,0.757899 0.281403,1.443044 0.253259,2.0595 -0.206068,-1.383815 -0.487816,-2.52129 -0.859584,-3.382755 -0.732343,-1.696982 -1.817246,-2.337638 -3.752998,-2.795706 -1.935747,-0.458067 -4.722135,-0.73271 -6.114929,-0.869747 -1.392795,-0.13715 -1.393103,-0.13753 -2.127848,-0.105997 -0.734748,0.03039 -2.20283,0.09612 -4.2633576,0.592901 -2.060528,0.496819 -4.712377,1.426479 -6.038191,2.414837 -0.239484,0.178561 -0.435007,0.360542 -0.596705,0.555592 0.0074,-0.05889 0.01485,-0.124613 0.02228,-0.18274 0.254333,-1.548472 0.709576,-2.64446 1.258681,-5.357799 0.549068,-2.713301 1.191925,-7.043344 2.008882,-12.195896 0.816919,-5.152544 1.807491,-11.126924 2.503926,-16.252053 0.696397,-5.125129 1.098693,-9.40016 1.513836,-12.798636 0.41518,-3.39848 0.8437636,-5.920112 1.3392536,-8.2497144 0.495528,-2.3296024 1.05741,-4.4668028 1.793999,-5.9467823 0.736586,-1.4799796 1.646611,-2.30368437 2.436763,-2.56404622 0.197528,-0.06508 0.38864,-0.0945237 0.569857,-0.0863934 z" /><path
     style="fill:#ffffff;fill-opacity:1;stroke:#000000;stroke-width:0.999999;stroke-dasharray:none"
     d="m 14.928845,60.678204 c 1.392795,0.137151 4.178417,0.41111 6.114169,0.869178 1.935748,0.458067 3.021598,1.100091 3.75394,2.79711 0.732342,1.696982 1.111128,4.448844 1.262645,8.092262 0.151525,3.643417 0.07574,8.178122 0.03787,11.937794 -0.03787,3.759672 -0.03787,6.744083 -0.227268,8.565792 -0.189397,1.82167 -0.56819,2.480563 -2.064438,2.945659 -1.496252,0.465096 -4.109877,0.736433 -7.746332,0.775185 -3.636456,0.03875 -8.2955196,-0.155007 -11.0038796,-0.600765 -2.70836,-0.44572 -3.465947,-1.143402 -3.939457,-3.352703 -0.47347296,-2.209302 -0.66286896,-5.930108 -0.60606196,-10.523131 0.05681,-4.593023 0.359783,-10.057959 0.51138196,-13.313745 0.151488,-3.255787 0.151488,-4.302272 1.477301,-5.290629 1.325814,-0.988358 3.977329,-1.91855 6.037857,-2.415407 2.0605276,-0.496819 3.5299876,-0.560266 4.2647356,-0.591989 0.734744,-0.03039 0.73474,-0.03039 2.127535,0.105237 z"
     id="tooth_11_crown" /></svg>
