<svg xmlns="http://www.w3.org/2000/svg" xmlns:svg="http://www.w3.org/2000/svg" xmlns:sodipodi="http://sodipodi.sourceforge.net/DTD/sodipodi-0.dtd" xmlns:inkscape="http://www.inkscape.org/namespaces/inkscape" width="26.650381" height="97.166122" viewBox="0 0 26.650381 97.166124" version="1.1" id="svg1" xml:space="preserve" sodipodi:docname="porto_tooth_21.svg" inkscape:version="1.4 (86a8ad7, 2024-10-11)">
    <path id="tooth_61_root" style="fill:#fff5d0;fill-opacity:1;stroke:#000000;stroke-width:0.999999;stroke-dasharray:none" d="m 15.350504,0.50148421 c 0.54364,0.0243148 1.008811,0.39246706 1.360362,1.18385979 0.468736,1.0551852 0.735907,2.8640145 1.097506,6.1391844 0.361602,3.2751696 0.817067,8.0156956 1.37955,14.0315776 0.562487,6.015886 1.231817,13.305512 1.901444,19.568037 0.669623,6.262529 1.339607,11.49856 2.129767,15.458905 0.79016,3.960307 1.701373,6.64595 2.183493,8.783712 0.170943,0.757899 0.281403,1.443044 0.253259,2.0595 -0.206068,-1.383815 -0.487816,-2.52129 -0.859584,-3.382755 -0.732343,-1.696982 -1.817246,-2.337638 -3.752998,-2.795706 -1.935747,-0.458067 -4.722135,-0.73271 -6.114929,-0.869747 -1.392795,-0.13715 -1.393103,-0.13753 -2.127848,-0.105997 -0.734748,0.03039 -2.20283,0.09612 -4.2633576,0.592901 -2.060528,0.496819 -4.712377,1.426479 -6.038191,2.414837 -0.239484,0.178561 -0.435007,0.360542 -0.596705,0.555592 0.0074,-0.05889 0.01485,-0.124613 0.02228,-0.18274 0.254333,-1.548472 0.709576,-2.64446 1.258681,-5.357799 0.549068,-2.713301 1.191925,-7.043344 2.008882,-12.195896 0.816919,-5.152544 1.807491,-11.126924 2.503926,-16.252053 0.696397,-5.125129 1.098693,-9.40016 1.513836,-12.798636 0.41518,-3.39848 0.8437636,-5.920112 1.3392536,-8.2497144 0.495528,-2.3296024 1.05741,-4.4668028 1.793999,-5.9467823 0.736586,-1.4799796 1.646611,-2.30368437 2.436763,-2.56404622 0.197528,-0.06508 0.38864,-0.0945237 0.569857,-0.0863934 z"/>
    <path style="fill:#ffffff;fill-opacity:1;stroke:#000000;stroke-width:0.999999;stroke-dasharray:none" d="m 14.928845,60.678204 c 1.392795,0.137151 4.178417,0.41111 6.114169,0.869178 1.935748,0.458067 3.021598,1.100091 3.75394,2.79711 0.732342,1.696982 1.111128,4.448844 1.262645,8.092262 0.151525,3.643417 0.07574,8.178122 0.03787,11.937794 -0.03787,3.759672 -0.03787,6.744083 -0.227268,8.565792 -0.189397,1.82167 -0.56819,2.480563 -2.064438,2.945659 -1.496252,0.465096 -4.109877,0.736433 -7.746332,0.775185 -3.636456,0.03875 -8.2955196,-0.155007 -11.0038796,-0.600765 -2.70836,-0.44572 -3.465947,-1.143402 -3.939457,-3.352703 -0.47347296,-2.209302 -0.66286896,-5.930108 -0.60606196,-10.523131 0.05681,-4.593023 0.359783,-10.057959 0.51138196,-13.313745 0.151488,-3.255787 0.151488,-4.302272 1.477301,-5.290629 1.325814,-0.988358 3.977329,-1.91855 6.037857,-2.415407 2.0605276,-0.496819 3.5299876,-0.560266 4.2647356,-0.591989 0.734744,-0.03039 0.73474,-0.03039 2.127535,0.105237 z" id="tooth_61_crown"/>
    	 <g id="tooth_61_implant">
    <path id="tooth_61_implant-1" style="fill:#9a9a9a;fill-opacity:1;stroke:#000000;stroke-width:1;stroke-dasharray:none" d="m 13.472979,7.6189212 c 0.296581,-0.00776 0.608179,0.1021812 1.302801,0.5470448 0.694622,0.4448693 1.771595,1.2250139 2.754997,2.177195 0.983404,0.952181 1.874199,2.075637 2.381513,2.926362 0.507315,0.850723 0.631572,1.429382 0.709621,2.155224 0.07805,0.725844 0.107773,1.600584 0.248257,4.121512 0.140485,2.520927 0.391822,6.686745 0.711818,13.133472 0.319995,6.446726 0.710445,15.172956 1.100681,23.898613 L 4.232533,56.437738 C 4.497893,50.724696 4.762763,45.012137 5.082759,38.268816 5.402755,31.525496 5.775965,23.753071 5.994501,19.546259 6.213036,15.339447 6.275663,14.697764 6.502,14.088991 6.728337,13.480218 7.119271,12.902477 8.165105,11.872251 9.210939,10.842024 10.913129,9.3609251 11.904344,8.5570271 12.895556,7.7531268 13.176397,7.6267277 13.472979,7.6189212 Z m 9.247036,49.0736648 1.779544,6.905069 H 2.303595 l 1.849846,-6.905069 z"/>
    <path id="tooth_61_implant-2" style="fill:#656565;fill-opacity:1;stroke:#000000;stroke-width:1;stroke-dasharray:none" d="m 7.989347,11.985376 c 0.196935,-0.0049 0.324806,0.02033 0.309773,0.09227 -0.04009,0.191869 -0.935968,0.635929 0.975454,1.192953 1.91142,0.557025 6.861137,1.113907 9.471127,1.445605 2.609989,0.331697 2.88118,0.437617 3.091133,0.654697 0.209953,0.21708 0.358285,0.545379 0.426212,0.821665 0.06793,0.276286 0.05445,0.501479 -0.05053,0.7975 -0.104976,0.296019 -0.302517,0.661565 -0.553636,0.968862 -0.251119,0.307299 -0.555384,0.555061 -0.711818,0.478939 -0.156433,-0.07613 -0.163616,-0.475343 -1.614771,-0.889772 -1.451154,-0.414429 -4.346533,-0.842161 -6.676584,-1.21712 C 10.325655,15.956017 8.559213,15.632504 7.527984,15.39287 6.496755,15.153235 6.201285,14.997215 5.976925,14.729386 5.752564,14.461557 5.599718,14.082794 5.577077,13.727569 c -0.02264,-0.355226 0.08523,-0.688146 0.241666,-0.944697 0.156435,-0.256549 0.362337,-0.437356 0.953484,-0.597575 0.369467,-0.100134 0.888896,-0.19167 1.21712,-0.199924 z m -2.082725,5.400147 c 0.04189,-0.0039 0.08107,0.0048 0.114242,0.03075 0.132696,0.1037 0.186515,0.477881 2.757194,1.02159 2.57068,0.543708 7.657735,1.256111 10.349915,1.665301 2.69218,0.409189 2.98915,0.515788 3.218557,0.73159 0.229408,0.215803 0.391537,0.540415 0.465758,0.815076 0.07422,0.274659 0.05978,0.498828 -0.05492,0.793105 -0.114703,0.294277 -0.329779,0.658979 -0.604167,0.964469 -0.274387,0.305489 -0.608994,0.552416 -0.779923,0.476741 -0.170929,-0.07568 -0.178544,-0.473388 -1.764165,-0.885377 -1.585621,-0.41199 -4.747974,-0.837779 -7.293932,-1.210529 C 9.769218,21.415487 7.839694,21.094948 6.712909,20.856724 5.586125,20.6185 5.262,20.461689 5.01685,20.195437 4.771701,19.929184 4.604392,19.553345 4.579653,19.20021 c -0.02473,-0.353134 0.09271,-0.683065 0.263636,-0.938105 0.170932,-0.25504 0.39699,-0.434795 0.615151,-0.60856 0.163622,-0.130323 0.322516,-0.256341 0.448182,-0.26803 z m -0.16697,5.663782 c 0.06446,-0.0045 0.116793,0.0027 0.151591,0.02856 0.139192,0.103339 -0.0052,0.483426 2.590225,1.028181 2.595427,0.544753 7.930222,1.255332 10.754156,1.663104 2.823935,0.407771 3.136105,0.514338 3.37674,0.729393 0.240634,0.215056 0.409873,0.53917 0.487726,0.812878 0.07785,0.273708 0.06539,0.495454 -0.05492,0.788712 -0.120315,0.293258 -0.347107,0.657841 -0.634923,0.962272 -0.287817,0.30443 -0.637978,0.549957 -0.817272,0.474545 C 21.413677,29.46154 21.404148,29.064331 19.740927,28.653768 18.077706,28.243207 14.761644,27.819093 12.091086,27.447633 9.420528,27.076173 7.396126,26.757912 6.214197,26.520513 5.032269,26.283114 4.6918,26.126752 4.434654,25.861422 4.177507,25.596093 4.003633,25.220303 3.977684,24.868393 3.951734,24.516482 4.075214,24.188838 4.254503,23.934682 4.433799,23.680525 4.669373,23.500016 4.999274,23.323925 5.2467,23.191857 5.546256,23.062738 5.739652,23.049305 Z M 5.45844,28.499982 c 0.06284,2.88e-4 0.113764,0.01156 0.149395,0.03735 0.142521,0.10316 0.02476,0.435309 2.697875,0.955681 2.673117,0.520371 8.137288,1.229682 11.028778,1.63674 2.89149,0.407059 3.209439,0.512518 3.45583,0.727197 0.246391,0.214679 0.421193,0.537451 0.500909,0.810681 0.07972,0.273229 0.06607,0.495967 -0.05712,0.788712 -0.123195,0.292743 -0.355601,0.656176 -0.650303,0.960074 -0.294701,0.303898 -0.653461,0.549825 -0.837044,0.474545 -0.183584,-0.07527 -0.192974,-0.47114 -1.895984,-0.880984 C 18.147766,33.600134 14.75303,33.174653 12.018586,32.803842 9.284142,32.433033 7.211296,32.115903 6.001091,31.87892 4.790888,31.641936 4.443105,31.486891 4.179806,31.222026 3.916507,30.95716 3.736225,30.582488 3.709655,30.231194 c -0.02657,-0.351295 0.09982,-0.68 0.283408,-0.933711 0.183587,-0.253712 0.424776,-0.43204 0.74697,-0.584393 0.241644,-0.114266 0.529891,-0.213973 0.718407,-0.213106 z m -0.388863,5.648403 c 0.0604,-0.0024 0.110325,0.0094 0.147198,0.03515 0.147512,0.10289 0.07085,0.460878 2.860451,0.993029 2.789594,0.532151 8.444646,1.237328 11.437413,1.643332 2.992767,0.406004 3.323839,0.510876 3.57886,0.724999 0.255021,0.214123 0.43378,0.53816 0.516288,0.810681 0.08251,0.272521 0.06819,0.494529 -0.05932,0.786515 -0.127509,0.291985 -0.367249,0.65257 -0.672272,0.95568 -0.305024,0.30311 -0.675592,0.549631 -0.865606,0.474545 -0.190013,-0.07508 -0.199233,-0.470005 -1.961892,-0.878787 C 18.288041,39.284748 14.771912,38.861637 11.941692,38.491788 9.111472,38.121939 6.968078,37.805431 5.715486,37.569062 4.462894,37.332693 4.100811,37.176348 3.828291,36.912168 3.55577,36.647989 3.372459,36.273918 3.344958,35.923533 c -0.0275,-0.350384 0.102181,-0.67846 0.292197,-0.931514 0.190016,-0.253055 0.440735,-0.43029 0.751363,-0.595378 0.23297,-0.123817 0.499863,-0.241122 0.681059,-0.248258 z m -0.294393,5.334237 c 0.04756,-0.0038 0.08975,0.0051 0.127424,0.03075 0.150671,0.102722 0.211742,0.4764 3.130679,1.015 2.918935,0.538599 8.69688,1.24238 11.753776,1.647726 3.056897,0.405344 3.393072,0.511224 3.653557,0.724999 0.260486,0.213775 0.445194,0.536405 0.529469,0.808484 0.08428,0.272079 0.06873,0.492804 -0.06151,0.784318 -0.130242,0.291512 -0.376092,0.653061 -0.687651,0.95568 -0.31156,0.302619 -0.689096,0.547312 -0.883181,0.472348 -0.194085,-0.07496 -0.203205,-0.468472 -2.003635,-0.87659 -1.800429,-0.408119 -5.3917,-0.830295 -8.282566,-1.199544 C 9.160676,43.476544 6.968557,43.159052 5.689125,42.923066 4.409692,42.68708 4.042941,42.532121 3.764581,42.26837 3.48622,42.004619 3.296156,41.631747 3.268066,41.281932 3.239976,40.932115 3.372767,40.605258 3.566854,40.352614 3.760942,40.09997 4.017773,39.922776 4.26549,39.750646 4.451276,39.621547 4.632496,39.494195 4.775186,39.482615 Z m -0.177955,5.59348 c 0.04856,-0.0038 0.09336,0.0051 0.131819,0.03075 0.153831,0.102563 0.216434,0.472871 3.196587,1.010605 2.980154,0.537734 8.876632,1.243032 11.99764,1.647726 3.121008,0.404693 3.464502,0.509371 3.730451,0.722803 0.265949,0.21343 0.454411,0.534644 0.540454,0.806287 0.08604,0.271641 0.07146,0.493274 -0.06151,0.784317 -0.132973,0.291044 -0.384935,0.651351 -0.703029,0.953484 -0.318094,0.302132 -0.702602,0.547191 -0.900757,0.472347 -0.198155,-0.07485 -0.209385,-0.469126 -2.047574,-0.876589 C 18.643116,50.220369 14.976673,49.79914 12.025177,49.430484 9.073681,49.061829 6.837207,48.745562 5.530942,48.509955 4.224676,48.274348 3.848854,48.118586 3.564656,47.855259 3.280457,47.591932 3.088032,47.22027 3.059353,46.871017 c -0.02868,-0.349253 0.107221,-0.674882 0.305378,-0.92712 0.198159,-0.252238 0.458907,-0.430114 0.711818,-0.601969 0.189685,-0.128892 0.375,-0.254272 0.520681,-0.265833 z m -0.377878,5.578101 c 0.06791,-0.003 0.124071,0.0074 0.164772,0.03296 0.162807,0.102102 0.06678,0.463568 3.139467,0.995226 3.072683,0.531658 9.314145,1.231668 12.617185,1.634544 3.30304,0.402876 3.666491,0.508132 3.947951,0.720606 0.28146,0.212472 0.48015,0.533667 0.571211,0.804089 0.09106,0.270422 0.07482,0.490187 -0.06591,0.779924 -0.140728,0.289737 -0.405928,0.648314 -0.742575,0.94909 -0.336646,0.300775 -0.743771,0.544658 -0.953484,0.47015 -0.209712,-0.07451 -0.220809,-0.466562 -2.16621,-0.872195 -1.945401,-0.405634 -5.826805,-0.825953 -8.950446,-1.192954 -3.12364,-0.367 -5.489661,-0.681586 -6.872114,-0.916135 C 3.526745,53.824959 3.129445,53.67135 2.828671,53.409206 2.527897,53.147061 2.322963,52.777044 2.29261,52.429358 2.26226,52.081673 2.405848,51.755539 2.615565,51.504434 2.82528,51.25333 3.101464,51.076477 3.450412,50.909057 3.712124,50.783491 4.015638,50.663487 4.219351,50.654208 Z"/>
</g>
</svg>