<svg xmlns="http://www.w3.org/2000/svg" xmlns:svg="http://www.w3.org/2000/svg" width="18.746035" height="84.684273" viewBox="0 0 18.746035 84.684274" version="1.1" id="svg1" xml:space="preserve" xmlns:sodipodi="http://sodipodi.sourceforge.net/DTD/sodipodi-0.dtd" sodipodi:docname="porto_tooth_41.svg" xmlns:inkscape="http://www.inkscape.org/namespaces/inkscape" inkscape:version="1.4 (86a8ad7, 2024-10-11)">
  <path id="tooth_41_root" style="display:inline;fill:#fff5d0;fill-opacity:1;stroke:#000000;stroke-width:1;stroke-dasharray:none" d="m 17.175768,24.10344 c -0.0726,0.120532 -0.149619,0.234981 -0.230325,0.343726 -0.587457,0.79038 -1.394405,1.439962 -2.738507,1.793917 -1.344065,0.353992 -3.224967,0.411065 -4.164873,0.440152 -0.9399087,0.03042 -0.9404799,0.03042 -1.8662902,0 -0.925813,-0.03042 -2.777149,-0.08669 -4.060136,-0.324335 -1.282986,-0.237642 -1.995807,-0.653764 -2.508064,-1.516882 -0.06361,-0.107224 -0.123454,-0.222814 -0.180906,-0.347909 0.0447,0.363498 0.09353,0.729202 0.152346,1.088555 0.296069,1.808632 0.680107,3.476579 0.990279,6.012549 0.310183,2.53597 0.545538,5.940154 0.832213,11.307911 0.286671,5.367758 0.625242,12.699509 0.963616,18.678179 0.338375,5.978709 0.676293,10.603235 0.986465,13.667722 0.310183,3.064487 0.593645,4.568024 0.917912,5.668709 0.324261,1.100684 0.68935,1.800114 1.051218,2.348023 0.361849,0.547947 0.720157,0.943802 1.180715,0.919582 0.4605534,-0.02281 1.0238026,-0.468784 1.5501622,-1.685894 0.526357,-1.217073 1.016219,-3.20521 1.472078,-6.177568 0.455859,-2.972396 0.877814,-6.929735 1.380659,-12.767835 0.502882,-5.838101 1.08658,-13.556163 1.533042,-19.306925 0.446461,-5.7508 0.755613,-9.533652 1.159768,-12.394489 0.404156,-2.860837 0.901694,-4.800572 1.338758,-6.633462 0.09029,-0.378327 0.173573,-0.749392 0.239907,-1.114106 z"/>
  <path style="fill:#ffffff;fill-opacity:1;stroke:#000000;stroke-width:1;stroke-dasharray:none" d="m 8.1765838,26.682186 c -0.925813,-0.03042 -2.777426,-0.08745 -4.060412,-0.324715 -1.282987,-0.237643 -1.997289,-0.654563 -2.50955,-1.517681 -0.512257,-0.863118 -0.822421,-2.172282 -0.977502,-5.988367 -0.155073,-3.816122 -0.155073,-10.1388994 -0.0799,-13.518558 0.07522,-3.3796585 0.225576,-3.8160464 0.51699,-4.1360845 0.291389,-0.3201522 0.723696,-0.52365034 3.322585,-0.62547546 2.598893,-0.10190116 7.3641322,-0.10190116 9.9911612,0.0532319 2.62703,0.15513311 3.115798,0.46547536 3.407186,0.86794696 0.291499,0.4024715 0.385324,0.8970345 0.43231,4.2961227 0.04717,3.3991262 0.04717,9.7025114 -0.136352,13.3197754 -0.183154,3.617263 -0.549794,4.548176 -1.137252,5.338556 -0.587457,0.79038 -1.395768,1.440114 -2.73987,1.794069 -1.344065,0.353992 -3.223851,0.412129 -4.163756,0.441217 -0.9399092,0.03042 -0.9398723,0.03042 -1.8656822,0 z" id="tooth_41_crown"/>
  <g id="tooth_41_implant" style="display: none">
    <path id="tooth_41_implant-1" style="fill:#9a9a9a;fill-opacity:1;stroke:#000000;stroke-width:0.738039;stroke-dasharray:none" d="m 9.41893,64.105379 c 0.2213091,0.0057 0.4538238,-0.07459 0.972152,-0.399324 0.518327,-0.324739 1.321966,-0.894218 2.055782,-1.589278 0.733816,-0.69506 1.398529,-1.515144 1.777087,-2.136144 0.378559,-0.620999 0.47128,-1.043401 0.52952,-1.57324 0.05824,-0.529842 0.08042,-1.168372 0.18525,-3.008564 0.10483,-1.840191 0.292378,-4.881096 0.531159,-9.586987 0.238781,-4.70589 0.530135,-11.07574 0.821329,-17.445172 L 2.5236989,28.469307 c 0.198012,4.170326 0.3956583,8.340299 0.6344396,13.262694 0.2387814,4.922394 0.5172711,10.595999 0.6803429,13.666828 0.1630711,3.07083 0.2098034,3.539236 0.3786963,3.98362 0.168893,0.444383 0.4606083,0.866115 1.2410108,1.618144 0.7804025,0.752031 2.0505786,1.833183 2.7902243,2.420001 0.7396435,0.58682 0.9492074,0.679087 1.1705172,0.684785 z m 6.900149,-35.822102 1.327897,-5.040465 H 1.0843233 l 1.3803571,5.040465 z"/>
    <path id="tooth_41_implant-2" style="fill:#656565;fill-opacity:1;stroke:#000000;stroke-width:0.738039;stroke-dasharray:none" d="m 5.3270377,60.918016 c 0.1469531,0.0036 0.2423706,-0.01484 0.231153,-0.06735 -0.029915,-0.140058 -0.6984204,-0.464206 0.7278848,-0.870815 1.4263038,-0.406609 5.1197885,-0.813114 7.0673655,-1.055242 1.947577,-0.242128 2.14994,-0.319446 2.306607,-0.477907 0.156667,-0.158461 0.267353,-0.398108 0.31804,-0.599787 0.05069,-0.20168 0.04063,-0.366063 -0.03771,-0.582148 -0.07833,-0.216084 -0.225739,-0.48292 -0.413124,-0.707236 -0.187385,-0.224318 -0.414428,-0.405176 -0.531159,-0.349609 -0.11673,0.05557 -0.122091,0.346984 -1.204944,0.649503 -1.082853,0.302519 -3.243388,0.614749 -4.9820743,0.888456 -1.7386874,0.273707 -3.0568083,0.50986 -3.8263126,0.684785 -0.7695042,0.174925 -0.9899842,0.288814 -1.1574019,0.48432 -0.1674184,0.195506 -0.2814723,0.47199 -0.298367,0.731293 -0.016894,0.259302 0.063599,0.502323 0.1803314,0.689596 0.116732,0.187272 0.2703763,0.319255 0.7114908,0.43621 0.2756967,0.07309 0.6632952,0.139912 0.9082163,0.145937 z M 3.772906,56.976093 c 0.031258,0.0028 0.060495,-0.0035 0.085247,-0.02245 0.099018,-0.0757 0.1391777,-0.348836 2.0574212,-0.745725 1.9182443,-0.396889 5.7142108,-0.916919 7.7231188,-1.215613 2.008908,-0.298694 2.230507,-0.376508 2.40169,-0.534036 0.171184,-0.157529 0.292166,-0.394485 0.347548,-0.594978 0.05538,-0.200492 0.04461,-0.364127 -0.04098,-0.578939 -0.08559,-0.214813 -0.246081,-0.481033 -0.450829,-0.70403 -0.204749,-0.222997 -0.454433,-0.403245 -0.58198,-0.348005 -0.127547,0.05524 -0.133229,0.345557 -1.316421,0.646295 -1.183192,0.300739 -3.542944,0.61155 -5.4427406,0.883645 -1.8997975,0.272097 -3.3396104,0.506079 -4.1804186,0.679974 -0.8408075,0.173896 -1.0826699,0.288363 -1.2656011,0.482717 -0.1829305,0.194356 -0.3077767,0.468706 -0.3262369,0.726482 -0.018454,0.257776 0.06918,0.498614 0.1967254,0.684785 0.1275497,0.18617 0.2962344,0.317385 0.4590264,0.444228 0.1220949,0.09513 0.2406618,0.18712 0.3344339,0.195653 z M 3.6483128,52.841725 c 0.0481,0.0033 0.087151,-0.002 0.1131174,-0.02085 0.1038652,-0.07543 -0.00388,-0.352884 1.9328288,-0.750537 1.9367105,-0.397651 5.91754,-0.916349 8.024763,-1.214009 2.107223,-0.297659 2.340165,-0.375449 2.519727,-0.532432 0.179562,-0.156984 0.305848,-0.393576 0.363942,-0.593373 0.05809,-0.199798 0.0488,-0.361665 -0.04098,-0.575733 -0.08978,-0.214068 -0.259012,-0.480202 -0.473781,-0.702426 -0.214769,-0.222223 -0.47606,-0.40145 -0.609849,-0.346402 -0.13379,0.05505 -0.1409,0.344996 -1.381997,0.644693 -1.241098,0.299696 -3.715547,0.609284 -5.7083201,0.880438 -1.9927733,0.271153 -3.5033844,0.503472 -4.3853411,0.676766 -0.881956,0.173293 -1.1360143,0.287432 -1.3278969,0.481114 -0.1918834,0.193681 -0.3216284,0.467995 -0.3409916,0.724877 -0.019364,0.256883 0.072777,0.496052 0.2065627,0.681577 0.1337909,0.185526 0.3095764,0.317291 0.5557489,0.445832 0.1846296,0.09641 0.4081586,0.190657 0.5524709,0.200463 z M 3.4384721,48.862917 c 0.046891,-2.11e-4 0.084891,-0.0084 0.1114787,-0.02726 0.1063493,-0.0753 0.018476,-0.31776 2.0131573,-0.697614 1.9946829,-0.379853 6.0720529,-0.897626 8.2296869,-1.194764 2.157632,-0.29714 2.394886,-0.374121 2.578744,-0.530829 0.183857,-0.156709 0.314294,-0.392321 0.373778,-0.59177 0.05948,-0.199448 0.0493,-0.362039 -0.04262,-0.575733 -0.09193,-0.213692 -0.26535,-0.478986 -0.485257,-0.700821 -0.219906,-0.221835 -0.487613,-0.401354 -0.624603,-0.346402 -0.13699,0.05495 -0.143998,0.343916 -1.414785,0.643088 -1.270788,0.299173 -3.803944,0.609759 -5.8443887,0.880439 -2.0404451,0.270678 -3.5872051,0.502172 -4.4902614,0.675161 -0.9030548,0.17299 -1.1625709,0.286168 -1.3590449,0.47951 -0.196474,0.193344 -0.3310006,0.466841 -0.3508272,0.723274 -0.019827,0.256433 0.074486,0.496377 0.2114794,0.681577 0.1369928,0.185201 0.3169683,0.315375 0.5573898,0.426587 0.180315,0.08341 0.3954053,0.156193 0.5360761,0.15556 z m -0.29017,-4.123142 c 0.045071,0.0018 0.082325,-0.0069 0.1098393,-0.02566 0.1100736,-0.07511 0.052868,-0.336425 2.1344717,-0.724878 2.0815982,-0.388452 6.3014039,-0.903207 8.5346109,-1.199576 2.233206,-0.296369 2.480252,-0.372922 2.670549,-0.529224 0.190297,-0.156303 0.323687,-0.392839 0.385254,-0.59177 0.06157,-0.198931 0.05088,-0.360989 -0.04426,-0.574129 -0.09515,-0.213139 -0.274041,-0.476354 -0.50165,-0.697614 -0.227609,-0.22126 -0.504127,-0.401212 -0.645916,-0.346402 -0.141788,0.05481 -0.148668,0.343088 -1.463966,0.641485 -1.315298,0.298396 -3.939037,0.607253 -6.0509501,0.87723 -2.1119133,0.269977 -3.7113162,0.501017 -4.6460018,0.673558 -0.9346855,0.172542 -1.2048723,0.286668 -1.408227,0.479511 -0.2033555,0.192841 -0.3401423,0.4659 -0.3606636,0.72167 -0.02052,0.255768 0.076248,0.495252 0.2180377,0.679973 0.1417902,0.184722 0.328877,0.314097 0.5606679,0.434606 0.1738425,0.09038 0.3729983,0.17601 0.508207,0.18122 z M 2.9286257,40.845964 c 0.035489,0.0028 0.066972,-0.0037 0.095084,-0.02245 0.1124309,-0.07498 0.1580022,-0.347755 2.3361162,-0.740915 2.1781125,-0.393159 6.4896211,-0.906895 8.7706811,-1.202784 2.281059,-0.295887 2.531913,-0.373176 2.726288,-0.529224 0.194375,-0.156049 0.332204,-0.391558 0.395091,-0.590166 0.06289,-0.198608 0.05128,-0.35973 -0.0459,-0.572525 -0.09719,-0.212794 -0.28064,-0.476713 -0.513126,-0.697614 -0.232486,-0.220902 -0.514204,-0.399519 -0.659031,-0.344798 -0.144826,0.05472 -0.151632,0.341968 -1.495114,0.639881 -1.343482,0.297913 -4.023293,0.606087 -6.18046,0.875626 -2.1571682,0.269539 -3.7929298,0.501297 -4.7476434,0.673559 -0.9547143,0.172262 -1.2283843,0.285377 -1.4360969,0.477906 -0.2077133,0.192529 -0.3495392,0.464713 -0.3705,0.720066 -0.020961,0.255354 0.078128,0.493949 0.2229559,0.67837 0.1448287,0.184422 0.3364763,0.313767 0.521323,0.439417 0.1386337,0.09424 0.2738603,0.1872 0.3803357,0.195653 z m -0.1327902,-4.08305 c 0.036236,0.0028 0.069665,-0.0037 0.098364,-0.02245 0.1147888,-0.07487 0.1615033,-0.34518 2.3852968,-0.737707 2.2237942,-0.392528 6.6237537,-0.907371 8.9526517,-1.202784 2.3289,-0.295412 2.585216,-0.371824 2.783667,-0.527622 0.198451,-0.155796 0.339082,-0.390272 0.403287,-0.588562 0.06421,-0.198289 0.05332,-0.360073 -0.0459,-0.572525 -0.09923,-0.212452 -0.28724,-0.475464 -0.524602,-0.69601 -0.237362,-0.220546 -0.524282,-0.399431 -0.672145,-0.344798 -0.147864,0.05464 -0.156243,0.342446 -1.527902,0.639881 -1.371659,0.297434 -4.107563,0.604916 -6.309972,0.874023 -2.2024096,0.269105 -3.8712689,0.499969 -4.8460053,0.671955 -0.9747372,0.171985 -1.255176,0.285686 -1.4672448,0.477905 -0.2120696,0.19222 -0.3556574,0.463521 -0.3770577,0.718463 -0.021401,0.254943 0.080008,0.492641 0.2278734,0.676766 0.1478665,0.184126 0.3424369,0.313969 0.5311594,0.439417 0.1415432,0.09409 0.2798254,0.18561 0.3885327,0.194049 z m -0.281973,-4.071823 c 0.050674,0.0022 0.092582,-0.0054 0.1229531,-0.02406 0.1214867,-0.07453 0.049831,-0.338389 2.3426737,-0.726481 2.2928395,-0.388092 6.9502257,-0.899076 9.4149577,-1.193162 2.464732,-0.294085 2.735939,-0.370919 2.945965,-0.526017 0.210026,-0.155098 0.358289,-0.389559 0.426239,-0.586958 0.06795,-0.197399 0.05583,-0.35782 -0.04918,-0.569318 -0.105011,-0.211498 -0.302904,-0.473247 -0.55411,-0.692803 -0.251206,-0.219556 -0.555003,-0.397582 -0.711491,-0.343194 -0.156488,0.05439 -0.164768,0.340575 -1.616428,0.636673 -1.45166,0.296099 -4.347969,0.602918 -6.678833,0.870816 -2.3308637,0.267897 -4.0963912,0.497534 -5.1279791,0.668747 -1.0315888,0.171213 -1.3280545,0.283342 -1.5524923,0.474698 -0.2244379,0.191357 -0.3773599,0.461457 -0.4000094,0.715256 -0.022647,0.253798 0.084498,0.491865 0.2409894,0.675163 0.1564896,0.183297 0.3625784,0.312394 0.6229638,0.434605 0.1952898,0.09166 0.4217722,0.179258 0.5737831,0.186031 z"/>
  </g>
</svg>