<?xml version="1.0" encoding="UTF-8" standalone="no"?>
<svg
   width="23.461679"
   height="91.207901"
   viewBox="0 0 23.46168 91.2079"
   version="1.1"
   id="svg1"
   xml:space="preserve"
   xmlns="http://www.w3.org/2000/svg"
   xmlns:svg="http://www.w3.org/2000/svg"><defs
     id="defs1" /><path
     id="tooth_12_root"
     style="fill:#fff5d0;fill-opacity:1;stroke:#000000;stroke-width:1;stroke-dasharray:none"
     d="M 10.653286,0.56235068 C 8.5983583,1.6521036 8.3497435,4.5969864 7.6562527,6.6616828 6.4509095,12.959722 6.6989627,19.416531 6.1400162,25.784927 5.6158883,34.481258 4.3692365,43.105198 3.3062978,51.744604 2.9770448,55.165461 2.5971465,58.586369 1.8509259,61.945725 2.9589005,59.995442 5.9867922,60.394018 7.9484246,59.789602 12.02053,59.381766 16.660504,58.952861 20.192678,61.438851 c 0.998095,0.653652 1.882757,2.857499 0.85801,0.530881 C 18.666104,56.869535 18.997107,51.111365 18.434843,45.637657 17.878623,37.411666 17.444396,29.133871 15.541376,21.080173 14.207741,15.316826 13.259817,9.4778653 12.184583,3.6650556 11.850315,2.6045704 11.758226,1.1145002 10.653286,0.56235068 Z" /><path
     style="fill:#ffffff;fill-opacity:1;stroke:#000000;stroke-width:1;stroke-dasharray:none"
     d="m 3.0223108,60.862081 c 0.7883694,-0.233112 2.3651081,-0.699524 4.5164404,-1.015004 2.1513359,-0.315632 4.8771728,-0.480103 7.1754798,-0.260492 2.298311,0.219422 4.168982,0.823001 5.47848,1.851733 1.309503,1.02877 2.05777,2.482693 2.431905,7.146365 0.374136,4.663671 0.374136,12.53675 0.293958,16.720281 -0.08017,4.183531 -0.240538,4.677324 -0.828456,4.965347 -0.587938,0.287872 -1.603471,0.370393 -4.797077,0.411425 -3.193605,0.04107 -8.5650972,0.04107 -11.5715922,-0.05476 C 2.7149538,90.531146 2.073589,90.339104 1.5925433,89.899995 1.1114976,89.461077 0.79081904,88.775281 0.63047045,84.756259 0.47013669,80.737275 0.47013669,73.385407 0.56367705,69.325315 0.65721745,65.265223 0.84426112,64.497134 1.1382557,63.674134 1.4322133,62.851133 1.8330884,61.973295 2.0335204,61.534377 2.2339376,61.095458 2.2339376,61.095534 3.0223219,60.862347 Z"
     id="tooth_12_crown" /></svg>
