<?xml version="1.0" encoding="UTF-8" standalone="no"?>
<svg
   width="27.733868"
   height="88.008469"
   viewBox="0 0 27.733868 88.008468"
   version="1.1"
   id="svg1"
   xml:space="preserve"
   xmlns="http://www.w3.org/2000/svg"
   xmlns:svg="http://www.w3.org/2000/svg"><defs
     id="defs1" /><path
     id="tooth_44_root"
     style="fill:#fff5d0;fill-opacity:1;stroke:#000000;stroke-width:1;stroke-dasharray:none"
     d="m 4.5752564,30.215325 c 0.504447,0.801534 1.141718,1.47859 2.08716,1.983806 1.795917,0.95969 4.6911736,1.316519 6.1386026,1.494744 1.44743,0.178262 1.447486,0.178642 2.680478,0.164959 1.232993,-0.0152 3.699004,-0.04219 5.334074,-0.398715 0.966031,-0.21057 1.638711,-0.54429 2.204292,-1.207966 -0.285027,1.052433 -0.594191,2.132726 -0.850612,3.181966 -0.629894,2.577432 -0.89923,4.909287 -1.113664,11.352923 -0.21443,6.443636 -0.374846,16.999547 -0.522271,24.375355 -0.147437,7.375846 -0.2812,11.56965 -0.589476,13.845442 -0.308287,2.27583 -0.791173,2.633457 -1.488087,2.455233 C 17.758839,87.284809 16.847614,86.570809 15.829037,85.021599 14.810463,83.472388 13.68541,81.087054 12.747258,77.563653 11.809102,74.040214 11.058508,69.380115 10.053337,62.9502 9.0481694,56.520323 7.7890154,48.322645 6.9446754,42.742803 c -0.84434,-5.57988 -1.274801,-8.542914 -1.891312,-10.846148 -0.16137,-0.602938 -0.331881,-1.158782 -0.478107,-1.68133 z" /><path
     style="fill:#ffffff;fill-opacity:1;stroke:#000000;stroke-width:1;stroke-dasharray:none"
     d="m 15.480929,33.858036 c 1.232992,-0.0152 3.698993,-0.04105 5.334062,-0.397499 1.63507,-0.356525 2.439188,-1.041904 3.283528,-3.139509 0.844339,-2.097606 1.72886,-5.607209 2.34536,-9.569349 C 27.060382,16.78954 27.408832,12.375131 27.154177,9.5783494 26.899543,6.7815675 26.041809,5.6025648 24.071669,4.3549558 22.101526,3.1073848 19.019101,1.7912835 16.740715,1.0646645 14.462329,0.33804549 12.988151,0.20094685 10.602535,1.2566102 8.2169204,2.3122735 4.9200574,4.5606228 3.0169514,6.3977522 1.1138504,8.2348435 0.60458742,9.660601 0.51077142,12.087251 c -0.09382,2.426649 0.227806,5.854001 0.79072298,8.691909 0.562898,2.837946 1.367004,5.086257 2.117531,6.991917 0.750527,1.905659 1.44743,3.468553 3.243343,4.428244 1.795916,0.959652 4.6907086,1.316101 6.1381386,1.494326 1.447429,0.178262 1.447429,0.178262 2.680422,0.164579 z"
     id="tooth_44_crown" /></svg>
