<?xml version="1.0" encoding="UTF-8" standalone="no"?>
<svg
   width="42.620834"
   height="62.89357"
   viewBox="0 0 42.620835 62.89357"
   version="1.1"
   id="svg1"
   xml:space="preserve"
   xmlns="http://www.w3.org/2000/svg"
   xmlns:svg="http://www.w3.org/2000/svg"><defs
     id="defs1" /><g id="tooth_28_root"><path
     id="tooth_28_root_2"
     style="fill:#ffdf5d;fill-opacity:1;stroke:#000000;stroke-width:1;stroke-dasharray:none"
     d="m 19.59664,1.7010167 c 0.409617,0.00991 0.827088,0.211565 1.239938,0.6083683 0.943657,0.9069747 1.860456,2.8319948 2.723229,5.1681815 0.862774,2.3361868 1.671036,5.0835825 2.479877,7.8320185 l 0.258802,0.313175 c -0.126135,0.748993 -0.253035,1.519664 -0.426833,2.388211 -0.276356,1.381097 -0.680636,2.989189 -1.294016,4.191638 -0.61338,1.202449 -1.436278,1.997618 -2.211417,2.423644 -0.775138,0.425987 -1.503435,0.481879 -2.130299,0.261741 -0.626864,-0.219832 -1.152607,-0.714436 -1.678359,-1.305355 -0.525752,-0.590919 -1.051074,-1.278838 -1.529643,-2.35076 -0.47857,-1.071883 -0.910527,-2.52853 -1.207105,-3.744734 -0.29658,-1.216203 -0.458469,-2.191581 -0.714607,-3.311576 -0.07597,-0.332187 -0.168744,-0.693211 -0.256873,-1.045446 8.45e-4,-0.0061 0.0011,-0.01372 0.0019,-0.01981 0.350535,-2.473536 0.673624,-3.8460914 1.185894,-5.5776169 0.51227,-1.7315294 1.213371,-3.8207151 2.049182,-4.9201099 0.470143,-0.618415 0.983678,-0.9241879 1.51033,-0.9115695 z" /><path
     id="tooth_28_root_1"
     style="fill:#fff5d0;fill-opacity:1;stroke:#000000;stroke-width:1;stroke-dasharray:none"
     d="m 30.566811,0.5019963 c 0.208948,-0.008001 0.426506,0.008001 0.64894,0.0492242 0.889735,0.1648934 1.860379,0.7412012 2.69619,1.744384 0.835811,1.0031867 1.537297,2.4327912 2.184377,4.2467711 0.647079,1.8139836 1.241098,4.0121414 1.645526,5.9498104 0.404427,1.93765 0.618502,3.615577 0.780272,5.937991 0.161771,2.322452 0.270298,5.290229 0.243352,8.024952 -0.02695,2.734724 -0.189507,5.234794 -0.270392,6.485325 -0.03986,0.616255 -0.05872,0.926382 -0.0367,1.130137 -0.05633,-0.05677 -0.11194,-0.113917 -0.177685,-0.167255 -0.727957,-0.590919 -2.076085,-0.975455 -4.044285,-1.236434 -1.9682,-0.261361 -4.557355,-0.400118 -7.010867,-0.496128 -2.453511,-0.09487 -4.771129,-0.149349 -7.682981,-0.108202 -2.911852,0.04115 -6.417837,0.177923 -9.073567,0.439017 -2.6557331,0.26098 -4.4621391,0.646353 -5.3653401,0.838754 -0.903224,0.192401 -0.903141,0.192401 -0.956026,0.236216 -0.03027,0.02667 -0.09564,0.103248 -0.195056,0.257931 -0.002,-0.170684 6.35e-4,-0.347846 0.0056,-0.535522 0.04044,-1.470401 0.243493,-3.464362 0.270403,-5.250872 0.02691,-1.786511 -0.121616,-3.365418 -0.108161,-5.660363 0.01346,-2.294982 0.187849,-5.304706 0.363097,-7.585935 0.175247,-2.281209 0.351504,-3.834827 0.68177,-5.3945824 0.330276,-1.5597514 0.814504,-3.1260368 1.299813,-4.3353669 0.485312,-1.2093263 0.971809,-2.0608971 1.423417,-2.5831078 0.451608,-0.5222183 0.868772,-0.7149851 1.421488,-0.8249395 0.552713,-0.1099162 1.2393231,-0.1376905 1.6976741,-0.096467 0.45835,0.041223 0.689244,0.1517492 0.938643,0.5433977 0.249398,0.3916523 0.518382,1.0656998 0.788,1.945205 0.269618,0.879509 0.538565,1.9641517 0.774479,3.0772813 0.235914,1.1131296 0.43825,2.2528485 0.714606,3.4553016 0.276356,1.202453 0.626498,2.467203 0.882635,3.587209 0.256137,1.119988 0.418027,2.095366 0.714606,3.311569 0.29658,1.216203 0.728536,2.67285 1.207106,3.744734 0.478569,1.071921 1.003891,1.75984 1.529643,2.350759 0.525752,0.590919 1.051495,1.085523 1.678359,1.305356 0.626864,0.219832 1.355161,0.164207 2.130299,-0.261742 0.775321,-0.42633 1.598218,-1.221499 2.211598,-2.423948 0.613376,-1.20245 1.017656,-2.810541 1.294013,-4.191638 0.276357,-1.381096 0.424614,-2.535274 0.660528,-3.703358 0.235912,-1.168114 0.558471,-2.350497 0.666322,-3.614793 0.10785,-1.2642957 3.13e-4,-2.6103677 0.108156,-3.8746597 C 27.414508,5.5537202 27.738136,4.3718863 28.00775,3.3961806 28.277366,2.4204787 28.494,1.6503374 29.006267,1.141869 29.390468,0.76051111 29.939962,0.52583137 30.566813,0.5019965 Z m 8.559824,34.7400317 c 0.203723,0.343655 0.390627,0.730133 0.421038,1.078931 0.0027,0.03048 -0.002,0.06172 -0.0019,0.09258 -0.167657,-0.44557 -0.292775,-0.825724 -0.419107,-1.171474 z" /></g><path
     style="display:inline;fill:#ffffff;fill-opacity:1;stroke:#000000;stroke-width:1;stroke-dasharray:none"
     d="m 5.1042549,33.339505 c 0.903201,-0.192401 2.709622,-0.577165 5.3653501,-0.838259 2.655732,-0.260979 6.16063,-0.398518 9.072482,-0.439741 2.911852,-0.04115 5.23049,0.01524 7.684002,0.110107 2.453512,0.09601 5.041738,0.233548 7.009938,0.494718 1.968199,0.26098 3.316239,0.645896 4.044197,1.236815 0.727958,0.590919 0.835802,1.387954 1.280673,2.556038 0.444871,1.168122 1.226732,2.707216 1.712038,4.356303 0.485305,1.649048 0.674032,3.408013 0.768397,4.850982 0.09437,1.442932 0.09437,2.569755 0.05392,3.985217 -0.04044,1.415462 -0.121324,3.119449 -0.283095,4.507404 -0.161771,1.387992 -0.404421,2.459875 -0.970621,3.531759 -0.5662,1.071921 -1.455899,2.143766 -2.574814,2.927086 -1.118915,0.783282 -2.466947,1.278 -4.017237,1.539132 -1.55029,0.26098 -3.302754,0.288793 -4.772186,0.16497 -1.469431,-0.123441 -2.655661,-0.39848 -3.558887,-0.714551 -0.903227,-0.316223 -1.523297,-0.673365 -2.278232,-0.920743 -0.754936,-0.247264 -1.644605,-0.384764 -2.386037,-0.39848 -0.741433,-0.01524 -1.334593,0.09639 -2.035621,0.329939 -0.701027,0.233548 -1.509826,0.590919 -2.520897,0.838259 -1.011071,0.247264 -2.22428,0.384764 -3.693704,0.508472 -1.469422,0.123823 -3.1948981,0.233548 -4.5699531,0.110107 -1.375055,-0.123442 -2.399547,-0.480927 -3.262313,-0.948175 -0.86277,-0.467211 -1.563757,-1.044376 -2.224314,-1.84145 -0.66056,-0.797035 -1.280655,-1.813942 -1.685078,-2.789662 -0.40442305,-0.975683 -0.59315505,-1.910143 -0.68751805,-3.284381 -0.09437,-1.374239 -0.09437,-3.188181 -0.02691,-4.947184 0.06739,-1.759002 0.202194,-3.463028 0.48530805,-5.249538 0.28311,-1.786472 0.714469,-3.655353 1.214368,-5.205801 0.499903,-1.550448 1.068298,-2.782348 1.405287,-3.441959 0.337004,-0.65965 0.442552,-0.746974 0.495437,-0.790711 0.05288,-0.04382 0.05285,-0.0442 0.956071,-0.236597 z"
     id="tooth_28_crown" /></svg>
