<?xml version="1.0" encoding="UTF-8" standalone="no"?>
<svg
   width="25.606623"
   height="100.7217"
   viewBox="0 0 25.606622 100.72171"
   version="1.1"
   id="svg1"
   xml:space="preserve"
   xmlns="http://www.w3.org/2000/svg"
   xmlns:svg="http://www.w3.org/2000/svg"><defs
     id="defs1" /><path
     id="tooth_13_root"
     style="fill:#fff5d0;fill-opacity:1;stroke:#000000;stroke-width:1;stroke-dasharray:none"
     d="M 11.623591,0.53938919 C 9.0348799,2.5703495 9.3760121,6.7222037 8.7960075,9.7593045 8.2002375,20.241185 8.0262766,30.754657 6.8082248,41.195532 5.5870163,51.832665 4.7894873,62.591946 2.153247,72.999006 3.7998508,69.314697 8.5117945,69.79168 11.85961,69.259771 c 4.459118,-0.300065 9.314817,2.069883 11.455801,6.064863 1.178132,-1.5251 -1.224769,-6.792404 -1.124783,-9.761913 C 19.530249,44.642824 19.459417,23.207289 13.342944,2.8694394 12.989744,2.0170213 12.657468,0.76898298 11.623591,0.53938919 Z M 1.1638218,76.459913 1.0851958,76.907489 Z" /><path
     style="fill:#ffffff;fill-opacity:1;stroke:#000000;stroke-width:1;stroke-dasharray:none"
     d="M 10.827147,69.358986 C 7.2272736,69.625301 2.22453,70.072001 1.5918719,74.558622 0.23468788,80.44944 0.24809182,86.645673 1.0570627,92.611429 c 1.8996099,3.299466 6.0743322,4.813749 9.2491653,6.815322 4.266193,2.371669 8.791556,-0.987388 11.659304,-4.035461 C 26.01661,91.097213 25.2454,84.665356 24.52278,79.307944 24.133235,75.138294 21.212761,71.639943 17.334931,70.20744 15.293143,69.237936 13.044627,69.021442 10.827147,69.358986 Z"
     id="tooth_13_crown" /></svg>
