<?xml version="1.0" encoding="UTF-8" standalone="no"?>
<svg
   width="18.746035"
   height="84.684273"
   viewBox="0 0 18.746035 84.684274"
   version="1.1"
   id="svg1"
   xml:space="preserve"
   xmlns="http://www.w3.org/2000/svg"
   xmlns:svg="http://www.w3.org/2000/svg"><defs
     id="defs1" /><path
     id="tooth_41_root"
     style="fill:#fff5d0;fill-opacity:1;stroke:#000000;stroke-width:1;stroke-dasharray:none"
     d="m 17.175767,24.10344 c -0.0726,0.120532 -0.149619,0.234981 -0.230325,0.343726 -0.587457,0.79038 -1.394405,1.439962 -2.738507,1.793917 -1.344065,0.353992 -3.224967,0.411065 -4.164873,0.440152 -0.939909,0.03042 -0.9404802,0.03042 -1.8662901,0 C 7.2499583,26.650817 5.3986223,26.594543 4.1156357,26.3569 2.8326492,26.119258 2.1198289,25.703136 1.6075718,24.840018 1.5439653,24.732794 1.4841177,24.617204 1.4266655,24.492109 c 0.044701,0.363498 0.09353,0.729202 0.152346,1.088555 0.2960687,1.808632 0.6801068,3.476579 0.9902788,6.012549 0.310183,2.53597 0.5455381,5.940154 0.8322132,11.307911 0.2866715,5.367758 0.6252416,12.699509 0.9636164,18.678179 0.3383748,5.978709 0.6762926,10.603235 0.9864645,13.667722 0.3101831,3.064487 0.5936447,4.568024 0.9179126,5.668709 0.3242604,1.100684 0.6893492,1.800114 1.0512171,2.348023 0.3618495,0.547947 0.7201575,0.943802 1.180715,0.919582 0.4605538,-0.02281 1.023803,-0.468784 1.5501629,-1.685894 0.526357,-1.217073 1.016219,-3.20521 1.472078,-6.177568 0.455859,-2.972396 0.877814,-6.929735 1.380659,-12.767835 0.502882,-5.838101 1.08658,-13.556163 1.533042,-19.306925 0.446461,-5.7508 0.755613,-9.533652 1.159768,-12.394489 0.404156,-2.860837 0.901694,-4.800572 1.338758,-6.633462 0.09029,-0.378327 0.173573,-0.749392 0.239907,-1.114106 z" /><path
     style="fill:#ffffff;fill-opacity:1;stroke:#000000;stroke-width:1;stroke-dasharray:none"
     d="M 8.1765827,26.682186 C 7.2507691,26.651767 5.3991566,26.594733 4.1161701,26.357471 2.8331835,26.119828 2.1188818,25.702908 1.606621,24.83979 1.0943639,23.976672 0.78419932,22.667508 0.62911887,18.851423 0.47404578,15.035301 0.47404578,8.7125236 0.5492238,5.332865 0.62443867,1.9532065 0.77479472,1.5168186 1.066209,1.1967805 1.3575975,0.8766283 1.7899043,0.67313016 4.3887936,0.57130504 c 2.598893,-0.10190116 7.3641324,-0.10190116 9.9911614,0.0532319 2.62703,0.15513311 3.115798,0.46547536 3.407186,0.86794696 0.291499,0.4024715 0.385324,0.8970345 0.43231,4.2961227 0.04717,3.3991262 0.04717,9.7025114 -0.136352,13.3197754 -0.183154,3.617263 -0.549794,4.548176 -1.137252,5.338556 -0.587457,0.79038 -1.395768,1.440114 -2.73987,1.794069 -1.344065,0.353992 -3.223851,0.412129 -4.163756,0.441217 -0.9399095,0.03042 -0.9398726,0.03042 -1.8656825,0 z"
     id="tooth_41_crown" /></svg>
