<svg xmlns="http://www.w3.org/2000/svg" xmlns:svg="http://www.w3.org/2000/svg" width="29.545004" height="90.514557" viewBox="0 0 29.545003 90.514556" version="1.1" id="svg1" xml:space="preserve" xmlns:sodipodi="http://sodipodi.sourceforge.net/DTD/sodipodi-0.dtd" sodipodi:docname="porto_tooth_24.svg" xmlns:inkscape="http://www.inkscape.org/namespaces/inkscape" inkscape:version="1.4 (86a8ad7, 2024-10-11)">
  <path id="tooth_24_root" style="fill:#fff5d0;fill-opacity:1;stroke:#000000;stroke-width:1;stroke-dasharray:none" d="m 17.013653,0.51468547 c 2.203562,1.03318223 1.329537,4.18764073 1.827423,6.17009843 0.643663,5.5461341 0.298076,11.1291491 0.520425,16.6919241 0.650214,7.755265 1.404131,15.504012 2.180237,23.248096 0.538113,5.657431 1.775331,11.229133 3.75638,16.558668 -2.223244,-3.277108 -6.637258,-3.252591 -10.18544,-3.403537 -3.132536,0.131212 -6.4120038,-0.03428 -9.3905168,1.083714 -1.574651,0.263088 -3.160518,3.697665 -3.192328,3.339885 0.978852,-2.306804 2.134522,-4.607238 2.144658,-7.182584 0.708262,-8.888919 2.133926,-17.702217 3.215761,-26.550158 1.347934,-9.13618 2.3458618,-18.565105 6.3200158,-27.0191241 0.674372,-1.1290953 1.342726,-2.74640934 2.803385,-2.93698243 z"/>
  <path style="fill:#ffffff;fill-opacity:1;stroke:#000000;stroke-width:1;stroke-dasharray:none" d="m 13.422206,59.807983 c -1.046465,0.04105 -3.139418,0.123137 -4.9372188,0.35649 -1.797797,0.232974 -3.300397,0.616866 -4.561538,2.069965 -1.261144,1.453137 -2.280754,3.975405 -2.817403,6.07281 -0.53665299,2.097366 -0.59031199,3.769757 -0.60372799,6.086491 -0.01339,2.316772 0.01339,5.277698 1.01965399,7.649274 1.006238,2.371538 2.991822,4.153612 4.856705,5.373661 1.864884,1.22005 3.608963,1.878038 5.2457658,2.248135 1.636802,0.370172 3.166236,0.45234 4.628624,0.219291 1.462392,-0.232973 2.857649,-0.781353 4.76279,-1.782074 1.905144,-1.000721 4.320023,-2.453782 5.80924,-4.098808 1.489221,-1.645026 2.052692,-3.481904 2.18685,-5.3737 0.134165,-1.891757 -0.160983,-3.838281 -0.550066,-5.757478 -0.389079,-1.919197 -0.87205,-3.810879 -1.395294,-5.510747 -0.52324,-1.69983 -1.086719,-3.207733 -1.851452,-4.304417 -0.764734,-1.096647 -1.7307,-1.782074 -2.911338,-2.248173 -1.180638,-0.46606 -2.575921,-0.712829 -3.917553,-0.849877 -1.341636,-0.137199 -2.629591,-0.164563 -3.273576,-0.178245 -0.643985,-0.0152 -0.643996,-0.0152 -1.690462,0.0266 z" id="tooth_24_crown"/>
  	 <g id="tooth_24_implant" style="display: none">
  <path id="tooth_24_implant-1" style="fill:#9a9a9a;fill-opacity:1;stroke:#000000;stroke-width:1;stroke-dasharray:none" d="m 14.273435,7.2505029 c 0.296581,-0.00776 0.608179,0.1021812 1.302801,0.5470448 0.694622,0.4448693 1.771595,1.2250139 2.754997,2.177195 0.983404,0.9521813 1.874199,2.0756373 2.381513,2.9263623 0.507315,0.850723 0.631572,1.429382 0.709621,2.155224 0.07805,0.725844 0.107773,1.600584 0.248257,4.121512 0.140485,2.520927 0.391822,6.686745 0.711818,13.133472 0.319995,6.446726 0.710445,15.172956 1.10068,23.898613 L 5.032989,56.06932 C 5.298349,50.356278 5.563219,44.643719 5.883215,37.900398 6.203211,31.157078 6.576421,23.384653 6.794957,19.177841 7.013492,14.971029 7.076119,14.329346 7.302456,13.720573 7.528793,13.1118 7.919727,12.534059 8.965561,11.503833 10.011395,10.473606 11.713585,8.9925068 12.7048,8.1886088 13.696012,7.3847085 13.976853,7.2583094 14.273435,7.2505029 Z m 9.247036,49.0736651 1.779544,6.905069 H 3.104051 l 1.849846,-6.905069 z"/>
  <path id="tooth_24_implant-2" style="fill:#656565;fill-opacity:1;stroke:#000000;stroke-width:1;stroke-dasharray:none" d="m 8.789803,11.616958 c 0.196935,-0.0049 0.324806,0.02033 0.309773,0.09227 -0.04009,0.191869 -0.935968,0.635929 0.975454,1.192953 1.91142,0.557025 6.861137,1.113907 9.471127,1.445605 2.609989,0.331697 2.88118,0.437617 3.091133,0.654697 0.209953,0.21708 0.358285,0.545379 0.426212,0.821665 0.06793,0.276286 0.05445,0.501479 -0.05053,0.7975 -0.104976,0.296019 -0.302518,0.661565 -0.553636,0.968862 -0.251119,0.307299 -0.555384,0.555061 -0.711818,0.478939 -0.156433,-0.07613 -0.163616,-0.475343 -1.614771,-0.889772 -1.451154,-0.414429 -4.346533,-0.842161 -6.676584,-1.21712 C 11.126111,15.587599 9.359669,15.264086 8.32844,15.024452 7.297211,14.784817 7.001741,14.628797 6.777381,14.360968 6.55302,14.093139 6.400174,13.714376 6.377533,13.359151 c -0.02264,-0.355226 0.08523,-0.688146 0.241666,-0.944697 0.156435,-0.256549 0.362337,-0.437356 0.953484,-0.597575 0.369467,-0.100134 0.888896,-0.19167 1.21712,-0.199924 z m -2.082725,5.400147 c 0.04189,-0.0039 0.08107,0.0048 0.114242,0.03075 0.132696,0.1037 0.186515,0.477881 2.757194,1.02159 2.57068,0.543708 7.657735,1.256111 10.349915,1.665301 2.69218,0.409189 2.98915,0.515788 3.218557,0.73159 0.229408,0.215803 0.391537,0.540415 0.465757,0.815076 0.07422,0.274659 0.05978,0.498828 -0.05492,0.793105 -0.114702,0.294277 -0.329778,0.658979 -0.604166,0.964469 -0.274387,0.305489 -0.608994,0.552416 -0.779923,0.476741 C 22.002801,23.440047 21.995186,23.042339 20.409565,22.63035 18.823944,22.21836 15.661591,21.792571 13.115633,21.419821 10.569674,21.047069 8.64015,20.72653 7.513365,20.488306 6.386581,20.250082 6.062456,20.093271 5.817306,19.827019 5.572157,19.560766 5.404848,19.184927 5.380109,18.831792 c -0.02473,-0.353134 0.09271,-0.683065 0.263636,-0.938105 0.170932,-0.25504 0.39699,-0.434795 0.615151,-0.60856 0.163622,-0.130323 0.322516,-0.256341 0.448182,-0.26803 z m -0.16697,5.663782 c 0.06446,-0.0045 0.116793,0.0027 0.151591,0.02856 0.139192,0.103339 -0.0052,0.483426 2.590225,1.028181 2.595427,0.544753 7.930222,1.255332 10.754156,1.663104 2.823935,0.407771 3.136105,0.514338 3.376739,0.729393 0.240635,0.215056 0.409874,0.53917 0.487727,0.812878 0.07785,0.273708 0.06539,0.495454 -0.05492,0.788712 -0.120316,0.293258 -0.347107,0.657841 -0.634923,0.962272 -0.287817,0.30443 -0.637978,0.549957 -0.817272,0.474545 C 22.214133,29.093122 22.204604,28.695913 20.541383,28.28535 18.878162,27.874789 15.5621,27.450675 12.891542,27.079215 10.220984,26.707755 8.196582,26.389494 7.014653,26.152095 5.832725,25.914696 5.492256,25.758334 5.23511,25.493004 4.977963,25.227675 4.804089,24.851885 4.77814,24.499975 4.75219,24.148064 4.87567,23.82042 5.054959,23.566264 5.234255,23.312107 5.469829,23.131598 5.79973,22.955507 6.047156,22.823439 6.346712,22.69432 6.540108,22.680887 Z m -0.281212,5.450677 c 0.06284,2.88e-4 0.113764,0.01156 0.149395,0.03735 0.142521,0.10316 0.02476,0.435309 2.697875,0.955681 2.673117,0.520371 8.137288,1.229682 11.028778,1.63674 2.89149,0.407059 3.209439,0.512518 3.45583,0.727197 0.246391,0.214679 0.421193,0.537451 0.500908,0.810681 0.07972,0.273229 0.06607,0.495967 -0.05712,0.788712 -0.123194,0.292743 -0.3556,0.656176 -0.650302,0.960074 -0.294701,0.303898 -0.653461,0.549825 -0.837045,0.474545 -0.183583,-0.07527 -0.192973,-0.47114 -1.895983,-0.880984 C 18.948222,33.231716 15.553486,32.806235 12.819042,32.435424 10.084598,32.064615 8.011752,31.747485 6.801547,31.510502 5.591344,31.273518 5.243561,31.118473 4.980262,30.853608 4.716963,30.588742 4.536681,30.21407 4.510111,29.862776 c -0.02657,-0.351295 0.09982,-0.68 0.283408,-0.933711 0.183587,-0.253712 0.424776,-0.43204 0.74697,-0.584393 0.241644,-0.114266 0.529891,-0.213973 0.718407,-0.213106 z m -0.388863,5.648403 c 0.0604,-0.0024 0.110325,0.0094 0.147198,0.03515 0.147512,0.10289 0.07085,0.460878 2.860451,0.993029 2.789594,0.532151 8.444646,1.237328 11.437413,1.643332 2.992767,0.406004 3.323839,0.510876 3.57886,0.724999 0.255021,0.214123 0.43378,0.53816 0.516288,0.810681 0.08251,0.272521 0.06819,0.494529 -0.05932,0.786515 -0.127509,0.291985 -0.367249,0.65257 -0.672272,0.95568 -0.305024,0.30311 -0.675592,0.549631 -0.865606,0.474545 -0.190013,-0.07508 -0.199233,-0.470005 -1.961892,-0.878787 C 19.088497,38.91633 15.572368,38.493219 12.742148,38.12337 9.911928,37.753521 7.768534,37.437013 6.515942,37.200644 5.26335,36.964275 4.901267,36.80793 4.628747,36.54375 4.356226,36.279571 4.172915,35.9055 4.145414,35.555115 c -0.0275,-0.350384 0.102181,-0.67846 0.292197,-0.931514 0.190016,-0.253055 0.440735,-0.43029 0.751363,-0.595378 0.23297,-0.123817 0.499863,-0.241122 0.681059,-0.248258 z M 5.57564,39.114204 c 0.04756,-0.0038 0.08975,0.0051 0.127424,0.03075 0.150671,0.102722 0.211742,0.4764 3.130679,1.015 2.918935,0.538599 8.69688,1.24238 11.753776,1.647726 3.056897,0.405344 3.393072,0.511224 3.653557,0.724999 0.260486,0.213775 0.445194,0.536405 0.529469,0.808484 0.08428,0.272079 0.06873,0.492804 -0.06151,0.784318 -0.130241,0.291512 -0.376091,0.653061 -0.68765,0.95568 -0.31156,0.302619 -0.689097,0.547312 -0.883181,0.472348 -0.194085,-0.07496 -0.203205,-0.468472 -2.003635,-0.87659 C 19.334136,44.2688 15.742865,43.846624 12.851999,43.477375 9.961132,43.108126 7.769013,42.790634 6.489581,42.554648 5.210148,42.318662 4.843397,42.163703 4.565037,41.899952 4.286676,41.636201 4.096612,41.263329 4.068522,40.913514 4.040432,40.563697 4.173223,40.23684 4.36731,39.984196 4.561398,39.731552 4.818229,39.554358 5.065946,39.382228 5.251732,39.253129 5.432952,39.125777 5.575642,39.114197 Z m -0.177955,5.59348 c 0.04856,-0.0038 0.09336,0.0051 0.131819,0.03075 0.153831,0.102563 0.216434,0.472871 3.196587,1.010605 2.980154,0.537734 8.876632,1.243032 11.99764,1.647726 3.121008,0.404693 3.464502,0.509371 3.730451,0.722803 0.265949,0.21343 0.454411,0.534644 0.540454,0.806287 0.08604,0.271641 0.07146,0.493274 -0.06151,0.784317 -0.132973,0.291044 -0.384935,0.651351 -0.703029,0.953484 -0.318095,0.302132 -0.702602,0.547191 -0.900757,0.472347 C 23.131179,51.061153 23.11995,50.666877 21.281761,50.259414 19.443572,49.851951 15.777129,49.430722 12.825633,49.062066 9.874137,48.693411 7.637663,48.377144 6.331398,48.141537 5.025132,47.90593 4.64931,47.750168 4.365112,47.486841 4.080913,47.223514 3.888488,46.851852 3.859809,46.502599 3.831129,46.153346 3.96703,45.827717 4.165187,45.575479 4.363346,45.323241 4.624094,45.145365 4.877005,44.97351 c 0.189685,-0.128892 0.375,-0.254272 0.520681,-0.265833 z m -0.377878,5.578101 c 0.06791,-0.003 0.124071,0.0074 0.164772,0.03296 0.162807,0.102102 0.06678,0.463568 3.139467,0.995226 3.072683,0.531658 9.314145,1.231668 12.617185,1.634544 3.303039,0.402876 3.66649,0.508132 3.947951,0.720606 0.28146,0.212472 0.48015,0.533667 0.571211,0.804089 0.09106,0.270422 0.07482,0.490187 -0.06591,0.779924 -0.140728,0.289737 -0.405928,0.648314 -0.742575,0.94909 -0.336647,0.300775 -0.743771,0.544658 -0.953484,0.47015 -0.209713,-0.07451 -0.220809,-0.466562 -2.16621,-0.872195 C 19.586814,55.394545 15.70541,54.974226 12.581769,54.607225 9.458129,54.240225 7.092108,53.925639 5.709655,53.69109 4.327201,53.456541 3.929901,53.302932 3.629127,53.040788 3.328353,52.778643 3.123419,52.408626 3.093066,52.06094 3.062716,51.713255 3.206304,51.387121 3.416021,51.136016 3.625736,50.884912 3.90192,50.708059 4.250868,50.540639 4.51258,50.415073 4.816094,50.295069 5.019807,50.28579 Z"/>
</g>
</svg>