<svg xmlns="http://www.w3.org/2000/svg" xmlns:svg="http://www.w3.org/2000/svg" width="29.135836" height="90.206497" viewBox="0 0 29.135836 90.206497" version="1.1" id="svg1" xml:space="preserve" xmlns:sodipodi="http://sodipodi.sourceforge.net/DTD/sodipodi-0.dtd" sodipodi:docname="porto_tooth_35.svg" xmlns:inkscape="http://www.inkscape.org/namespaces/inkscape" inkscape:version="1.4 (86a8ad7, 2024-10-11)">
  <path id="tooth_35_root" style="fill:#fff5d0;fill-opacity:1;stroke:#000000;stroke-width:1;stroke-dasharray:none" d="m 27.438593,26.005319 c 0.02157,0.58583 -0.07162,1.114499 -0.140272,1.500492 -0.187796,1.055589 -0.187759,1.054524 -0.657229,2.356851 -0.469465,1.302326 -1.406589,3.906903 -2.037017,6.799492 -0.630428,2.892552 -0.954019,6.074217 -1.249116,9.981235 -0.295083,3.907017 -0.56345,8.539044 -0.697581,13.816951 -0.134136,5.277907 -0.13276,11.200631 -0.186421,15.203614 -0.05366,4.002946 -0.160762,6.086569 -0.603419,8.156625 -0.442646,2.070017 -1.22037,4.127416 -1.917873,5.155564 -0.697503,1.028187 -1.315187,1.027161 -2.24072,-0.35726 -0.925533,-1.38461 -2.160365,-4.1544 -3.622435,-9.117045 C 12.62444,74.539232 10.935456,67.384456 9.7953182,61.475947 8.6551802,55.567475 8.0641932,50.90626 7.5142432,46.382361 6.9642922,41.858424 6.4550692,37.471614 5.6770812,34.085512 c -0.185751,-0.808509 -0.385065,-1.552636 -0.566904,-2.258605 0.35462,0.397965 0.796191,0.74884 1.40093,1.070374 1.403749,0.746407 3.6599868,1.347212 5.4115498,1.696947 1.751563,0.349658 2.997634,0.449615 3.620512,0.498871 0.622879,0.04903 0.623013,0.04865 2.085065,-0.156966 1.462047,-0.205615 4.386061,-0.617756 5.968849,-1.001658 1.582787,-0.383865 1.823513,-0.739794 2.427125,-2.576794 0.392201,-1.193629 0.937169,-3.021089 1.414385,-5.351982 z"/>
  <path style="fill:#ffffff;fill-opacity:1;stroke:#000000;stroke-width:1;stroke-dasharray:none" d="m 17.62826,34.935639 c 1.462047,-0.205615 4.386154,-0.61692 5.968942,-1.000784 1.582787,-0.383902 1.824186,-0.74025 2.427798,-2.57725 0.603612,-1.837001 1.569349,-5.154425 2.092465,-9.541273 0.52312,-4.386848 0.603589,-9.842777 0.445085,-12.7736762 C 28.404057,6.1117562 28.006587,5.7060382 26.622242,5.0039464 25.237901,4.3018546 22.86678,3.3034272 21.014896,2.503697 19.163009,1.7040049 17.830437,1.1030101 16.443292,0.77824564 15.056148,0.45329113 13.614516,0.40502304 12.38624,0.68132934 11.157964,0.95763569 10.143129,1.5585545 8.8864012,2.2080454 c -1.256728,0.649453 -2.755283,1.347364 -3.836535,1.7157218 -1.081248,0.3682818 -1.745167,0.4071243 -2.418583,0.8530151 -0.673413,0.4459288 -1.356279,1.2989059 -1.72618698,3.0437785 -0.369904,1.7448347 -0.426819,4.3814512 -0.398363,6.3783442 0.02863,1.996892 0.142279,3.354024 0.483727,5.069822 0.34145498,1.715836 0.91051698,3.790186 1.45115198,5.699816 0.540635,1.909668 1.052796,3.654465 1.583937,4.972792 0.531141,1.318289 1.081255,2.210109 2.485,2.956516 1.403749,0.746369 3.6610428,1.347364 5.4126058,1.697099 1.751564,0.349658 2.997292,0.448133 3.620171,0.497351 0.622879,0.04903 0.622882,0.04903 2.084934,-0.156586 z" id="tooth_35_crown"/>
  <g id="tooth_35_implant" style="display: none">
    <path id="tooth_35_implant-1" style="fill:#9a9a9a;fill-opacity:1;stroke:#000000;stroke-width:0.949044;stroke-dasharray:none" d="m 15.30249,85.047029 c -0.281468,0.0074 -0.577188,-0.09698 -1.236415,-0.51917 -0.659226,-0.4222 -1.681321,-1.162591 -2.614613,-2.066253 C 10.51817,81.557945 9.6727665,80.491736 9.1913029,79.684361 8.7098393,78.876988 8.5919135,78.327816 8.5178421,77.63896 8.4437705,76.950102 8.4155611,76.119936 8.2822351,73.727465 8.1489086,71.334996 7.9103787,67.381453 7.6066893,61.263228 7.3029997,55.145004 6.9324455,46.863432 6.5620952,38.582403 l 17.5099808,0.133441 c -0.251838,5.421926 -0.503211,10.843393 -0.806902,17.243099 -0.30369,6.399704 -0.657882,13.776074 -0.865282,17.768522 -0.2074,3.992448 -0.266835,4.601433 -0.481639,5.179186 -0.214804,0.577752 -0.585817,1.126053 -1.578359,2.103782 -0.992542,0.977731 -2.607995,2.383358 -3.548701,3.146292 -0.940703,0.762937 -1.207234,0.882895 -1.488703,0.890304 z M 6.5266499,38.473982 4.8377854,31.920771 H 25.902722 l -1.755584,6.553211 z"/>
    <path id="tooth_35_implant-2" style="fill:#656565;fill-opacity:1;stroke:#000000;stroke-width:0.949044;stroke-dasharray:none" d="m 20.506696,80.903073 c -0.1869,0.0046 -0.308255,-0.01929 -0.293988,-0.08757 0.03805,-0.182092 0.888274,-0.603525 -0.925749,-1.132165 -1.81402,-0.528641 -6.511518,-1.057146 -8.988512,-1.371942 C 7.821454,77.996603 7.5640814,77.89608 7.3648272,77.690062 7.1655729,77.484044 7.024799,77.172474 6.9603337,76.910266 6.895868,76.648059 6.908663,76.434341 7.0082889,76.153404 c 0.099626,-0.280935 0.2871019,-0.627854 0.5254245,-0.919492 0.2383226,-0.29164 0.5270837,-0.526777 0.6755458,-0.454534 0.1484621,0.07225 0.1552794,0.451121 1.5324882,0.844432 1.3772086,0.393311 4.1250496,0.799248 6.3363696,1.1551 2.211321,0.355852 3.887751,0.662879 4.866432,0.890303 0.978682,0.227424 1.259096,0.375493 1.472023,0.629675 0.212928,0.254181 0.357986,0.613644 0.379473,0.950768 0.02149,0.337125 -0.08089,0.65308 -0.229351,0.896558 -0.148464,0.243477 -0.343874,0.41507 -0.904898,0.567125 -0.350641,0.09503 -0.843601,0.181903 -1.1551,0.189737 z m 1.976597,-5.124975 c -0.03976,0.0037 -0.07694,-0.0046 -0.108421,-0.02918 -0.125934,-0.09842 -0.177011,-0.45353 -2.616697,-0.969534 C 17.318487,74.263379 12.49065,73.587277 9.9356543,73.198938 7.380658,72.8106 7.0988206,72.709433 6.8811031,72.504627 6.6633855,72.299821 6.5095179,71.99175 6.4390792,71.731085 c -0.070439,-0.260664 -0.056732,-0.47341 0.052125,-0.752691 0.1088575,-0.279282 0.3129739,-0.6254 0.5733799,-0.915323 0.260406,-0.289923 0.5779624,-0.524267 0.7401813,-0.452448 0.162219,0.07182 0.1694457,0.449265 1.6742695,0.840261 1.5048241,0.390996 4.5060351,0.795089 6.9222601,1.148845 2.416226,0.353758 4.247428,0.657963 5.316796,0.884048 1.069367,0.226085 1.376976,0.374905 1.609634,0.62759 0.232657,0.252686 0.391441,0.609373 0.414919,0.944514 0.02347,0.33514 -0.08799,0.648258 -0.250202,0.890302 -0.162222,0.242045 -0.376761,0.41264 -0.583805,0.57755 -0.155285,0.123683 -0.306082,0.243279 -0.425344,0.254373 z m 0.158461,-5.375176 c -0.06117,0.0043 -0.110841,-0.0026 -0.143866,-0.02711 -0.132099,-0.09807 0.0049,-0.458792 -2.458236,-0.975788 -2.463174,-0.51699 -7.526127,-1.19136 -10.2061636,-1.578353 -2.6800369,-0.386993 -2.9763001,-0.48813 -3.2046726,-0.692226 -0.2283725,-0.204098 -0.388988,-0.511696 -0.462874,-0.771457 -0.073886,-0.259761 -0.06206,-0.470207 0.052125,-0.748522 0.1141849,-0.278314 0.3294199,-0.62432 0.6025701,-0.913238 0.2731502,-0.288917 0.6054689,-0.521933 0.7756267,-0.450364 0.170158,0.07157 0.179201,0.448536 1.7576702,0.838178 1.5784692,0.389641 4.7255572,0.792143 7.2600332,1.144675 2.534476,0.352532 4.455721,0.654575 5.577424,0.879877 1.121701,0.225302 1.444821,0.373697 1.688863,0.625506 0.244044,0.251809 0.409058,0.60845 0.433685,0.942428 0.02463,0.333979 -0.09256,0.644928 -0.262713,0.886133 -0.17016,0.241206 -0.39373,0.412517 -0.706821,0.579635 -0.234818,0.125338 -0.519109,0.247878 -0.702651,0.260626 z m 0.266883,-5.17293 c -0.05964,-2.73e-4 -0.107967,-0.01097 -0.141783,-0.03545 -0.135258,-0.0979 -0.0235,-0.413127 -2.5604,-0.906983 C 17.669549,63.793708 12.483813,63.120541 9.7396626,62.734225 6.9955128,62.347908 6.6937652,62.247823 6.4599293,62.044083 6.2260936,61.840343 6.0601988,61.534019 5.9845452,61.274712 5.9088913,61.015405 5.92184,60.804017 6.0387555,60.526189 6.1556721,60.248364 6.3762362,59.90345 6.6559209,59.615037 6.9356054,59.326625 7.2760842,59.09323 7.4503127,59.164674 c 0.1742284,0.07143 0.1831404,0.447132 1.7993705,0.836092 1.6162298,0.38896 4.8379828,0.79276 7.4330888,1.144675 2.595107,0.351914 4.562328,0.652884 5.710865,0.877792 1.148536,0.224908 1.478597,0.372052 1.728479,0.623421 0.249882,0.251369 0.420978,0.606949 0.446194,0.940342 0.02522,0.333395 -0.09473,0.64535 -0.268967,0.886133 -0.174232,0.240784 -0.40313,0.410025 -0.708907,0.554614 -0.22933,0.108444 -0.502889,0.20307 -0.681799,0.202247 z m 0.369048,-5.360581 c -0.05732,0.0023 -0.104703,-0.0089 -0.139698,-0.03336 -0.139995,-0.09765 -0.06724,-0.437394 -2.714692,-0.942428 C 17.775849,58.38859 12.408958,57.719347 9.5686911,57.334031 6.7284248,56.948716 6.414223,56.849187 6.1721969,56.645975 5.9301708,56.442763 5.7605209,56.135238 5.6822177,55.876604 5.603914,55.61797 5.6175015,55.407274 5.7385131,55.130167 5.8595248,54.85306 6.0870477,54.510849 6.3765285,54.223185 6.6660093,53.93552 7.0176947,53.701561 7.1980257,53.772821 c 0.1803309,0.07125 0.1890809,0.446055 1.861921,0.834007 1.6728403,0.387951 5.0097993,0.789502 7.6958013,1.140505 2.686002,0.351003 4.720177,0.651382 5.908941,0.875707 1.188764,0.224324 1.532397,0.372703 1.79103,0.623421 0.258635,0.250717 0.432605,0.605727 0.458704,0.938258 0.0261,0.332529 -0.09697,0.643888 -0.277307,0.884047 -0.180334,0.24016 -0.418277,0.408364 -0.713077,0.56504 -0.221098,0.117507 -0.474391,0.228835 -0.646354,0.235607 z m 0.279392,-5.062423 c -0.04514,0.0036 -0.08518,-0.0048 -0.120931,-0.02918 -0.142994,-0.09749 -0.200953,-0.452124 -2.971151,-0.963279 C 17.694798,53.303372 12.211277,52.635453 9.310149,52.250762 6.409021,51.866073 6.0899764,51.765588 5.842764,51.562706 5.5955517,51.359825 5.420256,51.053635 5.3402747,50.79542 5.2602931,50.537205 5.2750508,50.327727 5.3986542,50.051068 5.522259,49.77441 5.7555811,49.431284 6.0512648,49.144086 6.3469487,48.856887 6.705247,48.624663 6.8894421,48.695807 c 0.1841952,0.07114 0.1928504,0.4446 1.9015364,0.831922 1.7086855,0.387323 5.1169585,0.787986 7.8605165,1.13842 2.743559,0.350433 4.823975,0.651747 6.038212,0.875708 1.214237,0.223961 1.5623,0.371024 1.826476,0.621335 0.264177,0.250311 0.444556,0.604183 0.471214,0.936172 0.02666,0.331992 -0.09937,0.642194 -0.283563,0.881964 -0.184198,0.23977 -0.427941,0.407935 -0.663036,0.571294 -0.176319,0.12252 -0.348304,0.243383 -0.483723,0.254373 z m 0.168887,-5.308456 c -0.04609,0.0036 -0.0886,-0.0048 -0.125102,-0.02918 -0.145993,-0.09734 -0.205406,-0.448775 -3.033701,-0.959108 C 17.738865,47.999908 12.14285,47.330549 9.1808778,46.946477 6.2189052,46.562405 5.8929143,46.463061 5.6405173,46.260505 c -0.252397,-0.202554 -0.4312557,-0.5074 -0.5129145,-0.765201 -0.081659,-0.257799 -0.067817,-0.468139 0.05838,-0.744351 0.1261971,-0.276214 0.3653207,-0.618161 0.6672057,-0.904898 0.3018852,-0.286737 0.6667993,-0.519308 0.8548575,-0.448278 0.1880581,0.07104 0.198715,0.445221 1.9432367,0.831921 1.7445223,0.3867 5.2241363,0.786465 8.0252343,1.136336 2.801099,0.349869 4.92361,0.65002 6.163312,0.873622 1.239704,0.223601 1.596375,0.371426 1.866091,0.621335 0.269718,0.249908 0.452337,0.602632 0.479555,0.934088 0.02722,0.331457 -0.101757,0.640493 -0.289817,0.879878 -0.188062,0.239384 -0.435523,0.408196 -0.675546,0.571294 -0.18002,0.122324 -0.355892,0.241316 -0.494149,0.252287 z m 0.358622,-5.293861 c -0.06445,0.0028 -0.117748,-0.007 -0.156375,-0.03128 C 23.7737,44.076491 23.864833,43.733444 20.94872,43.228878 18.032609,42.724311 12.10919,42.059971 8.9744611,41.677624 5.8397326,41.295277 5.4948017,41.195385 5.2276837,40.993738 4.9605658,40.792092 4.7720004,40.487264 4.685579,40.230622 4.5991572,39.97398 4.6145725,39.765413 4.7481295,39.49044 4.8816869,39.215467 5.1333731,38.875162 5.4528656,38.589712 5.7723581,38.304264 6.1587369,38.072808 6.3577634,38.14352 c 0.1990266,0.07071 0.2095575,0.442787 2.0558277,0.827751 1.8462699,0.384964 5.5298919,0.783865 8.4943639,1.132165 2.96447,0.348299 5.209927,0.646855 6.521935,0.869452 1.31201,0.222597 1.689065,0.368379 1.974512,0.617165 0.285448,0.248787 0.479939,0.599949 0.508745,0.929918 0.0288,0.329969 -0.107467,0.639484 -0.306498,0.877794 -0.199029,0.238308 -0.461139,0.406149 -0.792306,0.565038 -0.248376,0.119168 -0.536424,0.233057 -0.729757,0.241863 z"/>
  </g>
</svg>