<?xml version="1.0" encoding="UTF-8" standalone="no"?>
<svg
   width="28.420494"
   height="82.826309"
   viewBox="0 0 28.420494 82.82631"
   version="1.1"
   id="svg1"
   xml:space="preserve"
   xmlns="http://www.w3.org/2000/svg"
   xmlns:svg="http://www.w3.org/2000/svg"><defs
     id="defs1" /><path
     id="tooth_15_root"
     style="fill:#fff5d0;fill-opacity:1;stroke:#000000;stroke-width:0.999999;stroke-dasharray:none"
     d="M 13.493957,0.53506416 C 11.084509,1.4323941 11.90917,4.5067698 11.371565,6.4860149 10.509749,13.386228 9.0790481,20.191968 7.5576618,26.97137 6.4184643,33.064757 5.9425866,39.258964 4.9274313,45.373413 4.6167457,48.708519 3.7307177,51.951947 2.3361416,54.99523 c -0.3859328,1.033825 -1.1155491,2.883441 0.082368,1.096637 2.8580851,-2.530477 6.8926138,-3.067985 10.5515094,-3.471788 3.768424,-0.299 7.543072,0.482851 11.097809,1.676377 C 22.160967,50.327761 22.46022,45.808858 21.716192,41.561228 20.171697,30.55833 19.463979,19.456946 17.917114,8.4562228 17.402625,5.6438685 16.933628,2.2384091 14.201354,0.68803337 L 13.838571,0.56337936 13.493972,0.53498811 Z M 24.252205,54.715081 c 0.273254,0.948401 1.142391,3.254095 1.249226,3.304859 -0.264269,-1.152797 -0.770907,-2.229609 -1.249226,-3.304859 z" /><path
     style="fill:#ffffff;fill-opacity:1;stroke:#000000;stroke-width:0.999999;stroke-dasharray:none"
     d="m 22.942697,53.921407 c -1.175525,-0.329683 -3.526564,-0.989241 -5.915541,-1.24139 -2.388981,-0.252111 -4.815801,-0.09697 -7.2237458,0.349077 -2.4079443,0.446118 -4.7968511,1.183172 -6.3705401,2.230631 -1.5736854,1.047458 -2.3320676,2.405207 -2.67334794,4.519518 -0.34128779,2.114272 -0.26542541,4.984953 -0.2085565,7.642385 0.0568689,2.657395 0.0948187,5.101351 0.81530314,7.099226 0.7204919,1.997913 2.1235036,3.549632 3.6592764,4.694056 1.5357727,1.144424 3.2042284,1.881478 5.0812818,2.385814 1.877049,0.504336 3.96261,0.775878 5.631103,0.717699 1.668497,-0.05818 2.919824,-0.446119 4.531448,-1.028027 1.611621,-0.581909 3.583414,-1.357787 4.91062,-2.463425 1.327201,-1.105638 2.00975,-2.540998 2.388943,-4.441907 0.379197,-1.90091 0.455033,-4.267293 0.208557,-6.711363 -0.246506,-2.444031 -0.81527,-4.96556 -1.403038,-6.944042 -0.587764,-1.97852 -1.194477,-3.413879 -1.573678,-4.40312 -0.3792,-0.989241 -0.53088,-1.532364 -0.606717,-1.803906 -0.07583,-0.271504 -0.07583,-0.271504 -1.25135,-0.601302 z"
     id="tooth_15_crown" /></svg>
