<?xml version="1.0" encoding="UTF-8" standalone="no"?>
<svg
   width="29.135836"
   height="90.206497"
   viewBox="0 0 29.135836 90.206497"
   version="1.1"
   id="svg1"
   xml:space="preserve"
   xmlns="http://www.w3.org/2000/svg"
   xmlns:svg="http://www.w3.org/2000/svg"><defs
     id="defs1" /><path
     id="tooth_45_root"
     style="fill:#fff5d0;fill-opacity:1;stroke:#000000;stroke-width:1;stroke-dasharray:none"
     d="m 27.438593,26.005319 c 0.02157,0.58583 -0.07162,1.114499 -0.140272,1.500492 -0.187796,1.055589 -0.187759,1.054524 -0.657229,2.356851 -0.469465,1.302326 -1.406589,3.906903 -2.037017,6.799492 -0.630428,2.892552 -0.954019,6.074217 -1.249116,9.981235 -0.295083,3.907017 -0.56345,8.539044 -0.697581,13.816951 -0.134136,5.277907 -0.13276,11.200631 -0.186421,15.203614 -0.05366,4.002946 -0.160762,6.086569 -0.603419,8.156625 -0.442646,2.070017 -1.22037,4.127416 -1.917873,5.155564 -0.697503,1.028187 -1.315187,1.027161 -2.24072,-0.35726 -0.925533,-1.38461 -2.160365,-4.1544 -3.622435,-9.117045 C 12.62444,74.539232 10.935456,67.384456 9.7953182,61.475947 8.6551802,55.567475 8.0641932,50.90626 7.5142432,46.382361 6.9642922,41.858424 6.4550692,37.471614 5.6770812,34.085512 c -0.185751,-0.808509 -0.385065,-1.552636 -0.566904,-2.258605 0.35462,0.397965 0.796191,0.74884 1.40093,1.070374 1.403749,0.746407 3.6599868,1.347212 5.4115498,1.696947 1.751563,0.349658 2.997634,0.449615 3.620512,0.498871 0.622879,0.04903 0.623013,0.04865 2.085065,-0.156966 1.462047,-0.205615 4.386061,-0.617756 5.968849,-1.001658 1.582787,-0.383865 1.823513,-0.739794 2.427125,-2.576794 0.392201,-1.193629 0.937169,-3.021089 1.414385,-5.351982 z" /><path
     style="fill:#ffffff;fill-opacity:1;stroke:#000000;stroke-width:1;stroke-dasharray:none"
     d="m 17.62826,34.935639 c 1.462047,-0.205615 4.386154,-0.61692 5.968942,-1.000784 1.582787,-0.383902 1.824186,-0.74025 2.427798,-2.57725 0.603612,-1.837001 1.569349,-5.154425 2.092465,-9.541273 0.52312,-4.386848 0.603589,-9.842777 0.445085,-12.7736762 C 28.404057,6.1117562 28.006587,5.7060382 26.622242,5.0039464 25.237901,4.3018546 22.86678,3.3034272 21.014896,2.503697 19.163009,1.7040049 17.830437,1.1030101 16.443292,0.77824564 15.056148,0.45329113 13.614516,0.40502304 12.38624,0.68132934 11.157964,0.95763569 10.143129,1.5585545 8.8864012,2.2080454 c -1.256728,0.649453 -2.755283,1.347364 -3.836535,1.7157218 -1.081248,0.3682818 -1.745167,0.4071243 -2.418583,0.8530151 -0.673413,0.4459288 -1.356279,1.2989059 -1.72618698,3.0437785 -0.369904,1.7448347 -0.426819,4.3814512 -0.398363,6.3783442 0.02863,1.996892 0.142279,3.354024 0.483727,5.069822 0.34145498,1.715836 0.91051698,3.790186 1.45115198,5.699816 0.540635,1.909668 1.052796,3.654465 1.583937,4.972792 0.531141,1.318289 1.081255,2.210109 2.485,2.956516 1.403749,0.746369 3.6610428,1.347364 5.4126058,1.697099 1.751564,0.349658 2.997292,0.448133 3.620171,0.497351 0.622879,0.04903 0.622882,0.04903 2.084934,-0.156586 z"
     id="tooth_45_crown" /></svg>
