<svg xmlns="http://www.w3.org/2000/svg" xmlns:svg="http://www.w3.org/2000/svg" width="18.746035" height="84.684273" viewBox="0 0 18.746035 84.684274" version="1.1" id="svg1" xml:space="preserve" xmlns:sodipodi="http://sodipodi.sourceforge.net/DTD/sodipodi-0.dtd" sodipodi:docname="porto_tooth_31.svg" xmlns:inkscape="http://www.inkscape.org/namespaces/inkscape" inkscape:version="1.4 (86a8ad7, 2024-10-11)">
  <path id="tooth_31_root" style="display:inline;fill:#fff5d0;fill-opacity:1;stroke:#000000;stroke-width:1;stroke-dasharray:none" d="m 1.5702675,24.10344 c 0.0726,0.120532 0.149619,0.234981 0.230325,0.343726 0.587457,0.79038 1.394405,1.439962 2.738507,1.793917 1.344065,0.353992 3.224967,0.411065 4.164873,0.440152 0.939909,0.03042 0.9404802,0.03042 1.8662905,0 0.925813,-0.03042 2.777149,-0.08669 4.060136,-0.324335 1.282986,-0.237642 1.995807,-0.653764 2.508064,-1.516882 0.06361,-0.107224 0.123454,-0.222814 0.180906,-0.347909 -0.0447,0.363498 -0.09353,0.729202 -0.152346,1.088555 -0.296069,1.808632 -0.680107,3.476579 -0.990279,6.012549 -0.310183,2.53597 -0.545538,5.940154 -0.832213,11.307911 -0.286671,5.367758 -0.625242,12.699509 -0.963616,18.678179 -0.338375,5.978709 -0.676293,10.603235 -0.986465,13.667722 -0.310183,3.064487 -0.593645,4.568024 -0.917912,5.668709 -0.324261,1.100684 -0.68935,1.800114 -1.051218,2.348023 -0.361849,0.547947 -0.720157,0.943802 -1.180715,0.919582 -0.4605534,-0.02281 -1.0238026,-0.468784 -1.5501625,-1.685894 -0.526357,-1.217073 -1.016219,-3.20521 -1.472078,-6.177568 -0.455859,-2.972396 -0.877814,-6.929735 -1.380659,-12.767835 -0.502882,-5.838101 -1.08658,-13.556163 -1.533042,-19.306925 -0.446461,-5.7508 -0.755613,-9.533652 -1.159768,-12.394489 -0.404156,-2.860837 -0.901694,-4.800572 -1.338758,-6.633462 -0.09029,-0.378327 -0.173573,-0.749392 -0.239907,-1.114106 z"/>
  <path style="fill:#ffffff;fill-opacity:1;stroke:#000000;stroke-width:1;stroke-dasharray:none" d="m 10.569452,26.682186 c 0.925813,-0.03042 2.777426,-0.08745 4.060412,-0.324715 1.282987,-0.237643 1.997289,-0.654563 2.50955,-1.517681 0.512257,-0.863118 0.822421,-2.172282 0.977502,-5.988367 0.155073,-3.816122 0.155073,-10.1388994 0.0799,-13.518558 C 18.121596,1.9532065 17.97124,1.5168186 17.679826,1.1967805 17.388437,0.8766283 16.95613,0.67313016 14.357241,0.57130504 11.758348,0.46940388 6.9931085,0.46940388 4.3660795,0.62453694 1.7390495,0.77967005 1.2502815,1.0900123 0.95889351,1.4924839 c -0.291499,0.4024715 -0.385324,0.8970345 -0.43231,4.2961227 -0.04717,3.3991262 -0.04717,9.7025114 0.136352,13.3197754 0.183154,3.617263 0.54979399,4.548176 1.13725199,5.338556 0.587457,0.79038 1.395768,1.440114 2.73987,1.794069 1.344065,0.353992 3.223851,0.412129 4.163756,0.441217 0.9399095,0.03042 0.9398726,0.03042 1.8656825,0 z" id="tooth_31_crown"/>
  <g id="tooth_31_implant">
    <path id="tooth_31_implant-1" style="fill:#9a9a9a;fill-opacity:1;stroke:#000000;stroke-width:0.738039;stroke-dasharray:none" d="M 9.3271054,64.105379 C 9.1057964,64.111045 8.8732816,64.03079 8.3549539,63.706055 7.8366262,63.381316 7.0329877,62.811837 6.2991717,62.116777 5.5653551,61.421717 4.9006428,60.601633 4.5220841,59.980633 4.1435254,59.359634 4.0508043,58.937232 3.9925645,58.407393 3.9343245,57.877551 3.9121443,57.239021 3.8073146,55.398829 3.7024844,53.558638 3.5149364,50.517733 3.2761556,45.811842 3.0373747,41.105952 2.7460203,34.736102 2.4548263,28.36667 l 13.7675107,0.102637 c -0.198012,4.170326 -0.395659,8.340299 -0.63444,13.262694 -0.238781,4.922394 -0.517271,10.595999 -0.680343,13.666828 -0.163071,3.07083 -0.209803,3.539236 -0.378696,3.98362 -0.168893,0.444383 -0.460609,0.866115 -1.241011,1.618144 -0.780403,0.752031 -2.050579,1.833183 -2.790224,2.420001 -0.7396439,0.58682 -0.9492077,0.679087 -1.1705176,0.684785 z M 2.4269569,28.283277 1.0990594,23.242812 H 17.661712 l -1.380357,5.040465 z"/>
    <path id="tooth_31_implant-2" style="fill:#656565;fill-opacity:1;stroke:#000000;stroke-width:0.738039;stroke-dasharray:none" d="m 13.418998,60.918016 c -0.146953,0.0036 -0.242371,-0.01484 -0.231153,-0.06735 0.02992,-0.140058 0.69842,-0.464206 -0.727885,-0.870815 C 11.033656,59.573238 7.3401719,59.166733 5.3925947,58.924605 3.4450179,58.682477 3.2426545,58.605159 3.0859876,58.446698 2.9293206,58.288237 2.8186348,58.04859 2.7679479,57.846911 c -0.050687,-0.20168 -0.040627,-0.366063 0.037706,-0.582148 0.078333,-0.216084 0.2257385,-0.48292 0.4131236,-0.707236 0.1873851,-0.224318 0.4144282,-0.405176 0.531159,-0.349609 0.1167308,0.05557 0.122091,0.346984 1.2049441,0.649503 1.082853,0.302519 3.2433879,0.614749 4.9820745,0.888456 1.7386869,0.273707 3.0568079,0.50986 3.8263119,0.684785 0.769505,0.174925 0.989985,0.288814 1.157402,0.48432 0.167419,0.195506 0.281473,0.47199 0.298367,0.731293 0.01689,0.259302 -0.0636,0.502323 -0.180331,0.689596 -0.116732,0.187272 -0.270376,0.319255 -0.711491,0.43621 -0.275697,0.07309 -0.663295,0.139912 -0.908216,0.145937 z m 1.554131,-3.941923 c -0.03126,0.0028 -0.06049,-0.0035 -0.08525,-0.02245 -0.09902,-0.0757 -0.139178,-0.348836 -2.057421,-0.745725 C 10.912216,55.811032 7.1162503,55.291002 5.1073426,54.992308 3.0984348,54.693614 2.8768355,54.6158 2.7056515,54.458272 2.5344675,54.300743 2.4134866,54.063787 2.358103,53.863294 2.302719,53.662802 2.313497,53.499167 2.399087,53.284355 2.484678,53.069542 2.6451679,52.803322 2.8499165,52.580325 3.0546649,52.357328 3.3043489,52.17708 3.4318962,52.23232 c 0.1275473,0.05524 0.1332294,0.345557 1.3164218,0.646295 1.1831924,0.300739 3.5429436,0.61155 5.442741,0.883645 1.899797,0.272097 3.33961,0.506079 4.180418,0.679974 0.840808,0.173896 1.08267,0.288363 1.265601,0.482717 0.182931,0.194356 0.307777,0.468706 0.326237,0.726482 0.01845,0.257776 -0.06918,0.498614 -0.196725,0.684785 -0.12755,0.18617 -0.296235,0.317385 -0.459027,0.444228 -0.122095,0.09513 -0.240661,0.18712 -0.334434,0.195653 z m 0.124594,-4.134368 c -0.0481,0.0033 -0.08715,-0.002 -0.113118,-0.02085 -0.103865,-0.07543 0.0039,-0.352884 -1.932829,-0.750537 C 11.115066,51.672689 7.134236,51.153991 5.027013,50.856331 2.91979,50.558672 2.6868482,50.480882 2.5072865,50.323899 2.3277248,50.166915 2.2014383,49.930323 2.1433442,49.730526 c -0.058094,-0.199798 -0.048796,-0.361665 0.040984,-0.575733 0.08978,-0.214068 0.2590118,-0.480202 0.4737807,-0.702426 0.2147688,-0.222223 0.4760598,-0.40145 0.6098492,-0.346402 0.1337895,0.05505 0.1408997,0.344996 1.381997,0.644693 1.2410975,0.299696 3.7155467,0.609284 5.7083209,0.880438 1.992773,0.271153 3.503384,0.503472 4.385341,0.676766 0.881956,0.173293 1.136014,0.287432 1.327897,0.481114 0.191883,0.193681 0.321628,0.467995 0.340991,0.724877 0.01936,0.256883 -0.07278,0.496052 -0.206563,0.681577 -0.13379,0.185526 -0.309576,0.317291 -0.555748,0.445832 -0.18463,0.09641 -0.408159,0.190657 -0.552471,0.200463 z m 0.20984,-3.978808 c -0.04689,-2.11e-4 -0.08489,-0.0084 -0.111478,-0.02726 -0.10635,-0.0753 -0.01848,-0.31776 -2.013158,-0.697614 C 11.188244,47.758185 7.110874,47.240412 4.9532409,46.943274 2.795608,46.646134 2.558354,46.569153 2.3744967,46.412445 2.1906396,46.255736 2.0602021,46.020124 2.0007182,45.820675 c -0.059484,-0.199448 -0.049303,-0.362039 0.042624,-0.575733 0.091928,-0.213692 0.2653497,-0.478986 0.4852564,-0.700821 0.2199066,-0.221835 0.4876136,-0.401354 0.6246036,-0.346402 0.13699,0.05495 0.1439972,0.343916 1.4147847,0.643088 1.2707874,0.299173 3.8039434,0.609759 5.8443881,0.880439 2.040445,0.270678 3.587205,0.502172 4.490262,0.675161 0.903054,0.17299 1.16257,0.286168 1.359044,0.47951 0.196474,0.193344 0.331001,0.466841 0.350828,0.723274 0.01983,0.256433 -0.07449,0.496377 -0.21148,0.681577 -0.136993,0.185201 -0.316968,0.315375 -0.55739,0.426587 -0.180315,0.08341 -0.395405,0.156193 -0.536076,0.15556 z m 0.29017,-4.123142 c -0.04507,0.0018 -0.08232,-0.0069 -0.109839,-0.02566 C 15.37782,44.639005 15.435024,44.37769 13.353422,43.989237 11.271824,43.600787 7.0520181,43.086032 4.8188118,42.789663 2.5856058,42.493294 2.3385594,42.416741 2.1482624,42.260439 1.9579654,42.104136 1.8245754,41.8676 1.7630082,41.668669 1.7014406,41.469738 1.712124,41.30768 1.8072714,41.09454 c 0.095147,-0.213139 0.2740411,-0.476354 0.5016501,-0.697614 0.227609,-0.22126 0.5041274,-0.401212 0.6459156,-0.346402 0.1417882,0.05481 0.148668,0.343088 1.463966,0.641485 1.315298,0.298396 3.9390371,0.607253 6.0509499,0.87723 2.111914,0.269977 3.711317,0.501017 4.646002,0.673558 0.934686,0.172542 1.204873,0.286668 1.408227,0.479511 0.203356,0.192841 0.340143,0.4659 0.360664,0.72167 0.02052,0.255768 -0.07625,0.495252 -0.218038,0.679973 -0.14179,0.184722 -0.328877,0.314097 -0.560668,0.434606 -0.173842,0.09038 -0.372998,0.17601 -0.508207,0.18122 z m 0.219677,-3.893811 c -0.03549,0.0028 -0.06697,-0.0037 -0.09508,-0.02245 -0.112435,-0.07498 -0.158006,-0.347752 -2.33612,-0.740912 C 11.208097,39.689443 6.8965883,39.175707 4.6155288,38.879818 2.3344692,38.583931 2.0836152,38.506642 1.8892404,38.350594 1.6948656,38.194545 1.5570365,37.959036 1.4941499,37.760428 1.4312631,37.56182 1.4428665,37.400698 1.5400517,37.187903 1.637238,36.975109 1.8206913,36.71119 2.0531775,36.490289 2.2856639,36.269387 2.5673818,36.09077 2.7122083,36.145491 c 0.1448264,0.05472 0.1516318,0.341968 1.4951142,0.639881 1.3434823,0.297913 4.0232926,0.606087 6.1804605,0.875626 2.157168,0.269539 3.792929,0.501297 4.747643,0.673559 0.954714,0.172262 1.228384,0.285377 1.436097,0.477906 0.207713,0.192529 0.349539,0.464713 0.3705,0.720066 0.02096,0.255354 -0.07813,0.493949 -0.222956,0.67837 -0.144829,0.184422 -0.336476,0.313767 -0.521323,0.439417 -0.138634,0.09424 -0.27386,0.1872 -0.380336,0.195653 z m 0.13279,-4.08305 c -0.03624,0.0028 -0.06967,-0.0037 -0.09836,-0.02245 C 15.737048,36.6656 15.690333,36.395288 13.46654,36.002761 11.242745,35.610233 6.8427869,35.09539 4.5138872,34.799977 2.1849875,34.504565 1.9286719,34.428153 1.7302206,34.272355 1.5317693,34.116559 1.3911387,33.882083 1.3269331,33.683793 c -0.064205,-0.198289 -0.053322,-0.360073 0.045903,-0.572525 0.099225,-0.212452 0.2872394,-0.475464 0.5246015,-0.69601 0.2373621,-0.220546 0.5242818,-0.399431 0.6721457,-0.344798 0.1478638,0.05464 0.1562429,0.342446 1.5279017,0.639881 1.3716589,0.297434 4.1075627,0.604916 6.309972,0.874023 2.202409,0.269105 3.871269,0.499969 4.846005,0.671955 0.974737,0.171985 1.255176,0.285686 1.467245,0.477905 0.21207,0.19222 0.355657,0.463521 0.377058,0.718463 0.0214,0.254943 -0.08001,0.492641 -0.227874,0.676766 -0.147866,0.184126 -0.342437,0.313969 -0.531159,0.439417 -0.141543,0.09409 -0.279825,0.18561 -0.388533,0.194049 z m 0.281973,-4.071823 c -0.05067,0.0022 -0.09258,-0.0054 -0.122953,-0.02406 C 15.987733,32.5925 16.059389,32.328642 13.766546,31.94055 11.473707,31.552458 6.8163204,31.041474 4.3515887,30.747388 1.8868568,30.453303 1.6156493,30.376469 1.4056234,30.221371 1.1955976,30.066273 1.0473349,29.831812 0.97938466,29.634413 c -0.0679506,-0.197399 -0.05583,-0.35782 0.0491813,-0.569318 0.1050117,-0.211498 0.3029041,-0.473247 0.5541103,-0.692803 0.2512062,-0.219556 0.5550029,-0.397582 0.7114908,-0.343194 0.156488,0.05439 0.164768,0.340575 1.6164283,0.636673 1.4516604,0.296099 4.3479687,0.602918 6.6788326,0.870816 2.330864,0.267897 4.096392,0.497534 5.12798,0.668747 1.031588,0.171213 1.328054,0.283342 1.552492,0.474698 0.224438,0.191357 0.37736,0.461457 0.400009,0.715256 0.02265,0.253798 -0.0845,0.491865 -0.240989,0.675163 -0.15649,0.183297 -0.362579,0.312394 -0.622964,0.434605 -0.19529,0.09166 -0.421772,0.179258 -0.573783,0.186031 z"/>
  </g>
</svg>