<svg xmlns="http://www.w3.org/2000/svg" xmlns:svg="http://www.w3.org/2000/svg" xmlns:sodipodi="http://sodipodi.sourceforge.net/DTD/sodipodi-0.dtd" xmlns:inkscape="http://www.inkscape.org/namespaces/inkscape" width="45.58012" height="81.484688" viewBox="0 0 45.58012 81.484687" version="1.1" id="svg1" xml:space="preserve" sodipodi:docname="porto_tooth_46.svg" inkscape:version="1.4 (86a8ad7, 2024-10-11)">
    <path id="tooth_86_root" style="display:inline;fill:#fff5d0;fill-opacity:1;stroke:#000000;stroke-width:0.999999;stroke-dasharray:none" d="m 42.536777,26.465699 c -0.207932,0.532955 -0.420447,1.043815 -0.637873,1.51315 -0.984902,2.125999 -2.038491,3.524344 -4.467022,4.511916 -2.428532,0.987572 -6.232067,1.563155 -9.011365,1.878631 -2.779298,0.315627 -4.533341,0.371528 -5.410298,0.398945 -0.876956,0.02662 -0.878018,0.02662 -3.050182,-0.123969 -2.17216,-0.150969 -6.514932,-0.453819 -9.523592,-1.098498 -3.0086599,-0.644679 -4.6817139,-1.631909 -6.0713649,-3.991169 -0.389712,-0.661601 -0.756341,-1.438349 -1.097909,-2.281493 0.200152,1.67834 0.810428,3.65455 1.097909,5.916953 0.364284,2.866736 0.202247,6.185769 -0.04058,10.821959 -0.242869,4.636152 -0.566782,10.588128 -0.715189,15.388863 -0.148421,4.800734 -0.122762,8.450492 0.201013,11.344646 0.323812,2.894153 0.945321,5.032854 1.660393,6.473104 0.715073,1.440213 1.525366,2.181596 2.294399,2.291343 0.769036,0.109519 1.496688,-0.411761 2.3736519,-2.140032 0.876963,-1.72827 1.901552,-4.664101 3.088836,-8.39501 1.187284,-3.730871 2.537656,-8.257504 3.7789,-11.700317 1.241245,-3.442813 2.374591,-5.801464 3.372978,-7.310278 0.998387,-1.508776 1.861698,-2.167411 2.630734,-2.126227 0.769032,0.04107 1.442365,0.781996 2.251873,2.798324 0.809508,2.016328 1.755192,5.30783 2.456765,8.750681 0.701573,3.442813 1.159036,7.036899 1.57728,10.383693 0.418244,3.346794 0.796065,6.447436 1.362723,8.450036 0.566659,2.0026 1.322873,2.907919 2.253808,2.743299 0.930931,-0.164659 2.036938,-1.399181 3.251202,-4.14248 1.21426,-2.743298 2.536646,-6.995906 3.427102,-11.124543 0.890456,-4.128638 1.349774,-8.134523 1.552152,-13.90914 0.202359,-5.774616 0.148309,-13.31709 0.647534,-18.597921 0.269501,-2.850688 0.686971,-5.024678 0.746115,-6.724618 z"/>
    <path style="fill:#ffffff;fill-opacity:1;stroke:#000000;stroke-width:0.999999;stroke-dasharray:none" d="M 19.960706,34.643726 C 17.788546,34.492757 13.444244,34.191123 10.435585,33.546444 7.4269251,32.901765 5.7540011,31.914231 4.3643471,29.555009 2.9746961,27.19575 1.8684041,23.464993 1.2073101,19.912433 0.5462161,16.359873 0.3303541,12.985737 0.6271751,10.365914 0.9239811,7.7460905 1.7334741,5.8807312 2.9747301,4.3856449 4.2159891,2.8905206 5.8889121,1.7658214 7.6563391,1.2308896 9.4237661,0.69595784 11.28558,0.75086944 13.106966,1.0662309 c 1.821387,0.3156276 3.602253,0.891553 5.329205,1.275592 1.726951,0.384077 3.399886,0.5760774 5.059374,0.3703871 1.659492,-0.2057284 3.305443,-0.8092617 4.96492,-1.2481742 1.659473,-0.4389126 3.332431,-0.71324241 5.045883,-0.86409721 1.713451,-0.15096889 3.467345,-0.17834863 5.167305,0.34300738 1.69996,0.52124193 3.345919,1.59110553 4.465732,3.40166733 1.119814,1.8105998 1.713434,4.3617838 1.88882,7.1187717 0.175391,2.756989 -0.06744,5.719668 -0.647605,8.627549 -0.580151,2.907881 -1.497568,5.760813 -2.482474,7.88685 -0.984902,2.126037 -2.037234,3.525066 -4.465766,4.512639 -2.428531,0.987572 -6.233099,1.563649 -9.012397,1.879125 -2.779298,0.315627 -4.53318,0.370387 -5.410136,0.397805 -0.876957,0.02662 -0.876957,0.02662 -3.049121,-0.123589 z" id="tooth_86_crown"/>
    <g id="tooth_86_implant">
      <path id="tooth_86_implant-1" style="fill:#9a9a9a;fill-opacity:1;stroke:#000000;stroke-width:0.801567;stroke-dasharray:none" d="m 22.859578,75.341746 c -0.237729,0.0063 -0.487496,-0.0819 -1.044282,-0.438492 C 21.25851,74.546661 20.395244,73.921323 19.606981,73.158086 18.818718,72.394849 18.104685,71.494323 17.698039,70.81241 17.291392,70.130498 17.191791,69.666664 17.12923,69.084853 17.066667,68.50304 17.042843,67.801877 16.930235,65.781184 16.817627,63.760491 16.616162,60.421308 16.359665,55.253823 16.103168,50.086339 15.790196,42.793971 15.477395,35.79977 h 14.789022 c -0.212704,4.579387 -0.425015,9.568801 -0.681513,14.974026 -0.256498,5.405224 -0.555652,11.635345 -0.730822,15.007388 -0.175171,3.372043 -0.225371,3.886395 -0.406795,4.374367 -0.181425,0.487973 -0.494784,0.951071 -1.33309,1.776866 -0.838307,0.825797 -2.202726,2.012996 -2.997252,2.657374 -0.794523,0.644381 -1.019636,0.745698 -1.257367,0.751955 z M 6.9284358,35.79977 4.7721291,30.196181 H 40.716536 l -1.576427,5.603589 z"/>
      <path id="tooth_86_implant-2" style="fill:#656565;fill-opacity:1;stroke:#000000;stroke-width:0.801567;stroke-dasharray:none" d="m 27.153141,72.563217 c -0.157856,0.0039 -0.260354,-0.0163 -0.248304,-0.07396 0.03213,-0.153796 0.750242,-0.50974 -0.781892,-0.956232 -1.532131,-0.446493 -5.499662,-0.892872 -7.591743,-1.15875 -2.092082,-0.265877 -2.30946,-0.350779 -2.477752,-0.524783 -0.16829,-0.174005 -0.28719,-0.437158 -0.341637,-0.65862 -0.05445,-0.221462 -0.04364,-0.401969 0.0405,-0.63925 0.08414,-0.237279 0.242488,-0.530289 0.443776,-0.776608 0.201289,-0.246321 0.445178,-0.444919 0.57057,-0.383902 0.125391,0.06103 0.13115,0.38102 1.294348,0.713212 1.163198,0.332193 3.484038,0.675049 5.35173,0.975604 1.867693,0.300554 3.283615,0.559871 4.110215,0.751954 0.826599,0.192083 1.063437,0.317144 1.243277,0.531827 0.179841,0.214683 0.302356,0.518287 0.320505,0.803023 0.01815,0.284738 -0.06832,0.551596 -0.193712,0.757239 -0.125393,0.205641 -0.290437,0.35057 -0.764281,0.478996 -0.296152,0.08026 -0.71251,0.153636 -0.975604,0.160253 z m 1.669445,-4.328581 c -0.03358,0.0031 -0.06498,-0.0039 -0.09157,-0.02465 -0.106365,-0.08312 -0.149504,-0.383054 -2.210076,-0.818873 -2.060573,-0.435819 -6.13819,-1.006858 -8.296153,-1.334851 -2.157963,-0.327992 -2.396004,-0.413438 -2.579889,-0.586418 -0.183886,-0.172981 -0.313844,-0.43318 -0.373336,-0.653339 -0.05949,-0.220157 -0.04792,-0.399844 0.04402,-0.635726 0.09194,-0.235883 0.264339,-0.528217 0.48428,-0.773087 0.21994,-0.24487 0.488149,-0.442799 0.625161,-0.382141 0.137011,0.06066 0.143114,0.379453 1.414097,0.70969 1.270982,0.330237 3.80582,0.671536 5.846576,0.97032 2.040757,0.298786 3.587401,0.555719 4.490594,0.746673 0.903194,0.190952 1.163001,0.316647 1.359506,0.530065 0.196503,0.21342 0.330613,0.51468 0.350442,0.797742 0.01983,0.28306 -0.07431,0.547522 -0.211321,0.751954 -0.137012,0.204432 -0.318213,0.348517 -0.493084,0.487802 -0.131154,0.104462 -0.258518,0.205474 -0.359248,0.214844 z m 0.133837,-4.539902 c -0.05167,0.0036 -0.09362,-0.0021 -0.12151,-0.02289 -0.111572,-0.08283 0.0042,-0.387498 -2.076239,-0.824156 -2.08041,-0.436656 -6.356606,-1.006233 -8.620179,-1.333089 -2.263574,-0.326856 -2.513799,-0.412277 -2.706684,-0.584658 -0.192885,-0.172382 -0.328542,-0.432181 -0.390946,-0.651576 -0.0624,-0.219396 -0.05242,-0.39714 0.04402,-0.632206 0.09644,-0.235066 0.27823,-0.527304 0.508935,-0.771326 0.230704,-0.244021 0.511382,-0.440827 0.655097,-0.380379 0.143718,0.06045 0.151355,0.378835 1.484539,0.707929 1.333183,0.329093 3.991229,0.669048 6.131861,0.966799 2.140631,0.297749 3.763326,0.552857 4.710722,0.743148 0.947394,0.190292 1.220303,0.315626 1.426423,0.528307 0.206121,0.212678 0.345493,0.5139 0.366292,0.795979 0.0208,0.28208 -0.07818,0.544709 -0.221889,0.748432 -0.143718,0.203724 -0.332546,0.348414 -0.596984,0.489563 -0.198329,0.105861 -0.438443,0.209359 -0.593462,0.220126 z m 0.22541,-4.369083 c -0.05037,-2.32e-4 -0.09119,-0.0093 -0.119749,-0.02994 -0.11424,-0.08269 -0.01984,-0.34893 -2.162528,-0.766044 -2.142683,-0.417112 -6.522584,-0.985672 -8.840307,-1.311957 -2.317723,-0.326285 -2.572582,-0.410817 -2.770081,-0.582897 -0.197499,-0.172079 -0.337614,-0.430803 -0.401511,-0.649815 -0.06391,-0.219011 -0.05296,-0.397551 0.04579,-0.632206 0.09875,-0.234653 0.285039,-0.525969 0.521261,-0.769564 0.236224,-0.243594 0.523794,-0.440721 0.670948,-0.380379 0.147154,0.06033 0.154681,0.37765 1.519758,0.706167 1.365076,0.328518 4.086185,0.669569 6.278026,0.9668 2.19184,0.297228 3.853365,0.551429 4.823426,0.741386 0.970059,0.189959 1.248831,0.314238 1.459883,0.526546 0.211052,0.212307 0.35556,0.512632 0.376858,0.794218 0.0213,0.281587 -0.08001,0.545066 -0.227171,0.748432 -0.147157,0.203368 -0.340487,0.346309 -0.598747,0.468431 -0.193694,0.09159 -0.424743,0.171513 -0.575852,0.170818 z m 0.3117,-4.527576 c -0.04842,0.002 -0.08843,-0.0075 -0.117989,-0.02817 -0.118241,-0.08247 -0.05679,-0.369424 -2.292843,-0.795979 -2.236047,-0.426555 -6.768952,-0.991801 -9.167856,-1.317241 -2.398903,-0.32544 -2.66428,-0.409502 -2.868696,-0.581136 -0.204417,-0.171633 -0.347704,-0.431371 -0.413839,-0.649814 -0.06614,-0.218445 -0.05466,-0.396399 0.04755,-0.630445 0.102207,-0.234046 0.294374,-0.523079 0.538871,-0.766042 0.244496,-0.242963 0.541532,-0.440567 0.693841,-0.38038 0.152308,0.06019 0.159698,0.376741 1.572588,0.704407 1.41289,0.327665 4.231303,0.666817 6.499915,0.963277 2.268611,0.296458 3.986685,0.550161 4.990722,0.739626 1.004037,0.189466 1.294271,0.314787 1.512714,0.526545 0.218443,0.211757 0.36538,0.5116 0.387423,0.792457 0.02204,0.280856 -0.0819,0.543831 -0.234215,0.746672 -0.152311,0.20284 -0.353279,0.344906 -0.602268,0.477235 -0.186741,0.09925 -0.400674,0.193275 -0.545915,0.198995 z m 0.235976,-4.275749 c -0.03813,0.003 -0.07194,-0.0041 -0.102138,-0.02465 -0.120774,-0.08234 -0.169726,-0.381867 -2.50945,-0.813591 -2.339723,-0.431723 -6.971133,-0.995851 -9.421442,-1.320763 -2.450307,-0.324911 -2.719774,-0.409781 -2.928571,-0.581136 -0.208798,-0.171355 -0.356853,-0.429964 -0.424405,-0.648054 -0.06756,-0.21809 -0.05509,-0.395015 0.0493,-0.628684 0.104397,-0.233666 0.301462,-0.523472 0.551198,-0.766041 0.249737,-0.242569 0.552357,-0.438708 0.707929,-0.378619 0.155572,0.06009 0.162883,0.375512 1.606047,0.702646 1.443165,0.327135 4.32181,0.665537 6.639033,0.961515 2.317225,0.295978 4.074356,0.550469 5.099906,0.739628 1.025552,0.189158 1.319527,0.313368 1.542652,0.524783 0.223125,0.211414 0.375473,0.510296 0.39799,0.790696 0.02252,0.280401 -0.08393,0.542399 -0.239499,0.744911 -0.155575,0.202511 -0.361442,0.344544 -0.560004,0.482518 -0.148919,0.103481 -0.29418,0.205562 -0.408555,0.214844 z m 0.142643,-4.48355 c -0.03893,0.003 -0.07484,-0.0041 -0.105662,-0.02465 -0.123305,-0.08221 -0.173486,-0.379039 -2.562279,-0.810069 -2.388793,-0.431029 -7.115218,-0.996373 -9.616915,-1.320762 -2.501698,-0.324389 -2.777031,-0.408296 -2.990207,-0.579375 -0.213176,-0.171079 -0.364241,-0.428554 -0.43321,-0.646294 -0.06897,-0.217739 -0.05728,-0.395392 0.0493,-0.628683 0.106587,-0.233291 0.308551,-0.522101 0.563525,-0.764281 0.254974,-0.242179 0.563183,-0.43861 0.722017,-0.378618 0.158836,0.06 0.167836,0.376036 1.641268,0.702645 1.473432,0.326609 4.412333,0.664252 6.778155,0.959755 2.365822,0.295502 4.158506,0.549011 5.205566,0.737866 1.04706,0.188854 1.348306,0.313709 1.57611,0.524782 0.227805,0.211075 0.382046,0.508987 0.405035,0.788937 0.02299,0.279949 -0.08594,0.540963 -0.244782,0.743149 -0.158837,0.202186 -0.367844,0.344765 -0.570569,0.482518 -0.152046,0.103316 -0.300588,0.203816 -0.417361,0.213083 z m 0.302895,-4.471223 c -0.05444,0.0024 -0.09945,-0.006 -0.132076,-0.02642 -0.130501,-0.08184 -0.05353,-0.37158 -2.516494,-0.79774 -2.462962,-0.42616 -7.465914,-0.987264 -10.113522,-1.310197 -2.647608,-0.322932 -2.938938,-0.407302 -3.164547,-0.577614 -0.22561,-0.170311 -0.384873,-0.42777 -0.457865,-0.644531 -0.07299,-0.216762 -0.05997,-0.392918 0.05283,-0.625161 0.112803,-0.232245 0.325379,-0.519668 0.595224,-0.76076 0.269845,-0.241091 0.596182,-0.43658 0.764281,-0.376857 0.1681,0.05973 0.176994,0.373981 1.736363,0.699123 1.559369,0.325143 4.670576,0.662057 7.174384,0.956233 2.503807,0.294175 4.400333,0.546336 5.508461,0.734344 1.10813,0.188006 1.426593,0.311134 1.667684,0.521261 0.24109,0.210126 0.405359,0.506719 0.429688,0.785413 0.02433,0.278694 -0.09077,0.540112 -0.25887,0.741389 -0.168101,0.201277 -0.38948,0.343036 -0.669186,0.477235 -0.20978,0.10065 -0.453067,0.196841 -0.616356,0.204279 z"/>
    </g>
</svg>