<svg xmlns="http://www.w3.org/2000/svg" xmlns:svg="http://www.w3.org/2000/svg" width="25.606623" height="100.7217" viewBox="0 0 25.606622 100.72171" version="1.1" id="svg1" xml:space="preserve" xmlns:sodipodi="http://sodipodi.sourceforge.net/DTD/sodipodi-0.dtd" sodipodi:docname="porto_tooth_13.svg" xmlns:inkscape="http://www.inkscape.org/namespaces/inkscape" inkscape:version="1.4 (86a8ad7, 2024-10-11)">
  <path id="tooth_13_root" style="display:inline;fill:#fff5d0;fill-opacity:1;stroke:#000000;stroke-width:1;stroke-dasharray:none" d="M 11.623591,0.53938919 C 9.0348799,2.5703495 9.3760121,6.7222037 8.7960075,9.7593045 8.2002375,20.241185 8.0262766,30.754657 6.8082248,41.195532 5.5870163,51.832665 4.7894873,62.591946 2.153247,72.999006 3.7998508,69.314697 8.5117945,69.79168 11.85961,69.259771 c 4.459118,-0.300065 9.314817,2.069883 11.455801,6.064863 1.178132,-1.5251 -1.224769,-6.792404 -1.124783,-9.761913 C 19.530249,44.642824 19.459417,23.207289 13.342944,2.8694394 12.989744,2.0170213 12.657468,0.76898298 11.623591,0.53938919 Z M 1.1638218,76.459913 1.0851958,76.907489 Z"/>
  <path style="fill:#ffffff;fill-opacity:1;stroke:#000000;stroke-width:1;stroke-dasharray:none" d="M 10.827147,69.358986 C 7.2272736,69.625301 2.22453,70.072001 1.5918719,74.558622 0.23468788,80.44944 0.24809182,86.645673 1.0570627,92.611429 c 1.8996099,3.299466 6.0743322,4.813749 9.2491653,6.815322 4.266193,2.371669 8.791556,-0.987388 11.659304,-4.035461 C 26.01661,91.097213 25.2454,84.665356 24.52278,79.307944 24.133235,75.138294 21.212761,71.639943 17.334931,70.20744 15.293143,69.237936 13.044627,69.021442 10.827147,69.358986 Z" id="tooth_13_crown"/>
  	 <g id="tooth_13_implant" style="display: none">
  <path id="tooth_13_implant-1" style="fill:#9a9a9a;fill-opacity:1;stroke:#000000;stroke-width:0.880552;stroke-dasharray:none" d="m 11.775877,23.526181 c -0.261155,-0.0068 -0.535534,0.08997 -1.147185,0.481701 -0.611651,0.391731 -1.5599817,1.078689 -2.425919,1.917134 -0.8659381,0.838445 -1.6503297,1.827707 -2.0970467,2.576815 -0.446717,0.749106 -0.5561322,1.258646 -0.6248579,1.897787 -0.068726,0.639144 -0.0949,1.409398 -0.2186037,3.629207 C 5.1385602,36.248633 4.9172448,39.916854 4.6354723,45.593534 4.3536996,51.270214 4.0098878,58.954116 3.6662652,66.637513 L 19.912573,66.513702 C 19.678909,61.48307 19.445678,56.452863 19.163904,50.515016 18.882131,44.57717 18.5535,37.733143 18.361068,34.028825 18.168636,30.324507 18.11349,29.759472 17.914188,29.223415 17.714887,28.687359 17.370649,28.178628 16.449737,27.27146 15.528826,26.364291 14.029959,25.060106 13.157142,24.352232 12.284328,23.644356 12.037033,23.533055 11.775877,23.526181 Z M 3.633378,66.738109 2.0663967,72.818383 H 21.611104 l -1.628887,-6.080274 z"/>
  <path id="tooth_13_implant-2" style="fill:#656565;fill-opacity:1;stroke:#000000;stroke-width:0.880552;stroke-dasharray:none" d="m 16.604502,27.371072 c -0.173412,-0.0043 -0.286009,0.0179 -0.272772,0.08125 0.0353,0.168951 0.824169,0.559969 -0.858938,1.050457 -1.683105,0.49049 -6.04159,0.980854 -8.3398224,1.272931 -2.2982319,0.292077 -2.5370302,0.385345 -2.7219046,0.576495 -0.1848743,0.191151 -0.3154887,0.480235 -0.3753017,0.723519 -0.059813,0.243285 -0.047942,0.441579 0.044494,0.702241 0.092436,0.26066 0.2663822,0.582542 0.4875053,0.853133 0.2211232,0.270593 0.4890448,0.488761 0.6267926,0.421731 0.1377477,-0.06704 0.144073,-0.418564 1.4218904,-0.783491 1.2778174,-0.364926 3.8273504,-0.741566 5.8790824,-1.071737 2.051732,-0.330171 3.607177,-0.615041 4.515228,-0.826051 0.908051,-0.211011 1.168228,-0.348395 1.365788,-0.584232 0.197562,-0.235838 0.332151,-0.569358 0.352087,-0.882153 0.01994,-0.312795 -0.07505,-0.605948 -0.212799,-0.831855 -0.137749,-0.225904 -0.319057,-0.385114 -0.839593,-0.526196 -0.325335,-0.08817 -0.782719,-0.168775 -1.071737,-0.176042 z m 1.833948,4.755112 c -0.03689,-0.0034 -0.07139,0.0042 -0.100596,0.02708 -0.116846,0.09131 -0.164236,0.420799 -2.427854,0.899564 -2.263618,0.478763 -6.7430359,1.106071 -9.1136412,1.466384 -2.3706055,0.360313 -2.632103,0.454179 -2.8341081,0.644204 -0.2020052,0.190025 -0.3447684,0.475863 -0.4101236,0.717717 -0.065355,0.241851 -0.052638,0.439244 0.048364,0.69837 0.1010014,0.259126 0.2903869,0.580266 0.5319998,0.849265 0.2416128,0.268999 0.5362516,0.486432 0.6867634,0.419796 0.1505118,-0.06664 0.1572169,-0.416843 1.5534395,-0.779621 1.3962225,-0.362779 4.1808402,-0.737708 6.4226892,-1.065934 2.24185,-0.328228 3.940897,-0.610479 4.93309,-0.820248 0.992192,-0.209768 1.277601,-0.347849 1.493469,-0.582298 0.215866,-0.234449 0.36319,-0.565395 0.384974,-0.876349 0.02178,-0.310953 -0.08164,-0.601474 -0.232145,-0.82605 C 19.224256,32.673485 19.0252,32.515201 18.833098,32.362192 18.68902,32.247435 18.549105,32.13647 18.43845,32.126177 Z m 0.147026,4.987257 c -0.05676,-0.004 -0.102843,0.0024 -0.133484,0.02515 -0.122566,0.09099 0.0046,0.425682 -2.280829,0.905367 -2.285409,0.479684 -6.982975,1.105386 -9.4695969,1.46445 -2.486622,0.359064 -2.7615043,0.452902 -2.9733955,0.642269 -0.2118911,0.189368 -0.3609152,0.474767 -0.4294689,0.715782 -0.068554,0.241014 -0.057581,0.436273 0.048363,0.694502 0.1059444,0.258229 0.3056462,0.579263 0.5590835,0.847331 0.2534373,0.268066 0.5617729,0.484265 0.7196506,0.417861 0.157878,-0.0664 0.1662683,-0.416165 1.6308214,-0.777688 1.4645531,-0.36152 4.3845198,-0.734975 6.7360858,-1.062065 2.351566,-0.32709 4.134158,-0.607335 5.174908,-0.816377 1.040749,-0.209043 1.34055,-0.346727 1.566981,-0.580364 0.226431,-0.233636 0.379536,-0.564539 0.402386,-0.874414 0.02285,-0.309876 -0.08588,-0.598384 -0.243754,-0.822182 -0.157879,-0.223798 -0.365315,-0.382746 -0.65581,-0.537803 -0.217871,-0.116293 -0.481646,-0.229989 -0.651941,-0.241817 z m 0.247622,4.799606 c -0.05533,2.53e-4 -0.100176,0.01018 -0.131551,0.03289 -0.125497,0.09084 -0.0218,0.383313 -2.37562,0.841527 -2.353819,0.458214 -7.1653073,1.0828 -9.7114155,1.441236 -2.5461079,0.358436 -2.8260788,0.451299 -3.043039,0.640335 -0.2169601,0.189036 -0.3708825,0.473253 -0.4410762,0.713847 -0.070194,0.240592 -0.05818,0.436724 0.050298,0.694502 0.1084788,0.257775 0.3131251,0.577797 0.5726253,0.845395 0.2595001,0.267598 0.5754069,0.48415 0.7370615,0.417862 0.1616546,-0.06628 0.1699235,-0.414864 1.6695123,-0.775753 1.4995888,-0.360889 4.4888316,-0.735547 6.8966526,-1.062065 2.407821,-0.326517 4.23307,-0.605767 5.298719,-0.814443 1.065647,-0.208676 1.371888,-0.345202 1.603737,-0.578429 0.231848,-0.233229 0.390596,-0.563147 0.413992,-0.87248 0.0234,-0.309333 -0.0879,-0.598775 -0.249555,-0.822181 -0.161658,-0.223407 -0.374038,-0.380434 -0.657747,-0.514589 -0.21278,-0.100617 -0.466596,-0.188414 -0.632594,-0.187651 z m 0.342414,4.973714 c -0.05319,-0.0021 -0.09715,0.0083 -0.129616,0.03095 -0.129892,0.0906 -0.06239,0.405828 -2.518777,0.874414 -2.456383,0.468587 -7.435952,1.089532 -10.0712401,1.44704 -2.6352879,0.357508 -2.9268142,0.449853 -3.1513735,0.6384 -0.2245594,0.188546 -0.3819659,0.473878 -0.454618,0.713847 -0.072653,0.239969 -0.060046,0.435458 0.052233,0.692567 0.1122784,0.257108 0.3233813,0.574622 0.5919706,0.841526 0.2685893,0.266905 0.594894,0.483979 0.7622108,0.417862 0.1673167,-0.06611 0.1754352,-0.413864 1.7275485,-0.773818 1.5521132,-0.359953 4.6482477,-0.732524 7.1404047,-1.058196 2.492157,-0.325671 4.379527,-0.604373 5.4825,-0.812508 1.102973,-0.208135 1.421806,-0.345805 1.661774,-0.57843 0.239969,-0.232623 0.401384,-0.562012 0.4256,-0.870544 0.02421,-0.308532 -0.08998,-0.59742 -0.257295,-0.820247 -0.167319,-0.222828 -0.38809,-0.378893 -0.661614,-0.524262 -0.205142,-0.109027 -0.440156,-0.21232 -0.599708,-0.218604 z m 0.259228,4.697075 c -0.04188,-0.0033 -0.07903,0.0045 -0.112203,0.02708 -0.132674,0.09045 -0.18645,0.419495 -2.756727,0.89376 -2.570275,0.474265 -7.6580574,1.093981 -10.3498146,1.450909 -2.6917572,0.356927 -2.9877768,0.45016 -3.2171482,0.6384 -0.2293713,0.18824 -0.3920161,0.472332 -0.4662252,0.711912 -0.074209,0.23958 -0.060517,0.43394 0.054166,0.690633 0.1146843,0.256692 0.3311679,0.575054 0.6055125,0.841526 0.2743448,0.266472 0.6067851,0.481937 0.7776871,0.415927 0.170902,-0.06601 0.1789327,-0.412514 1.7643049,-0.771883 1.5853722,-0.35937 4.7476745,-0.731118 7.2932335,-1.056261 2.545559,-0.325143 4.475835,-0.604711 5.602441,-0.81251 1.126608,-0.207798 1.449551,-0.344247 1.694662,-0.576494 0.245111,-0.232246 0.412473,-0.560579 0.437207,-0.86861 0.02473,-0.308032 -0.09219,-0.595847 -0.263098,-0.818313 -0.170905,-0.222466 -0.397058,-0.378495 -0.615186,-0.530064 -0.163594,-0.113679 -0.323168,-0.225819 -0.448814,-0.236016 z m 0.156699,4.925351 c -0.04276,-0.0033 -0.08221,0.0045 -0.116074,0.02708 -0.135456,0.09031 -0.190581,0.416388 -2.814762,0.889891 -2.624181,0.473503 -7.8163386,1.094555 -10.5645495,1.450909 -2.7482107,0.356353 -3.0506753,0.448528 -3.2848571,0.636466 -0.2341818,0.187936 -0.4001325,0.470782 -0.4758981,0.709977 -0.075765,0.239195 -0.062922,0.434354 0.054167,0.690633 0.1170896,0.256279 0.3389559,0.573548 0.6190543,0.839592 0.2800985,0.266043 0.6186772,0.48183 0.7931635,0.415926 0.1744862,-0.06591 0.184374,-0.41309 1.8029957,-0.771882 1.6186218,-0.358793 4.8471172,-0.729707 7.4460632,-1.054328 2.598947,-0.32462 4.568279,-0.603109 5.718514,-0.810574 1.150235,-0.207464 1.481166,-0.34462 1.731417,-0.576494 0.250252,-0.231873 0.419693,-0.559141 0.444946,-0.866676 0.02525,-0.307536 -0.09441,-0.594269 -0.268901,-0.816378 -0.17449,-0.222109 -0.404092,-0.378738 -0.626793,-0.530065 -0.167028,-0.113496 -0.330207,-0.2239 -0.458487,-0.23408 z m 0.332741,4.91181 c -0.0598,-0.0026 -0.109251,0.0065 -0.14509,0.02902 -0.14336,0.08991 -0.0588,0.408196 -2.764465,0.876349 -2.705658,0.468152 -8.2015923,1.084548 -11.1100913,1.439301 -2.9084991,0.354753 -3.2285368,0.447437 -3.4763772,0.634531 -0.2478403,0.187093 -0.4227972,0.469922 -0.5029817,0.708043 -0.080185,0.23812 -0.065882,0.431635 0.058036,0.686764 0.1239187,0.255128 0.357441,0.570874 0.6538761,0.835723 0.2964351,0.264848 0.6549294,0.4796 0.8395925,0.413992 0.1846631,-0.06561 0.194434,-0.410833 1.9074612,-0.768014 1.7130272,-0.357182 5.1308074,-0.727295 7.8813364,-1.050458 2.750529,-0.323163 4.833934,-0.600172 6.051256,-0.806705 1.217323,-0.206533 1.567166,-0.341793 1.832014,-0.572625 0.264847,-0.230832 0.445302,-0.556652 0.472029,-0.862807 0.02672,-0.306155 -0.09971,-0.593333 -0.284378,-0.814444 -0.184665,-0.22111 -0.42786,-0.376839 -0.735127,-0.524261 C 20.37082,61.534842 20.10356,61.429172 19.92418,61.421001 Z"/>
</g>
</svg>