<svg xmlns="http://www.w3.org/2000/svg" xmlns:svg="http://www.w3.org/2000/svg" xmlns:sodipodi="http://sodipodi.sourceforge.net/DTD/sodipodi-0.dtd" xmlns:inkscape="http://www.inkscape.org/namespaces/inkscape" width="23.461679" height="91.207901" viewBox="0 0 23.46168 91.2079" version="1.1" id="svg1" xml:space="preserve" sodipodi:docname="porto_tooth_22.svg" inkscape:version="1.4 (86a8ad7, 2024-10-11)">
    <defs id="defs1">
      	 </defs>
      <path id="tooth_62_root" style="fill:#fff5d0;fill-opacity:1;stroke:#000000;stroke-width:1;stroke-dasharray:none" d="m 12.808393,0.56235068 c 2.054927,1.08975292 2.303542,4.03463572 2.997033,6.09933212 1.205343,6.2980392 0.95729,12.7548482 1.516237,19.1232442 0.524127,8.696331 1.770779,17.320271 2.833718,25.959677 0.329253,3.420857 0.709151,6.841765 1.455372,10.201121 -1.107975,-1.950283 -4.135866,-1.551707 -6.097499,-2.156123 -4.072105,-0.407836 -8.7120792,-0.836741 -12.2442532,1.649249 -0.998095,0.653652 -1.882757,2.857499 -0.85801,0.530881 2.384584,-5.100197 2.053581,-10.858367 2.615845,-16.332075 0.55622,-8.225991 0.990447,-16.503786 2.893467,-24.557484 C 9.2539378,15.316826 10.201862,9.4778653 11.277096,3.6650556 11.611364,2.6045704 11.703453,1.1145002 12.808393,0.56235068 Z"/>
      <path style="fill:#ffffff;fill-opacity:1;stroke:#000000;stroke-width:1;stroke-dasharray:none" d="m 20.439368,60.862081 c -0.788369,-0.233112 -2.365108,-0.699524 -4.51644,-1.015004 -2.151336,-0.315632 -4.877173,-0.480103 -7.1754802,-0.260492 -2.298311,0.219422 -4.168982,0.823001 -5.47848,1.851733 -1.309503,1.02877 -2.05777,2.482693 -2.43190501,7.146365 -0.374136,4.663671 -0.374136,12.53675 -0.293958,16.720281 0.08017,4.183531 0.240538,4.677324 0.82845601,4.965347 0.587938,0.287872 1.603471,0.370393 4.797077,0.411425 3.193605,0.04107 8.5650972,0.04107 11.5715922,-0.05476 3.006495,-0.09583 3.64786,-0.287872 4.128905,-0.726981 0.481046,-0.438918 0.801725,-1.124714 0.962073,-5.143736 0.160334,-4.018984 0.160334,-11.370852 0.06679,-15.430944 -0.09354,-4.060092 -0.280584,-4.828181 -0.574579,-5.651181 -0.293958,-0.823001 -0.694833,-1.700839 -0.895265,-2.139757 -0.200417,-0.438919 -0.200417,-0.438843 -0.988801,-0.67203 z" id="tooth_62_crown"/>
      	 <g id="tooth_62_implant">
      <path id="tooth_62_implant-1" style="fill:#9a9a9a;fill-opacity:1;stroke:#000000;stroke-width:0.907907;stroke-dasharray:none" d="m 12.264348,13.826991 c 0.25649,-0.0067 0.525967,0.08837 1.126691,0.473096 0.600725,0.384733 1.532115,1.059419 2.382583,1.882886 0.850469,0.823467 1.620848,1.795057 2.059585,2.530783 0.438737,0.735724 0.546197,1.236161 0.613695,1.863885 0.0675,0.627726 0.0932,1.38422 0.214699,3.564375 0.121494,2.180153 0.338856,5.782844 0.615595,11.358116 0.276739,5.575271 0.614409,13.121907 0.951893,20.668048 L 4.273007,56.046581 C 4.502496,51.105816 4.731561,46.165469 5.008301,40.333696 5.28504,34.501924 5.607801,27.780159 5.796795,24.142016 5.985789,20.503872 6.03995,19.94893 6.235692,19.42245 c 0.195741,-0.526481 0.533829,-1.026124 1.43829,-1.917086 0.90446,-0.890963 2.376551,-2.17185 3.233776,-2.867078 0.857222,-0.695231 1.1001,-0.804544 1.35659,-0.811295 z m 7.997041,42.439988 1.538989,5.971656 H 2.604818 l 1.599788,-5.971656 z"/>
      <path id="tooth_62_implant-2" style="fill:#656565;fill-opacity:1;stroke:#000000;stroke-width:0.907907;stroke-dasharray:none" d="m 7.521982,17.243166 c 0.170314,-0.0042 0.2809,0.01758 0.267899,0.0798 -0.03467,0.165932 -0.809446,0.549965 0.843594,1.031692 1.653038,0.481727 5.933663,0.963331 8.190839,1.250191 2.257176,0.286859 2.491709,0.378461 2.673281,0.566196 0.181571,0.187736 0.309852,0.471656 0.368597,0.710594 0.05874,0.238939 0.04708,0.43369 -0.0437,0.689696 -0.09079,0.256004 -0.261624,0.572136 -0.478797,0.837893 -0.217173,0.265759 -0.480308,0.480029 -0.615595,0.414197 -0.135287,-0.06584 -0.141499,-0.411087 -1.39649,-0.769494 -1.25499,-0.358408 -3.758978,-0.72832 -5.774058,-1.052592 C 9.542473,20.677067 8.014815,20.397285 7.122985,20.190045 6.231156,19.982803 5.975627,19.847873 5.781595,19.616249 5.587563,19.384625 5.455378,19.057062 5.435798,18.749856 c -0.01958,-0.307208 0.07371,-0.595124 0.208998,-0.816995 0.135288,-0.22187 0.313357,-0.378235 0.824595,-0.516796 0.319523,-0.0866 0.768737,-0.165761 1.052591,-0.172899 z m -1.801186,4.670166 c 0.03623,-0.0034 0.07011,0.0042 0.0988,0.02659 0.114758,0.08968 0.161302,0.413282 2.384482,0.883494 2.223181,0.47021 6.622578,1.086312 8.950835,1.440189 2.328257,0.353875 2.585083,0.446065 2.783479,0.632695 0.198397,0.186631 0.33861,0.467363 0.402797,0.704896 0.06419,0.237531 0.0517,0.431397 -0.0475,0.685894 -0.0992,0.254498 -0.285199,0.5699 -0.522496,0.834094 -0.237296,0.264194 -0.526672,0.477742 -0.674495,0.412297 -0.147823,-0.06545 -0.154408,-0.409397 -1.525689,-0.765694 -1.37128,-0.356298 -4.106152,-0.72453 -6.307953,-1.046892 C 9.061256,25.398531 7.392561,25.121321 6.418092,24.9153 5.443624,24.709279 5.163313,24.573665 4.951303,24.343405 4.739293,24.113143 4.5946,23.788109 4.573206,23.48271 4.551816,23.177312 4.653386,22.891981 4.801204,22.671416 4.949029,22.450852 5.14453,22.295396 5.3332,22.14512 5.474704,22.032414 5.612118,21.923431 5.720798,21.913322 Z m -0.1444,4.898164 c 0.05575,-0.0039 0.101005,0.0023 0.1311,0.0247 0.120376,0.08937 -0.0045,0.418077 2.240083,0.889194 2.244583,0.471114 6.858231,1.085638 9.300432,1.438289 2.442201,0.352649 2.712173,0.44481 2.920279,0.630795 0.208106,0.185985 0.354467,0.466286 0.421797,0.702995 0.06733,0.236708 0.05655,0.428479 -0.0475,0.682095 -0.104052,0.253616 -0.300186,0.568916 -0.549096,0.832194 -0.24891,0.263278 -0.551738,0.475615 -0.706795,0.410397 C 19.131638,32.356935 19.123398,32.013424 17.685008,31.65836 16.246617,31.303298 13.378813,30.936514 11.069256,30.615268 8.759698,30.294021 7.008951,30.018782 5.986793,29.813474 4.964636,29.608166 4.670191,29.472941 4.447805,29.243477 4.225419,29.014015 4.075049,28.689024 4.052608,28.384684 4.030168,28.080344 4.136958,27.79699 4.292007,27.57719 4.447066,27.35739 4.650795,27.201281 4.9361,27.048994 5.15008,26.934779 5.409142,26.823114 5.576395,26.811497 Z m -0.243198,4.713865 c 0.05435,2.49e-4 0.09839,0.01 0.1292,0.0323 0.123255,0.08921 0.02141,0.376465 2.333182,0.826494 2.31177,0.450029 7.037306,1.063457 9.537931,1.415489 2.500624,0.352034 2.775593,0.443237 2.988678,0.628896 0.213084,0.185659 0.364257,0.4648 0.433196,0.701095 0.06894,0.236295 0.05714,0.428923 -0.0494,0.682096 -0.106541,0.25317 -0.307531,0.567475 -0.562395,0.830293 -0.254865,0.262818 -0.565128,0.475501 -0.723895,0.410397 -0.158767,-0.06509 -0.166888,-0.407452 -1.639688,-0.761895 -1.4728,-0.354442 -4.408642,-0.722407 -6.77345,-1.043093 C 8.64175,34.92675 6.849108,34.652489 5.802496,34.44754 4.755885,34.242591 4.455115,34.108505 4.227408,33.879444 3.999701,33.650382 3.843789,33.326357 3.820811,33.022551 c -0.02298,-0.303808 0.08633,-0.588079 0.245098,-0.807494 0.15877,-0.219416 0.367355,-0.373638 0.645996,-0.505396 0.208978,-0.09882 0.458261,-0.185049 0.621293,-0.184299 z m -0.336297,4.884864 c 0.05223,-0.0021 0.09541,0.0081 0.1273,0.0304 0.127571,0.08898 0.06127,0.398578 2.473781,0.858794 2.412502,0.460216 7.303116,1.070068 9.891327,1.42119 2.588211,0.351121 2.87453,0.441816 3.095078,0.626995 0.220547,0.185178 0.375142,0.465412 0.446496,0.701095 0.07136,0.235682 0.05897,0.427679 -0.0513,0.680195 -0.110272,0.252515 -0.317604,0.564357 -0.581395,0.826493 -0.263792,0.262136 -0.584267,0.475333 -0.748595,0.410397 -0.164328,-0.06493 -0.172301,-0.40647 -1.696687,-0.759994 C 16.42852,40.852267 13.387695,40.486351 10.940058,40.166498 8.492422,39.846644 6.638767,39.572921 5.555498,39.368504 4.472229,39.164087 4.159091,39.028876 3.92341,38.800407 3.687728,38.57194 3.529197,38.248435 3.505413,37.945414 c -0.02378,-0.30302 0.08837,-0.586747 0.252699,-0.805594 0.16433,-0.218847 0.381157,-0.372124 0.649795,-0.514896 0.201477,-0.10708 0.432292,-0.208527 0.588994,-0.214699 z m -0.254598,4.613166 c 0.04113,-0.0033 0.07762,0.0044 0.110199,0.02659 0.130304,0.08884 0.183119,0.412001 2.70748,0.877794 2.52436,0.465793 7.521254,1.074438 10.164926,1.42499 2.643671,0.350551 2.934403,0.442118 3.159677,0.626995 0.225273,0.184878 0.385013,0.463895 0.457896,0.699195 0.07288,0.2353 0.05944,0.426188 -0.0532,0.678296 -0.112636,0.252106 -0.325252,0.564781 -0.594696,0.826493 -0.269444,0.261711 -0.595945,0.473327 -0.763794,0.408497 -0.167849,-0.06483 -0.175736,-0.405145 -1.732787,-0.758095 -1.557051,-0.35295 -4.662862,-0.718057 -7.162946,-1.037392 C 8.534973,44.47742 6.63918,44.202846 5.532699,43.99876 4.426218,43.794674 4.109043,43.660662 3.868311,43.432564 3.627579,43.204466 3.463207,42.881999 3.438914,42.579471 3.414624,42.276941 3.529464,41.994268 3.697313,41.775776 3.865164,41.557284 4.087277,41.404043 4.301508,41.255181 4.46218,41.143533 4.618903,41.033396 4.742305,41.023382 Z m -0.153899,4.837365 c 0.042,-0.0033 0.08074,0.0044 0.114,0.02659 0.133036,0.0887 0.187177,0.408949 2.764479,0.873994 2.577303,0.465044 7.676707,1.075001 10.375824,1.424989 2.699116,0.349988 2.996178,0.440516 3.226176,0.625096 0.229998,0.184579 0.392985,0.462372 0.467397,0.697295 0.07441,0.234921 0.0618,0.426594 -0.0532,0.678295 -0.114998,0.251701 -0.332901,0.563302 -0.607996,0.824594 -0.275095,0.26129 -0.607625,0.473223 -0.778994,0.408496 -0.171369,-0.06473 -0.181081,-0.405711 -1.770787,-0.758094 C 16.735596,50.309628 13.564776,49.94534 11.012256,49.626518 8.459737,49.307697 6.525585,49.034183 5.395898,48.830425 4.266211,48.626666 3.941191,48.49196 3.695411,48.264229 3.44963,48.036498 3.283216,47.715077 3.258414,47.413035 c -0.0248,-0.302042 0.09273,-0.583653 0.264097,-0.801794 0.171373,-0.218141 0.396873,-0.371972 0.615596,-0.520596 0.164044,-0.111469 0.324308,-0.2199 0.450297,-0.229898 z m -0.326798,4.824065 c 0.05873,-0.0026 0.1073,0.0064 0.142499,0.0285 0.140799,0.0883 0.05775,0.400904 2.71508,0.860694 2.657324,0.459789 8.055079,1.065173 10.91162,1.413589 2.856542,0.348416 3.170862,0.439444 3.414275,0.623196 0.243413,0.183751 0.415245,0.461527 0.493997,0.695394 0.07875,0.233867 0.06471,0.423925 -0.057,0.674496 -0.121705,0.250571 -0.351056,0.560676 -0.642196,0.820794 -0.291139,0.260116 -0.643229,0.471032 -0.824594,0.406596 -0.181364,-0.06444 -0.19096,-0.403493 -1.873386,-0.754294 -1.682425,-0.350801 -5.03915,-0.714302 -7.740543,-1.031693 C 8.099965,54.104704 6.053778,53.832643 4.858202,53.6298 3.662626,53.426956 3.319032,53.294112 3.058916,53.067404 2.7988,52.840695 2.621568,52.520696 2.595318,52.22001 c -0.02625,-0.300686 0.09793,-0.582734 0.279299,-0.799895 0.181366,-0.21716 0.420216,-0.370107 0.721994,-0.514895 0.226334,-0.108592 0.48882,-0.212374 0.664995,-0.220399 z"/>
    </g>
</svg>