<?xml version="1.0" encoding="UTF-8" standalone="no"?>
<svg
   width="19.252661"
   height="85.623878"
   viewBox="0 0 19.252661 85.623881"
   version="1.1"
   id="svg1"
   xml:space="preserve"
   xmlns="http://www.w3.org/2000/svg"
   xmlns:svg="http://www.w3.org/2000/svg"><defs
     id="defs1" /><path
     id="tooth_42_root"
     style="fill:#fff5d0;fill-opacity:1;stroke:#000000;stroke-width:1;stroke-dasharray:none"
     d="m 18.482114,22.261741 c -0.03898,0.592141 -0.105836,1.286559 -0.289665,2.080744 -0.279341,1.206829 -0.79853,2.483426 -1.151014,5.88453 -0.352467,3.401142 -0.537661,8.927322 -0.630771,15.174155 -0.09311,6.246796 -0.09356,13.213787 -0.160081,19.199985 -0.06652,5.986199 -0.199797,10.990311 -0.432584,14.144544 -0.232765,3.154233 -0.565554,4.458585 -1.084316,5.295126 -0.518761,0.836579 -1.224022,1.205878 -1.762726,1.027597 -0.5387,-0.178319 -0.910066,-0.905397 -1.282501,-2.139677 -0.372435,-1.23428 -0.74487,-2.975039 -1.656009,-7.884707 C 9.1213038,70.134332 7.6709888,62.056553 6.2211448,53.78692 4.7713018,45.517287 3.3221408,37.054963 2.4841648,32.378478 c -0.837976,-4.676484 -1.064635,-5.567281 -1.177691,-6.945547 -0.02102,-0.254362 -0.03245,-0.537809 -0.04385,-0.819317 0.200498,0.779167 0.494142,1.219223 1.419711,1.560044 1.0242,0.37717 2.821417,0.637006 4.184806,0.774149 1.363394,0.137256 2.293838,0.152464 2.7593829,0.158928 0.4655443,0.0076 0.4660643,0.0038 1.5035573,-0.07642 1.037498,-0.08213 3.110979,-0.245619 4.434454,-0.567848 1.323471,-0.322419 1.896374,-0.803082 2.315362,-1.660231 0.25869,-0.529216 0.458557,-1.205802 0.602188,-2.540495 z" /><path
     style="fill:#ffffff;fill-opacity:1;stroke:#000000;stroke-width:1;stroke-dasharray:none"
     d="m 11.129466,27.030845 c 1.037489,-0.08213 3.112483,-0.246757 4.435954,-0.569139 1.323471,-0.322419 1.895412,-0.802283 2.3144,-1.659432 0.418992,-0.857148 0.685001,-2.091352 0.804713,-5.90392 C 18.804235,15.085785 18.777647,8.6951943 18.63132,5.1912432 18.484994,1.6873302 18.218989,1.0702093 15.545403,0.76166789 12.871822,0.45293634 7.7908708,0.45293634 4.8313328,0.62441162 1.8717958,0.7958869 1.0338708,1.1386854 0.69469185,4.4986504 c -0.339191,3.360003 -0.179552,9.7369066 -0.01991,13.6248326 0.159602,3.887927 0.319241,5.286724 0.52539595,6.232994 0.206177,0.94627 0.458888,1.439974 1.483084,1.817105 1.024199,0.37717 2.819841,0.637729 4.183231,0.774833 1.363394,0.137256 2.294428,0.150944 2.7599762,0.157788 0.465545,0.0076 0.465534,0.0076 1.503027,-0.07528 z"
     id="tooth_42_crown" /></svg>
