<svg xmlns="http://www.w3.org/2000/svg" xmlns:svg="http://www.w3.org/2000/svg" width="24.36677" height="92.072884" viewBox="0 0 24.36677 92.072883" version="1.1" id="svg1" xml:space="preserve" xmlns:sodipodi="http://sodipodi.sourceforge.net/DTD/sodipodi-0.dtd" sodipodi:docname="porto_tooth_33.svg" xmlns:inkscape="http://www.inkscape.org/namespaces/inkscape" inkscape:version="1.4 (86a8ad7, 2024-10-11)">
  <path id="tooth_33_root" style="display:inline;fill:#fff5d0;fill-opacity:1;stroke:#000000;stroke-width:1;stroke-dasharray:none" d="m 2.2993104,26.664095 c 0.382019,1.439925 0.729751,2.54606 1.84092,3.375595 1.23014,0.91834 3.395964,1.52189 4.900186,1.871374 1.5042216,0.349598 2.3469096,0.444939 2.7680846,0.492895 0.421175,0.04788 0.420103,0.04902 1.616792,-0.0342 1.196692,-0.08208 3.58998,-0.246618 5.281393,-0.671608 1.691417,-0.424875 2.682198,-1.110618 3.457715,-3.214551 0.102053,-0.277018 0.19873,-0.580712 0.293073,-0.903292 -0.06217,0.720817 -0.159808,1.549744 -0.394622,2.40356 -0.354312,1.288382 -0.981995,2.453341 -1.396494,4.406528 -0.414495,1.95315 -0.615339,4.694111 -0.76242,8.086463 -0.147093,3.392353 -0.239508,7.436667 -0.252853,11.925502 -0.01334,4.488874 0.05245,9.422079 0.306492,13.266704 0.254039,3.844664 0.69528,6.600026 0.996127,9.690813 0.300858,3.090824 0.461555,6.516465 0.421438,8.887688 -0.04011,2.371184 -0.280655,3.688104 -0.614916,4.469341 -0.334258,0.781237 -0.762346,1.028198 -1.404157,0.754067 C 18.714255,91.196996 17.85786,90.400597 16.794871,88.289787 15.731882,86.179014 14.462522,82.75383 13.105366,78.196405 11.748207,73.639017 10.303281,67.950188 9.1400084,62.255164 7.9767384,56.56014 7.0948534,50.85782 6.3527654,46.04686 5.6106784,41.235901 5.0098674,37.316986 4.3279434,34.486612 3.7495264,32.085825 2.2993104,26.664095 2.2993104,26.664095 Z"/>
  <path style="fill:#ffffff;fill-opacity:1;stroke:#000000;stroke-width:1;stroke-dasharray:none" d="m 13.426093,32.369797 c 1.196689,-0.08208 3.590077,-0.246618 5.28149,-0.671608 1.691417,-0.424913 2.680834,-1.1102 3.456351,-3.214171 0.775517,-2.103933 1.337086,-5.626396 1.57107,-9.080423 0.233984,-3.454026 0.140383,-6.839386 -0.167148,-9.039268 C 23.260326,8.1644448 22.73887,7.1501933 20.920408,5.6904705 19.101949,4.2307478 15.986595,2.3255919 13.84725,1.352418 11.707908,0.37928219 10.544672,0.33809045 9.3279144,0.70129214 8.1111564,1.0645699 6.8409444,1.832051 5.4035624,2.9765277 3.9661804,4.1210425 2.3617144,5.6424008 1.5059784,6.8279933 0.65023839,8.0135858 0.54327039,8.8633744 0.50983739,11.049576 c -0.03336,2.186203 0.0067,5.708628 0.320875,8.532162 0.31420301,2.823496 0.90252901,4.947949 1.34377001,6.626968 0.441241,1.679058 0.735389,2.912568 1.965529,3.830908 1.23014,0.91834 3.396172,1.521396 4.900394,1.87088 1.5042216,0.349598 2.3466056,0.445395 2.7677766,0.493313 0.421175,0.04788 0.421205,0.04826 1.617897,-0.0342 z" id="tooth_33_crown"/>
  <g id="tooth_33_implant" style="display: none">
    <path id="tooth_33_implant-1" style="fill:#9a9a9a;fill-opacity:1;stroke:#000000;stroke-width:0.842379;stroke-dasharray:none" d="m 12.515125,76.405306 c -0.249834,0.0065 -0.512317,-0.08608 -1.097452,-0.460819 C 10.832538,75.569738 9.9253193,74.912561 9.096922,74.110464 8.2685241,73.308367 7.5181373,72.361992 7.0907865,71.64536 6.6634355,70.928729 6.5587636,70.441279 6.4930173,69.829845 6.4272708,69.218409 6.4022318,68.481547 6.2838906,66.357971 6.165549,64.234396 5.953828,60.7252 5.6842708,55.294615 5.4147136,49.864031 5.0858067,42.513242 4.7570808,35.162935 l 15.5419982,0.118443 c -0.223534,4.812545 -0.446655,9.624682 -0.716212,15.305112 -0.269558,5.680428 -0.583942,12.227753 -0.768032,15.771481 -0.18409,3.543729 -0.236845,4.084269 -0.427507,4.597086 -0.190661,0.512818 -0.519976,0.999494 -1.400964,1.867335 -0.880988,0.867841 -2.314876,2.115487 -3.149855,2.792673 -0.834975,0.677189 -1.07155,0.783665 -1.321384,0.790241 z M 4.7256193,35.0667 3.2265697,29.250017 H 21.923975 L 20.365704,35.0667 Z"/>
    <path id="tooth_33_implant-2" style="fill:#656565;fill-opacity:1;stroke:#000000;stroke-width:0.842379;stroke-dasharray:none" d="m 17.134419,72.727098 c -0.165894,0.0041 -0.27361,-0.01713 -0.260946,-0.07773 0.03377,-0.161626 0.788439,-0.535693 -0.821702,-1.004918 C 14.441632,71.175227 10.272096,70.706122 8.0734967,70.426706 5.8748977,70.147292 5.6464517,70.058067 5.4695921,69.875204 5.2927324,69.69234 5.1677804,69.415788 5.1105605,69.183051 c -0.05722,-0.232738 -0.045863,-0.422436 0.042565,-0.671797 0.088429,-0.24936 0.254834,-0.557289 0.466371,-0.816149 0.211537,-0.258862 0.4678437,-0.467572 0.5996199,-0.403448 0.1317761,0.06413 0.1378272,0.400419 1.3602487,0.749525 1.2224214,0.349106 3.6614269,0.709418 5.6242119,1.025276 1.962786,0.315856 3.450799,0.588377 4.319484,0.790239 0.868686,0.201864 1.117583,0.333292 1.306579,0.558905 0.188997,0.225614 0.317751,0.544675 0.336824,0.843909 0.01907,0.299235 -0.0718,0.57968 -0.203575,0.795793 -0.131777,0.216111 -0.305224,0.368419 -0.803194,0.503384 -0.311231,0.08435 -0.748787,0.161459 -1.025276,0.168412 z m 1.754443,-4.548969 c -0.03529,0.0033 -0.06829,-0.004 -0.09624,-0.0259 -0.11178,-0.08736 -0.157116,-0.402557 -2.322601,-0.860566 C 14.30454,66.833652 10.019314,66.233539 7.7514787,65.888846 5.4836436,65.544154 5.2334825,65.454358 5.0402347,65.272571 4.8469868,65.090783 4.7104128,64.817337 4.6478908,64.585968 c -0.062522,-0.231367 -0.050356,-0.420202 0.046267,-0.668095 0.096623,-0.247892 0.2777981,-0.555109 0.5089366,-0.812448 0.2311384,-0.257337 0.5130041,-0.465343 0.6569908,-0.401596 0.1439869,0.06375 0.1504013,0.398772 1.4860949,0.745823 1.3356935,0.347051 3.9995919,0.705727 6.1442519,1.019723 2.144662,0.313999 3.770052,0.584014 4.719231,0.784689 0.949179,0.200674 1.222215,0.332769 1.428724,0.557054 0.206508,0.224285 0.347446,0.540884 0.368285,0.838358 0.02083,0.297472 -0.0781,0.575399 -0.222081,0.790239 -0.143989,0.21484 -0.334416,0.366262 -0.51819,0.512638 -0.137832,0.109781 -0.271681,0.215936 -0.377539,0.225783 z m 0.140652,-4.771049 c -0.0543,0.0038 -0.09838,-0.0023 -0.127697,-0.02406 -0.117252,-0.08705 0.0044,-0.407228 -2.18195,-0.866118 C 14.533535,62.058016 10.039617,61.459439 7.6607954,61.115941 5.2819734,60.772443 5.0190078,60.682674 4.8163025,60.501516 4.6135973,60.320357 4.4710337,60.047331 4.4054519,59.816765 c -0.065582,-0.230566 -0.055085,-0.41736 0.046267,-0.664394 0.1013515,-0.247035 0.2923958,-0.554151 0.5348461,-0.810598 0.2424503,-0.256445 0.5374189,-0.463272 0.6884523,-0.399746 0.1510336,0.06352 0.1590602,0.398124 1.5601221,0.743973 1.4010619,0.345848 4.1944416,0.703113 6.4440626,1.016023 2.249621,0.31291 3.954934,0.581006 4.950565,0.780986 0.995631,0.19998 1.282435,0.331696 1.499049,0.555204 0.216616,0.223508 0.363083,0.540065 0.384942,0.836506 0.02186,0.296443 -0.08216,0.572443 -0.233186,0.786539 -0.151035,0.214096 -0.349478,0.366153 -0.627379,0.514488 -0.208427,0.111252 -0.460766,0.220019 -0.623679,0.231334 z m 0.236887,-4.591534 c -0.05293,-2.42e-4 -0.09583,-0.0097 -0.125847,-0.03146 -0.120057,-0.0869 -0.02086,-0.366695 -2.272632,-0.805046 C 14.616145,57.540689 10.013244,56.943181 7.5775148,56.600284 5.1417857,56.257386 4.8739521,56.168549 4.6663975,55.987708 4.4588431,55.806867 4.3115936,55.534971 4.2444428,55.304808 c -0.067151,-0.230162 -0.055658,-0.417792 0.048118,-0.664394 0.103776,-0.2466 0.2995505,-0.552749 0.5478008,-0.808746 0.2482502,-0.255997 0.5504619,-0.463161 0.7051085,-0.399746 0.1546465,0.06341 0.1625569,0.396878 1.5971356,0.742122 1.4345786,0.345243 4.2942313,0.70366 6.5976683,1.016023 2.303437,0.312361 4.049559,0.579505 5.069009,0.779134 1.01945,0.199631 1.312415,0.330237 1.534212,0.553354 0.221797,0.223117 0.373663,0.538733 0.396045,0.834656 0.02238,0.295923 -0.08409,0.572817 -0.238737,0.786538 -0.154649,0.213721 -0.357822,0.363941 -0.629231,0.49228 -0.203556,0.09625 -0.446369,0.180246 -0.605171,0.179516 z m 0.32757,-4.758093 c -0.05088,0.002 -0.09294,-0.0079 -0.123997,-0.02961 -0.124261,-0.08667 -0.05968,-0.388234 -2.409582,-0.836506 C 14.710497,52.743064 9.9468024,52.149038 7.4257592,51.807029 4.9047163,51.46502 4.6258283,51.376678 4.411004,51.196305 4.1961797,51.015933 4.0455971,50.742971 3.9760945,50.513405 3.9065916,50.283839 3.9186519,50.096824 4.0260628,49.850861 4.1334737,49.604899 4.3354249,49.30115 4.5923703,49.045817 4.8493158,48.790484 5.1614745,48.58282 5.3215377,48.64607 c 0.1600632,0.06325 0.1678298,0.395923 1.6526559,0.740272 1.4848261,0.344348 4.4467374,0.700768 6.8308544,1.012321 2.384117,0.311553 4.189666,0.578172 5.244823,0.777284 1.055157,0.199113 1.360168,0.330814 1.589733,0.553354 0.229566,0.222539 0.383983,0.537648 0.407149,0.832805 0.02317,0.295156 -0.08607,0.57152 -0.24614,0.784687 -0.160066,0.213168 -0.371266,0.362467 -0.632933,0.501534 -0.196249,0.104301 -0.421073,0.203116 -0.573709,0.209127 z m 0.24799,-4.493448 c -0.04006,0.0032 -0.0756,-0.0043 -0.107339,-0.0259 C 19.6077,49.451571 19.556255,49.136793 17.097405,48.683088 14.638557,48.229384 9.7713393,47.636534 7.1962752,47.295079 4.6212109,46.953626 4.3380244,46.864435 4.1185967,46.684355 3.8991691,46.504276 3.7435752,46.232499 3.6725833,46.003305 c -0.070992,-0.229193 -0.057893,-0.415127 0.051818,-0.660692 0.1097126,-0.245564 0.3168111,-0.550125 0.5792624,-0.805045 0.2624514,-0.254919 0.5804798,-0.461044 0.7439728,-0.397895 0.1634931,0.06314 0.1711756,0.39463 1.6878188,0.73842 1.5166432,0.343791 4.5418527,0.699423 6.9770567,1.01047 2.435205,0.311048 4.281799,0.578496 5.359565,0.777286 1.077767,0.198789 1.38671,0.329324 1.621195,0.551502 0.234485,0.222178 0.394591,0.536277 0.418253,0.830954 0.02366,0.294678 -0.0882,0.570016 -0.251692,0.782838 -0.163496,0.212822 -0.379845,0.362086 -0.588516,0.507085 -0.156503,0.10875 -0.309158,0.216029 -0.429357,0.225783 z m 0.149906,-4.711828 c -0.04091,0.0032 -0.07864,-0.0043 -0.111042,-0.0259 -0.129584,-0.0864 -0.182319,-0.398336 -2.692736,-0.851312 C 14.677671,43.521987 9.7106035,42.927859 7.081533,42.586953 4.4524626,42.246048 4.1631105,42.15787 3.9390809,41.978079 3.7150514,41.79829 3.5562949,41.527707 3.483814,41.29888 3.4113332,41.070056 3.4236193,40.883357 3.5356329,40.638188 3.6476464,40.393019 3.8598944,40.089504 4.12785,39.834994 c 0.2679557,-0.25451 0.5918563,-0.460942 0.7587783,-0.397895 0.1669218,0.06305 0.176381,0.395182 1.7248323,0.73842 1.5484513,0.343238 4.6369844,0.698072 7.1232614,1.00862 2.486277,0.310547 4.370235,0.576964 5.470605,0.775434 1.10037,0.19847 1.416955,0.329681 1.656357,0.551502 0.239403,0.221821 0.401498,0.534901 0.425657,0.829104 0.02416,0.294204 -0.09032,0.568507 -0.257244,0.780986 -0.166925,0.21248 -0.386574,0.362319 -0.599621,0.507086 -0.159786,0.108576 -0.315892,0.214194 -0.43861,0.223932 z m 0.318316,-4.698873 c -0.05721,0.0025 -0.104515,-0.0062 -0.1388,-0.02776 -0.137145,-0.08601 -0.05625,-0.3905 -2.64462,-0.838358 C 14.9384,38.839325 9.6807258,38.249652 6.8983159,37.910278 4.115906,37.570903 3.8097426,37.482238 3.5726466,37.303254 3.3355506,37.124273 3.1681785,36.853705 3.0914701,36.625907 c -0.076709,-0.227798 -0.063026,-0.412923 0.05552,-0.656991 0.1185466,-0.244068 0.3419452,-0.546126 0.6255293,-0.799493 0.283584,-0.253367 0.6265369,-0.458809 0.8031945,-0.396045 0.1766576,0.06277 0.1860049,0.393022 1.824769,0.734719 1.6387641,0.341697 4.9083771,0.695765 7.5396651,1.004919 2.631288,0.309153 4.624373,0.574153 5.788922,0.771732 1.16455,0.197579 1.499227,0.326976 1.752592,0.547801 0.253366,0.220825 0.425998,0.53252 0.451567,0.825403 0.02557,0.292882 -0.09539,0.56761 -0.272051,0.779136 -0.176659,0.211525 -0.409311,0.360502 -0.703257,0.501533 -0.220461,0.105774 -0.476134,0.206863 -0.647738,0.214679 z"/>
  </g>
</svg>