<?xml version="1.0" encoding="UTF-8" standalone="no"?>
<svg
   width="43.914047"
   height="67.91317"
   viewBox="0 0 43.914047 67.913171"
   version="1.1"
   id="svg1"
   xml:space="preserve"
   xmlns="http://www.w3.org/2000/svg"
   xmlns:svg="http://www.w3.org/2000/svg"><defs
     id="defs1" /><g id="tooth_17_root"><path
     id="tooth_17_root_2"
     style="fill:#ffdf5d;fill-opacity:1;stroke:#000000;stroke-width:0.999999;stroke-dasharray:none"
     d="m 21.485912,2.5203238 c -0.277828,0.010661 -0.551622,0.083157 -0.809538,0.1810115 -0.687773,0.2609322 -1.254729,0.7011055 -1.537922,0.9208437 -0.183237,0.1421743 -0.330732,0.2907073 -0.587346,0.5725736 -0.06491,0.3440893 -0.132951,0.6855134 -0.195127,1.0605431 -0.175311,1.0575008 -0.282203,2.210819 -0.322656,3.996223 -0.04045,1.7854003 -0.01309,4.2026803 0.08113,6.2078153 0.0944,2.005134 0.256106,3.599231 0.633719,5.13746 0.377601,1.538179 0.970241,3.020577 1.765905,3.817157 0.795663,0.79658 1.793456,0.907608 2.643066,0.413196 0.84961,-0.494412 1.551034,-1.593045 2.076971,-2.705463 0.525934,-1.112455 0.876466,-2.239532 1.308007,-3.736509 0.06333,-0.219696 0.132876,-0.488057 0.199015,-0.722116 -0.17202,-0.414323 -0.348341,-0.843226 -0.510065,-1.241562 C 25.651183,14.993185 25.165726,13.619208 24.896014,12.108489 24.626299,10.59777 24.572536,8.9496285 24.289346,7.2878409 24.006134,5.6260494 23.493365,3.9504556 22.832566,3.1538869 22.41957,2.6560291 21.948956,2.5024816 21.48592,2.5203162 Z" /><path
     id="tooth_17_root_1"
     style="fill:#fff5d0;fill-opacity:1;stroke:#000000;stroke-width:0.999999;stroke-dasharray:none"
     d="m 16.765875,0.50942462 c -0.153178,-0.0144687 -0.308113,-0.012565 -0.459828,0.007996 -0.606856,0.0823956 -1.173123,0.46657104 -1.968775,1.23566048 -0.795656,0.7690857 -1.819362,1.9226513 -2.938673,3.3921609 -1.119306,1.4695134 -2.3328603,3.2546546 -3.3038311,5.38339 -0.9709708,2.128732 -1.6999121,4.602113 -2.2663102,7.293938 -0.5664018,2.691828 -0.9704361,5.60229 -1.1592405,8.513857 -0.188808,2.911567 -0.1628609,5.822829 -0.365166,8.11639 -0.1635714,1.854511 -0.471336,3.278501 -0.6994087,4.208727 0.096984,-0.18086 0.1789751,-0.312601 0.2337855,-0.393512 0.1361662,-0.20142 0.1360914,-0.20142 1.6808967,-0.570639 1.5447903,-0.368953 4.6345433,-1.10743 7.7050753,-1.534714 3.070535,-0.427285 6.121487,-0.543339 9.134804,-0.562758 3.013321,-0.01904 5.989048,0.05787 8.773508,0.407295 2.784459,0.349534 5.377422,0.971119 6.771887,1.416679 1.048977,0.335066 1.420559,0.571592 1.767839,1.143183 -0.03365,-0.694842 -0.107752,-1.391626 -0.183537,-2.327677 C 39.381,34.907249 39.272426,33.094545 39.24547,30.828474 39.21855,28.562404 39.27239,25.843386 39.16434,23.398779 39.056437,20.954133 38.786733,18.783956 38.49005,16.46295 38.193379,14.14194 37.870352,11.670147 37.371383,9.7199402 36.872414,7.7697373 36.198302,6.3416997 35.416131,5.0232514 34.633965,3.7048031 33.742682,2.4953805 32.974002,1.987227 32.205325,1.4790698 31.558225,1.6717324 31.032277,2.1249466 30.506332,2.5781607 30.101909,3.2929391 29.737794,4.3916378 29.373675,5.4903365 29.051097,6.9716266 28.767896,8.4960755 28.484684,10.020524 28.24129,11.586225 27.863692,13.302952 c -0.377597,1.716726 -0.889992,3.585356 -1.321533,5.082345 -0.43154,1.49697 -0.782073,2.624046 -1.308006,3.736501 -0.525937,1.112418 -1.227361,2.211052 -2.076971,2.705464 -0.849611,0.494412 -1.847403,0.383383 -2.643067,-0.413197 -0.795663,-0.79658 -1.388304,-2.278978 -1.765905,-3.817157 -0.377605,-1.538206 -0.539318,-3.132318 -0.633718,-5.137452 -0.0944,-2.005135 -0.121623,-4.422415 -0.08113,-6.2078155 0.04045,-1.7854039 0.147345,-2.9387221 0.322656,-3.996223 C 18.531329,4.1979166 18.775232,3.2365681 18.76175,2.5224065 18.748289,1.8082412 18.478349,1.3408515 18.019837,0.99750458 17.675945,0.73999915 17.225486,0.55267091 16.765923,0.50953884 Z" /></g><path
     style="display:inline;fill:#ffffff;fill-opacity:1;stroke:#000000;stroke-width:0.999999;stroke-dasharray:none"
     d="m 5.519822,37.696783 c 1.5447903,-0.368952 4.634356,-1.107048 7.704892,-1.534333 3.070535,-0.427284 6.121905,-0.543796 9.135223,-0.563214 3.013321,-0.01904 5.988405,0.05826 8.772864,0.407866 2.784463,0.349534 5.378122,0.971118 6.772587,1.416679 1.394466,0.445561 1.589779,0.715327 2.125695,1.832161 0.53592,1.116796 1.412457,3.08066 1.999081,5.037747 0.586629,1.957049 0.883308,3.907206 1.07885,5.78186 0.195538,1.874653 0.289942,3.673764 0.303439,5.308084 0.01346,1.634282 -0.05391,3.103772 -0.397817,4.552702 -0.343892,1.448891 -0.964211,2.877184 -1.867757,4.017092 -0.903546,1.139908 -2.090244,1.991355 -3.290465,2.526965 -1.200221,0.53561 -2.413906,0.755382 -3.843392,0.86523 -1.429487,0.110039 -3.074686,0.110039 -4.665997,-0.192282 -1.591309,-0.30232 -3.12864,-0.906428 -4.50418,-1.277246 -1.37554,-0.370857 -2.589191,-0.508158 -3.587129,-0.46696 -0.997939,0.04112 -1.780098,0.260818 -2.656668,0.563063 -0.876571,0.30232 -1.847508,0.686693 -3.223048,0.892682 -1.375539,0.20599 -3.155607,0.233404 -4.787372,0.247111 C 8.9568619,67.12722 7.4734809,67.12722 6.1249051,66.603795 4.7763331,66.081892 3.5626598,65.038163 2.6860968,63.74721 1.8095338,62.456218 1.2701259,60.918077 0.94647155,59.352445 0.62280587,57.786776 0.51492728,56.193692 0.50143779,54.449524 0.4879782,52.705318 0.56884788,50.810103 0.78461255,49.189529 1.0003771,47.568916 1.3509993,46.223057 1.7690578,44.61619 c 0.4180585,-1.606867 0.9035233,-3.474591 1.2824294,-4.609854 0.378906,-1.135262 0.6512084,-1.53795 0.7873708,-1.739332 0.1361661,-0.20142 0.1361661,-0.20142 1.6809565,-0.570259 z"
     id="tooth_17_crown" /></svg>
