<?xml version="1.0" encoding="UTF-8" standalone="no"?>
<svg
   width="24.36677"
   height="92.072884"
   viewBox="0 0 24.36677 92.072883"
   version="1.1"
   id="svg1"
   xml:space="preserve"
   xmlns="http://www.w3.org/2000/svg"
   xmlns:svg="http://www.w3.org/2000/svg"><defs
     id="defs1" /><path
     id="tooth_43_root"
     style="fill:#fff5d0;fill-opacity:1;stroke:#000000;stroke-width:1;stroke-dasharray:none"
     d="m 22.067459,26.664095 c -0.382019,1.439925 -0.729751,2.54606 -1.84092,3.375595 -1.23014,0.91834 -3.395964,1.52189 -4.900186,1.871374 -1.504222,0.349598 -2.34691,0.444939 -2.768085,0.492895 -0.421175,0.04788 -0.420103,0.04902 -1.616792,-0.0342 C 9.7447844,32.28768 7.3514968,32.123141 5.6600835,31.698151 3.9686665,31.273276 2.9778857,30.587533 2.2023687,28.4836 2.1003157,28.206582 2.0036379,27.902888 1.9092955,27.580308 c 0.062166,0.720817 0.1598075,1.549744 0.3946219,2.40356 0.3543124,1.288382 0.9819954,2.453341 1.3964941,4.406528 0.414495,1.95315 0.6153387,4.694111 0.7624203,8.086463 0.1470926,3.392353 0.2395074,7.436667 0.2528525,11.925502 0.013345,4.488874 -0.052454,9.422079 -0.3064924,13.266704 -0.2540388,3.844664 -0.6952796,6.600026 -0.9961263,9.690813 -0.3008578,3.090824 -0.461555,6.516465 -0.4214382,8.887688 0.040109,2.371184 0.2806548,3.688104 0.6149162,4.469341 0.3342576,0.781237 0.7623461,1.028198 1.4041563,0.754067 0.641814,-0.273978 1.4982097,-1.070377 2.5611986,-3.181187 1.0629889,-2.110773 2.3323487,-5.535957 3.6895045,-10.093382 1.357159,-4.557388 2.802085,-10.246217 3.965358,-15.941241 1.16327,-5.695024 2.045155,-11.397344 2.787243,-16.208304 0.742087,-4.810959 1.342898,-8.729874 2.024822,-11.560248 0.578417,-2.400787 2.028633,-7.822517 2.028633,-7.822517 z" /><path
     style="fill:#ffffff;fill-opacity:1;stroke:#000000;stroke-width:1;stroke-dasharray:none"
     d="M 10.940676,32.369797 C 9.7439874,32.287718 7.3505997,32.123179 5.6591864,31.698189 3.9677694,31.273276 2.9783527,30.587989 2.2028357,28.484018 1.4273188,26.380085 0.86574963,22.857622 0.63176559,19.403595 0.39778154,15.949569 0.49138257,12.564209 0.79891294,10.364327 1.1064433,8.1644448 1.6278993,7.1501933 3.4463616,5.6904705 5.2648202,4.2307478 8.380174,2.3255919 10.519519,1.352418 c 2.139342,-0.97313581 3.302578,-1.01432755 4.519336,-0.65112586 1.216758,0.36327776 2.48697,1.13075886 3.924352,2.27523556 1.437382,1.1445148 3.041848,2.6658731 3.897584,3.8514656 0.85574,1.1855925 0.962708,2.0353811 0.996141,4.2215827 0.03336,2.186203 -0.0067,5.708628 -0.320875,8.532162 -0.314203,2.823496 -0.902529,4.947949 -1.34377,6.626968 -0.441241,1.679058 -0.735389,2.912568 -1.965529,3.830908 -1.23014,0.91834 -3.396172,1.521396 -4.900394,1.87088 -1.504222,0.349598 -2.346606,0.445395 -2.767777,0.493313 -0.421175,0.04788 -0.421205,0.04826 -1.617897,-0.0342 z"
     id="tooth_43_crown" /></svg>
