<?xml version="1.0" encoding="UTF-8" standalone="no"?>
<svg
   width="26.650381"
   height="97.166122"
   viewBox="0 0 26.650381 97.166124"
   version="1.1"
   id="svg1"
   xml:space="preserve"
   xmlns="http://www.w3.org/2000/svg"
   xmlns:svg="http://www.w3.org/2000/svg"><defs
     id="defs1" /><path
     id="tooth_11_root"
     style="fill:#fff5d0;fill-opacity:1;stroke:#000000;stroke-width:0.999999;stroke-dasharray:none"
     d="M 11.299877,0.50148421 C 10.756237,0.52579899 10.291066,0.89395127 9.9395154,1.685344 9.4707799,2.7405292 9.2036085,4.5493585 8.8420099,7.8245284 8.4804075,11.099698 8.0249423,15.840224 7.4624593,21.856106 6.8999725,27.871992 6.2306425,35.161618 5.5610154,41.424143 4.891392,47.686672 4.2214085,52.922703 3.4312485,56.883048 c -0.79016,3.960307 -1.7013726,6.64595 -2.183493,8.783712 -0.1709433,0.757899 -0.281403,1.443044 -0.253259,2.0595 0.2060677,-1.383815 0.487816,-2.52129 0.8595844,-3.382755 0.7323422,-1.696982 1.8172457,-2.337638 3.7529971,-2.795706 1.9357477,-0.458067 4.722135,-0.73271 6.114929,-0.869747 1.392795,-0.13715 1.393103,-0.13753 2.127848,-0.105997 0.734748,0.03039 2.20283,0.09612 4.263358,0.592901 2.060528,0.496819 4.712377,1.426479 6.038191,2.414837 0.239484,0.178561 0.435007,0.360542 0.596705,0.555592 -0.0074,-0.05889 -0.01485,-0.124613 -0.02228,-0.18274 -0.254333,-1.548472 -0.709576,-2.64446 -1.258681,-5.357799 C 22.91808,55.881545 22.275223,51.551502 21.458266,46.39895 20.641347,41.246406 19.650775,35.272026 18.95434,30.146897 18.257943,25.021768 17.855647,20.746737 17.440504,17.348261 17.025324,13.949781 16.59674,11.428149 16.10125,9.0985466 15.605722,6.7689442 15.04384,4.6317438 14.307251,3.1517643 13.570665,1.6717847 12.66064,0.84807993 11.870488,0.58771808 c -0.197528,-0.06508 -0.38864,-0.0945237 -0.569857,-0.0863934 z" /><path
     style="fill:#ffffff;fill-opacity:1;stroke:#000000;stroke-width:0.999999;stroke-dasharray:none"
     d="m 11.721536,60.678204 c -1.392795,0.137151 -4.178417,0.41111 -6.1141684,0.869178 -1.9357477,0.458067 -3.021598,1.100091 -3.7539402,2.79711 -0.7323422,1.696982 -1.11112801,4.448844 -1.26264529,8.092262 -0.15152471,3.643417 -0.0757438,8.178122 -0.0378719,11.937794 0.0378719,3.759672 0.0378719,6.744083 0.22726849,8.565792 0.1893966,1.82167 0.5681898,2.480563 2.0644379,2.945659 1.4962517,0.465096 4.1098766,0.736433 7.7463314,0.775185 3.636456,0.03875 8.29552,-0.155007 11.00388,-0.600765 2.70836,-0.44572 3.465947,-1.143402 3.939457,-3.352703 0.473473,-2.209302 0.662869,-5.930108 0.606062,-10.523131 -0.05681,-4.593023 -0.359783,-10.057959 -0.511382,-13.313745 -0.151488,-3.255787 -0.151488,-4.302272 -1.477301,-5.290629 -1.325814,-0.988358 -3.977329,-1.91855 -6.037857,-2.415407 -2.060528,-0.496819 -3.529988,-0.560266 -4.264736,-0.591989 -0.734744,-0.03039 -0.73474,-0.03039 -2.127535,0.105237 z"
     id="tooth_11_crown" /></svg>
