<?xml version="1.0" encoding="UTF-8" standalone="no"?>
<svg
   width="42.620834"
   height="62.89357"
   viewBox="0 0 42.620835 62.89357"
   version="1.1"
   id="svg1"
   xml:space="preserve"
   xmlns="http://www.w3.org/2000/svg"
   xmlns:svg="http://www.w3.org/2000/svg"><defs
     id="defs1" /><g id="tooth_18_root"><path
     id="tooth_18_root_2"
     style="fill:#ffdf5d;fill-opacity:1;stroke:#000000;stroke-width:1;stroke-dasharray:none"
     d="m 23.024193,1.7010167 c -0.409617,0.00991 -0.827088,0.211565 -1.239938,0.6083683 -0.943657,0.9069747 -1.860456,2.8319948 -2.723229,5.1681815 -0.862774,2.3361868 -1.671036,5.0835825 -2.479877,7.8320185 l -0.258802,0.313175 c 0.126135,0.748993 0.253035,1.519664 0.426833,2.388211 0.276356,1.381097 0.680636,2.989189 1.294016,4.191638 0.61338,1.202449 1.436278,1.997618 2.211417,2.423644 0.775138,0.425987 1.503435,0.481879 2.130299,0.261741 0.626864,-0.219832 1.152607,-0.714436 1.678359,-1.305355 0.525752,-0.590919 1.051074,-1.278838 1.529643,-2.35076 0.47857,-1.071883 0.910527,-2.52853 1.207105,-3.744734 0.29658,-1.216203 0.458469,-2.191581 0.714607,-3.311576 0.07597,-0.332187 0.168744,-0.693211 0.256873,-1.045446 -8.45e-4,-0.0061 -0.0011,-0.01372 -0.0019,-0.01981 C 27.419064,10.636777 27.095975,9.2642216 26.583705,7.5326961 26.071435,5.8011667 25.370334,3.711981 24.534523,2.6125862 24.06438,1.9941712 23.550845,1.6883983 23.024193,1.7010167 Z" /><path
     id="tooth_18_root_1"
     style="fill:#fff5d0;fill-opacity:1;stroke:#000000;stroke-width:1;stroke-dasharray:none"
     d="M 12.054022,0.5019963 C 11.845074,0.4939953 11.627516,0.5099973 11.405082,0.5512205 10.515347,0.7161139 9.5447031,1.2924217 8.7088922,2.2956045 7.8730809,3.2987912 7.1715945,4.7283957 6.524515,6.5423756 5.8774354,8.3563592 5.2834165,10.554517 4.8789893,12.492186 c -0.4044275,1.93765 -0.618502,3.615577 -0.7802728,5.937991 -0.1617707,2.322452 -0.270298,5.290229 -0.2433512,8.024952 0.026947,2.734724 0.1895061,5.234794 0.2703915,6.485325 0.039863,0.616255 0.058722,0.926382 0.036702,1.130137 0.056334,-0.05677 0.1119397,-0.113917 0.1776847,-0.167255 0.7279574,-0.590919 2.0760857,-0.975455 4.044285,-1.236434 1.9682005,-0.261361 4.5573555,-0.400118 7.0108675,-0.496128 2.453511,-0.09487 4.771129,-0.149349 7.682981,-0.108202 2.911852,0.04115 6.417837,0.177923 9.073567,0.439017 2.655733,0.26098 4.462139,0.646353 5.36534,0.838754 0.903224,0.192401 0.903141,0.192401 0.956026,0.236216 0.03027,0.02667 0.09564,0.103248 0.195056,0.257931 0.002,-0.170684 -6.35e-4,-0.347846 -0.0056,-0.535522 -0.04044,-1.470401 -0.243493,-3.464362 -0.270403,-5.250872 -0.02691,-1.786511 0.121616,-3.365418 0.108161,-5.660363 -0.01346,-2.294982 -0.187849,-5.304706 -0.363097,-7.585935 C 37.96208,12.520589 37.785823,10.966971 37.455557,9.4072156 37.125281,7.8474642 36.641053,6.2811788 36.155744,5.0718487 35.670432,3.8625224 35.183935,3.0109516 34.732327,2.4887409 34.280719,1.9665226 33.863555,1.7737558 33.310839,1.6638014 32.758126,1.5538852 32.071516,1.5261109 31.613165,1.5673342 c -0.45835,0.041223 -0.689244,0.1517492 -0.938643,0.5433977 -0.249398,0.3916523 -0.518382,1.0656998 -0.788,1.945205 -0.269618,0.879509 -0.538565,1.9641517 -0.774479,3.0772813 -0.235914,1.1131296 -0.43825,2.2528485 -0.714606,3.4553018 -0.276356,1.202453 -0.626498,2.467203 -0.882635,3.587209 -0.256137,1.119988 -0.418027,2.095366 -0.714606,3.311569 -0.29658,1.216203 -0.728536,2.67285 -1.207106,3.744734 -0.478569,1.071921 -1.003891,1.75984 -1.529643,2.350759 -0.525752,0.590919 -1.051495,1.085523 -1.678359,1.305356 -0.626864,0.219832 -1.355161,0.164207 -2.130299,-0.261742 -0.775321,-0.42633 -1.598218,-1.221499 -2.211598,-2.423948 -0.613376,-1.20245 -1.017656,-2.810541 -1.294013,-4.191638 C 16.472821,16.629723 16.324564,15.475545 16.08865,14.307461 15.852738,13.139347 15.530179,11.956964 15.422328,10.692668 15.314478,9.4283721 15.422015,8.0823001 15.314172,6.8180081 15.206327,5.55372 14.882699,4.3718861 14.613085,3.3961804 14.343469,2.4204785 14.126835,1.6503372 13.614568,1.1418688 13.230367,0.76051091 12.680873,0.52583117 12.054022,0.5019963 Z M 3.4941981,35.242028 c -0.2037234,0.343655 -0.3906268,0.730133 -0.4210382,1.078931 -0.00275,0.03048 0.00199,0.06172 0.00193,0.09258 0.1676572,-0.44557 0.2927749,-0.825724 0.4191067,-1.171474 z" /></g><path
     style="display:inline;fill:#ffffff;fill-opacity:1;stroke:#000000;stroke-width:1;stroke-dasharray:none"
     d="m 37.516578,33.339505 c -0.903201,-0.192401 -2.709622,-0.577165 -5.36535,-0.838259 -2.655732,-0.260979 -6.16063,-0.398518 -9.072482,-0.439741 -2.911852,-0.04115 -5.23049,0.01524 -7.684002,0.110107 -2.453512,0.09601 -5.041738,0.233548 -7.0099382,0.494718 -1.9681993,0.26098 -3.3162393,0.645896 -4.0441967,1.236815 -0.7279578,0.590919 -0.835802,1.387954 -1.2806734,2.556038 -0.4448709,1.168122 -1.2267321,2.707216 -1.7120376,4.356303 -0.48530542,1.649048 -0.67403196,3.408013 -0.76839746,4.850982 -0.0943663,1.442932 -0.0943663,2.569755 -0.0539236,3.985217 0.0404427,1.415462 0.12132431,3.119449 0.28309503,4.507404 0.16177073,1.387992 0.40442043,2.459875 0.97062063,3.531759 0.5662002,1.071921 1.4558995,2.143766 2.5748145,2.927086 1.1189145,0.783282 2.4669471,1.278 4.0172368,1.539132 1.5502897,0.26098 3.302754,0.288793 4.772186,0.16497 1.469431,-0.123441 2.655661,-0.39848 3.558887,-0.714551 0.903227,-0.316223 1.523297,-0.673365 2.278232,-0.920743 0.754936,-0.247264 1.644605,-0.384764 2.386037,-0.39848 0.741433,-0.01524 1.334593,0.09639 2.035621,0.329939 0.701027,0.233548 1.509826,0.590919 2.520897,0.838259 1.011071,0.247264 2.22428,0.384764 3.693704,0.508472 1.469422,0.123823 3.194898,0.233548 4.569953,0.110107 1.375055,-0.123442 2.399547,-0.480927 3.262313,-0.948175 0.86277,-0.467211 1.563757,-1.044376 2.224314,-1.84145 0.66056,-0.797035 1.280655,-1.813942 1.685078,-2.789662 0.404423,-0.975683 0.593155,-1.910143 0.687518,-3.284381 0.09437,-1.374239 0.09437,-3.188181 0.02691,-4.947184 C 42.005604,46.505185 41.8708,44.801159 41.587686,43.014649 41.304576,41.228177 40.873217,39.359296 40.373318,37.808848 39.873415,36.2584 39.30502,35.0265 38.968031,34.366889 c -0.337004,-0.65965 -0.442552,-0.746974 -0.495437,-0.790711 -0.05288,-0.04382 -0.05285,-0.0442 -0.956071,-0.236597 z"
     id="tooth_18_crown" /></svg>
