<svg xmlns="http://www.w3.org/2000/svg" xmlns:svg="http://www.w3.org/2000/svg" width="45.602448" height="69.349335" viewBox="0 0 45.602447 69.349333" version="1.1" id="svg1" xml:space="preserve" xmlns:sodipodi="http://sodipodi.sourceforge.net/DTD/sodipodi-0.dtd" sodipodi:docname="porto_tooth_16.svg" xmlns:inkscape="http://www.inkscape.org/namespaces/inkscape" inkscape:version="1.4 (86a8ad7, 2024-10-11)">
  <g id="tooth_16_root">
    <path id="tooth_16_root_2" style="fill:#ffdf5d;fill-opacity:1;stroke:#000000;stroke-width:0.999999;stroke-dasharray:none" d="M 18.779318,1.254724 C 18.166979,1.222444 17.343001,1.629851 16.600983,2.433938 15.889562,3.20487 15.24616,4.343052 14.161959,5.77375 c 0.0493,0.201695 0.09749,0.381269 0.148129,0.593487 0.54585,2.287829 1.188247,5.179721 2.046016,8.099333 0.857765,2.919617 1.931262,5.867025 2.974227,7.800658 1.042961,1.933625 2.056648,2.853861 3.021623,3.217617 0.96498,0.363681 1.880743,0.172645 2.835985,-0.717603 0.464841,-0.433227 0.939588,-1.035008 1.423916,-1.794046 -0.290832,-0.626251 -0.600817,-1.305234 -0.945986,-2.160593 -1.042957,-2.584554 -2.271523,-6.546804 -3.20727,-9.74403 C 21.522856,7.871351 20.878483,5.440624 20.410611,3.842009 19.942735,2.243398 19.651992,1.477338 19.028168,1.295453 18.950208,1.272563 18.866816,1.259423 18.779337,1.254733 Z"/>
    <path id="tooth_16_root_1" style="fill:#fff5d0;fill-opacity:1;stroke:#000000;stroke-width:0.999999;stroke-dasharray:none" d="M 10.607109,0.502197 C 10.37666,0.512707 10.150538,0.557517 9.9336597,0.634083 9.0661452,0.940378 8.364439,1.744649 7.6723787,2.874202 6.9803185,4.003755 6.2971437,5.459094 5.7902792,7.35444 c -0.5068607,1.895347 -0.838825,4.229689 -1.1020026,6.431368 -0.2631623,2.201679 -0.4574767,4.269228 -0.554953,6.528346 -0.097491,2.259106 -0.096918,4.710141 -0.1066636,7.017093 -0.00955,2.306989 -0.029045,4.471508 0.029809,6.328569 0.05851,1.857061 0.1943716,3.407076 0.1066636,4.84292 -0.072727,1.190426 -0.2879651,2.210946 -0.4522562,2.932528 0.093746,-0.239452 0.2825383,-0.72237 0.3159782,-0.806816 0.068217,-0.17227 0.068026,-0.171894 1.3449175,-0.574082 1.2768874,-0.402076 3.830777,-1.206752 6.8134699,-1.82895 2.982695,-0.622236 6.394553,-1.062556 9.55268,-1.186973 3.158131,-0.124605 6.061488,0.06718 9.12215,0.612853 3.060663,0.545671 6.276937,1.444326 8.310456,2.212972 1.739802,0.657628 2.611421,1.223416 3.24874,2.139261 0.214665,-1.08864 0.118778,-2.075908 -0.01758,-4.065154 -0.175454,-2.555861 -0.408934,-6.768101 -0.418687,-10.721562 -0.0099,-3.953423 0.204423,-7.647559 0.282424,-10.777772 0.07796,-3.130217 0.01873,-5.696895 -0.215276,-7.821991 C 41.816222,6.491954 41.406842,4.808713 40.539339,3.535572 39.671832,2.262427 38.345794,1.399441 37.332068,1.341999 36.318347,1.284579 35.61747,2.032257 34.681731,3.946745 c -0.935744,1.914484 -2.106201,4.996346 -3.236893,7.982967 -1.130688,2.986618 -2.221573,5.876821 -3.264538,8.11679 -1.042965,2.23998 -2.03676,3.830492 -2.992002,4.72074 -0.955241,0.890248 -1.871005,1.081359 -2.835984,0.717603 C 21.387338,25.121164 20.373651,24.200853 19.33069,22.267228 18.287725,20.333595 17.214229,17.386187 16.356463,14.46657 15.498694,11.546958 14.856297,8.655066 14.310447,6.367237 13.764594,4.079404 13.315288,2.396486 12.574493,1.45837 12.018894,0.754785 11.298764,0.470791 10.607476,0.502197 Z"/>
  </g>
  <path style="display:inline;fill:#ffffff;fill-opacity:1;stroke:#000000;stroke-width:0.999999;stroke-dasharray:none" d="m 5.3714017,40.053427 c 1.2768836,-0.402038 3.8306508,-1.206151 6.8133433,-1.828349 2.982696,-0.622198 6.394152,-1.062518 9.552279,-1.186935 3.158127,-0.124605 6.062745,0.06681 9.123408,0.612627 3.060662,0.545634 6.277177,1.445415 8.310696,2.214061 2.033523,0.768646 2.883939,1.406082 3.556501,2.631374 0.672562,1.225293 1.167232,3.038292 1.502303,4.978672 0.335087,1.940381 0.510518,4.007994 0.666478,6.066074 0.155963,2.05808 0.292436,4.106551 0.136473,5.791305 -0.155964,1.684753 -0.604322,3.005714 -1.218408,4.183153 -0.614082,1.177402 -1.393832,2.211171 -2.271099,3.072708 -0.877264,0.861537 -1.851962,1.550728 -3.577249,1.924055 -1.725292,0.373438 -4.201031,0.430749 -6.150496,0.19141 -1.949461,-0.239451 -3.37252,-0.775364 -4.844368,-1.14869 -1.471844,-0.373439 -2.99238,-0.583916 -4.347257,-0.497743 -1.354873,0.08595 -2.544018,0.469031 -4.045102,0.842358 -1.50108,0.373439 -3.314037,0.737044 -5.166029,0.823217 C 11.560883,68.808671 9.669951,68.61726 8.1493728,68.234513 6.6287946,67.851616 5.478631,67.277309 4.4454152,66.367882 3.4121994,65.458493 2.4959964,64.214134 1.8721726,62.95056 1.2483449,61.686985 0.9169462,60.404307 0.7122521,58.537638 0.50756183,56.671007 0.42959914,54.220535 0.57577918,52.239019 0.72199744,50.257541 1.0923814,48.745133 1.6479802,47.03163 c 0.5555988,-1.713465 1.2963742,-3.627912 1.734987,-4.757424 0.4386165,-1.129512 0.5750933,-1.474164 0.6433259,-1.646471 0.068217,-0.17227 0.068217,-0.17227 1.3451124,-0.574345 z" id="tooth_16_crown"/>
  	 <g id="tooth_16_implant">
  <path id="tooth_16_implant-1" style="fill:#9a9a9a;fill-opacity:1;stroke:#000000;stroke-width:0.731885;stroke-dasharray:none" d="M 22.894926,0.64797354 C 22.677862,0.64226255 22.449809,0.72275837 21.941425,1.0483471 21.433041,1.373941 20.64482,1.944917 19.925083,2.6418044 19.205345,3.3386919 18.553384,4.160933 18.182088,4.7835663 17.810792,5.4061981 17.719849,5.8297102 17.662727,6.3609434 17.605603,6.892178 17.58385,7.5323875 17.481031,9.3774186 17.378213,11.222448 17.194262,14.27135 16.960062,18.989615 16.725862,23.70788 16.440098,30.178093 16.15449,36.564275 H 29.657874 C 29.463661,32.382982 29.269807,28.015524 29.035606,23.080185 28.801406,18.144848 28.528258,12.456323 28.368315,9.3774186 28.208372,6.2985135 28.162537,5.8288751 27.996884,5.383323 27.831231,4.9377709 27.545113,4.5149306 26.779682,3.7609232 26.014251,3.0069151 24.768443,1.922921 24.042987,1.3345597 23.317533,0.74619629 23.11199,0.6536867 22.894926,0.64797354 Z M 5.0160078,36.564275 3.3371525,41.86895 H 42.286316 l -1.390048,-5.304675 z"/>
  <path id="tooth_16_implant-2" style="fill:#656565;fill-opacity:1;stroke:#000000;stroke-width:0.731885;stroke-dasharray:none" d="m 26.83249,3.1849601 c -0.144133,-0.00358 -0.23772,0.014879 -0.226718,0.067531 0.02934,0.1404261 0.685021,0.4654272 -0.71392,0.873105 -1.398941,0.4076785 -5.021567,0.8152523 -6.931779,1.0580173 -1.910214,0.2427642 -2.108695,0.3202855 -2.262356,0.4791632 -0.153661,0.1588777 -0.262225,0.3991549 -0.311939,0.6013647 -0.04972,0.2022097 -0.03984,0.3670251 0.03698,0.5836786 0.07683,0.216652 0.221407,0.4841898 0.405197,0.709096 0.183791,0.224908 0.406478,0.4062414 0.520969,0.350529 C 17.463419,7.8517233 17.468677,7.5595476 18.530756,7.256233 19.592835,6.9529184 21.71192,6.6398676 23.41725,6.3654406 25.122581,6.0910143 26.415415,5.8542398 27.170156,5.6788552 27.924897,5.50347 28.141147,5.3892812 28.305353,5.1932611 28.46956,4.997241 28.581425,4.7200298 28.597996,4.4600458 28.614569,4.200061 28.535615,3.9564018 28.421124,3.7686358 28.306631,3.5808714 28.155935,3.4485413 27.723283,3.3312794 27.452876,3.2579928 27.072713,3.1909989 26.83249,3.1849579 Z m 1.524317,3.952289 c -0.03066,-0.00285 -0.05934,0.00352 -0.08361,0.022506 -0.09712,0.075896 -0.136508,0.3497541 -2.01795,0.7476868 -1.881444,0.3979323 -5.604585,0.9193296 -7.574953,1.2188097 -1.970367,0.2994793 -2.187715,0.3774974 -2.355615,0.5354396 -0.1679,0.1579437 -0.28656,0.3955228 -0.34088,0.5965428 -0.05432,0.201019 -0.04375,0.365085 0.04019,0.580461 0.08395,0.215377 0.24136,0.482298 0.442181,0.705882 0.20082,0.223582 0.445713,0.404305 0.570814,0.34892 0.1251,-0.05539 0.130673,-0.346467 1.291167,-0.647995 1.160493,-0.301529 3.474973,-0.613159 5.338322,-0.885969 1.863351,-0.272812 3.275541,-0.5074089 4.100218,-0.6817622 0.824678,-0.1743525 1.0619,-0.2891203 1.241322,-0.4839862 C 29.187435,8.9989179 29.309886,8.7238465 29.327992,8.4653923 29.346095,8.2069389 29.260139,7.9654669 29.135041,7.778807 29.009939,7.5921467 28.844491,7.4605866 28.684822,7.3334106 28.565069,7.2380291 28.448777,7.1457983 28.356804,7.1372433 Z m 0.122202,4.1452399 c -0.04718,-0.0033 -0.08548,0.0019 -0.110947,0.0209 -0.101872,0.07563 0.0038,0.353812 -1.895747,0.75251 -1.899556,0.398697 -5.804015,0.91876 -7.870811,1.217202 -2.066797,0.298442 -2.29527,0.376437 -2.471386,0.533832 -0.176118,0.157397 -0.299981,0.394611 -0.356961,0.594934 -0.05697,0.200323 -0.04786,0.362616 0.04019,0.577247 0.08806,0.214631 0.254043,0.481464 0.464692,0.704273 0.210648,0.222808 0.466926,0.402505 0.598149,0.347312 0.131223,-0.05519 0.138197,-0.345903 1.355484,-0.646388 1.217287,-0.300484 3.644264,-0.610886 5.598807,-0.882753 1.954542,-0.271866 3.436173,-0.504796 4.30121,-0.678545 0.865036,-0.173749 1.11422,-0.288188 1.302421,-0.48238 0.188203,-0.19419 0.315459,-0.469225 0.33445,-0.726783 0.01899,-0.257558 -0.07138,-0.497357 -0.202599,-0.683369 -0.131225,-0.186014 -0.303638,-0.318126 -0.545088,-0.447005 -0.181087,-0.09666 -0.400328,-0.191159 -0.541871,-0.20099 z m 0.205816,3.989271 c -0.04599,2.11e-4 -0.08326,0.0085 -0.10934,0.02734 -0.104309,0.0755 -0.01812,0.318597 -1.974536,0.69945 -1.956415,0.380851 -5.955563,0.899986 -8.071802,1.197906 -2.116239,0.29792 -2.348942,0.375104 -2.529272,0.532225 -0.18033,0.15712 -0.308265,0.393352 -0.366607,0.593325 -0.05835,0.199972 -0.04835,0.362992 0.04181,0.577247 0.09016,0.214254 0.260259,0.480245 0.475947,0.702664 0.215688,0.222419 0.478259,0.402409 0.612621,0.347312 0.134361,-0.05509 0.141234,-0.34482 1.387642,-0.644778 1.246408,-0.29996 3.730965,-0.611363 5.732266,-0.882754 2.001299,-0.27139 3.518385,-0.503493 4.404116,-0.676937 0.88573,-0.173445 1.140268,-0.28692 1.332973,-0.480771 0.192704,-0.193851 0.32465,-0.468069 0.344096,-0.725175 0.01945,-0.257109 -0.07306,-0.497683 -0.207422,-0.68337 -0.134365,-0.185688 -0.310887,-0.316204 -0.546697,-0.427709 -0.176856,-0.08363 -0.387819,-0.156604 -0.525791,-0.155969 z m 0.284603,4.133985 c -0.04421,-0.0018 -0.08075,0.0069 -0.107732,0.02573 -0.107962,0.0753 -0.05185,0.33731 -2.093523,0.726784 -2.041663,0.389473 -6.180513,0.905582 -8.370876,1.20273 -2.190362,0.297149 -2.43267,0.373903 -2.619315,0.530617 -0.186647,0.156713 -0.317478,0.393871 -0.377864,0.593325 -0.06039,0.199455 -0.04991,0.361939 0.04342,0.575639 0.09332,0.213699 0.268783,0.477606 0.492026,0.699448 0.223242,0.221842 0.494455,0.402268 0.633524,0.347313 0.139068,-0.05495 0.145816,-0.34399 1.43588,-0.643171 1.290065,-0.299181 3.863468,-0.60885 5.934865,-0.879538 2.071396,-0.270687 3.640115,-0.502334 4.556869,-0.675329 0.916754,-0.172995 1.181757,-0.287422 1.381211,-0.480771 0.199454,-0.193349 0.333617,-0.467126 0.353744,-0.723568 0.02013,-0.25644 -0.07479,-0.496554 -0.213855,-0.681762 -0.13907,-0.185207 -0.322567,-0.314922 -0.549912,-0.435748 -0.170507,-0.09062 -0.365842,-0.176473 -0.498457,-0.181696 z m 0.215462,3.90405 c -0.03481,-0.0028 -0.06569,0.0037 -0.09326,0.02251 -0.110274,0.07518 -0.154971,0.348671 -2.291298,0.742864 -2.136326,0.394193 -6.365119,0.909279 -8.602418,1.205947 -2.237298,0.296665 -2.483339,0.374157 -2.673985,0.530616 -0.190646,0.156459 -0.325831,0.392587 -0.387511,0.591718 -0.06169,0.199131 -0.0503,0.360676 0.04502,0.574031 0.09532,0.213353 0.275255,0.477965 0.503281,0.699448 0.228027,0.221482 0.50434,0.40057 0.646388,0.345705 0.142048,-0.05486 0.148723,-0.342868 1.466431,-0.641564 1.317708,-0.298697 3.946106,-0.607681 6.061889,-0.877929 2.115784,-0.270248 3.720164,-0.502616 4.656562,-0.67533 0.936398,-0.172715 1.204818,-0.286127 1.408546,-0.479163 0.203728,-0.193035 0.342832,-0.465935 0.363391,-0.721959 0.02056,-0.256026 -0.07663,-0.495248 -0.218679,-0.680155 -0.14205,-0.184906 -0.33002,-0.314592 -0.511321,-0.440572 -0.135974,-0.09449 -0.268606,-0.187692 -0.373039,-0.196167 z m 0.130242,4.093787 c -0.03554,-0.0028 -0.06833,0.0037 -0.09648,0.02251 -0.112586,0.07507 -0.158405,0.346087 -2.339536,0.739647 -2.18113,0.393559 -6.496678,0.909757 -8.780897,1.205946 -2.284221,0.29619 -2.535619,0.372802 -2.730263,0.529009 -0.194645,0.156207 -0.332577,0.391299 -0.395551,0.59011 -0.06297,0.198811 -0.0523,0.36102 0.04502,0.574031 0.09732,0.213011 0.281729,0.476714 0.514537,0.69784 0.232809,0.221126 0.514224,0.400481 0.659251,0.345704 0.145028,-0.05478 0.153245,-0.343346 1.498589,-0.641562 1.345344,-0.298216 4.028761,-0.606508 6.188917,-0.876322 2.160157,-0.269813 3.797,-0.501284 4.753037,-0.673722 0.956036,-0.172437 1.231095,-0.286437 1.439095,-0.479162 0.208002,-0.192725 0.348835,-0.46474 0.369825,-0.720352 0.02099,-0.255613 -0.07847,-0.493937 -0.223502,-0.678546 -0.14503,-0.18461 -0.335867,-0.314794 -0.520969,-0.440573 -0.138828,-0.09433 -0.274458,-0.186097 -0.381079,-0.194559 z m 0.276564,4.08253 c -0.0497,-0.0022 -0.09081,0.0054 -0.120594,0.02412 -0.119156,0.07473 -0.04888,0.339278 -2.29773,0.728391 -2.248852,0.389113 -6.816888,0.90144 -9.234335,1.196299 -2.417446,0.294859 -2.68345,0.371894 -2.889447,0.527401 -0.205997,0.155505 -0.351415,0.390583 -0.418062,0.588501 -0.06664,0.197918 -0.05476,0.358761 0.04824,0.570815 0.102997,0.212054 0.297093,0.474491 0.54348,0.694625 0.246387,0.220133 0.544355,0.398628 0.697841,0.344096 0.153486,-0.05453 0.161607,-0.34147 1.585418,-0.638347 1.42381,-0.296878 4.264553,-0.604503 6.550701,-0.873106 2.286146,-0.268602 4.017803,-0.498842 5.0296,-0.670506 1.011798,-0.171662 1.302576,-0.284087 1.522709,-0.475946 0.220131,-0.19186 0.37012,-0.46267 0.392334,-0.717136 0.02222,-0.254466 -0.08288,-0.493159 -0.236365,-0.676939 -0.153488,-0.18378 -0.355623,-0.313215 -0.611013,-0.435748 -0.191543,-0.0919 -0.413681,-0.179729 -0.562775,-0.18652 z"/>
</g>
</svg>