<?xml version="1.0" encoding="UTF-8" standalone="no"?>
<svg
   width="45.602448"
   height="69.349335"
   viewBox="0 0 45.602447 69.349334"
   version="1.1"
   id="svg1"
   xml:space="preserve"
   xmlns="http://www.w3.org/2000/svg"
   xmlns:svg="http://www.w3.org/2000/svg"><defs
     id="defs1" /><g id="tooth_26_root"><path
     id="tooth_26_root_2"
     style="fill:#ffdf5d;fill-opacity:1;stroke:#000000;stroke-width:0.999999;stroke-dasharray:none"
     d="m 26.823128,1.2547235 c 0.612339,-0.032277 1.436317,0.3751278 2.178335,1.1792149 0.711421,0.7709317 1.354823,1.9091134 2.439024,3.3398121 -0.0493,0.2016945 -0.09749,0.381268 -0.148129,0.5934863 -0.54585,2.2878292 -1.188247,5.1797212 -2.046016,8.0993332 -0.857765,2.919617 -1.931262,5.867025 -2.974227,7.800658 -1.042961,1.933625 -2.056648,2.853861 -3.021623,3.217617 -0.96498,0.363681 -1.880743,0.172645 -2.835985,-0.717603 -0.464841,-0.433227 -0.939588,-1.035008 -1.423916,-1.794046 0.290832,-0.626251 0.600817,-1.305234 0.945986,-2.160593 1.042957,-2.584554 2.271523,-6.546804 3.20727,-9.74403 0.935743,-3.197222 1.580116,-5.6279487 2.047988,-7.2265636 0.467876,-1.5986111 0.758619,-2.3646712 1.382443,-2.5465566 0.07796,-0.022894 0.161352,-0.03603 0.248831,-0.040722 z" /><path
     id="tooth_26_root_1"
     style="fill:#fff5d0;fill-opacity:1;stroke:#000000;stroke-width:0.999999;stroke-dasharray:none"
     d="m 34.995337,0.50219735 c 0.230449,0.0105088 0.456571,0.0553215 0.673449,0.13188584 0.867515,0.30629495 1.569221,1.11056591 2.261281,2.24011901 0.692061,1.1295531 1.375235,2.5848913 1.8821,4.4802381 0.506861,1.8953468 0.838825,4.2296887 1.102002,6.4313677 0.263163,2.201679 0.457477,4.269228 0.554953,6.528346 0.09749,2.259106 0.09692,4.710141 0.106664,7.017093 0.0095,2.306989 0.02904,4.471508 -0.02981,6.328569 -0.05851,1.857061 -0.194372,3.407076 -0.106664,4.84292 0.07273,1.190426 0.287966,2.210946 0.452257,2.932528 -0.09375,-0.239452 -0.282539,-0.72237 -0.315979,-0.806816 -0.06822,-0.17227 -0.06803,-0.171894 -1.344917,-0.574082 -1.276887,-0.402076 -3.830777,-1.206752 -6.81347,-1.82895 -2.982695,-0.622236 -6.394553,-1.062556 -9.55268,-1.186973 -3.158131,-0.124605 -6.061488,0.06718 -9.12215,0.612853 -3.060663,0.545671 -6.2769369,1.444326 -8.3104559,2.212972 -1.739802,0.657628 -2.611421,1.223416 -3.24874,2.139261 -0.214665,-1.08864 -0.118778,-2.075908 0.01758,-4.065154 0.175454,-2.555861 0.408934,-6.768101 0.418687,-10.721562 0.0099,-3.953423 -0.204423,-7.647559 -0.282424,-10.777772 -0.07796,-3.130217 -0.01873,-5.696895 0.215276,-7.8219907 0.233927,-2.1250961 0.643307,-3.8083371 1.51081,-5.0814785 0.867507,-1.273145 2.193545,-2.1361304 3.207271,-2.1935724 1.013721,-0.057423 1.714598,0.6902577 2.6503369,2.6047455 0.935744,1.9144841 2.106201,4.9963457 3.236893,7.9829671 1.130688,2.986618 2.221573,5.876821 3.264538,8.11679 1.042965,2.23998 2.03676,3.830492 2.992002,4.72074 0.955241,0.890248 1.871005,1.081359 2.835984,0.717603 0.964976,-0.363681 1.978663,-1.283992 3.021624,-3.217617 1.042965,-1.933633 2.116461,-4.881041 2.974227,-7.800658 0.857769,-2.919612 1.500166,-5.811504 2.046016,-8.0993332 0.545853,-2.2878329 0.995159,-3.9707511 1.735954,-4.9088671 0.555599,-0.70358506 1.275729,-0.98757875 1.967017,-0.95617235 z" /></g><path
     style="display:inline;fill:#ffffff;fill-opacity:1;stroke:#000000;stroke-width:0.999999;stroke-dasharray:none"
     d="m 40.231044,40.053427 c -1.276883,-0.402038 -3.83065,-1.206151 -6.813343,-1.828349 -2.982696,-0.622198 -6.394152,-1.062518 -9.552279,-1.186935 -3.158127,-0.124605 -6.062745,0.06681 -9.123408,0.612627 -3.060662,0.545634 -6.2771769,1.445415 -8.3106959,2.214061 -2.033523,0.768646 -2.883939,1.406082 -3.556501,2.631374 -0.672562,1.225293 -1.167232,3.038292 -1.502303,4.978672 -0.335087,1.940381 -0.51051804,4.007994 -0.66647804,6.066074 -0.155963,2.05808 -0.292436,4.106551 -0.136473,5.791305 0.155964,1.684753 0.60432204,3.005714 1.21840804,4.183153 0.614082,1.177402 1.393832,2.211171 2.271099,3.072708 0.877264,0.861537 1.851962,1.550728 3.577249,1.924055 1.725292,0.373438 4.2010309,0.430749 6.1504959,0.19141 1.949461,-0.239451 3.37252,-0.775364 4.844368,-1.14869 1.471844,-0.373439 2.99238,-0.583916 4.347257,-0.497743 1.354873,0.08595 2.544018,0.469031 4.045102,0.842358 1.50108,0.373439 3.314037,0.737044 5.166029,0.823217 1.851992,0.08595 3.742924,-0.105464 5.263502,-0.488211 1.520578,-0.382897 2.670742,-0.957204 3.703958,-1.866631 1.033216,-0.909389 1.949419,-2.153748 2.573242,-3.417322 0.623828,-1.263575 0.955227,-2.546253 1.159921,-4.412922 0.20469,-1.866631 0.282653,-4.317103 0.136473,-6.298619 -0.146218,-1.981478 -0.516602,-3.493886 -1.072201,-5.207389 -0.555599,-1.713465 -1.296374,-3.627912 -1.734987,-4.757424 -0.438617,-1.129512 -0.575093,-1.474164 -0.643326,-1.646471 -0.06822,-0.17227 -0.06822,-0.17227 -1.345112,-0.574345 z"
     id="tooth_26_crown" /></svg>
