<?xml version="1.0" encoding="UTF-8" standalone="no"?>
<svg
   width="23.461679"
   height="91.207901"
   viewBox="0 0 23.46168 91.2079"
   version="1.1"
   id="svg1"
   xml:space="preserve"
   xmlns="http://www.w3.org/2000/svg"
   xmlns:svg="http://www.w3.org/2000/svg"><defs
     id="defs1" /><path
     id="tooth_12_root"
     style="fill:#fff5d0;fill-opacity:1;stroke:#000000;stroke-width:1;stroke-dasharray:none"
     d="m 12.808393,0.56235068 c 2.054927,1.08975292 2.303542,4.03463572 2.997033,6.09933212 1.205343,6.2980392 0.95729,12.7548482 1.516237,19.1232442 0.524127,8.696331 1.770779,17.320271 2.833718,25.959677 0.329253,3.420857 0.709151,6.841765 1.455372,10.201121 -1.107975,-1.950283 -4.135866,-1.551707 -6.097499,-2.156123 -4.072105,-0.407836 -8.7120792,-0.836741 -12.2442532,1.649249 -0.998095,0.653652 -1.882757,2.857499 -0.85801,0.530881 2.384584,-5.100197 2.053581,-10.858367 2.615845,-16.332075 0.55622,-8.225991 0.990447,-16.503786 2.893467,-24.557484 C 9.2539378,15.316826 10.201862,9.4778653 11.277096,3.6650556 11.611364,2.6045704 11.703453,1.1145002 12.808393,0.56235068 Z" /><path
     style="fill:#ffffff;fill-opacity:1;stroke:#000000;stroke-width:1;stroke-dasharray:none"
     d="m 20.439368,60.862081 c -0.788369,-0.233112 -2.365108,-0.699524 -4.51644,-1.015004 -2.151336,-0.315632 -4.877173,-0.480103 -7.1754802,-0.260492 -2.298311,0.219422 -4.168982,0.823001 -5.47848,1.851733 -1.309503,1.02877 -2.05777,2.482693 -2.43190501,7.146365 -0.374136,4.663671 -0.374136,12.53675 -0.293958,16.720281 0.08017,4.183531 0.240538,4.677324 0.82845601,4.965347 0.587938,0.287872 1.603471,0.370393 4.797077,0.411425 3.193605,0.04107 8.5650972,0.04107 11.5715922,-0.05476 3.006495,-0.09583 3.64786,-0.287872 4.128905,-0.726981 0.481046,-0.438918 0.801725,-1.124714 0.962073,-5.143736 0.160334,-4.018984 0.160334,-11.370852 0.06679,-15.430944 -0.09354,-4.060092 -0.280584,-4.828181 -0.574579,-5.651181 -0.293958,-0.823001 -0.694833,-1.700839 -0.895265,-2.139757 -0.200417,-0.438919 -0.200417,-0.438843 -0.988801,-0.67203 z"
     id="tooth_12_crown" /></svg>
