<?xml version="1.0" encoding="UTF-8" standalone="no"?>
<svg
   width="18.746035"
   height="84.684273"
   viewBox="0 0 18.746035 84.684274"
   version="1.1"
   id="svg1"
   xml:space="preserve"
   xmlns="http://www.w3.org/2000/svg"
   xmlns:svg="http://www.w3.org/2000/svg"><defs
     id="defs1" /><path
     id="tooth_41_root"
     style="fill:#fff5d0;fill-opacity:1;stroke:#000000;stroke-width:1;stroke-dasharray:none"
     d="m 1.5702675,24.10344 c 0.0726,0.120532 0.149619,0.234981 0.230325,0.343726 0.587457,0.79038 1.394405,1.439962 2.738507,1.793917 1.344065,0.353992 3.224967,0.411065 4.164873,0.440152 0.939909,0.03042 0.9404802,0.03042 1.8662905,0 0.925813,-0.03042 2.777149,-0.08669 4.060136,-0.324335 1.282986,-0.237642 1.995807,-0.653764 2.508064,-1.516882 0.06361,-0.107224 0.123454,-0.222814 0.180906,-0.347909 -0.0447,0.363498 -0.09353,0.729202 -0.152346,1.088555 -0.296069,1.808632 -0.680107,3.476579 -0.990279,6.012549 -0.310183,2.53597 -0.545538,5.940154 -0.832213,11.307911 -0.286671,5.367758 -0.625242,12.699509 -0.963616,18.678179 -0.338375,5.978709 -0.676293,10.603235 -0.986465,13.667722 -0.310183,3.064487 -0.593645,4.568024 -0.917912,5.668709 -0.324261,1.100684 -0.68935,1.800114 -1.051218,2.348023 -0.361849,0.547947 -0.720157,0.943802 -1.180715,0.919582 -0.4605534,-0.02281 -1.0238026,-0.468784 -1.5501625,-1.685894 -0.526357,-1.217073 -1.016219,-3.20521 -1.472078,-6.177568 -0.455859,-2.972396 -0.877814,-6.929735 -1.380659,-12.767835 -0.502882,-5.838101 -1.08658,-13.556163 -1.533042,-19.306925 -0.446461,-5.7508 -0.755613,-9.533652 -1.159768,-12.394489 -0.404156,-2.860837 -0.901694,-4.800572 -1.338758,-6.633462 -0.09029,-0.378327 -0.173573,-0.749392 -0.239907,-1.114106 z" /><path
     style="fill:#ffffff;fill-opacity:1;stroke:#000000;stroke-width:1;stroke-dasharray:none"
     d="m 10.569452,26.682186 c 0.925813,-0.03042 2.777426,-0.08745 4.060412,-0.324715 1.282987,-0.237643 1.997289,-0.654563 2.50955,-1.517681 0.512257,-0.863118 0.822421,-2.172282 0.977502,-5.988367 0.155073,-3.816122 0.155073,-10.1388994 0.0799,-13.518558 C 18.121596,1.9532065 17.97124,1.5168186 17.679826,1.1967805 17.388437,0.8766283 16.95613,0.67313016 14.357241,0.57130504 11.758348,0.46940388 6.9931085,0.46940388 4.3660795,0.62453694 1.7390495,0.77967005 1.2502815,1.0900123 0.95889351,1.4924839 c -0.291499,0.4024715 -0.385324,0.8970345 -0.43231,4.2961227 -0.04717,3.3991262 -0.04717,9.7025114 0.136352,13.3197754 0.183154,3.617263 0.54979399,4.548176 1.13725199,5.338556 0.587457,0.79038 1.395768,1.440114 2.73987,1.794069 1.344065,0.353992 3.223851,0.412129 4.163756,0.441217 0.9399095,0.03042 0.9398726,0.03042 1.8656825,0 z"
     id="tooth_41_crown" /></svg>
