<?xml version="1.0" encoding="UTF-8" standalone="no"?>
<svg
   width="45.58012"
   height="81.484688"
   viewBox="0 0 45.58012 81.484687"
   version="1.1"
   id="svg1"
   xml:space="preserve"
   xmlns="http://www.w3.org/2000/svg"
   xmlns:svg="http://www.w3.org/2000/svg"><defs
     id="defs1" /><path
     id="tooth_46_root"
     style="fill:#fff5d0;fill-opacity:1;stroke:#000000;stroke-width:0.999999;stroke-dasharray:none"
     d="m 42.536777,26.465699 c -0.207932,0.532955 -0.420447,1.043815 -0.637873,1.51315 -0.984902,2.125999 -2.038491,3.524344 -4.467022,4.511916 -2.428532,0.987572 -6.232067,1.563155 -9.011365,1.878631 -2.779298,0.315627 -4.533341,0.371528 -5.410298,0.398945 -0.876956,0.02662 -0.878018,0.02662 -3.050182,-0.123969 -2.17216,-0.150969 -6.514932,-0.453819 -9.523592,-1.098498 C 7.4277854,32.901195 5.7547306,31.913965 4.3650798,29.554705 3.975368,28.893104 3.6087387,28.116356 3.2671705,27.273212 c 0.2001524,1.67834 0.8104282,3.65455 1.0979093,5.916953 0.3642841,2.866736 0.2022471,6.185769 -0.040584,10.821959 -0.2428686,4.636152 -0.5667818,10.588128 -0.7151886,15.388863 -0.1484217,4.800734 -0.1227621,8.450492 0.2010127,11.344646 0.3238123,2.894153 0.9453208,5.032854 1.6603933,6.473104 0.7150726,1.440213 1.5253662,2.181596 2.2943988,2.291343 0.7690362,0.109519 1.496688,-0.411761 2.373652,-2.140032 0.876963,-1.72827 1.901552,-4.664101 3.088836,-8.39501 1.187284,-3.730871 2.537656,-8.257504 3.7789,-11.700317 1.241245,-3.442813 2.374591,-5.801464 3.372978,-7.310278 0.998387,-1.508776 1.861698,-2.167411 2.630734,-2.126227 0.769032,0.04107 1.442365,0.781996 2.251873,2.798324 0.809508,2.016328 1.755192,5.30783 2.456765,8.750681 0.701573,3.442813 1.159036,7.036899 1.57728,10.383693 0.418244,3.346794 0.796065,6.447436 1.362723,8.450036 0.566659,2.0026 1.322873,2.907919 2.253808,2.743299 0.930935,-0.164659 2.036942,-1.399181 3.251206,-4.14248 1.21426,-2.743298 2.536646,-6.995906 3.427102,-11.124543 0.890456,-4.128638 1.349774,-8.134523 1.552152,-13.90914 0.202359,-5.774616 0.148309,-13.31709 0.647534,-18.597921 0.269501,-2.850688 0.686971,-5.024678 0.746115,-6.724618 z" /><path
     style="fill:#ffffff;fill-opacity:1;stroke:#000000;stroke-width:0.999999;stroke-dasharray:none"
     d="M 19.960706,34.643726 C 17.788546,34.492757 13.444244,34.191123 10.435585,33.546444 7.4269251,32.901765 5.7540012,31.914231 4.3643467,29.555009 2.9746959,27.19575 1.8684041,23.464993 1.2073103,19.912433 0.54621637,16.359873 0.33035402,12.985737 0.62717504,10.365914 0.9239811,7.7460905 1.7334743,5.8807312 2.9747295,4.3856449 4.2159885,2.8905206 5.8889124,1.7658214 7.6563392,1.2308896 9.4237659,0.69595784 11.28558,0.75086944 13.106966,1.0662309 c 1.821387,0.3156276 3.602253,0.891553 5.329205,1.275592 1.726951,0.384077 3.399886,0.5760774 5.059374,0.3703871 1.659492,-0.2057284 3.305443,-0.8092617 4.96492,-1.2481742 1.659473,-0.4389126 3.332431,-0.71324241 5.045883,-0.86409721 1.713451,-0.15096889 3.467345,-0.17834863 5.167305,0.34300738 1.69996,0.52124193 3.345919,1.59110553 4.465732,3.40166733 1.119814,1.8105998 1.713434,4.3617838 1.88882,7.1187717 0.175391,2.756989 -0.06744,5.719668 -0.647605,8.627549 -0.580151,2.907881 -1.497568,5.760813 -2.482474,7.88685 -0.984902,2.126037 -2.037234,3.525066 -4.465766,4.512639 -2.428531,0.987572 -6.233099,1.563649 -9.012397,1.879125 -2.779298,0.315627 -4.53318,0.370387 -5.410136,0.397805 -0.876957,0.02662 -0.876957,0.02662 -3.049121,-0.123589 z"
     id="tooth_46_crown" /></svg>
