<?xml version="1.0" encoding="UTF-8" standalone="no"?>
<svg
   width="44.474358"
   height="78.615883"
   viewBox="0 0 44.474357 78.615882"
   version="1.1"
   id="svg1"
   xml:space="preserve"
   xmlns="http://www.w3.org/2000/svg"
   xmlns:svg="http://www.w3.org/2000/svg"><defs
     id="defs1" /><path
     id="tooth_37_root"
     style="fill:#fff5d0;fill-opacity:1;stroke:#000000;stroke-width:1;stroke-dasharray:none"
     d="m 40.804596,30.283842 c -0.485559,2.840014 -0.485267,6.406301 -0.566196,10.645724 -0.08092,4.239424 -0.242615,9.151375 -0.606777,13.088939 -0.364184,3.937564 -0.9317,6.90112 -1.700522,9.590204 -0.768822,2.689046 -1.740485,5.10282 -2.873491,7.201954 -1.133009,2.099133 -2.427406,3.8826 -3.182679,4.760679 -0.755274,0.878116 -0.971156,0.850463 -1.348824,0.630991 -0.377665,-0.219472 -0.917087,-0.630801 -1.30824,-1.934168 -0.391153,-1.303405 -0.634261,-3.499153 -0.782628,-6.366591 -0.148381,-2.867438 -0.201929,-6.406681 -0.539141,-9.411317 -0.337223,-3.004637 -0.956474,-5.473602 -1.603899,-7.312032 -0.647428,-1.838468 -1.323635,-3.04507 -1.971059,-3.840799 -0.647424,-0.795728 -1.267708,-1.180888 -1.955597,-1.029958 -0.687892,0.151005 -1.443286,0.838063 -2.036761,1.77099 -0.593476,0.932966 -1.023564,2.112675 -1.482158,4.047186 -0.458593,1.934511 -0.945801,4.6231 -1.242541,8.053064 -0.296725,3.429963 -0.403908,7.599779 -0.4174,10.590685 -0.01346,2.990867 0.06697,4.803166 -0.162329,5.900754 -0.229303,1.09755 -0.767446,1.479972 -1.536267,1.438816 -0.768818,-0.04108 -1.768049,-0.50722 -3.076394,-2.592623 C 11.103345,73.4309 9.4845776,69.727186 8.3111186,66.160062 7.1376596,62.5929 6.4102376,59.16286 5.9516436,54.49811 5.4930536,49.83336 5.3036246,43.934393 5.0743296,39.640121 4.8450276,35.345848 4.5763446,32.65589 4.1042626,30.44702 c -0.26565,-1.242927 -0.592765,-2.331653 -0.803883,-3.402463 0.475826,1.077999 1.070629,2.014007 1.882166,2.743971 1.632071,1.468028 4.140477,2.100313 7.2697284,2.470752 3.129246,0.370478 6.878989,0.479758 8.753814,0.534645 1.874825,0.05477 1.874047,0.05477 3.748876,-0.01522 1.874829,-0.06847 5.626094,-0.205779 8.606952,-0.672261 8.507669,-0.03841 9.841491,-13.853891 7.24268,-1.822602 z" /><path
     style="fill:#ffffff;fill-opacity:1;stroke:#000000;stroke-width:1;stroke-dasharray:none"
     d="m 24.955929,32.779851 c 1.874828,-0.06847 5.624471,-0.205779 8.605329,-0.672261 2.980861,-0.466483 5.192838,-1.262211 6.811403,-3.484813 1.618568,-2.222601 2.643635,-5.87196 3.169666,-9.439122 0.526031,-3.567124 0.553007,-7.051823 0.202304,-9.672288 C 43.393946,6.8908635 42.6656,5.1347831 41.586554,3.831416 40.507505,2.5280489 39.077804,1.6774331 37.189465,1.1697947 35.301126,0.66219436 32.954264,0.49753329 31.025472,0.70335012 29.096683,0.90912891 27.586061,1.4853856 26.304708,1.8969812 25.023355,2.3085388 23.971289,2.5555114 22.662933,2.5143176 21.354578,2.4732376 19.790033,2.1438397 17.847741,1.7048576 15.905453,1.2658375 13.585571,0.71708139 11.413992,0.55242032 9.2424116,0.38772121 7.2192436,0.60719322 5.4388166,1.7597827 3.6583946,2.912258 2.1208106,4.9975845 1.2980406,7.3574222 0.47527358,9.7172219 0.36736858,12.351343 0.61015458,15.122738 c 0.242802,2.771395 0.83623702,5.679875 1.51064102,8.286647 0.674405,2.606734 1.429723,4.911609 3.061791,6.379599 1.632072,1.468028 4.140762,2.099096 7.2700124,2.469536 3.12925,0.370478 6.878822,0.480252 8.75365,0.535177 1.874825,0.05477 1.874844,0.05477 3.749672,-0.01522 z"
     id="tooth_37_crown" /></svg>
