<svg xmlns="http://www.w3.org/2000/svg" xmlns:svg="http://www.w3.org/2000/svg" xmlns:sodipodi="http://sodipodi.sourceforge.net/DTD/sodipodi-0.dtd" xmlns:inkscape="http://www.inkscape.org/namespaces/inkscape" width="44.474358" height="78.615883" viewBox="0 0 44.474357 78.615882" version="1.1" id="svg1" xml:space="preserve" sodipodi:docname="porto_tooth_37.svg" inkscape:version="1.4 (86a8ad7, 2024-10-11)">
    <path id="tooth_77_root" style="fill:#fff5d0;fill-opacity:1;stroke:#000000;stroke-width:1;stroke-dasharray:none" d="m 40.804596,30.283842 c -0.485559,2.840014 -0.485267,6.406301 -0.566196,10.645724 -0.08092,4.239424 -0.242615,9.151375 -0.606777,13.088939 -0.364184,3.937564 -0.9317,6.90112 -1.700522,9.590204 -0.768822,2.689046 -1.740485,5.10282 -2.873491,7.201954 -1.133009,2.099133 -2.427406,3.8826 -3.182679,4.760679 -0.755274,0.878116 -0.971156,0.850463 -1.348824,0.630991 -0.377665,-0.219472 -0.917087,-0.630801 -1.30824,-1.934168 -0.391153,-1.303405 -0.634261,-3.499153 -0.782628,-6.366591 -0.148381,-2.867438 -0.201929,-6.406681 -0.539141,-9.411317 -0.337223,-3.004637 -0.956474,-5.473602 -1.603899,-7.312032 -0.647428,-1.838468 -1.323635,-3.04507 -1.971059,-3.840799 -0.647424,-0.795728 -1.267708,-1.180888 -1.955597,-1.029958 -0.687892,0.151005 -1.443286,0.838063 -2.036761,1.77099 -0.593476,0.932966 -1.023564,2.112675 -1.482158,4.047186 -0.458593,1.934511 -0.945801,4.6231 -1.242541,8.053064 -0.296725,3.429963 -0.403908,7.599779 -0.4174,10.590685 -0.01346,2.990867 0.06697,4.803166 -0.162329,5.900754 -0.229303,1.09755 -0.767446,1.479972 -1.536267,1.438816 -0.768818,-0.04108 -1.768049,-0.50722 -3.076394,-2.592623 C 11.103345,73.4309 9.4845776,69.727186 8.3111186,66.160062 7.1376596,62.5929 6.4102376,59.16286 5.9516436,54.49811 5.4930536,49.83336 5.3036246,43.934393 5.0743296,39.640121 4.8450276,35.345848 4.5763446,32.65589 4.1042626,30.44702 c -0.26565,-1.242927 -0.592765,-2.331653 -0.803883,-3.402463 0.475826,1.077999 1.070629,2.014007 1.882166,2.743971 1.632071,1.468028 4.140477,2.100313 7.2697284,2.470752 3.129246,0.370478 6.878989,0.479758 8.753814,0.534645 1.874825,0.05477 1.874047,0.05477 3.748876,-0.01522 1.874829,-0.06847 5.626094,-0.205779 8.606952,-0.672261 8.507669,-0.03841 9.841491,-13.853891 7.24268,-1.822602 z"/>
    <path style="fill:#ffffff;fill-opacity:1;stroke:#000000;stroke-width:1;stroke-dasharray:none" d="m 24.955929,32.779851 c 1.874828,-0.06847 5.624471,-0.205779 8.605329,-0.672261 2.980861,-0.466483 5.192838,-1.262211 6.811403,-3.484813 1.618568,-2.222601 2.643635,-5.87196 3.169666,-9.439122 0.526031,-3.567124 0.553007,-7.051823 0.202304,-9.672288 C 43.393946,6.8908635 42.6656,5.1347831 41.586554,3.831416 40.507505,2.5280489 39.077804,1.6774331 37.189465,1.1697947 35.301126,0.66219436 32.954264,0.49753329 31.025472,0.70335012 29.096683,0.90912891 27.586061,1.4853856 26.304708,1.8969812 25.023355,2.3085388 23.971289,2.5555114 22.662933,2.5143176 21.354578,2.4732376 19.790033,2.1438397 17.847741,1.7048576 15.905453,1.2658375 13.585571,0.71708139 11.413992,0.55242032 9.2424116,0.38772121 7.2192436,0.60719322 5.4388166,1.7597827 3.6583946,2.912258 2.1208106,4.9975845 1.2980406,7.3574222 0.47527358,9.7172219 0.36736858,12.351343 0.61015458,15.122738 c 0.242802,2.771395 0.83623702,5.679875 1.51064102,8.286647 0.674405,2.606734 1.429723,4.911609 3.061791,6.379599 1.632072,1.468028 4.140762,2.099096 7.2700124,2.469536 3.12925,0.370478 6.878822,0.480252 8.75365,0.535177 1.874825,0.05477 1.874844,0.05477 3.749672,-0.01522 z" id="tooth_77_crown"/>
    <g id="tooth_77_implant">
      <path id="tooth_77_implant-1" style="fill:#9a9a9a;fill-opacity:1;stroke:#000000;stroke-width:0.801567;stroke-dasharray:none" d="m 21.104318,72.09736 c 0.237729,0.0063 0.487496,-0.0819 1.044282,-0.438492 0.556786,-0.356593 1.420052,-0.981931 2.208315,-1.745168 0.788264,-0.763237 1.502296,-1.663763 1.908943,-2.345676 0.406646,-0.681912 0.506248,-1.145746 0.568808,-1.727557 0.06256,-0.581813 0.08639,-1.282976 0.198995,-3.303669 0.112608,-2.020693 0.314073,-5.359876 0.57057,-10.527361 0.256498,-5.167484 0.569469,-12.459852 0.88227,-19.454053 H 13.697479 c 0.212704,4.579387 0.425015,9.568801 0.681513,14.974026 0.256498,5.405224 0.555652,11.635345 0.730823,15.007388 0.17517,3.372043 0.22537,3.886395 0.406794,4.374367 0.181425,0.487973 0.494784,0.951071 1.333091,1.776866 0.838306,0.825797 2.202725,2.012996 2.997251,2.657374 0.794523,0.644381 1.019636,0.745698 1.257367,0.751955 z M 39.200006,32.555384 41.356313,26.951795 H 3.2473599 l 1.5764272,5.603589 z"/>
      <path id="tooth_77_implant-2" style="fill:#656565;fill-opacity:1;stroke:#000000;stroke-width:0.801567;stroke-dasharray:none" d="m 16.810755,69.318831 c 0.157856,0.0039 0.260354,-0.0163 0.248304,-0.07396 -0.03213,-0.153796 -0.750241,-0.50974 0.781892,-0.956232 1.532131,-0.446493 5.499662,-0.892872 7.591743,-1.15875 2.092082,-0.265877 2.30946,-0.350779 2.477752,-0.524783 0.16829,-0.174005 0.28719,-0.437158 0.341637,-0.65862 0.05445,-0.221462 0.04364,-0.401969 -0.0405,-0.63925 -0.08414,-0.237279 -0.242488,-0.530289 -0.443776,-0.776608 -0.201289,-0.246321 -0.445178,-0.444919 -0.57057,-0.383902 -0.125391,0.06103 -0.131149,0.38102 -1.294348,0.713212 -1.163198,0.332193 -3.484037,0.675049 -5.35173,0.975604 -1.867693,0.300554 -3.283615,0.559871 -4.110215,0.751954 -0.826599,0.192083 -1.063437,0.317144 -1.243277,0.531827 -0.17984,0.214683 -0.302356,0.518287 -0.320505,0.803023 -0.01815,0.284738 0.06832,0.551596 0.193712,0.757239 0.125393,0.205641 0.290437,0.35057 0.764281,0.478996 0.296152,0.08026 0.71251,0.153636 0.975604,0.160253 z M 15.141311,64.99025 c 0.03358,0.0031 0.06498,-0.0039 0.09157,-0.02465 0.106365,-0.08312 0.149504,-0.383054 2.210076,-0.818873 2.060573,-0.435819 6.13819,-1.006858 8.296153,-1.334851 2.157963,-0.327992 2.396005,-0.413438 2.579889,-0.586418 0.183886,-0.172981 0.313844,-0.43318 0.373336,-0.653339 0.05949,-0.220157 0.04792,-0.399844 -0.04402,-0.635726 -0.09194,-0.235883 -0.264339,-0.528217 -0.48428,-0.773087 -0.21994,-0.24487 -0.488149,-0.442799 -0.625161,-0.382141 -0.137011,0.06066 -0.143114,0.379453 -1.414096,0.70969 -1.270983,0.330237 -3.805821,0.671536 -5.846577,0.97032 -2.040757,0.298786 -3.587401,0.555719 -4.490594,0.746673 -0.903194,0.190952 -1.163001,0.316647 -1.359506,0.530065 -0.196503,0.21342 -0.330613,0.51468 -0.350442,0.797742 -0.01983,0.28306 0.07431,0.547522 0.211321,0.751954 0.137012,0.204432 0.318213,0.348517 0.493084,0.487802 0.131154,0.104462 0.258518,0.205474 0.359248,0.214844 z m -0.133838,-4.539902 c 0.05167,0.0036 0.09362,-0.0021 0.12151,-0.02289 0.111572,-0.08283 -0.0042,-0.387498 2.076239,-0.824156 2.08041,-0.436656 6.356607,-1.006233 8.620179,-1.333089 2.263574,-0.326856 2.5138,-0.412277 2.706684,-0.584658 0.192885,-0.172382 0.328542,-0.432181 0.390946,-0.651576 0.0624,-0.219396 0.05242,-0.39714 -0.04402,-0.632206 -0.09644,-0.235066 -0.27823,-0.527304 -0.508935,-0.771326 -0.230704,-0.244021 -0.511382,-0.440827 -0.655097,-0.380379 -0.143718,0.06045 -0.151355,0.378835 -1.484539,0.707929 -1.333183,0.329093 -3.991229,0.669048 -6.131861,0.966799 -2.140631,0.297749 -3.763326,0.552857 -4.710722,0.743148 -0.947394,0.190292 -1.220303,0.315626 -1.426423,0.528307 -0.206121,0.212678 -0.345492,0.5139 -0.366292,0.795979 -0.0208,0.28208 0.07818,0.544709 0.221889,0.748432 0.143718,0.203724 0.332546,0.348414 0.596984,0.489563 0.198329,0.105861 0.438443,0.209359 0.593462,0.220126 z m -0.22541,-4.369083 c 0.05037,-2.32e-4 0.09119,-0.0093 0.119749,-0.02994 0.11424,-0.08269 0.01984,-0.34893 2.162529,-0.766044 2.142683,-0.417112 6.522583,-0.985672 8.840306,-1.311957 2.317723,-0.326285 2.572582,-0.410817 2.770081,-0.582897 0.197499,-0.172079 0.337614,-0.430803 0.401511,-0.649815 0.0639,-0.219011 0.05296,-0.397551 -0.04579,-0.632206 -0.09875,-0.234653 -0.285038,-0.525969 -0.521261,-0.769564 -0.236224,-0.243594 -0.523794,-0.440721 -0.670948,-0.380379 -0.147154,0.06033 -0.15468,0.37765 -1.519758,0.706167 -1.365076,0.328518 -4.086185,0.669569 -6.278026,0.9668 -2.19184,0.297228 -3.853365,0.551429 -4.823426,0.741386 -0.970059,0.189959 -1.248831,0.314238 -1.459883,0.526546 -0.211052,0.212307 -0.355559,0.512632 -0.376857,0.794218 -0.0213,0.281587 0.08001,0.545066 0.227171,0.748432 0.147157,0.203368 0.340486,0.346309 0.598746,0.468431 0.193694,0.09159 0.424743,0.171513 0.575852,0.170818 z m -0.3117,-4.527576 c 0.04842,0.002 0.08843,-0.0075 0.117989,-0.02817 0.118241,-0.08247 0.05679,-0.369424 2.292844,-0.795979 2.236046,-0.426555 6.768951,-0.991801 9.167855,-1.317241 2.398903,-0.32544 2.664281,-0.409502 2.868697,-0.581136 0.204416,-0.171633 0.347704,-0.431371 0.413839,-0.649814 0.06614,-0.218445 0.05466,-0.396399 -0.04755,-0.630445 -0.102207,-0.234046 -0.294373,-0.523079 -0.538871,-0.766042 -0.244496,-0.242963 -0.541531,-0.440567 -0.693841,-0.38038 -0.152308,0.06018 -0.159698,0.376741 -1.572588,0.704407 -1.41289,0.327665 -4.231303,0.666817 -6.499914,0.963277 -2.268612,0.296458 -3.986686,0.550161 -4.990723,0.739626 -1.004036,0.189466 -1.294271,0.314787 -1.512714,0.526545 -0.218443,0.211757 -0.36538,0.5116 -0.387423,0.792457 -0.02204,0.280856 0.0819,0.543831 0.234215,0.746672 0.152311,0.20284 0.353279,0.344906 0.602269,0.477235 0.18674,0.09925 0.400673,0.193275 0.545914,0.198995 z M 14.234387,47.27794 c 0.03813,0.003 0.07194,-0.0041 0.102139,-0.02465 0.120773,-0.08234 0.169725,-0.381867 2.509449,-0.813591 2.339723,-0.431723 6.971133,-0.995851 9.421442,-1.320763 2.450308,-0.324911 2.719774,-0.409781 2.928571,-0.581136 0.208798,-0.171355 0.356853,-0.429964 0.424405,-0.648054 0.06756,-0.21809 0.05509,-0.395015 -0.0493,-0.628684 -0.104397,-0.233666 -0.301461,-0.523472 -0.551198,-0.766041 -0.249737,-0.242569 -0.552357,-0.438708 -0.707929,-0.378619 -0.155572,0.06009 -0.162883,0.375512 -1.606047,0.702646 -1.443165,0.327135 -4.32181,0.665537 -6.639033,0.961515 -2.317225,0.295978 -4.074355,0.550469 -5.099906,0.739628 -1.025552,0.189158 -1.319527,0.313368 -1.542652,0.524783 -0.223125,0.211414 -0.375473,0.510296 -0.39799,0.790696 -0.02252,0.280401 0.08392,0.542399 0.239499,0.744911 0.155575,0.202511 0.361442,0.344544 0.560004,0.482518 0.14892,0.103481 0.29418,0.205562 0.408555,0.214844 z m -0.142643,-4.48355 c 0.03893,0.003 0.07484,-0.0041 0.105662,-0.02465 0.123305,-0.08221 0.173486,-0.379039 2.562279,-0.810069 2.388793,-0.431029 7.115218,-0.996373 9.616915,-1.320762 2.501698,-0.324389 2.777031,-0.408296 2.990207,-0.579375 0.213177,-0.171079 0.364241,-0.428554 0.433211,-0.646294 0.06896,-0.217739 0.05728,-0.395392 -0.0493,-0.628683 -0.106588,-0.233291 -0.308552,-0.522101 -0.563526,-0.764281 -0.254974,-0.242179 -0.563183,-0.43861 -0.722017,-0.378618 -0.158835,0.06 -0.167836,0.376036 -1.641268,0.702645 -1.473432,0.326609 -4.412333,0.664252 -6.778155,0.959755 -2.365822,0.295502 -4.158506,0.549011 -5.205566,0.737866 -1.047059,0.188854 -1.348306,0.313709 -1.57611,0.524782 -0.227804,0.211075 -0.382046,0.508987 -0.405035,0.788937 -0.02299,0.279949 0.08595,0.540963 0.244782,0.743149 0.158837,0.202186 0.367844,0.344765 0.570569,0.482518 0.152046,0.103316 0.300589,0.203816 0.417361,0.213083 z m -0.302895,-4.471223 c 0.05444,0.0024 0.09945,-0.006 0.132076,-0.02642 0.130501,-0.08184 0.05353,-0.37158 2.516494,-0.79774 2.462962,-0.42616 7.465914,-0.987264 10.113522,-1.310197 2.647608,-0.322932 2.938938,-0.407302 3.164547,-0.577614 0.22561,-0.170311 0.384873,-0.42777 0.457865,-0.644531 0.07299,-0.216762 0.05997,-0.392918 -0.05283,-0.625161 -0.112803,-0.232245 -0.325379,-0.519668 -0.595224,-0.76076 -0.269844,-0.241091 -0.596182,-0.43658 -0.764281,-0.376857 -0.1681,0.05973 -0.176993,0.373981 -1.736363,0.699123 -1.559369,0.325143 -4.670576,0.662057 -7.174384,0.956233 -2.503807,0.294175 -4.400333,0.546336 -5.508461,0.734344 -1.10813,0.188006 -1.426593,0.311134 -1.667684,0.521261 -0.24109,0.210126 -0.405358,0.506719 -0.429688,0.785413 -0.02433,0.278694 0.09077,0.540112 0.25887,0.741389 0.168101,0.201277 0.38948,0.343036 0.669186,0.477235 0.20978,0.10065 0.453067,0.196841 0.616356,0.204279 z"/>
    </g>
</svg>