<?xml version="1.0" encoding="UTF-8" standalone="no"?>
<svg
   width="24.36677"
   height="92.072884"
   viewBox="0 0 24.36677 92.072883"
   version="1.1"
   id="svg1"
   xml:space="preserve"
   xmlns="http://www.w3.org/2000/svg"
   xmlns:svg="http://www.w3.org/2000/svg"><defs
     id="defs1" /><path
     id="tooth_43_root"
     style="fill:#fff5d0;fill-opacity:1;stroke:#000000;stroke-width:1;stroke-dasharray:none"
     d="m 2.2993104,26.664095 c 0.382019,1.439925 0.729751,2.54606 1.84092,3.375595 1.23014,0.91834 3.395964,1.52189 4.900186,1.871374 1.5042216,0.349598 2.3469096,0.444939 2.7680846,0.492895 0.421175,0.04788 0.420103,0.04902 1.616792,-0.0342 1.196692,-0.08208 3.58998,-0.246618 5.281393,-0.671608 1.691417,-0.424875 2.682198,-1.110618 3.457715,-3.214551 0.102053,-0.277018 0.19873,-0.580712 0.293073,-0.903292 -0.06217,0.720817 -0.159808,1.549744 -0.394622,2.40356 -0.354312,1.288382 -0.981995,2.453341 -1.396494,4.406528 -0.414495,1.95315 -0.615339,4.694111 -0.76242,8.086463 -0.147093,3.392353 -0.239508,7.436667 -0.252853,11.925502 -0.01334,4.488874 0.05245,9.422079 0.306492,13.266704 0.254039,3.844664 0.69528,6.600026 0.996127,9.690813 0.300858,3.090824 0.461555,6.516465 0.421438,8.887688 -0.04011,2.371184 -0.280655,3.688104 -0.614916,4.469341 -0.334258,0.781237 -0.762346,1.028198 -1.404157,0.754067 C 18.714255,91.196996 17.85786,90.400597 16.794871,88.289787 15.731882,86.179014 14.462522,82.75383 13.105366,78.196405 11.748207,73.639017 10.303281,67.950188 9.1400084,62.255164 7.9767384,56.56014 7.0948534,50.85782 6.3527654,46.04686 5.6106784,41.235901 5.0098674,37.316986 4.3279434,34.486612 3.7495264,32.085825 2.2993104,26.664095 2.2993104,26.664095 Z" /><path
     style="fill:#ffffff;fill-opacity:1;stroke:#000000;stroke-width:1;stroke-dasharray:none"
     d="m 13.426093,32.369797 c 1.196689,-0.08208 3.590077,-0.246618 5.28149,-0.671608 1.691417,-0.424913 2.680834,-1.1102 3.456351,-3.214171 0.775517,-2.103933 1.337086,-5.626396 1.57107,-9.080423 0.233984,-3.454026 0.140383,-6.839386 -0.167148,-9.039268 C 23.260326,8.1644448 22.73887,7.1501933 20.920408,5.6904705 19.101949,4.2307478 15.986595,2.3255919 13.84725,1.352418 11.707908,0.37928219 10.544672,0.33809045 9.3279144,0.70129214 8.1111564,1.0645699 6.8409444,1.832051 5.4035624,2.9765277 3.9661804,4.1210425 2.3617144,5.6424008 1.5059784,6.8279933 0.65023839,8.0135858 0.54327039,8.8633744 0.50983739,11.049576 c -0.03336,2.186203 0.0067,5.708628 0.320875,8.532162 0.31420301,2.823496 0.90252901,4.947949 1.34377001,6.626968 0.441241,1.679058 0.735389,2.912568 1.965529,3.830908 1.23014,0.91834 3.396172,1.521396 4.900394,1.87088 1.5042216,0.349598 2.3466056,0.445395 2.7677766,0.493313 0.421175,0.04788 0.421205,0.04826 1.617897,-0.0342 z"
     id="tooth_43_crown" /></svg>
