<svg xmlns="http://www.w3.org/2000/svg" xmlns:svg="http://www.w3.org/2000/svg" width="29.545004" height="90.514557" viewBox="0 0 29.545003 90.514556" version="1.1" id="svg1" xml:space="preserve" xmlns:sodipodi="http://sodipodi.sourceforge.net/DTD/sodipodi-0.dtd" sodipodi:docname="porto_tooth_14.svg" xmlns:inkscape="http://www.inkscape.org/namespaces/inkscape" inkscape:version="1.4 (86a8ad7, 2024-10-11)">
  <path id="tooth_14_root" style="fill:#fff5d0;fill-opacity:1;stroke:#000000;stroke-width:1;stroke-dasharray:none" d="M 12.531351,0.51468547 C 10.327789,1.5478677 11.201814,4.7023262 10.703928,6.6847839 10.060265,12.230918 10.405852,17.813933 10.183503,23.376708 9.5332893,31.131973 8.7793719,38.88072 8.0032667,46.624804 7.4651535,52.282235 6.2279356,57.853937 4.2468865,63.183472 6.4701304,59.906364 10.884144,59.930881 14.432326,59.779935 c 3.132536,0.131212 6.412004,-0.03428 9.390517,1.083714 1.574651,0.263088 3.160518,3.697665 3.192328,3.339885 C 26.036319,61.89673 24.880649,59.596296 24.870513,57.02095 24.162251,48.132031 22.736587,39.318733 21.654752,30.470792 20.306818,21.334612 19.30889,11.905687 15.334736,3.4516679 14.660364,2.3225726 13.99201,0.70525856 12.531351,0.51468547 Z"/>
  <path style="fill:#ffffff;fill-opacity:1;stroke:#000000;stroke-width:1;stroke-dasharray:none" d="m 16.122798,59.807983 c 1.046465,0.04105 3.139418,0.123137 4.937219,0.35649 1.797797,0.232974 3.300397,0.616866 4.561538,2.069965 1.261144,1.453137 2.280754,3.975405 2.817403,6.07281 0.536653,2.097366 0.590312,3.769757 0.603728,6.086491 0.01339,2.316772 -0.01339,5.277698 -1.019654,7.649274 -1.006238,2.371538 -2.991822,4.153612 -4.856705,5.373661 -1.864884,1.22005 -3.608963,1.878038 -5.245766,2.248135 -1.636802,0.370172 -3.166236,0.45234 -4.628624,0.219291 -1.462392,-0.232973 -2.857649,-0.781353 -4.7627898,-1.782074 -1.9051441,-1.000721 -4.3200226,-2.453782 -5.80924,-4.098808 -1.4892212,-1.645026 -2.05269221,-3.481904 -2.18684991,-5.3737 -0.134165,-1.891757 0.1609833,-3.838281 0.55006581,-5.757478 0.3890787,-1.919197 0.8720506,-3.810879 1.3952944,-5.510747 0.52324,-1.69983 1.0867185,-3.207733 1.851452,-4.304417 0.7647336,-1.096647 1.7306998,-1.782074 2.9113376,-2.248173 1.1806378,-0.46606 2.5759209,-0.712829 3.9175529,-0.849877 1.341636,-0.137199 2.629591,-0.164563 3.273576,-0.178245 0.643985,-0.0152 0.643996,-0.0152 1.690462,0.0266 z" id="tooth_14_crown"/>
  	 <g id="tooth_14_implant">
  <path id="tooth_14_implant-1" style="fill:#9a9a9a;fill-opacity:1;stroke:#000000;stroke-width:1;stroke-dasharray:none" d="M 15.271569,7.2505029 C 14.974988,7.2427415 14.66339,7.3526841 13.968768,7.7975477 13.274146,8.242417 12.197173,9.0225616 11.213771,9.9747427 10.230367,10.926924 9.3395722,12.05038 8.8322577,12.901105 8.3249431,13.751828 8.2006856,14.330487 8.1226372,15.056329 8.0445885,15.782173 8.0148644,16.656913 7.8743798,19.177841 7.7338947,21.698768 7.4825576,25.864586 7.1625624,32.311313 6.842567,38.758039 6.4521168,47.484269 6.0618815,56.209926 L 24.512015,56.06932 C 24.246655,50.356278 23.981785,44.643719 23.661789,37.900398 23.341793,31.157078 22.968583,23.384653 22.750047,19.177841 22.531512,14.971029 22.468885,14.329346 22.242548,13.720573 22.016211,13.1118 21.625277,12.534059 20.579443,11.503833 19.533609,10.473606 17.831419,8.9925068 16.840204,8.1886088 15.848992,7.3847085 15.568151,7.2583094 15.271569,7.2505029 Z M 6.0245331,56.324168 4.2449894,63.229237 H 26.440953 l -1.849846,-6.905069 z"/>
  <path id="tooth_14_implant-2" style="fill:#656565;fill-opacity:1;stroke:#000000;stroke-width:1;stroke-dasharray:none" d="m 20.755201,11.616958 c -0.196935,-0.0049 -0.324806,0.02033 -0.309773,0.09227 0.04009,0.191869 0.935968,0.635929 -0.975454,1.192953 -1.91142,0.557025 -6.861137,1.113907 -9.4711266,1.445605 -2.6099891,0.331697 -2.8811806,0.437617 -3.0911333,0.654697 -0.2099527,0.21708 -0.3582851,0.545379 -0.4262117,0.821665 -0.067927,0.276286 -0.054445,0.501479 0.05053,0.7975 0.1049752,0.296019 0.3025171,0.661565 0.5536358,0.968862 0.2511187,0.307299 0.5553841,0.555061 0.7118175,0.478939 0.1564334,-0.07613 0.1636167,-0.475343 1.6147712,-0.889772 1.4511541,-0.414429 4.3465331,-0.842161 6.6765841,-1.21712 2.330052,-0.374958 4.096494,-0.698471 5.127723,-0.938105 1.031229,-0.239635 1.326699,-0.395655 1.551059,-0.663484 0.224361,-0.267829 0.377207,-0.646592 0.399848,-1.001817 0.02264,-0.355226 -0.08523,-0.688146 -0.241666,-0.944697 -0.156435,-0.256549 -0.362337,-0.437356 -0.953484,-0.597575 -0.369467,-0.100134 -0.888896,-0.19167 -1.21712,-0.199924 z m 2.082725,5.400147 c -0.04189,-0.0039 -0.08107,0.0048 -0.114242,0.03075 -0.132696,0.1037 -0.186515,0.477881 -2.757194,1.02159 -2.57068,0.543708 -7.657735,1.256111 -10.3499149,1.665301 -2.6921802,0.409189 -2.9891501,0.515788 -3.2185574,0.73159 -0.2294074,0.215803 -0.3915365,0.540415 -0.4657572,0.815076 -0.074221,0.274659 -0.059778,0.498828 0.054924,0.793105 0.1147024,0.294277 0.3297782,0.658979 0.6041661,0.964469 0.2743878,0.305489 0.6089946,0.552416 0.7799234,0.476741 0.1709289,-0.07568 0.1785436,-0.473388 1.764165,-0.885377 1.585621,-0.41199 4.747974,-0.837779 7.293932,-1.210529 2.545959,-0.372752 4.475483,-0.693291 5.602268,-0.931515 1.126784,-0.238224 1.450909,-0.395035 1.696059,-0.661287 0.245149,-0.266253 0.412458,-0.642092 0.437197,-0.995227 0.02473,-0.353134 -0.09271,-0.683065 -0.263636,-0.938105 -0.170932,-0.25504 -0.39699,-0.434795 -0.615151,-0.60856 -0.163622,-0.130323 -0.322516,-0.256341 -0.448182,-0.26803 z m 0.16697,5.663782 c -0.06446,-0.0045 -0.116793,0.0027 -0.151591,0.02856 -0.139192,0.103339 0.0052,0.483426 -2.590225,1.028181 -2.595427,0.544753 -7.930222,1.255332 -10.7541563,1.663104 -2.8239345,0.407771 -3.1361048,0.514338 -3.3767392,0.729393 -0.2406344,0.215056 -0.4098737,0.53917 -0.4877268,0.812878 -0.077853,0.273708 -0.065392,0.495454 0.054924,0.788712 0.1203158,0.293258 0.3471073,0.657841 0.6349236,0.962272 0.2878163,0.30443 0.6379779,0.549957 0.8172719,0.474545 0.1792942,-0.07541 0.1888227,-0.472619 1.8520437,-0.883182 1.6632211,-0.410561 4.9792831,-0.834675 7.6498411,-1.206135 2.670558,-0.37146 4.69496,-0.689721 5.876889,-0.92712 1.181928,-0.237399 1.522397,-0.393761 1.779543,-0.659091 0.257147,-0.265329 0.431021,-0.641119 0.45697,-0.993029 0.02595,-0.351911 -0.09753,-0.679555 -0.276819,-0.933711 -0.179296,-0.254157 -0.41487,-0.434666 -0.744771,-0.610757 -0.247426,-0.132068 -0.546982,-0.261187 -0.740378,-0.27462 z m 0.281212,5.450677 c -0.06284,2.88e-4 -0.113764,0.01156 -0.149395,0.03735 -0.142521,0.10316 -0.02476,0.435309 -2.697875,0.955681 -2.673117,0.520371 -8.137288,1.229682 -11.0287779,1.63674 -2.8914898,0.407059 -3.2094389,0.512518 -3.45583,0.727197 -0.2463909,0.214679 -0.421193,0.537451 -0.5009086,0.810681 -0.079716,0.273229 -0.066072,0.495967 0.057121,0.788712 0.1231941,0.292743 0.3556008,0.656176 0.6503024,0.960074 0.2947015,0.303898 0.6534614,0.549825 0.8370446,0.474545 0.1835832,-0.07527 0.1929737,-0.47114 1.8959831,-0.880984 1.7030094,-0.409844 5.0977454,-0.835325 7.8321894,-1.206136 2.734444,-0.370809 4.80729,-0.687939 6.017495,-0.924922 1.210203,-0.236984 1.557986,-0.392029 1.821285,-0.656894 0.263299,-0.264866 0.443581,-0.639538 0.470151,-0.990832 0.02657,-0.351295 -0.09982,-0.68 -0.283408,-0.933711 -0.183587,-0.253712 -0.424776,-0.43204 -0.74697,-0.584393 -0.241644,-0.114266 -0.529891,-0.213973 -0.718407,-0.213106 z m 0.388863,5.648403 c -0.0604,-0.0024 -0.110325,0.0094 -0.147198,0.03515 -0.147512,0.10289 -0.07085,0.460878 -2.860451,0.993029 -2.789594,0.532151 -8.444646,1.237328 -11.4374132,1.643332 -2.992767,0.406004 -3.3238391,0.510876 -3.5788601,0.724999 -0.2550211,0.214123 -0.4337799,0.53816 -0.5162874,0.810681 -0.082508,0.272521 -0.068191,0.494529 0.059318,0.786515 0.1275091,0.291985 0.3672483,0.65257 0.672272,0.95568 0.3050237,0.30311 0.6755919,0.549631 0.8656053,0.474545 0.1900134,-0.07508 0.1992332,-0.470005 1.961892,-0.878787 1.7626584,-0.408781 5.2787874,-0.831892 8.1090074,-1.201741 2.83022,-0.369849 4.973614,-0.686357 6.226206,-0.922726 1.252592,-0.236369 1.614675,-0.392714 1.887195,-0.656894 0.272521,-0.264179 0.455832,-0.63825 0.483333,-0.988635 0.0275,-0.350384 -0.102181,-0.67846 -0.292197,-0.931514 -0.190016,-0.253055 -0.440735,-0.43029 -0.751363,-0.595378 -0.23297,-0.123817 -0.499863,-0.241122 -0.681059,-0.248258 z m 0.294393,5.334237 c -0.04756,-0.0038 -0.08975,0.0051 -0.127424,0.03075 -0.150671,0.102722 -0.211742,0.4764 -3.130679,1.015 -2.918935,0.538599 -8.69688,1.24238 -11.7537761,1.647726 -3.0568965,0.405344 -3.3930714,0.511224 -3.6535572,0.724999 -0.2604857,0.213775 -0.4451935,0.536405 -0.5294691,0.808484 -0.084276,0.272079 -0.068726,0.492804 0.061514,0.784318 0.1302414,0.291512 0.3760911,0.653061 0.6876508,0.95568 0.3115599,0.302619 0.6890961,0.547312 0.8831811,0.472348 0.194085,-0.07496 0.203205,-0.468472 2.0036344,-0.87659 1.8004291,-0.408119 5.3917001,-0.830295 8.2825661,-1.199544 2.890867,-0.369249 5.082986,-0.686741 6.362418,-0.922727 1.279433,-0.235986 1.646184,-0.390945 1.924544,-0.654696 0.278361,-0.263751 0.468425,-0.636623 0.496515,-0.986438 0.02809,-0.349817 -0.104701,-0.676674 -0.298788,-0.929318 -0.194088,-0.252644 -0.450919,-0.429838 -0.698636,-0.601968 -0.185786,-0.129099 -0.367006,-0.256451 -0.509696,-0.268031 z m 0.177955,5.59348 c -0.04856,-0.0038 -0.09336,0.0051 -0.131819,0.03075 -0.153831,0.102563 -0.216434,0.472871 -3.196587,1.010605 -2.980154,0.537734 -8.876632,1.243032 -11.9976402,1.647726 -3.121008,0.404693 -3.4645021,0.509371 -3.7304509,0.722803 -0.2659488,0.21343 -0.4544109,0.534644 -0.5404541,0.806287 -0.086043,0.271641 -0.071458,0.493274 0.061515,0.784317 0.1329729,0.291044 0.3849356,0.651351 0.7030296,0.953484 0.3180941,0.302132 0.7026013,0.547191 0.9007568,0.472347 0.1981554,-0.07485 0.2093845,-0.469126 2.0475737,-0.876589 1.8381891,-0.407463 5.5046321,-0.828692 8.4561281,-1.197348 2.951496,-0.368655 5.18797,-0.684922 6.494235,-0.920529 1.306266,-0.235607 1.682088,-0.391369 1.966286,-0.654696 0.284199,-0.263327 0.476624,-0.634989 0.505303,-0.984242 0.02868,-0.349253 -0.107221,-0.674882 -0.305378,-0.92712 -0.198159,-0.252238 -0.458907,-0.430114 -0.711818,-0.601969 -0.189685,-0.128892 -0.375,-0.254272 -0.520681,-0.265833 z m 0.377878,5.578101 c -0.06791,-0.003 -0.124071,0.0074 -0.164772,0.03296 -0.162807,0.102102 -0.06678,0.463568 -3.139467,0.995226 -3.072683,0.531658 -9.314145,1.231668 -12.6171849,1.634544 -3.3030396,0.402876 -3.6664906,0.508132 -3.9479508,0.720606 -0.2814601,0.212472 -0.48015,0.533667 -0.5712116,0.804089 -0.091062,0.270422 -0.074819,0.490187 0.065909,0.779924 0.1407284,0.289737 0.4059282,0.648314 0.742575,0.94909 0.3366468,0.300775 0.7437712,0.544658 0.953484,0.47015 0.2097128,-0.07451 0.2208091,-0.466562 2.16621,-0.872195 1.9454009,-0.405634 5.8268053,-0.825953 8.9504463,-1.192954 3.12364,-0.367 5.489661,-0.681586 6.872114,-0.916135 1.382454,-0.234549 1.779754,-0.388158 2.080528,-0.650302 0.300774,-0.262145 0.505708,-0.632162 0.536061,-0.979848 0.03035,-0.347685 -0.113238,-0.673819 -0.322955,-0.924924 -0.209715,-0.251104 -0.485899,-0.427957 -0.834847,-0.595377 -0.261712,-0.125566 -0.565226,-0.24557 -0.768939,-0.254849 z"/>
</g>
</svg>