<?xml version="1.0" encoding="UTF-8" standalone="no"?>
<svg
   width="25.606623"
   height="100.7217"
   viewBox="0 0 25.606622 100.72171"
   version="1.1"
   id="svg1"
   xml:space="preserve"
   xmlns="http://www.w3.org/2000/svg"
   xmlns:svg="http://www.w3.org/2000/svg"><defs
     id="defs1" /><path
     id="tooth_13_root"
     style="fill:#fff5d0;fill-opacity:1;stroke:#000000;stroke-width:1;stroke-dasharray:none"
     d="m 13.983033,0.53938919 c 2.588711,2.03096031 2.247578,6.18281451 2.827583,9.21991531 0.59577,10.4818805 0.769731,20.9953525 1.987783,31.4362275 1.221208,10.637133 2.018737,21.396414 4.654978,31.803474 -1.646604,-3.684309 -6.358548,-3.207326 -9.706363,-3.739235 -4.4591185,-0.300065 -9.3148175,2.069883 -11.4558015,6.064863 -1.178132,-1.5251 1.224769,-6.792404 1.124783,-9.761913 2.660379,-20.919897 2.731211,-42.355432 8.8476845,-62.6932816 0.3532,-0.8524181 0.685476,-2.10045642 1.719353,-2.33005021 z m 10.459769,75.92052381 0.07863,0.447576 z" /><path
     style="fill:#ffffff;fill-opacity:1;stroke:#000000;stroke-width:1;stroke-dasharray:none"
     d="m 14.779477,69.358986 c 3.599873,0.266315 8.602617,0.713015 9.235275,5.199636 1.357184,5.890818 1.34378,12.087051 0.534809,18.052807 -1.89961,3.299466 -6.074332,4.813749 -9.249165,6.815322 C 11.034203,101.79842 6.5088395,98.439363 3.6410915,95.39129 -0.40998648,91.097213 0.36122352,84.665356 1.0838435,79.307944 c 0.389545,-4.16965 3.310019,-7.668001 7.187849,-9.100504 2.0417885,-0.969504 4.2903045,-1.185998 6.5077845,-0.848454 z"
     id="tooth_13_crown" /></svg>
