<?xml version="1.0" encoding="UTF-8" standalone="no"?>
<svg
   width="29.135836"
   height="90.206497"
   viewBox="0 0 29.135836 90.206497"
   version="1.1"
   id="svg1"
   xml:space="preserve"
   xmlns="http://www.w3.org/2000/svg"
   xmlns:svg="http://www.w3.org/2000/svg"><defs
     id="defs1" /><path
     id="tooth_45_root"
     style="fill:#fff5d0;fill-opacity:1;stroke:#000000;stroke-width:1;stroke-dasharray:none"
     d="m 1.6972437,26.005319 c -0.021569,0.58583 0.071623,1.114499 0.1402711,1.500492 0.1877967,1.055589 0.1877595,1.054524 0.657229,2.356851 0.4694658,1.302326 1.4065899,3.906903 2.0370179,6.799492 0.630428,2.892552 0.9540185,6.074217 1.2491159,9.981235 0.2950826,3.907017 0.5634497,8.539044 0.6975811,13.816951 0.1341352,5.277907 0.1327593,11.200631 0.1864208,15.203614 0.053662,4.002946 0.1607614,6.086569 0.6034188,8.156625 0.4426461,2.070017 1.2203699,4.127416 1.917873,5.155564 0.697503,1.028187 1.3151867,1.027161 2.2407197,-0.35726 0.925533,-1.38461 2.160365,-4.1544 3.622435,-9.117045 1.46207,-4.962606 3.151054,-12.117382 4.291192,-18.025891 1.140138,-5.908472 1.731125,-10.569687 2.281075,-15.093586 0.549951,-4.523937 1.059174,-8.910747 1.837162,-12.296849 0.185751,-0.808509 0.385065,-1.552636 0.566904,-2.258605 -0.35462,0.397965 -0.796191,0.74884 -1.40093,1.070374 -1.403749,0.746407 -3.659987,1.347212 -5.41155,1.696947 -1.751563,0.349658 -2.997634,0.449615 -3.620512,0.498871 -0.622879,0.04903 -0.623013,0.04865 -2.085065,-0.156966 C 10.045555,34.730518 7.1215416,34.318377 5.5387537,33.934475 3.9559659,33.55061 3.7152402,33.194681 3.1116281,31.357681 2.7194268,30.164052 2.1744593,28.336592 1.6972437,26.005699 Z" /><path
     style="fill:#ffffff;fill-opacity:1;stroke:#000000;stroke-width:1;stroke-dasharray:none"
     d="M 11.507576,34.935639 C 10.045529,34.730024 7.1214226,34.318719 5.5386347,33.934855 3.9558469,33.550953 3.7144481,33.194605 3.110836,31.357605 2.5072239,29.520604 1.5414877,26.20318 1.0183716,21.816332 0.4952517,17.429484 0.41478174,11.973555 0.57328588,9.0426558 0.73177887,6.1117562 1.1292497,5.7060382 2.5135941,5.0039464 3.8979348,4.3018546 6.2690561,3.3034272 8.12094,2.503697 9.9728275,1.7040049 11.305399,1.1030101 12.692544,0.77824564 c 1.387144,-0.32495451 2.828776,-0.3732226 4.057052,-0.0969163 1.228276,0.27630635 2.243111,0.87722516 3.499839,1.52671606 1.256728,0.649453 2.755283,1.347364 3.836535,1.7157218 1.081248,0.3682818 1.745167,0.4071243 2.418583,0.8530151 0.673413,0.4459288 1.356279,1.2989059 1.726187,3.0437785 0.369904,1.7448347 0.426819,4.3814512 0.398363,6.3783442 -0.02863,1.996892 -0.142279,3.354024 -0.483727,5.069822 -0.341455,1.715836 -0.910517,3.790186 -1.451152,5.699816 -0.540635,1.909668 -1.052796,3.654465 -1.583937,4.972792 -0.531141,1.318289 -1.081255,2.210109 -2.485,2.956516 -1.403749,0.746369 -3.661043,1.347364 -5.412606,1.697099 -1.751564,0.349658 -2.997292,0.448133 -3.620171,0.497351 -0.622879,0.04903 -0.622882,0.04903 -2.084934,-0.156586 z"
     id="tooth_45_crown" /></svg>
