<?xml version="1.0" encoding="UTF-8" standalone="no"?>
<svg
   width="46.266117"
   height="74.13015"
   viewBox="0 0 46.266118 74.130151"
   version="1.1"
   id="svg1"
   xml:space="preserve"
   xmlns="http://www.w3.org/2000/svg"
   xmlns:svg="http://www.w3.org/2000/svg"><defs
     id="defs1" /><path
     id="tooth_38_root"
     style="fill:#fff5d0;fill-opacity:1;stroke:#000000;stroke-width:1;stroke-dasharray:none"
     d="m 3.4655651,27.327722 c 0.4678,0.916704 1.21275,1.694677 2.785714,2.253367 2.550289,0.905822 7.2727049,1.235603 10.6595489,1.510096 3.386845,0.274342 5.437126,0.493853 6.462619,0.603666 1.025493,0.109584 1.025238,0.109965 2.59046,0.05517 1.565222,-0.05479 4.696571,-0.164376 7.69212,-0.589891 2.995549,-0.425475 5.854659,-1.167148 7.541333,-2.251425 0.663513,-0.426504 1.141217,-0.908485 1.513679,-1.429467 -0.22156,0.542405 -0.437918,1.145918 -0.568354,1.718534 -0.256366,1.125409 -0.176034,2.112886 -0.216518,5.928364 -0.04048,3.815477 -0.201902,10.458841 -0.49876,15.276141 -0.296858,4.817337 -0.72908,7.808002 -1.498214,11.170531 -0.769135,3.362566 -1.87411,7.09654 -2.84564,9.196375 -0.971531,2.099835 -1.809585,2.566025 -2.524733,2.566025 -0.715147,-3.8e-5 -1.308457,-0.467408 -1.875183,-1.633987 -0.566727,-1.166617 -1.105479,-3.03134 -1.6722,-5.515481 -0.566722,-2.484141 -1.161732,-5.586864 -1.795924,-8.537652 -0.634192,-2.950788 -1.308811,-5.750974 -1.996974,-7.644957 -0.688164,-1.893984 -1.388718,-2.88226 -2.306283,-3.444946 -0.917565,-0.562685 -2.051377,-0.698638 -2.820509,-0.218407 -0.769131,0.480383 -1.174954,1.576873 -1.701197,3.594368 -0.526244,2.017532 -1.17248,4.955726 -1.509813,7.92025 -0.337335,2.964524 -0.365489,5.95633 -0.405968,8.15228 -0.04048,2.195911 -0.09361,3.595776 -0.37697,4.762355 -0.28336,1.166579 -0.79664,2.099302 -1.525278,2.552251 -0.728639,0.452911 -1.672792,0.424906 -2.549864,-0.178836 -0.877068,-0.603855 -1.686942,-1.783714 -2.779911,-3.938455 -1.092965,-2.154779 -2.4696879,-5.282653 -3.4951889,-8.425594 -1.025497,-3.142942 -1.698614,-6.299543 -2.143893,-9.552259 -0.445279,-3.252754 -0.661419,-6.602992 -0.755874,-10.075296 -0.09446,-3.472341 -0.06887,-7.066899 -0.487162,-9.811836 -0.240655,-1.579195 -0.624302,-2.872481 -0.895063,-4.011208 z" /><path
     style="fill:#ffffff;fill-opacity:1;stroke:#000000;stroke-width:1;stroke-dasharray:none"
     d="m 25.964174,31.750061 c 1.565221,-0.05479 4.695677,-0.164757 7.691226,-0.590271 2.995549,-0.425477 5.856074,-1.16658 7.542748,-2.250856 1.686674,-1.084239 2.199407,-2.511538 2.725654,-4.089857 0.526248,-1.578358 1.065962,-3.307585 1.430285,-6.011351 0.364326,-2.703767 0.553227,-6.381845 0.296843,-8.948327 C 45.394545,7.2928792 44.692905,5.8381084 43.640419,4.5617165 42.587933,3.2853627 41.184657,2.187426 39.417004,1.5560981 37.649352,0.92477027 35.517444,0.76005122 33.452949,0.86986392 31.388455,0.97982881 29.391486,1.3639449 27.853218,1.7208172 26.314951,2.0777275 25.235543,2.4070134 23.940164,2.4893538 22.644784,2.5715418 21.133555,2.4071658 19.959621,2.1461416 18.785688,1.8854982 17.94913,1.5285498 16.599772,1.1991498 15.250414,0.86963562 13.388394,0.56782193 11.485816,0.51295363 9.5832391,0.45816143 7.6402411,0.65031463 5.9805511,1.5697201 c -1.659693,0.9195576 -3.035993,2.5664817 -3.953542,4.5153717 -0.917549,1.94889 -1.376314,4.1996702 -1.497752,6.5465642 -0.121431,2.346894 0.09446,4.789827 0.553238,6.985739 0.45878,2.195949 1.160422,4.144801 1.700156,5.860368 0.539734,1.715566 0.917538,3.197771 3.467827,4.103593 2.55029,0.905821 7.2728509,1.235183 10.6596959,1.509677 3.386844,0.274342 5.437793,0.494081 6.463286,0.603856 1.025493,0.109965 1.025493,0.109965 2.590714,0.05517 z"
     id="tooth_38_crown" /></svg>
