<?xml version="1.0" encoding="UTF-8" standalone="no"?>
<svg
   width="46.266117"
   height="74.13015"
   viewBox="0 0 46.266118 74.130151"
   version="1.1"
   id="svg1"
   xml:space="preserve"
   xmlns="http://www.w3.org/2000/svg"
   xmlns:svg="http://www.w3.org/2000/svg"><defs
     id="defs1" /><path
     id="tooth_48_root"
     style="fill:#fff5d0;fill-opacity:1;stroke:#000000;stroke-width:1;stroke-dasharray:none"
     d="m 42.800579,27.327722 c -0.4678,0.916704 -1.21275,1.694677 -2.785714,2.253367 -2.550289,0.905822 -7.272705,1.235603 -10.659549,1.510096 -3.386845,0.274342 -5.437126,0.493853 -6.462619,0.603666 -1.025493,0.109584 -1.025238,0.109965 -2.59046,0.05517 -1.565222,-0.05479 -4.696571,-0.164376 -7.69212,-0.589891 C 9.6145679,30.734655 6.7554584,29.992982 5.0687844,28.908705 4.4052713,28.482201 3.9275673,28.00022 3.5551049,27.479238 c 0.2215604,0.542405 0.4379185,1.145918 0.5683547,1.718534 0.2563659,1.125409 0.1760332,2.112886 0.2165175,5.928364 0.040481,3.815477 0.2019018,10.458841 0.4987603,15.276141 0.2968578,4.817337 0.7290796,7.808002 1.4982141,11.170531 0.7691342,3.362566 1.8741095,7.09654 2.84564,9.196375 0.9715305,2.099835 1.8095845,2.566025 2.5247325,2.566025 0.715147,-3.8e-5 1.308457,-0.467408 1.875183,-1.633987 0.566727,-1.166617 1.105479,-3.03134 1.6722,-5.515481 0.566722,-2.484141 1.161732,-5.586864 1.795924,-8.537652 0.634192,-2.950788 1.308811,-5.750974 1.996974,-7.644957 0.688164,-1.893984 1.388718,-2.88226 2.306283,-3.444946 0.917565,-0.562685 2.051377,-0.698638 2.820509,-0.218407 0.769131,0.480383 1.174954,1.576873 1.701197,3.594368 0.526244,2.017532 1.17248,4.955726 1.509813,7.92025 0.337335,2.964524 0.365489,5.95633 0.405968,8.15228 0.04048,2.195911 0.09361,3.595776 0.37697,4.762355 0.28336,1.166579 0.79664,2.099302 1.525278,2.552251 0.728639,0.452911 1.672792,0.424906 2.549864,-0.178836 0.877068,-0.603855 1.686942,-1.783714 2.779911,-3.938455 1.092965,-2.154779 2.469688,-5.282653 3.495189,-8.425594 1.025497,-3.142942 1.698614,-6.299543 2.143893,-9.552259 0.445279,-3.252754 0.661419,-6.602992 0.755874,-10.075296 0.09446,-3.472341 0.06887,-7.066899 0.487162,-9.811836 0.240655,-1.579195 0.624302,-2.872481 0.895063,-4.011208 z" /><path
     style="fill:#ffffff;fill-opacity:1;stroke:#000000;stroke-width:1;stroke-dasharray:none"
     d="M 20.30197,31.750061 C 18.736749,31.695269 15.606293,31.585304 12.610744,31.15979 9.6151952,30.734313 6.7546705,29.99321 5.0679966,28.908934 3.3813226,27.824695 2.8685896,26.397396 2.3423421,24.819077 1.8160946,23.240719 1.2763805,21.511492 0.91205693,18.807726 0.54773148,16.103959 0.35883059,12.425881 0.61521412,9.859399 0.87159877,7.2928792 1.5732387,5.8381084 2.6257251,4.5617165 3.6782115,3.2853627 5.0814875,2.187426 6.8491399,1.5560981 8.6167922,0.92477027 10.7487,0.76005122 12.813195,0.86986392 c 2.064494,0.10996489 4.061463,0.49408098 5.599731,0.85095328 1.538267,0.3569103 2.617675,0.6861962 3.913054,0.7685366 1.29538,0.082188 2.806609,-0.082188 3.980543,-0.3432122 1.173933,-0.2606434 2.010491,-0.6175918 3.359849,-0.9469918 1.349358,-0.32951418 3.211378,-0.63132787 5.113956,-0.68619617 1.902577,-0.0547922 3.845575,0.137361 5.505265,1.05676647 1.659693,0.9195576 3.035993,2.5664817 3.953542,4.5153717 0.917549,1.94889 1.376314,4.1996702 1.497752,6.5465642 0.121431,2.346894 -0.09446,4.789827 -0.553238,6.985739 -0.45878,2.195949 -1.160422,4.144801 -1.700156,5.860368 -0.539734,1.715566 -0.917538,3.197771 -3.467827,4.103593 -2.55029,0.905821 -7.272851,1.235183 -10.659696,1.509677 -3.386844,0.274342 -5.437793,0.494081 -6.463286,0.603856 -1.025493,0.109965 -1.025493,0.109965 -2.590714,0.05517 z"
     id="tooth_48_crown" /></svg>
