<?xml version="1.0" encoding="UTF-8" standalone="no"?>
<svg
   width="45.58012"
   height="81.484688"
   viewBox="0 0 45.58012 81.484687"
   version="1.1"
   id="svg1"
   xml:space="preserve"
   xmlns="http://www.w3.org/2000/svg"
   xmlns:svg="http://www.w3.org/2000/svg"><defs
     id="defs1" /><path
     id="tooth_36_root"
     style="fill:#fff5d0;fill-opacity:1;stroke:#000000;stroke-width:0.999999;stroke-dasharray:none"
     d="m 3.0433609,26.465699 c 0.207932,0.532955 0.420447,1.043815 0.637873,1.51315 0.984902,2.125999 2.038491,3.524344 4.467022,4.511916 2.4285321,0.987572 6.2320671,1.563155 9.0113651,1.878631 2.779298,0.315627 4.533341,0.371528 5.410298,0.398945 0.876956,0.02662 0.878018,0.02662 3.050182,-0.123969 2.17216,-0.150969 6.514932,-0.453819 9.523592,-1.098498 3.00866,-0.644679 4.681714,-1.631909 6.071365,-3.991169 0.389712,-0.661601 0.756341,-1.438349 1.097909,-2.281493 -0.200152,1.67834 -0.810428,3.65455 -1.097909,5.916953 -0.364284,2.866736 -0.202247,6.185769 0.04058,10.821959 0.242869,4.636152 0.566782,10.588128 0.715189,15.388863 0.148421,4.800734 0.122762,8.450492 -0.201013,11.344646 -0.323812,2.894153 -0.945321,5.032854 -1.660393,6.473104 -0.715073,1.440213 -1.525366,2.181596 -2.294399,2.291343 -0.769036,0.109519 -1.496688,-0.411761 -2.373652,-2.140032 -0.876963,-1.72827 -1.901552,-4.664101 -3.088836,-8.39501 -1.187284,-3.730871 -2.537656,-8.257504 -3.7789,-11.700317 -1.241245,-3.442813 -2.374591,-5.801464 -3.372978,-7.310278 -0.998387,-1.508776 -1.861698,-2.167411 -2.630734,-2.126227 -0.769032,0.04107 -1.442365,0.781996 -2.251873,2.798324 -0.809508,2.016328 -1.755192,5.30783 -2.456765,8.750681 -0.701573,3.442813 -1.159036,7.036899 -1.57728,10.383693 -0.418244,3.346794 -0.796065,6.447436 -1.362723,8.450036 -0.566659,2.0026 -1.322873,2.907919 -2.253808,2.743299 C 11.736542,80.79959 10.630535,79.565068 9.4162709,76.821769 8.2020109,74.078471 6.8796249,69.825863 5.9891689,65.697226 5.0987129,61.568588 4.6393949,57.562703 4.4370169,51.788086 4.2346579,46.01347 4.2887079,38.470996 3.7894829,33.190165 3.5199819,30.339477 3.1025119,28.165487 3.0433679,26.465547 Z" /><path
     style="fill:#ffffff;fill-opacity:1;stroke:#000000;stroke-width:0.999999;stroke-dasharray:none"
     d="m 25.619432,34.643726 c 2.17216,-0.150969 6.516462,-0.452603 9.525121,-1.097282 3.00866,-0.644679 4.681584,-1.632213 6.071238,-3.991435 1.389651,-2.359259 2.495943,-6.090016 3.157037,-9.642576 0.661094,-3.55256 0.876956,-6.926696 0.580135,-9.546519 C 44.656157,7.7460905 43.846664,5.8807312 42.605408,4.3856449 41.364149,2.8905206 39.691226,1.7658214 37.923799,1.2308896 36.156372,0.69595784 34.294558,0.75086944 32.473172,1.0662309 30.651785,1.3818585 28.870919,1.9577839 27.143967,2.3418229 25.417016,2.7258999 23.744081,2.9179003 22.084593,2.71221 20.425101,2.5064816 18.77915,1.9029483 17.119673,1.4640358 15.4602,1.0251232 13.787242,0.75079339 12.07379,0.59993859 10.360339,0.4489697 8.6064449,0.42158996 6.9064849,0.94294597 5.2065249,1.4641879 3.5605659,2.5340515 2.4407529,4.3446133 1.3209389,6.1552131 0.72731895,8.7063971 0.55193295,11.463385 c -0.175391,2.756989 0.06744,5.719668 0.64760495,8.627549 0.580151,2.907881 1.497568,5.760813 2.482474,7.88685 0.984902,2.126037 2.037234,3.525066 4.465766,4.512639 2.4285311,0.987572 6.2330991,1.563649 9.0123971,1.879125 2.779298,0.315627 4.53318,0.370387 5.410136,0.397805 0.876957,0.02662 0.876957,0.02662 3.049121,-0.123589 z"
     id="tooth_36_crown" /></svg>
