<svg xmlns="http://www.w3.org/2000/svg" xmlns:svg="http://www.w3.org/2000/svg" width="46.266117" height="74.13015" viewBox="0 0 46.266118 74.130151" version="1.1" id="svg1" xml:space="preserve" xmlns:sodipodi="http://sodipodi.sourceforge.net/DTD/sodipodi-0.dtd" sodipodi:docname="porto_tooth_38.svg" xmlns:inkscape="http://www.inkscape.org/namespaces/inkscape" inkscape:version="1.4 (86a8ad7, 2024-10-11)" inkscape:export-filename="porto_tooth_38.svg" inkscape:export-xdpi="96" inkscape:export-ydpi="96">
  <path id="tooth_38_root" style="display:inline;fill:#fff5d0;fill-opacity:1;stroke:#000000;stroke-width:1;stroke-dasharray:none" d="m 3.4655651,27.327722 c 0.4678,0.916704 1.21275,1.694677 2.785714,2.253367 2.550289,0.905822 7.2727049,1.235603 10.6595489,1.510096 3.386845,0.274342 5.437126,0.493853 6.462619,0.603666 1.025493,0.109584 1.025238,0.109965 2.59046,0.05517 1.565222,-0.05479 4.696571,-0.164376 7.69212,-0.589891 2.995549,-0.425475 5.854659,-1.167148 7.541333,-2.251425 0.663513,-0.426504 1.141217,-0.908485 1.513679,-1.429467 -0.22156,0.542405 -0.437918,1.145918 -0.568354,1.718534 -0.256366,1.125409 -0.176034,2.112886 -0.216518,5.928364 -0.04048,3.815477 -0.201902,10.458841 -0.49876,15.276141 -0.296858,4.817337 -0.72908,7.808002 -1.498214,11.170531 -0.769135,3.362566 -1.87411,7.09654 -2.84564,9.196375 -0.971531,2.099835 -1.809585,2.566025 -2.524733,2.566025 -0.715147,-3.8e-5 -1.308457,-0.467408 -1.875183,-1.633987 -0.566727,-1.166617 -1.105479,-3.03134 -1.6722,-5.515481 -0.566722,-2.484141 -1.161732,-5.586864 -1.795924,-8.537652 -0.634192,-2.950788 -1.308811,-5.750974 -1.996974,-7.644957 -0.688164,-1.893984 -1.388718,-2.88226 -2.306283,-3.444946 -0.917565,-0.562685 -2.051377,-0.698638 -2.820509,-0.218407 -0.769131,0.480383 -1.174954,1.576873 -1.701197,3.594368 -0.526244,2.017532 -1.17248,4.955726 -1.509813,7.92025 -0.337335,2.964524 -0.365489,5.95633 -0.405968,8.15228 -0.04048,2.195911 -0.09361,3.595776 -0.37697,4.762355 -0.28336,1.166579 -0.79664,2.099302 -1.525278,2.552251 -0.728639,0.452911 -1.672792,0.424906 -2.549864,-0.178836 -0.877068,-0.603855 -1.686942,-1.783714 -2.779911,-3.938455 -1.092965,-2.154779 -2.4696879,-5.282653 -3.4951889,-8.425594 -1.025497,-3.142942 -1.698614,-6.299543 -2.143893,-9.552259 -0.445279,-3.252754 -0.661419,-6.602992 -0.755874,-10.075296 -0.09446,-3.472341 -0.06887,-7.066899 -0.487162,-9.811836 -0.240655,-1.579195 -0.624302,-2.872481 -0.895063,-4.011208 z"/>
  <path style="fill:#ffffff;fill-opacity:1;stroke:#000000;stroke-width:1;stroke-dasharray:none" d="m 25.964174,31.750061 c 1.565221,-0.05479 4.695677,-0.164757 7.691226,-0.590271 2.995549,-0.425477 5.856074,-1.16658 7.542748,-2.250856 1.686674,-1.084239 2.199407,-2.511538 2.725654,-4.089857 0.526248,-1.578358 1.065962,-3.307585 1.430285,-6.011351 0.364326,-2.703767 0.553227,-6.381845 0.296843,-8.948327 C 45.394545,7.2928792 44.692905,5.8381084 43.640419,4.5617165 42.587933,3.2853627 41.184657,2.187426 39.417004,1.5560981 37.649352,0.92477027 35.517444,0.76005122 33.452949,0.86986392 31.388455,0.97982881 29.391486,1.3639449 27.853218,1.7208172 26.314951,2.0777275 25.235543,2.4070134 23.940164,2.4893538 22.644784,2.5715418 21.133555,2.4071658 19.959621,2.1461416 18.785688,1.8854982 17.94913,1.5285498 16.599772,1.1991498 15.250414,0.86963562 13.388394,0.56782193 11.485816,0.51295363 9.5832391,0.45816143 7.6402411,0.65031463 5.9805511,1.5697201 c -1.659693,0.9195576 -3.035993,2.5664817 -3.953542,4.5153717 -0.917549,1.94889 -1.376314,4.1996702 -1.497752,6.5465642 -0.121431,2.346894 0.09446,4.789827 0.553238,6.985739 0.45878,2.195949 1.160422,4.144801 1.700156,5.860368 0.539734,1.715566 0.917538,3.197771 3.467827,4.103593 2.55029,0.905821 7.2728509,1.235183 10.6596959,1.509677 3.386844,0.274342 5.437793,0.494081 6.463286,0.603856 1.025493,0.109965 1.025493,0.109965 2.590714,0.05517 z" id="tooth_38_crown"/>
  <g id="tooth_38_implant">
    <path id="tooth_38_implant-1" style="fill:#9a9a9a;fill-opacity:1;stroke:#000000;stroke-width:0.801567;stroke-dasharray:none" d="m 22.000198,72.924322 c 0.237729,0.0063 0.487496,-0.0819 1.044282,-0.438492 0.556786,-0.356593 1.420052,-0.981931 2.208315,-1.745168 0.788264,-0.763237 1.502296,-1.663763 1.908943,-2.345676 0.406646,-0.681912 0.506248,-1.145746 0.568808,-1.727557 0.06256,-0.581813 0.08639,-1.282976 0.198995,-3.303669 0.112608,-2.020693 0.314073,-5.359876 0.57057,-10.527361 0.256498,-5.167484 0.569469,-12.459852 0.88227,-19.454053 H 14.593359 c 0.212704,4.579387 0.425015,9.568801 0.681513,14.974026 0.256498,5.405224 0.555652,11.635345 0.730823,15.007388 0.17517,3.372043 0.22537,3.886395 0.406794,4.374367 0.181425,0.487973 0.494784,0.951071 1.333091,1.776866 0.838306,0.825797 2.202725,2.012996 2.997251,2.657374 0.794523,0.644381 1.019636,0.745698 1.257367,0.751955 z M 40.095886,33.382346 42.252193,27.778757 H 3.9748258 l 1.7448413,5.603589 z"/>
    <path id="tooth_38_implant-2" style="fill:#656565;fill-opacity:1;stroke:#000000;stroke-width:0.801567;stroke-dasharray:none" d="m 17.706635,70.145793 c 0.157856,0.0039 0.260354,-0.0163 0.248304,-0.07396 -0.03213,-0.153796 -0.750241,-0.50974 0.781892,-0.956232 1.532131,-0.446493 5.499662,-0.892872 7.591743,-1.15875 2.092082,-0.265877 2.30946,-0.350779 2.477752,-0.524783 0.16829,-0.174005 0.28719,-0.437158 0.341637,-0.65862 0.05445,-0.221462 0.04364,-0.401969 -0.0405,-0.63925 -0.08414,-0.237279 -0.242488,-0.530289 -0.443776,-0.776608 -0.201289,-0.246321 -0.445178,-0.444919 -0.57057,-0.383902 -0.125391,0.06103 -0.131149,0.38102 -1.294348,0.713212 -1.163198,0.332193 -3.484037,0.675049 -5.35173,0.975604 -1.867693,0.300554 -3.283615,0.559871 -4.110215,0.751954 -0.826599,0.192083 -1.063437,0.317144 -1.243277,0.531827 -0.17984,0.214683 -0.302356,0.518287 -0.320505,0.803023 -0.01815,0.284738 0.06832,0.551596 0.193712,0.757239 0.125393,0.205641 0.290437,0.35057 0.764281,0.478996 0.296152,0.08026 0.71251,0.153636 0.975604,0.160253 z m -1.669444,-4.328581 c 0.03358,0.0031 0.06498,-0.0039 0.09157,-0.02465 0.106365,-0.08312 0.149504,-0.383054 2.210076,-0.818873 2.060573,-0.435819 6.13819,-1.006858 8.296153,-1.334851 2.157963,-0.327992 2.396005,-0.413438 2.579889,-0.586418 0.183886,-0.172981 0.313844,-0.43318 0.373336,-0.653339 0.05949,-0.220157 0.04792,-0.399844 -0.04402,-0.635726 -0.09194,-0.235883 -0.264339,-0.528217 -0.48428,-0.773087 -0.21994,-0.24487 -0.488149,-0.442799 -0.625161,-0.382141 -0.137011,0.06066 -0.143114,0.379453 -1.414096,0.70969 -1.270983,0.330237 -3.805821,0.671536 -5.846577,0.97032 -2.040757,0.298786 -3.587401,0.555719 -4.490594,0.746673 -0.903194,0.190952 -1.163001,0.316647 -1.359506,0.530065 -0.196503,0.21342 -0.330613,0.51468 -0.350442,0.797742 -0.01983,0.28306 0.07431,0.547522 0.211321,0.751954 0.137012,0.204432 0.318213,0.348517 0.493084,0.487802 0.131154,0.104462 0.258518,0.205474 0.359248,0.214844 z M 15.903353,61.27731 c 0.05167,0.0036 0.09362,-0.0021 0.12151,-0.02289 0.111572,-0.08283 -0.0042,-0.387498 2.076239,-0.824156 2.08041,-0.436656 6.356607,-1.006233 8.620179,-1.333089 2.263574,-0.326856 2.5138,-0.412277 2.706684,-0.584658 0.192885,-0.172382 0.328542,-0.432181 0.390946,-0.651576 0.0624,-0.219396 0.05242,-0.39714 -0.04402,-0.632206 -0.09644,-0.235066 -0.27823,-0.527304 -0.508935,-0.771326 -0.230704,-0.244021 -0.511382,-0.440827 -0.655097,-0.380379 -0.143718,0.06045 -0.151355,0.378835 -1.484539,0.707929 -1.333183,0.329093 -3.991229,0.669048 -6.131861,0.966799 -2.140631,0.297749 -3.763326,0.552857 -4.710722,0.743148 -0.947394,0.190292 -1.220303,0.315626 -1.426423,0.528307 -0.206121,0.212678 -0.345492,0.5139 -0.366292,0.795979 -0.0208,0.28208 0.07818,0.544709 0.221889,0.748432 0.143718,0.203724 0.332546,0.348414 0.596984,0.489563 0.198329,0.105861 0.438443,0.209359 0.593462,0.220126 z m -0.22541,-4.369083 c 0.05037,-2.32e-4 0.09119,-0.0093 0.119749,-0.02994 0.11424,-0.08269 0.01984,-0.34893 2.162529,-0.766044 2.142683,-0.417112 6.522583,-0.985672 8.840306,-1.311957 2.317723,-0.326285 2.572582,-0.410817 2.770081,-0.582897 0.197499,-0.172079 0.337614,-0.430803 0.401511,-0.649815 0.06391,-0.219011 0.05296,-0.397551 -0.04579,-0.632206 -0.09875,-0.234653 -0.285038,-0.525969 -0.521261,-0.769564 -0.236224,-0.243594 -0.523794,-0.440721 -0.670948,-0.380379 -0.147154,0.06033 -0.15468,0.37765 -1.519758,0.706167 -1.365076,0.328518 -4.086185,0.669569 -6.278026,0.9668 -2.19184,0.297228 -3.853365,0.551429 -4.823426,0.741386 -0.970059,0.189959 -1.248831,0.314238 -1.459883,0.526546 -0.211052,0.212307 -0.355559,0.512632 -0.376857,0.794218 -0.0213,0.281587 0.08001,0.545066 0.227171,0.748432 0.147157,0.203368 0.340486,0.346309 0.598746,0.468431 0.193694,0.09159 0.424743,0.171513 0.575852,0.170818 z m -0.3117,-4.527576 c 0.04842,0.002 0.08843,-0.0075 0.117989,-0.02817 0.118241,-0.08247 0.05679,-0.369424 2.292844,-0.795979 2.236046,-0.426555 6.768951,-0.991801 9.167855,-1.317241 2.398903,-0.32544 2.664281,-0.409502 2.868697,-0.581136 0.204416,-0.171633 0.347704,-0.431371 0.413839,-0.649814 0.06614,-0.218445 0.05466,-0.396399 -0.04755,-0.630445 -0.102207,-0.234046 -0.294373,-0.523079 -0.538871,-0.766042 -0.244496,-0.242963 -0.541531,-0.440567 -0.693841,-0.38038 -0.152308,0.06018 -0.159698,0.376741 -1.572588,0.704407 -1.41289,0.327665 -4.231303,0.666817 -6.499914,0.963277 -2.268612,0.296458 -3.986686,0.550161 -4.990723,0.739626 -1.004036,0.189466 -1.294271,0.314787 -1.512714,0.526545 -0.218443,0.211757 -0.36538,0.5116 -0.387423,0.792457 -0.02204,0.280856 0.0819,0.543831 0.234215,0.746672 0.152311,0.20284 0.353279,0.344906 0.602269,0.477235 0.18674,0.09925 0.400673,0.193275 0.545914,0.198995 z m -0.235976,-4.275749 c 0.03813,0.003 0.07194,-0.0041 0.102139,-0.02465 0.120773,-0.08234 0.169725,-0.381867 2.509449,-0.813591 2.339723,-0.431723 6.971133,-0.995851 9.421442,-1.320763 2.450308,-0.324911 2.719774,-0.409781 2.928571,-0.581136 0.208798,-0.171355 0.356853,-0.429964 0.424405,-0.648054 0.06756,-0.21809 0.05509,-0.395015 -0.0493,-0.628684 -0.104397,-0.233666 -0.301461,-0.523472 -0.551198,-0.766041 -0.249737,-0.242569 -0.552357,-0.438708 -0.707929,-0.378619 -0.155572,0.06009 -0.162883,0.375512 -1.606047,0.702646 -1.443165,0.327135 -4.32181,0.665537 -6.639033,0.961515 -2.317225,0.295978 -4.074355,0.550469 -5.099906,0.739628 -1.025552,0.189158 -1.319527,0.313368 -1.542652,0.524783 -0.223125,0.211414 -0.375473,0.510296 -0.39799,0.790696 -0.02252,0.280401 0.08392,0.542399 0.239499,0.744911 0.155575,0.202511 0.361442,0.344544 0.560004,0.482518 0.14892,0.103481 0.29418,0.205562 0.408555,0.214844 z m -0.142643,-4.48355 c 0.03893,0.003 0.07484,-0.0041 0.105662,-0.02465 0.123305,-0.08221 0.173486,-0.379039 2.562279,-0.810069 2.388793,-0.431029 7.115218,-0.996373 9.616915,-1.320762 2.501698,-0.324389 2.777031,-0.408296 2.990207,-0.579375 0.213177,-0.171079 0.364241,-0.428554 0.433211,-0.646294 0.06896,-0.217739 0.05728,-0.395392 -0.0493,-0.628683 -0.106588,-0.233291 -0.308552,-0.522101 -0.563526,-0.764281 -0.254974,-0.242179 -0.563183,-0.43861 -0.722017,-0.378618 -0.158835,0.06 -0.167836,0.376036 -1.641268,0.702645 -1.473432,0.326609 -4.412333,0.664252 -6.778155,0.959755 -2.365822,0.295502 -4.158506,0.549011 -5.205566,0.737866 -1.047059,0.188854 -1.348306,0.313709 -1.57611,0.524782 -0.227804,0.211075 -0.382046,0.508987 -0.405035,0.788937 -0.02299,0.279949 0.08595,0.540963 0.244782,0.743149 0.158837,0.202186 0.367844,0.344765 0.570569,0.482518 0.152046,0.103316 0.300589,0.203816 0.417361,0.213083 z m -0.302895,-4.471223 c 0.05444,0.0024 0.09945,-0.006 0.132076,-0.02642 0.130501,-0.08184 0.05353,-0.37158 2.516494,-0.79774 2.462962,-0.42616 7.465914,-0.987264 10.113522,-1.310197 2.647608,-0.322932 2.938938,-0.407302 3.164547,-0.577614 0.22561,-0.170311 0.384873,-0.42777 0.457865,-0.644531 0.07299,-0.216762 0.05997,-0.392918 -0.05283,-0.625161 -0.112803,-0.232245 -0.325379,-0.519668 -0.595224,-0.76076 -0.269844,-0.241091 -0.596182,-0.43658 -0.764281,-0.376857 -0.1681,0.05973 -0.176993,0.373981 -1.736363,0.699123 -1.559369,0.325143 -4.670576,0.662057 -7.174384,0.956233 -2.503807,0.294175 -4.400333,0.546336 -5.508461,0.734344 -1.10813,0.188006 -1.426593,0.311134 -1.667684,0.521261 -0.24109,0.210126 -0.405358,0.506719 -0.429688,0.785413 -0.02433,0.278694 0.09077,0.540112 0.25887,0.741389 0.168101,0.201277 0.38948,0.343036 0.669186,0.477235 0.20978,0.10065 0.453067,0.196841 0.616356,0.204279 z"/>
  </g>
</svg>