<?xml version="1.0" encoding="UTF-8" standalone="no"?>
<svg
   width="43.914047"
   height="67.91317"
   viewBox="0 0 43.914047 67.913171"
   version="1.1"
   id="svg1"
   xml:space="preserve"
   xmlns="http://www.w3.org/2000/svg"
   xmlns:svg="http://www.w3.org/2000/svg"><defs
     id="defs1" /><g id="tooth_27_root"><path
     id="tooth_27_root_2"
     style="fill:#ffdf5d;fill-opacity:1;stroke:#000000;stroke-width:0.999999;stroke-dasharray:none"
     d="m 22.428137,2.5203238 c 0.277828,0.010661 0.551622,0.083157 0.809538,0.1810115 0.687773,0.2609322 1.254729,0.7011055 1.537922,0.9208437 0.183237,0.1421743 0.330732,0.2907073 0.587346,0.5725736 0.06491,0.3440893 0.132951,0.6855134 0.195127,1.0605431 0.175311,1.0575008 0.282203,2.210819 0.322656,3.996223 0.04045,1.7854003 0.01309,4.2026803 -0.08113,6.2078153 -0.0944,2.005134 -0.256106,3.599231 -0.633719,5.13746 -0.377601,1.538179 -0.970241,3.020577 -1.765905,3.817157 -0.795663,0.79658 -1.793456,0.907608 -2.643066,0.413196 -0.84961,-0.494412 -1.551034,-1.593045 -2.076971,-2.705463 -0.525934,-1.112455 -0.876466,-2.239532 -1.308007,-3.736509 -0.06333,-0.219696 -0.132876,-0.488057 -0.199015,-0.722116 0.17202,-0.414323 0.348341,-0.843226 0.510065,-1.241562 0.579888,-1.428312 1.065345,-2.802289 1.335057,-4.313008 0.269715,-1.510719 0.323478,-3.1588605 0.606668,-4.8206481 0.283212,-1.6617915 0.795981,-3.3373853 1.45678,-4.133954 0.412996,-0.4978578 0.88361,-0.6514053 1.346646,-0.6335707 z" /><path
     id="tooth_27_root_1"
     style="fill:#fff5d0;fill-opacity:1;stroke:#000000;stroke-width:0.999999;stroke-dasharray:none"
     d="m 27.148174,0.50942462 c 0.153178,-0.0144687 0.308113,-0.012565 0.459828,0.007996 0.606856,0.0823956 1.173123,0.46657104 1.968775,1.23566048 0.795656,0.7690857 1.819362,1.9226513 2.938673,3.3921609 1.119306,1.4695134 2.33286,3.2546546 3.303831,5.38339 0.970971,2.128732 1.699912,4.602113 2.26631,7.293938 0.566402,2.691828 0.970436,5.60229 1.15924,8.513857 0.188808,2.911567 0.162861,5.822829 0.365166,8.11639 0.163572,1.854511 0.471336,3.278501 0.699409,4.208727 -0.09698,-0.18086 -0.178975,-0.312601 -0.233785,-0.393512 -0.136167,-0.20142 -0.136092,-0.20142 -1.680897,-0.570639 -1.54479,-0.368953 -4.634543,-1.10743 -7.705075,-1.534714 -3.070535,-0.427285 -6.121487,-0.543339 -9.134804,-0.562758 -3.013321,-0.01904 -5.989048,0.05787 -8.773508,0.407295 -2.7844594,0.349534 -5.3774224,0.971119 -6.7718874,1.416679 -1.048977,0.335066 -1.420559,0.571592 -1.767839,1.143183 0.03365,-0.694842 0.107752,-1.391626 0.183537,-2.327677 0.107901,-1.332152 0.216475,-3.144856 0.243431,-5.410927 0.02692,-2.26607 -0.02692,-4.985088 0.08113,-7.429695 0.107903,-2.444646 0.377607,-4.614823 0.67429,-6.935829 0.296671,-2.32101 0.619698,-4.792803 1.118667,-6.7430098 0.498969,-1.9502029 1.173081,-3.3782405 1.955252,-4.6966888 0.782166,-1.3184483 1.6734494,-2.5278709 2.4421294,-3.0360244 0.768677,-0.5081572 1.415777,-0.3154946 1.941725,0.1377196 0.525945,0.4532141 0.930368,1.1679925 1.294483,2.2666912 0.364119,1.0986987 0.686697,2.5799888 0.969898,4.1044377 0.283212,1.5244485 0.526606,3.0901495 0.904204,4.8068765 0.377597,1.716726 0.889992,3.585356 1.321533,5.082345 0.43154,1.49697 0.782073,2.624046 1.308006,3.736501 0.525937,1.112418 1.227361,2.211052 2.076971,2.705464 0.849611,0.494412 1.847403,0.383383 2.643067,-0.413197 0.795663,-0.79658 1.388304,-2.278978 1.765905,-3.817157 0.377605,-1.538206 0.539318,-3.132318 0.633718,-5.137452 0.0944,-2.005135 0.121623,-4.422415 0.08113,-6.2078155 C 25.840237,7.4662366 25.733342,6.3129184 25.558031,5.2554175 25.38272,4.1979166 25.138817,3.2365681 25.152299,2.5224065 25.16576,1.8082412 25.4357,1.3408515 25.894212,0.99750458 26.238104,0.73999915 26.688563,0.55267091 27.148126,0.50953884 Z" /></g><path
     style="display:inline;fill:#ffffff;fill-opacity:1;stroke:#000000;stroke-width:0.999999;stroke-dasharray:none"
     d="M 38.394227,37.696783 C 36.849436,37.327831 33.759871,36.589735 30.689335,36.16245 27.6188,35.735166 24.56743,35.618654 21.554112,35.599236 c -3.013321,-0.01904 -5.988405,0.05826 -8.772864,0.407866 -2.7844634,0.349534 -5.3781224,0.971118 -6.7725874,1.416679 -1.394466,0.445561 -1.589779,0.715327 -2.125695,1.832161 -0.53592,1.116796 -1.412457,3.08066 -1.999081,5.037747 -0.586629,1.957049 -0.883308,3.907206 -1.07885,5.78186 -0.195538,1.874653 -0.289942,3.673764 -0.303439,5.308084 -0.01346,1.634282 0.05391,3.103772 0.397817,4.552702 0.343892,1.448891 0.964211,2.877184 1.867757,4.017092 0.903546,1.139908 2.090244,1.991355 3.290465,2.526965 1.200221,0.53561 2.413906,0.755382 3.843392,0.86523 1.4294874,0.110039 3.0746864,0.110039 4.6659974,-0.192282 1.591309,-0.30232 3.12864,-0.906428 4.50418,-1.277246 1.37554,-0.370857 2.589191,-0.508158 3.587129,-0.46696 0.997939,0.04112 1.780098,0.260818 2.656668,0.563063 0.876571,0.30232 1.847508,0.686693 3.223048,0.892682 1.375539,0.20599 3.155607,0.233404 4.787372,0.247111 1.631766,0.01523 3.115147,0.01523 4.463723,-0.508195 1.348572,-0.521903 2.562245,-1.565632 3.438808,-2.856585 0.876563,-1.290992 1.415971,-2.829133 1.739625,-4.394765 0.323666,-1.565669 0.431544,-3.158753 0.445034,-4.902921 0.01346,-1.744206 -0.06741,-3.639421 -0.283175,-5.259995 -0.215764,-1.620613 -0.566387,-2.966472 -0.984445,-4.573339 -0.418059,-1.606867 -0.903523,-3.474591 -1.28243,-4.609854 -0.378906,-1.135262 -0.651208,-1.53795 -0.78737,-1.739332 -0.136166,-0.20142 -0.136166,-0.20142 -1.680957,-0.570259 z"
     id="tooth_27_crown" /></svg>
