<?xml version="1.0" encoding="UTF-8" standalone="no"?>
<svg
   width="29.545004"
   height="90.514557"
   viewBox="0 0 29.545003 90.514556"
   version="1.1"
   id="svg1"
   xml:space="preserve"
   xmlns="http://www.w3.org/2000/svg"
   xmlns:svg="http://www.w3.org/2000/svg"><defs
     id="defs1" /><path
     id="tooth_14_root"
     style="fill:#fff5d0;fill-opacity:1;stroke:#000000;stroke-width:1;stroke-dasharray:none"
     d="M 12.531351,0.51468547 C 10.327789,1.5478677 11.201814,4.7023262 10.703928,6.6847839 10.060265,12.230918 10.405852,17.813933 10.183503,23.376708 9.5332893,31.131973 8.7793719,38.88072 8.0032667,46.624804 7.4651535,52.282235 6.2279356,57.853937 4.2468865,63.183472 6.4701304,59.906364 10.884144,59.930881 14.432326,59.779935 c 3.132536,0.131212 6.412004,-0.03428 9.390517,1.083714 1.574651,0.263088 3.160518,3.697665 3.192328,3.339885 C 26.036319,61.89673 24.880649,59.596296 24.870513,57.02095 24.162251,48.132031 22.736587,39.318733 21.654752,30.470792 20.306818,21.334612 19.30889,11.905687 15.334736,3.4516679 14.660364,2.3225726 13.99201,0.70525856 12.531351,0.51468547 Z" /><path
     style="fill:#ffffff;fill-opacity:1;stroke:#000000;stroke-width:1;stroke-dasharray:none"
     d="m 16.122798,59.807983 c 1.046465,0.04105 3.139418,0.123137 4.937219,0.35649 1.797797,0.232974 3.300397,0.616866 4.561538,2.069965 1.261144,1.453137 2.280754,3.975405 2.817403,6.07281 0.536653,2.097366 0.590312,3.769757 0.603728,6.086491 0.01339,2.316772 -0.01339,5.277698 -1.019654,7.649274 -1.006238,2.371538 -2.991822,4.153612 -4.856705,5.373661 -1.864884,1.22005 -3.608963,1.878038 -5.245766,2.248135 -1.636802,0.370172 -3.166236,0.45234 -4.628624,0.219291 -1.462392,-0.232973 -2.857649,-0.781353 -4.7627898,-1.782074 -1.9051441,-1.000721 -4.3200226,-2.453782 -5.80924,-4.098808 -1.4892212,-1.645026 -2.05269221,-3.481904 -2.18684991,-5.3737 -0.134165,-1.891757 0.1609833,-3.838281 0.55006581,-5.757478 0.3890787,-1.919197 0.8720506,-3.810879 1.3952944,-5.510747 0.52324,-1.69983 1.0867185,-3.207733 1.851452,-4.304417 0.7647336,-1.096647 1.7306998,-1.782074 2.9113376,-2.248173 1.1806378,-0.46606 2.5759209,-0.712829 3.9175529,-0.849877 1.341636,-0.137199 2.629591,-0.164563 3.273576,-0.178245 0.643985,-0.0152 0.643996,-0.0152 1.690462,0.0266 z"
     id="tooth_14_crown" /></svg>
