<?xml version="1.0" encoding="UTF-8" standalone="no"?>
<svg
   width="45.602448"
   height="69.349335"
   viewBox="0 0 45.602447 69.349334"
   version="1.1"
   id="svg1"
   xml:space="preserve"
   xmlns="http://www.w3.org/2000/svg"
   xmlns:svg="http://www.w3.org/2000/svg"><defs
     id="defs1" /><g id="tooth_16_root"><path
     id="tooth_16_root_2"
     style="fill:#ffdf5d;fill-opacity:1;stroke:#000000;stroke-width:0.999999;stroke-dasharray:none"
     d="m 18.779318,1.2547235 c -0.612339,-0.032277 -1.436317,0.3751278 -2.178335,1.1792149 -0.711421,0.7709317 -1.354823,1.9091134 -2.439024,3.3398121 0.0493,0.2016945 0.09749,0.381268 0.148129,0.5934863 0.54585,2.2878292 1.188247,5.1797212 2.046016,8.0993332 0.857765,2.919617 1.931262,5.867025 2.974227,7.800658 1.042961,1.933625 2.056648,2.853861 3.021623,3.217617 0.96498,0.363681 1.880743,0.172645 2.835985,-0.717603 0.464841,-0.433227 0.939588,-1.035008 1.423916,-1.794046 -0.290832,-0.626251 -0.600817,-1.305234 -0.945986,-2.160593 -1.042957,-2.584554 -2.271523,-6.546804 -3.20727,-9.74403 C 21.522856,7.871351 20.878483,5.4406243 20.410611,3.8420094 19.942735,2.2433983 19.651992,1.4773382 19.028168,1.2954528 c -0.07796,-0.022894 -0.161352,-0.03603 -0.248831,-0.040722 z" /><path
     id="tooth_16_root_1"
     style="fill:#fff5d0;fill-opacity:1;stroke:#000000;stroke-width:0.999999;stroke-dasharray:none"
     d="M 10.607109,0.50219735 C 10.37666,0.51270618 10.150538,0.55751884 9.9336597,0.63408319 9.0661452,0.94037814 8.364439,1.7446491 7.6723787,2.8742022 6.9803185,4.0037553 6.2971437,5.4590935 5.7902792,7.3544403 5.2834185,9.2497871 4.9514542,11.584129 4.6882766,13.785808 c -0.2631623,2.201679 -0.4574767,4.269228 -0.554953,6.528346 -0.097491,2.259106 -0.096918,4.710141 -0.1066636,7.017093 -0.00955,2.306989 -0.029045,4.471508 0.029809,6.328569 0.05851,1.857061 0.1943716,3.407076 0.1066636,4.84292 -0.072727,1.190426 -0.2879651,2.210946 -0.4522562,2.932528 0.093746,-0.239452 0.2825383,-0.72237 0.3159782,-0.806816 0.068217,-0.17227 0.068026,-0.171894 1.3449175,-0.574082 1.2768874,-0.402076 3.830777,-1.206752 6.8134699,-1.82895 2.982695,-0.622236 6.394553,-1.062556 9.55268,-1.186973 3.158131,-0.124605 6.061488,0.06718 9.12215,0.612853 3.060663,0.545671 6.276937,1.444326 8.310456,2.212972 1.739802,0.657628 2.611421,1.223416 3.24874,2.139261 0.214665,-1.08864 0.118778,-2.075908 -0.01758,-4.065154 -0.175454,-2.555861 -0.408934,-6.768101 -0.418687,-10.721562 -0.0099,-3.953423 0.204423,-7.647559 0.282424,-10.777772 0.07796,-3.130217 0.01873,-5.696895 -0.215276,-7.8219907 C 41.816222,6.4919542 41.406842,4.8087132 40.539339,3.5355718 39.671832,2.2624268 38.345794,1.3994414 37.332068,1.3419994 36.318347,1.2845761 35.61747,2.0322571 34.681731,3.9467449 33.745987,5.861229 32.57553,8.9430906 31.444838,11.929712 c -1.130688,2.986618 -2.221573,5.876821 -3.264538,8.11679 -1.042965,2.23998 -2.03676,3.830492 -2.992002,4.72074 -0.955241,0.890248 -1.871005,1.081359 -2.835984,0.717603 C 21.387338,25.121164 20.373651,24.200853 19.33069,22.267228 18.287725,20.333595 17.214229,17.386187 16.356463,14.46657 15.498694,11.546958 14.856297,8.655066 14.310447,6.3672368 13.764594,4.0794039 13.315288,2.3964857 12.574493,1.4583697 12.018894,0.75478464 11.298764,0.47079095 10.607476,0.50219735 Z" /></g><path
     style="display:inline;fill:#ffffff;fill-opacity:1;stroke:#000000;stroke-width:0.999999;stroke-dasharray:none"
     d="m 5.3714017,40.053427 c 1.2768836,-0.402038 3.8306508,-1.206151 6.8133433,-1.828349 2.982696,-0.622198 6.394152,-1.062518 9.552279,-1.186935 3.158127,-0.124605 6.062745,0.06681 9.123408,0.612627 3.060662,0.545634 6.277177,1.445415 8.310696,2.214061 2.033523,0.768646 2.883939,1.406082 3.556501,2.631374 0.672562,1.225293 1.167232,3.038292 1.502303,4.978672 0.335087,1.940381 0.510518,4.007994 0.666478,6.066074 0.155963,2.05808 0.292436,4.106551 0.136473,5.791305 -0.155964,1.684753 -0.604322,3.005714 -1.218408,4.183153 -0.614082,1.177402 -1.393832,2.211171 -2.271099,3.072708 -0.877264,0.861537 -1.851962,1.550728 -3.577249,1.924055 -1.725292,0.373438 -4.201031,0.430749 -6.150496,0.19141 -1.949461,-0.239451 -3.37252,-0.775364 -4.844368,-1.14869 -1.471844,-0.373439 -2.99238,-0.583916 -4.347257,-0.497743 -1.354873,0.08595 -2.544018,0.469031 -4.045102,0.842358 -1.50108,0.373439 -3.314037,0.737044 -5.166029,0.823217 C 11.560883,68.808671 9.669951,68.61726 8.1493728,68.234513 6.6287946,67.851616 5.478631,67.277309 4.4454152,66.367882 3.4121994,65.458493 2.4959964,64.214134 1.8721726,62.95056 1.2483449,61.686985 0.9169462,60.404307 0.7122521,58.537638 0.50756183,56.671007 0.42959914,54.220535 0.57577918,52.239019 0.72199744,50.257541 1.0923814,48.745133 1.6479802,47.03163 c 0.5555988,-1.713465 1.2963742,-3.627912 1.734987,-4.757424 0.4386165,-1.129512 0.5750933,-1.474164 0.6433259,-1.646471 0.068217,-0.17227 0.068217,-0.17227 1.3451124,-0.574345 z"
     id="tooth_16_crown" /></svg>
