<svg xmlns="http://www.w3.org/2000/svg" xmlns:svg="http://www.w3.org/2000/svg" xmlns:sodipodi="http://sodipodi.sourceforge.net/DTD/sodipodi-0.dtd" xmlns:inkscape="http://www.inkscape.org/namespaces/inkscape" width="19.252661" height="85.623878" viewBox="0 0 19.252661 85.623881" version="1.1" id="svg1" xml:space="preserve" sodipodi:docname="porto_tooth_32.svg" inkscape:version="1.4 (86a8ad7, 2024-10-11)">
    <path id="tooth_72_root" style="fill:#fff5d0;fill-opacity:1;stroke:#000000;stroke-width:1;stroke-dasharray:none" d="m 18.482114,22.261741 c -0.03898,0.592141 -0.105836,1.286559 -0.289665,2.080744 -0.279341,1.206829 -0.79853,2.483426 -1.151014,5.88453 -0.352467,3.401142 -0.537661,8.927322 -0.630771,15.174155 -0.09311,6.246796 -0.09356,13.213787 -0.160081,19.199985 -0.06652,5.986199 -0.199797,10.990311 -0.432584,14.144544 -0.232765,3.154233 -0.565554,4.458585 -1.084316,5.295126 -0.518761,0.836579 -1.224022,1.205878 -1.762726,1.027597 -0.5387,-0.178319 -0.910066,-0.905397 -1.282501,-2.139677 -0.372435,-1.23428 -0.74487,-2.975039 -1.656009,-7.884707 C 9.1213038,70.134332 7.6709888,62.056553 6.2211448,53.78692 4.7713018,45.517287 3.3221408,37.054963 2.4841648,32.378478 c -0.837976,-4.676484 -1.064635,-5.567281 -1.177691,-6.945547 -0.02102,-0.254362 -0.03245,-0.537809 -0.04385,-0.819317 0.200498,0.779167 0.494142,1.219223 1.419711,1.560044 1.0242,0.37717 2.821417,0.637006 4.184806,0.774149 1.363394,0.137256 2.293838,0.152464 2.7593829,0.158928 0.4655443,0.0076 0.4660643,0.0038 1.5035573,-0.07642 1.037498,-0.08213 3.110979,-0.245619 4.434454,-0.567848 1.323471,-0.322419 1.896374,-0.803082 2.315362,-1.660231 0.25869,-0.529216 0.458557,-1.205802 0.602188,-2.540495 z"/>
    <path style="fill:#ffffff;fill-opacity:1;stroke:#000000;stroke-width:1;stroke-dasharray:none" d="m 11.129466,27.030845 c 1.037489,-0.08213 3.112483,-0.246757 4.435954,-0.569139 1.323471,-0.322419 1.895412,-0.802283 2.3144,-1.659432 0.418992,-0.857148 0.685001,-2.091352 0.804713,-5.90392 C 18.804235,15.085785 18.777647,8.6951943 18.63132,5.1912432 18.484994,1.6873302 18.218989,1.0702093 15.545403,0.76166789 12.871822,0.45293634 7.7908708,0.45293634 4.8313328,0.62441162 1.8717958,0.7958869 1.0338708,1.1386854 0.69469185,4.4986504 c -0.339191,3.360003 -0.179552,9.7369066 -0.01991,13.6248326 0.159602,3.887927 0.319241,5.286724 0.52539595,6.232994 0.206177,0.94627 0.458888,1.439974 1.483084,1.817105 1.024199,0.37717 2.819841,0.637729 4.183231,0.774833 1.363394,0.137256 2.294428,0.150944 2.7599762,0.157788 0.465545,0.0076 0.465534,0.0076 1.503027,-0.07528 z" id="tooth_72_crown"/>
    <g id="tooth_72_implant">
      <path id="tooth_72_implant-1" style="fill:#9a9a9a;fill-opacity:1;stroke:#000000;stroke-width:0.738039;stroke-dasharray:none" d="M 9.5851837,65.824401 C 9.3638747,65.830067 9.1313599,65.749812 8.6130322,65.425077 8.0947045,65.100338 7.291066,64.530859 6.55725,63.835799 5.8234334,63.140739 5.1587211,62.320655 4.7801624,61.699655 4.4016037,61.078656 4.3088826,60.656254 4.2506428,60.126415 4.1924028,59.596573 4.1702226,58.958043 4.0653929,57.117851 3.9605627,55.27766 3.7730147,52.236755 3.5342339,47.530864 3.295453,42.824974 3.0040986,36.455124 2.7129046,30.085692 l 13.7675104,0.102637 c -0.198012,4.170326 -0.395658,8.340299 -0.63444,13.262694 -0.238781,4.922394 -0.517271,10.595999 -0.680343,13.666828 -0.163071,3.07083 -0.209803,3.539236 -0.378696,3.98362 -0.168893,0.444383 -0.460608,0.866115 -1.241011,1.618144 -0.780402,0.752031 -2.050578,1.833183 -2.790224,2.420001 -0.739644,0.58682 -0.9492075,0.679087 -1.1705173,0.684785 z M 2.6850352,30.002299 1.3571377,24.961834 H 17.91979 l -1.380357,5.040465 z"/>
      <path id="tooth_72_implant-2" style="fill:#656565;fill-opacity:1;stroke:#000000;stroke-width:0.738039;stroke-dasharray:none" d="m 13.677076,62.637038 c -0.146953,0.0036 -0.242371,-0.01484 -0.231153,-0.06735 0.02991,-0.140058 0.69842,-0.464206 -0.727885,-0.870815 C 11.291734,61.29226 7.5982502,60.885755 5.6506729,60.643627 3.7030962,60.401499 3.5007328,60.324181 3.3440658,60.16572 3.1873989,60.007259 3.0767131,59.767612 3.0260262,59.565933 c -0.050687,-0.20168 -0.040627,-0.366063 0.037705,-0.582148 0.078333,-0.216084 0.2257386,-0.48292 0.4131237,-0.707236 0.187385,-0.224318 0.4144282,-0.405176 0.531159,-0.349609 0.1167308,0.05557 0.122091,0.346984 1.2049441,0.649503 1.082853,0.302519 3.2433879,0.614749 4.982075,0.888456 1.738687,0.273707 3.056808,0.50986 3.826312,0.684785 0.769504,0.174925 0.989984,0.288814 1.157402,0.48432 0.167418,0.195506 0.281472,0.47199 0.298367,0.731293 0.01689,0.259302 -0.0636,0.502323 -0.180332,0.689596 -0.116732,0.187272 -0.270376,0.319255 -0.711491,0.43621 -0.275696,0.07309 -0.663295,0.139912 -0.908216,0.145937 z m 1.554132,-3.941923 c -0.03126,0.0028 -0.0605,-0.0035 -0.08525,-0.02245 -0.09902,-0.0757 -0.139177,-0.348836 -2.057421,-0.745725 C 11.170295,57.530054 7.3743286,57.010024 5.3654209,56.71133 3.3565131,56.412636 3.1349138,56.334822 2.9637298,56.177294 2.7925458,56.019765 2.6715649,55.782809 2.6161813,55.582316 c -0.055384,-0.200492 -0.044606,-0.364127 0.040984,-0.578939 0.085591,-0.214813 0.2460809,-0.481033 0.4508294,-0.70403 0.2047485,-0.222997 0.4544325,-0.403245 0.5819798,-0.348005 0.1275473,0.05524 0.1332294,0.345557 1.3164218,0.646295 1.1831924,0.300739 3.5429436,0.61155 5.4427407,0.883645 1.899797,0.272097 3.33961,0.506079 4.180418,0.679974 0.840808,0.173896 1.08267,0.288363 1.265602,0.482717 0.18293,0.194356 0.307776,0.468706 0.326236,0.726482 0.01845,0.257776 -0.06918,0.498614 -0.196725,0.684785 -0.12755,0.18617 -0.296234,0.317385 -0.459026,0.444228 -0.122095,0.09513 -0.240662,0.18712 -0.334434,0.195653 z m 0.124593,-4.134368 c -0.0481,0.0033 -0.08715,-0.002 -0.113117,-0.02085 -0.103866,-0.07543 0.0039,-0.352884 -1.932829,-0.750537 C 11.373144,53.391711 7.3923143,52.873013 5.2850913,52.575353 3.1778683,52.277694 2.9449265,52.199904 2.7653648,52.042921 2.5858031,51.885937 2.4595166,51.649345 2.4014225,51.449548 c -0.058094,-0.199798 -0.048796,-0.361665 0.040984,-0.575733 0.08978,-0.214068 0.2590118,-0.480202 0.4737807,-0.702426 0.2147688,-0.222223 0.4760598,-0.40145 0.6098492,-0.346402 0.1337895,0.05505 0.1408997,0.344996 1.381997,0.644693 1.2410975,0.299696 3.7155467,0.609284 5.7083206,0.880438 1.992773,0.271153 3.503384,0.503472 4.385341,0.676766 0.881956,0.173293 1.136014,0.287432 1.327897,0.481114 0.191883,0.193681 0.321628,0.467995 0.340991,0.724877 0.01936,0.256883 -0.07278,0.496052 -0.206562,0.681577 -0.133791,0.185526 -0.309577,0.317291 -0.555749,0.445832 -0.18463,0.0964 -0.408159,0.190657 -0.552471,0.200463 z m 0.209841,-3.978808 c -0.04689,-2.11e-4 -0.08489,-0.0084 -0.111479,-0.02726 -0.106349,-0.0753 -0.01848,-0.31776 -2.013157,-0.697614 C 11.446323,49.477207 7.3689523,48.959434 5.2113192,48.662296 3.0536863,48.365156 2.8164323,48.288175 2.632575,48.131467 2.4487179,47.974758 2.3182803,47.739146 2.2587965,47.539697 c -0.059484,-0.199448 -0.049303,-0.362039 0.042624,-0.575733 0.091928,-0.213692 0.2653497,-0.478986 0.4852564,-0.700821 0.2199066,-0.221835 0.4876136,-0.401354 0.6246036,-0.346402 0.13699,0.05494 0.1439972,0.343916 1.4147847,0.643088 1.2707874,0.299173 3.8039434,0.609759 5.8443878,0.880439 2.040446,0.270678 3.587206,0.502172 4.490262,0.675161 0.903055,0.17299 1.162571,0.286168 1.359045,0.47951 0.196474,0.193344 0.331,0.466841 0.350827,0.723274 0.01983,0.256433 -0.07449,0.496377 -0.211479,0.681577 -0.136993,0.185201 -0.316969,0.315375 -0.55739,0.426587 -0.180315,0.08341 -0.395406,0.156193 -0.536076,0.15556 z m 0.29017,-4.123142 c -0.04507,0.0018 -0.08233,-0.0069 -0.10984,-0.02566 -0.110073,-0.07511 -0.05287,-0.336425 -2.134471,-0.724878 C 11.529902,45.319809 7.3100964,44.805054 5.0768901,44.508685 2.843684,44.212316 2.5966377,44.135763 2.4063407,43.979461 c -0.190297,-0.156303 -0.323687,-0.392839 -0.3852542,-0.59177 -0.061568,-0.198931 -0.050884,-0.360989 0.044263,-0.574129 0.095147,-0.213139 0.274041,-0.476354 0.5016501,-0.697614 0.227609,-0.22126 0.5041274,-0.401212 0.6459156,-0.346402 0.1417882,0.05481 0.148668,0.343088 1.463966,0.641485 1.3152979,0.298396 3.9390371,0.607253 6.0509508,0.87723 2.111913,0.269977 3.711316,0.501017 4.646002,0.673558 0.934685,0.172542 1.204872,0.286668 1.408227,0.479511 0.203355,0.192841 0.340142,0.4659 0.360663,0.72167 0.02052,0.255768 -0.07625,0.495252 -0.218037,0.679973 -0.141791,0.184722 -0.328877,0.314097 -0.560668,0.434606 -0.173843,0.09038 -0.372999,0.17601 -0.508207,0.18122 z m 0.219676,-3.893811 c -0.03549,0.0028 -0.06697,-0.0037 -0.09508,-0.02245 -0.112431,-0.07498 -0.158002,-0.347755 -2.336116,-0.740915 C 11.466175,41.408465 7.1546666,40.894729 4.8736071,40.59884 2.5925475,40.302953 2.3416934,40.225664 2.1473187,40.069616 1.9529439,39.913567 1.8151148,39.678058 1.7522282,39.47945 1.6893414,39.280842 1.7009448,39.11972 1.79813,38.906925 c 0.097186,-0.212794 0.2806396,-0.476713 0.5131258,-0.697614 0.2324864,-0.220902 0.5142043,-0.399519 0.6590307,-0.344798 0.1448265,0.05472 0.1516318,0.341968 1.4951143,0.639881 1.3434823,0.297913 4.0232926,0.606087 6.1804602,0.875626 2.157168,0.269539 3.79293,0.501297 4.747643,0.673559 0.954715,0.172262 1.228385,0.285377 1.436097,0.477906 0.207713,0.192529 0.349539,0.464713 0.3705,0.720066 0.02096,0.255354 -0.07813,0.493949 -0.222956,0.67837 -0.144828,0.184422 -0.336476,0.313767 -0.521323,0.439417 -0.138633,0.09424 -0.27386,0.1872 -0.380335,0.195653 z m 0.13279,-4.08305 c -0.03624,0.0028 -0.06967,-0.0037 -0.09836,-0.02245 -0.114789,-0.07487 -0.161504,-0.34518 -2.385297,-0.737707 C 11.500824,37.329255 7.1008652,36.814412 4.7719655,36.518999 2.4430658,36.223587 2.1867502,36.147175 1.9882989,35.991377 1.7898476,35.835581 1.649217,35.601105 1.5850114,35.402815 1.520806,35.204526 1.5316894,35.042742 1.630914,34.83029 c 0.099225,-0.212452 0.2872394,-0.475464 0.5246014,-0.69601 0.2373622,-0.220546 0.5242819,-0.399431 0.6721458,-0.344798 0.1478638,0.05464 0.1562429,0.342446 1.5279017,0.639881 1.3716589,0.297434 4.1075627,0.604916 6.3099721,0.874023 2.20241,0.269105 3.871269,0.499969 4.846006,0.671955 0.974737,0.171985 1.255175,0.285686 1.467244,0.477905 0.21207,0.19222 0.355658,0.463521 0.377058,0.718463 0.0214,0.254943 -0.08001,0.492641 -0.227873,0.676766 -0.147867,0.184126 -0.342437,0.313969 -0.53116,0.439417 -0.141543,0.09409 -0.279825,0.18561 -0.388533,0.194049 z m 0.281973,-4.071823 c -0.05067,0.0022 -0.09258,-0.0054 -0.122953,-0.02406 -0.121487,-0.07453 -0.04983,-0.338389 -2.342674,-0.726481 C 11.731785,33.27148 7.0743987,32.760496 4.609667,32.46641 2.1449351,32.172325 1.8737276,32.095491 1.6637017,31.940393 1.4536758,31.785295 1.3054132,31.550834 1.237463,31.353435 1.169512,31.156036 1.181633,30.995615 1.286644,30.784117 1.3916557,30.572619 1.5895481,30.31087 1.8407543,30.091314 2.0919605,29.871758 2.3957572,29.693732 2.5522451,29.74812 c 0.156488,0.05439 0.164768,0.340575 1.6164283,0.636673 1.4516603,0.296099 4.3479687,0.602918 6.6788336,0.870816 2.330863,0.267897 4.096391,0.497534 5.127979,0.668747 1.031589,0.171213 1.328054,0.283342 1.552492,0.474698 0.224438,0.191357 0.37736,0.461457 0.400009,0.715256 0.02265,0.253798 -0.0845,0.491865 -0.240989,0.675163 -0.156489,0.183297 -0.362578,0.312394 -0.622964,0.434605 -0.195289,0.09166 -0.421772,0.179258 -0.573783,0.186031 z"/>
    </g>
</svg>