<?xml version="1.0" encoding="UTF-8" standalone="no"?>
<svg
   width="29.545004"
   height="90.514557"
   viewBox="0 0 29.545003 90.514556"
   version="1.1"
   id="svg1"
   xml:space="preserve"
   xmlns="http://www.w3.org/2000/svg"
   xmlns:svg="http://www.w3.org/2000/svg"><defs
     id="defs1" /><path
     id="tooth_14_root"
     style="fill:#fff5d0;fill-opacity:1;stroke:#000000;stroke-width:1;stroke-dasharray:none"
     d="m 17.013653,0.51468547 c 2.203562,1.03318223 1.329537,4.18764073 1.827423,6.17009843 0.643663,5.5461341 0.298076,11.1291491 0.520425,16.6919241 0.650214,7.755265 1.404131,15.504012 2.180237,23.248096 0.538113,5.657431 1.775331,11.229133 3.75638,16.558668 -2.223244,-3.277108 -6.637258,-3.252591 -10.18544,-3.403537 -3.132536,0.131212 -6.4120038,-0.03428 -9.3905168,1.083714 -1.574651,0.263088 -3.160518,3.697665 -3.192328,3.339885 0.978852,-2.306804 2.134522,-4.607238 2.144658,-7.182584 0.708262,-8.888919 2.133926,-17.702217 3.215761,-26.550158 1.347934,-9.13618 2.3458618,-18.565105 6.3200158,-27.0191241 0.674372,-1.1290953 1.342726,-2.74640934 2.803385,-2.93698243 z" /><path
     style="fill:#ffffff;fill-opacity:1;stroke:#000000;stroke-width:1;stroke-dasharray:none"
     d="m 13.422206,59.807983 c -1.046465,0.04105 -3.139418,0.123137 -4.9372188,0.35649 -1.797797,0.232974 -3.300397,0.616866 -4.561538,2.069965 -1.261144,1.453137 -2.280754,3.975405 -2.817403,6.07281 -0.53665299,2.097366 -0.59031199,3.769757 -0.60372799,6.086491 -0.01339,2.316772 0.01339,5.277698 1.01965399,7.649274 1.006238,2.371538 2.991822,4.153612 4.856705,5.373661 1.864884,1.22005 3.608963,1.878038 5.2457658,2.248135 1.636802,0.370172 3.166236,0.45234 4.628624,0.219291 1.462392,-0.232973 2.857649,-0.781353 4.76279,-1.782074 1.905144,-1.000721 4.320023,-2.453782 5.80924,-4.098808 1.489221,-1.645026 2.052692,-3.481904 2.18685,-5.3737 0.134165,-1.891757 -0.160983,-3.838281 -0.550066,-5.757478 -0.389079,-1.919197 -0.87205,-3.810879 -1.395294,-5.510747 -0.52324,-1.69983 -1.086719,-3.207733 -1.851452,-4.304417 -0.764734,-1.096647 -1.7307,-1.782074 -2.911338,-2.248173 -1.180638,-0.46606 -2.575921,-0.712829 -3.917553,-0.849877 -1.341636,-0.137199 -2.629591,-0.164563 -3.273576,-0.178245 -0.643985,-0.0152 -0.643996,-0.0152 -1.690462,0.0266 z"
     id="tooth_14_crown" /></svg>
