<?xml version="1.0" encoding="UTF-8" standalone="no"?>
<svg
   width="27.733868"
   height="88.008469"
   viewBox="0 0 27.733868 88.008468"
   version="1.1"
   id="svg1"
   xml:space="preserve"
   xmlns="http://www.w3.org/2000/svg"
   xmlns:svg="http://www.w3.org/2000/svg"><defs
     id="defs1" /><path
     id="tooth_44_root"
     style="fill:#fff5d0;fill-opacity:1;stroke:#000000;stroke-width:1;stroke-dasharray:none"
     d="m 23.158641,30.215325 c -0.504447,0.801534 -1.141718,1.47859 -2.08716,1.983806 -1.795917,0.95969 -4.691174,1.316519 -6.138603,1.494744 -1.44743,0.178262 -1.447486,0.178642 -2.680478,0.164959 -1.232993,-0.0152 -3.6990037,-0.04219 -5.3340736,-0.398715 -0.9660308,-0.21057 -1.6387112,-0.54429 -2.204292,-1.207966 0.2850272,1.052433 0.5941912,2.132726 0.8506116,3.181966 0.6298949,2.577432 0.8992309,4.909287 1.1136645,11.352923 0.2144299,6.443636 0.3748455,16.999547 0.5222712,24.375355 0.1474368,7.375846 0.2812001,11.56965 0.589476,13.845442 0.3082872,2.27583 0.7911725,2.633457 1.4880864,2.455233 0.6969139,-0.178263 1.6081389,-0.892263 2.6267159,-2.441473 1.018574,-1.549211 2.143627,-3.934545 3.081779,-7.457946 0.938156,-3.523439 1.68875,-8.183538 2.693921,-14.613453 1.005168,-6.429877 2.264322,-14.627555 3.108662,-20.207397 0.84434,-5.57988 1.274801,-8.542914 1.891312,-10.846148 0.16137,-0.602938 0.331881,-1.158782 0.478107,-1.68133 z" /><path
     style="fill:#ffffff;fill-opacity:1;stroke:#000000;stroke-width:1;stroke-dasharray:none"
     d="M 12.252968,33.858036 C 11.019976,33.842832 8.5539759,33.816986 6.918906,33.460537 5.2838361,33.104012 4.4797184,32.418633 3.6353788,30.321028 2.7910391,28.223422 1.9065185,24.713819 1.2900186,20.751679 0.67351496,16.78954 0.32506542,12.375131 0.57972091,9.5783494 0.83435411,6.7815675 1.6920886,5.6025648 3.662228,4.3549558 5.6323711,3.1073848 8.7147965,1.7912835 10.993182,1.0646645 c 2.278386,-0.72661901 3.752564,-0.86371765 6.13818,0.1919457 2.385615,1.0556633 5.682478,3.3040126 7.585584,5.141142 1.903101,1.8370913 2.412364,3.2628488 2.50618,5.6894988 0.09382,2.426649 -0.227806,5.854001 -0.790723,8.691909 -0.562898,2.837946 -1.367004,5.086257 -2.117531,6.991917 -0.750527,1.905659 -1.44743,3.468553 -3.243343,4.428244 -1.795916,0.959652 -4.690709,1.316101 -6.138139,1.494326 -1.447429,0.178262 -1.447429,0.178262 -2.680422,0.164579 z"
     id="tooth_44_crown" /></svg>
