<?xml version="1.0" encoding="UTF-8" standalone="no"?>
<svg
   width="70"
   height="70"
   viewBox="0 0 105 105"
   version="1.1"
   id="svg1"
   xml:space="preserve"
   xmlns="http://www.w3.org/2000/svg"
   xmlns:svg="http://www.w3.org/2000/svg"><path
     d="M 70.180673,34.819375 A 24.999993,24.999993 0 0 1 77.500009,52.5 24.999993,24.999993 0 0 1 70.180673,70.175807 h -0.0049 v 0 A 24.999993,24.999993 0 0 1 52.499981,77.499962 24.999993,24.999993 0 0 1 34.824212,70.175807 v 0 A 24.999993,24.999993 0 0 1 27.499991,52.5 24.999993,24.999993 0 0 1 34.833973,34.83402 v 0 a 24.999993,24.999993 0 0 1 17.666008,-7.333982 24.999993,24.999993 0 0 1 17.680663,7.319337 z"
     id="incisal"
     style="stroke-width:3"/><path
     d="M 87.768558,87.763645 70.180673,70.175807 A 24.999993,24.999993 0 0 0 77.500009,52.5 24.999993,24.999993 0 0 0 70.180673,34.819375 l 17.583,-17.587933 A 49.999986,49.999986 0 0 1 102.5,52.5 49.999986,49.999986 0 0 1 87.768558,87.763645 Z"
     id="buccal"
     style="stroke-width:3"/><path
     d="M 17.236355,87.763645 34.824241,70.175807 a 24.999993,24.999993 0 0 0 17.675768,7.324155 24.999993,24.999993 0 0 0 17.675779,-7.324155 l 17.59277,17.587838 A 49.999986,49.999986 0 0 1 52.500009,102.50002 49.999986,49.999986 0 0 1 17.236355,87.763645 Z"
     id="lingual"
     style="stroke-width:3"/><path
     d="M 17.231461,17.236355 34.819346,34.824193 A 24.999993,24.999993 0 0 0 27.500009,52.5 24.999993,24.999993 0 0 0 34.819346,70.180625 l -17.583,17.587839 A 49.999986,49.999986 0 0 1 2.5,52.5 49.999986,49.999986 0 0 1 17.231461,17.236355 Z"
     id="distal"
     style="stroke-width:3"/><path
     d="M 87.763645,17.236355 70.175778,34.824193 A 24.999993,24.999993 0 0 0 52.500009,27.500038 24.999993,24.999993 0 0 0 34.824231,34.824193 L 17.231461,17.236355 A 49.999986,49.999986 0 0 1 52.500009,2.499981 49.999986,49.999986 0 0 1 87.763645,17.236355 Z"
     id="mesial"
     style="stroke-width:3"/></svg>
