<?xml version="1.0" encoding="UTF-8" standalone="no"?>
<svg
   width="70"
   height="70"
   viewBox="0 0 105 85"
   version="1.1"
   id="svg1"
   xml:space="preserve"
   xmlns="http://www.w3.org/2000/svg"
   xmlns:svg="http://www.w3.org/2000/svg"><defs
     id="defs1" /><path
     d="M 77.50004,31.833412 V 53.166678 H 27.500031 V 31.833412 Z"
     id="incisal"
     style="stroke-width:3;stroke-dasharray:none" /><path
     d="M 91.162146,67.765733 77.50004,53.166678 V 31.833412 L 91.162146,17.234458 A 50.000005,39.999999 0 0 1 102.50004,42.500045 50.000005,39.999999 0 0 1 91.162146,67.765733 Z"
     id="buccal"
     style="stroke-width:3;stroke-dasharray:none" /><path
     d="M 13.837925,67.765733 27.500031,53.166678 H 77.50004 L 91.162146,67.765733 A 50.000005,39.999999 0 0 1 52.50004,82.500045 50.000005,39.999999 0 0 1 13.837925,67.765733 Z"
     id="lingual"
     style="stroke-width:3;stroke-dasharray:none" /><path
     d="M 13.837982,17.234357 27.500031,31.833412 V 53.166678 L 13.837982,67.765632 A 50.000005,39.999999 0 0 1 2.5000399,42.500045 50.000005,39.999999 0 0 1 13.837982,17.234357 Z"
     id="distal"
     style="stroke-width:3;stroke-dasharray:none" /><path
     d="M 91.162117,17.234357 77.500068,31.833412 H 27.500031 L 13.837982,17.234357 A 50.000005,39.999999 0 0 1 52.500002,2.5000459 50.000005,39.999999 0 0 1 91.162117,17.234357 Z"
     id="mesial"
     style="stroke-width:3;stroke-dasharray:none" /></svg>
